<svg xmlns="http://www.w3.org/2000/svg" xmlns:xlink="http://www.w3.org/1999/xlink" x="0px" y="0px" viewBox="306.8 -206 310.3 512" enable-background="new 306.8 -206 310.3 512" xml:space="preserve">
<path fill="#d90065" d="M485.3,57.8c72.7,0,131.9-59.2,131.9-131.9S558-206,485.3-206c-0.3,0-0.6,0-0.8,0H376.7c0,0,0,0,0,0 c-12.9,0-23.3,10.4-23.3,23.3v0V34.5v69.8h-23.3c-12.9,0-23.3,10.4-23.3,23.3s10.4,23.3,23.3,23.3h23.3v131.9 c0,12.9,10.4,23.3,23.3,23.3c12.9,0,23.3-10.4,23.3-23.3V150.8h85.3c12.9,0,23.3-10.4,23.3-23.3s-10.4-23.3-23.3-23.3h-85.3V57.8  L485.3,57.8L485.3,57.8z M485.3-159.4c0.3,0,0.5,0,0.8,0c46.7,0.4,84.6,38.5,84.6,85.3c0,47.1-38.3,85.3-85.3,85.3h-85.3v-170.7 H485.3z"/></svg>