<?xml version="1.0" encoding="utf-8"?><svg xmlns="http://www.w3.org/2000/svg" xmlns:xlink="http://www.w3.org/1999/xlink"><symbol viewBox="337.3 -388.8 598.5 487.8" id="adv-index-item1"><circle fill="#FEE699" cx="581.2" cy="-144.9" r="243.9"/><path fill="#132C81" d="M857.5-6.7H414c-10.5 0-19-8.5-19-19V-314c0-10.5 8.5-19 19-19h443.5c10.5 0 19 8.5 19 19v288.3c0 10.5-8.5 19-19 19zM414-321c-3.9 0-7 3.1-7 7v288.3c0 3.9 3.1 7 7 7h443.5c3.9 0 7-3.1 7-7V-314c0-3.9-3.1-7-7-7H414zM915.8 50H357.2c-10.9 0-19.7-8.9-19.7-19.7 0-10.9 8.9-19.8 19.7-19.8h558.6c10.9 0 19.7 8.9 19.7 19.7 0 10.9-8.9 19.8-19.7 19.8zM357.2 22.5c-4.3 0-7.7 3.5-7.7 7.7 0 4.3 3.5 7.8 7.7 7.8h558.6c4.3 0 7.7-3.5 7.7-7.7 0-4.3-3.5-7.8-7.7-7.8H357.2z"/><path fill="#132C81" d="M842.1-23H428c-5 0-9-4-9-9v-266.5c0-5 4-9 9-9h414.1c5 0 9 4 9 9V-32c0 5-4 9-9 9zM428-301.5c-1.7 0-3 1.3-3 3V-32c0 1.7 1.3 3 3 3h414.1c1.7 0 3-1.3 3-3v-266.5c0-1.7-1.3-3-3-3H428z"/><path fill="#DB0066" d="M601.9-142.5h104.8l18.5-66.2h-27.3l-9.8-30.3-40.9 13.2 5.6 17h-1.9L640.8-239 600-225.7l5.6 17h-21.8l-4.5-18.1c-2.3-9.1-10.2-15.5-19.3-15.5h-12.5v7.6H560c5.7 0 10.6 3.8 12.1 9.5l20.1 78.5c-4.1 3-6.9 7.8-6.9 13.4 0 9.1 7.6 16.7 16.7 16.7h102v-7.6H601.9c-4.9 0-9.1-4.2-9.1-9.1 0-5.1 4.2-9.2 9.1-9.2zm81.3-87l6.8 20.4h-29.5l-4.2-11.7 26.9-8.7zm-47.2 0l6.8 20.4h-29.5l-4.2-11.7 26.9-8.7zm79.4 28L701-150.1H598.9l-13.2-51.4h129.7zm-44.7 96.1c-8.7 0-15.9 7.2-15.9 15.9s7.2 15.9 15.9 15.9c9.1 0 15.9-7.2 15.9-15.9 0-8.8-7.1-15.9-15.9-15.9zm0 24.5c-4.9 0-8.7-4.2-8.7-8.7 0-4.9 4.2-8.7 8.7-8.7 4.9 0 8.7 3.8 8.7 8.7.1 5-4.1 8.7-8.7 8.7zm-58.2-24.5c-8.7 0-15.9 7.2-15.9 15.9s7.2 15.9 15.9 15.9 15.9-7.2 15.9-15.9c0-8.8-7.2-15.9-15.9-15.9zm0 24.5c-4.9 0-8.7-4.2-8.7-8.7 0-4.9 4.2-8.7 8.7-8.7s8.7 3.8 8.7 8.7c0 5-4.2 8.7-8.7 8.7z"/></symbol><symbol viewBox="337.3 -388.8 598.5 487.8" id="adv-index-item2"><circle fill="#FEE699" cx="622.2" cy="-144.9" r="243.9"/><path fill="#DB0066" d="M674.1-75.2c1.1 0 2.4-.3 3.7-.9l23-12.6 23 12.6c1.3.6 2.6.9 3.7.9 3.5 0 5.8-2.7 5.7-7.2l-3-25.5 17.2-17.7c3.6-4.7 1.8-9.8-3.9-11.3l-25.6-4.1-11.3-22.7c-1.7-2.5-3.9-3.8-6.1-3.8-2.2 0-4.3 1.2-6 3.5l-13.1 23-23.4 4c-5.7 1.6-7.4 6.8-3.8 11.5l17.2 17.7-3 25.5c-.2 4.4 2.2 7.1 5.7 7.1zm-13.7-54.7l22.2-3.7 3.5-.6 1.8-3.1 12.6-22.1 10.8 21.8 1.7 3.4 3.8.6 24.2 3.9-16.2 16.6-2.5 2.6.4 3.5 2.8 23.3-21.2-11.5-3.6-1.9-3.6 1.9L676-83.7l2.8-23.3.4-3.5-2.5-2.6-16.3-16.8z"/><path fill="#132C81" d="M700.2-11.3c-59.8 0-108.5-48.7-108.5-108.5s48.7-108.5 108.5-108.5 108.5 48.7 108.5 108.5S760-11.3 700.2-11.3zm0-205c-53.2 0-96.5 43.3-96.5 96.5s43.3 96.5 96.5 96.5 96.5-43.3 96.5-96.5-43.3-96.5-96.5-96.5z"/><path fill="#132C81" d="M638-56.1c-.6 0-1.3-.2-1.8-.7-16.8-16.8-26.1-39.2-26.1-63 0-23.6 9.1-45.9 25.8-62.6 1-1 2.6-1 3.6 0s1 2.6 0 3.6c-15.7 15.8-24.3 36.8-24.3 59.1 0 22.4 8.7 43.5 24.6 59.4 1 1 1 2.6 0 3.6-.5.3-1.2.6-1.8.6zm157 30.9c-.6 0-1.3-.2-1.8-.7l-13.4-13.4c-1-1-1-2.6 0-3.6s2.6-1 3.6 0l13.4 13.4c1 1 1 2.6 0 3.6-.5.4-1.2.7-1.8.7zm80.6 95.1c-4.9 0-9.4-1.8-12.9-5.2L800.8 5.6c-7.5-7.1-7.7-19-.6-26.5l1.4-1.5c7.1-7.5 19-7.7 26.5-.6L890 36.1c7.5 7.1 7.7 19 .6 26.5l-1.4 1.5a18.5 18.5 0 0 1-13.1 5.8h-.5zm-60.5-86.1c-1.8 0-3.6.7-4.9 2.1l-1.4 1.5c-2.6 2.7-2.5 7 .2 9.5L871 56c1.3 1.2 3 1.9 4.8 1.8 1.8 0 3.5-.8 4.7-2.1l1.4-1.5c2.6-2.7 2.5-7-.2-9.5l-61.9-59.1c-1.3-1.2-3-1.8-4.7-1.8z"/><path fill="#132C81" d="M497.3 32c-3.3 0-6-2.7-6-6v-324.7c0-.7.3-15.2 12.2-27.1 11.1-11.1 23.7-10.9 26.2-10.8h152l60.8 60.2v41.2c0 3.3-2.7 6-6 6s-6-2.7-6-6v-36.2l-53.7-53.2H528.9c-.3 0-8.9-.7-16.9 7.3-8.3 8.3-8.7 18.6-8.7 18.7V26c0 3.3-2.7 6-6 6z"/><path fill="#132C81" d="M722.8-263.8h-31.9c-14.1 0-18.1-11.9-18.2-18.2v-34.4c0-1.7 1.3-3 3-3s3 1.3 3 3v34.3c0 1.2.7 12.3 12.3 12.3h31.9c1.7 0 3 1.3 3 3s-1.4 3-3.1 3z"/></symbol><symbol viewBox="337.3 -388.8 598.5 487.8" id="adv-index-item3"><circle fill="#FEE699" cx="622.2" cy="-144.9" r="243.9"/><path fill="#132C81" d="M872.1-75.1H511.5c-14.8 0-26.8-12-26.8-26.8v-205.2c0-14.8 12-26.8 26.8-26.8h360.6c14.8 0 26.8 12 26.8 26.8v205.2c0 14.8-12 26.8-26.8 26.8zm-360.6-247c-8.3 0-15 6.7-15 15v205.2c0 8.3 6.7 15 15 15h360.6c8.3 0 15-6.7 15-15v-205.2c0-8.3-6.7-15-15-15H511.5zm351 228.6H518.1c-7.7 0-14-6.3-14-14v-192c0-7.7 6.3-14 14-14h344.4c7.7 0 14 6.3 14 14v192c0 7.7-6.3 14-14 14zm-344.4-214c-4.4 0-8 3.6-8 8v192c0 4.4 3.6 8 8 8h344.4c4.4 0 8-3.6 8-8v-192c0-4.4-3.6-8-8-8H518.1zM754.3-1.6c.5-1 .5-2.1-.1-3.1L742.3-23 741-65.1c-.1-1.7-1.5-3-3.1-2.9-1.7.1-3 1.4-2.9 3.1l1.3 43c0 .5.2 1.1.5 1.5L746.1-6H635.6l8.9-14.8c.3-.4.4-.9.4-1.4l2.7-42.7c.1-1.7-1.2-3.1-2.8-3.2-1.7-.1-3.1 1.2-3.2 2.8L639-23.4 627.8-4.5c-.6.9-.6 2.1 0 3s1.5 1.5 2.6 1.5h121.3c1.1 0 2.1-.6 2.6-1.6zM729 36c0-3.3-2.7-6-6-6H519.5l28.8-12.5H845l37.6 12.7c3.1 1.1 6.5-.6 7.6-3.8 1.1-3.1-.6-6.5-3.8-7.6l-38.5-13c-.6-.2-1.3-.3-1.9-.3H547c-.8 0-1.6.2-2.4.5l-56.4 24.5c-2.6 1.1-4.1 3.9-3.5 6.7.6 2.8 3 4.8 5.9 4.8H723c3.3 0 6-2.7 6-6zM471.5-91c-18.9 0-30.1-1.9-44.2-5.3-4.8-1.2-7.4-3.3-7.9-6.4-.9-5.9 7.3-11.5 9.8-13 1.4-.9 3.3-.4 4.1 1 .9 1.4.4 3.3-1 4.1-4 2.5-7.2 5.9-7 7 0 0 .5.8 3.4 1.5 13.6 3.3 24.5 5.2 42.8 5.2 1.7 0 3 1.3 3 3s-1.3 2.9-3 2.9zm-3.6 93.5c20.2-.3 39.5-8.1 40.3-8.5 1-.4 1.7-1.4 1.8-2.5l5.9-57.5c.2-1.6-1-3.1-2.7-3.3-1.7-.2-3.1 1-3.3 2.7l-5.7 55.7c-5 1.9-20.7 7.2-36.5 7.4-15.5.2-26.4-6.1-29.6-8.2l-10-80.4c-.2-1.6-1.7-2.8-3.3-2.6-1.6.2-2.8 1.7-2.6 3.3l10.1 81.8c.1.8.5 1.5 1.1 2 .5.4 13.4 10.1 33.6 10.1h.9z"/><path fill="#DB0066" d="M791.1 63.7h-3.3c-5.4-.2-34.9-8-36.4-17.1-.2-1.1-.1-2.9 1.6-4.7 5.9-6.4 31.6-11 46.5-9.8 10.6.9 23.3 8 34.6 14.3 7 3.9 13.6 7.6 17.5 8.5 9.4 2 17.1-6.6 18-9 .3-1 .3-1.7-.1-2.5-1.7-3.5-9.4-5.9-13-7.1l-1.2-.4c-17.7-5.8-54.8-8.3-73.7-7.9-18.8.5-33.6 11.5-33.8 11.6-1.3 1-3.2.7-4.2-.6-1-1.3-.7-3.2.6-4.2.7-.5 16.5-12.3 37.2-12.9 19.8-.5 57.2 2.1 75.8 8.1l1.1.4c5.1 1.6 13.7 4.4 16.6 10.1 1.1 2.2 1.2 4.7.4 7.2-1.8 5-12.4 15.5-24.9 12.9-4.8-1-11.5-4.8-19.3-9.1-10.7-6-22.8-12.8-32.1-13.6-15.7-1.3-38.7 4.1-41.5 7.8 2.2 3.8 23.1 11.6 30.5 11.8 6.7.2 40.8-.7 41.2-.8 1.6-.1 3 1.3 3.1 2.9 0 1.7-1.3 3-2.9 3.1-1.3.2-27.5 1-38.3 1zM455-101.8c-1.5 0-2.9-1.2-3-2.8l-5.8-73c-.1-1.7 1.1-3.1 2.8-3.2 1.6-.1 3.1 1.1 3.2 2.8l5.8 73c.1 1.7-1.1 3.1-2.8 3.2h-.2zm-9.9-3.1c1.6-.5 2.5-2.1 2.1-3.7l-17.8-62c-.5-1.6-2.1-2.5-3.7-2.1-1.6.5-2.5 2.1-2.1 3.7l17.8 62c.4 1.3 1.6 2.2 2.9 2.2.2.1.5 0 .8-.1zm24-75.9v76m3-76h-6v76h6v-76z"/></symbol><symbol viewBox="337.3 -388.8 598.5 487.8" id="adv-index-item4"><circle fill="#FEE699" cx="637.2" cy="-144.9" r="243.9"/><path fill="#132C81" d="M865-138.9H754.3c-3.3 0-6-2.7-6-6s2.7-6 6-6H865c1.1 0 2-.9 2-2V-196c0-1.1-.9-2-2-2H754.7c-3.3 0-6-2.7-6-6s2.7-6 6-6H865c7.7 0 14 6.3 14 14v43.1c0 7.7-6.3 14-14 14zm-209.7-6c0-3.3-2.7-6-6-6H536c-1.1 0-2-.9-2-2V-196c0-1.1.9-2 2-2h112.3c3.3 0 6-2.7 6-6s-2.7-6-6-6H536c-7.7 0-14 6.3-14 14v43.1c0 7.7 6.3 14 14 14h113.3c3.3 0 6-2.7 6-6zm13 187.9c0-3.3-2.7-6-6-6H555.7c-3.8 0-7-3.1-7-7v-143.6c0-3.8 3.1-7 7-7h106.6c3.3 0 6-2.7 6-6s-2.7-6-6-6H555.7c-10.5 0-19 8.5-19 19V30c0 10.5 8.5 19 19 19h106.6c3.3 0 6-2.7 6-6zm195.9-13v-143.6c0-10.5-8.5-19-19-19H740c-3.3 0-6 2.7-6 6s2.7 6 6 6h105.3c3.8 0 7 3.1 7 7V30c0 3.8-3.1 7-7 7H740.7c-3.3 0-6 2.7-6 6s2.7 6 6 6h104.6c10.4 0 18.9-8.5 18.9-19z"/><path fill="#DB0066" d="M715.3-139h-27.7c-13.8 0-25-11.2-25-25v-27c0-13.8 11.2-25 25-25h27.7c13.8 0 25 11.2 25 25v27c0 13.8-11.2 25-25 25zm-27.6-71c-10.5 0-19 8.5-19 19v27c0 10.5 8.5 19 19 19h27.7c10.5 0 19-8.5 19-19v-27c0-10.5-8.5-19-19-19h-27.7zm22.7 256h-17.1c-8.1 0-14.6-6.6-14.6-14.6v-146.3c0-8.1 6.6-14.6 14.6-14.6h17.1c8.1 0 14.6 6.6 14.6 14.6V31.4c0 8-6.6 14.6-14.6 14.6zm-17.1-169.5c-4.8 0-8.6 3.9-8.6 8.6V31.4c0 4.8 3.9 8.6 8.6 8.6h17.1c4.8 0 8.6-3.9 8.6-8.6v-146.3c0-4.8-3.9-8.6-8.6-8.6h-17.1zm.7-97.6h-56.3c-32.7 0-59.3-26.6-59.3-59.3s26.6-59.3 59.3-59.3 59.3 26.6 59.3 59.3v56.3c-.1 1.7-1.4 3-3 3zm-56.3-112.6c-29.5 0-53.4 24-53.4 53.4s24 53.4 53.4 53.4h53.4v-53.4c0-29.5-24-53.4-53.4-53.4zM755.2-221h-47.5c-1.7 0-3-1.3-3-3v-47.5c0-27.8 22.7-50.5 50.5-50.5s50.5 22.7 50.5 50.5-22.6 50.5-50.5 50.5zm-44.5-6h44.5c24.5 0 44.5-20 44.5-44.5s-20-44.5-44.5-44.5-44.5 20-44.5 44.5v44.5z"/></symbol><symbol viewBox="337.3 -388.8 598.5 487.8" id="adv-index-item5"><circle fill="#FEE699" cx="631.2" cy="-144.9" r="243.9"/><path fill="#132C81" d="M591 53C525.6 53 472.3-.2 472.3-65.7S525.6-184.3 591-184.3s118.7 53.2 118.7 118.7S656.4 53 591 53zm0-225.3c-58.8 0-106.7 47.9-106.7 106.7C484.3-6.9 532.2 41 591 41S697.7-6.9 697.7-65.7c0-58.8-47.9-106.6-106.7-106.6z"/><path fill="#132C81" d="M591 36.3c-56.2 0-102-45.7-102-102s45.7-102 102-102c56.2 0 102 45.7 102 102s-45.8 102-102 102zm0-198.7c-53.3 0-96.7 43.4-96.7 96.7 0 53.3 43.4 96.7 96.7 96.7s96.7-43.4 96.7-96.7c0-53.3-43.4-96.7-96.7-96.7z"/><path fill="#DB0066" d="M799.9-80.3h-17c-4.2 0-7.6-3.4-7.6-7.6V-101c0-4.2 3.4-7.6 7.6-7.6h17c4.2 0 7.6 3.4 7.6 7.6v13.1c0 4.2-3.4 7.6-7.6 7.6zm-15-9.6h13V-99h-13v9.1z"/><path fill="#132C81" d="M802-148h-21.3c-3.6 0-6.5-2.9-6.5-6.5v-16.4c0-3.6 2.9-6.5 6.5-6.5H802c3.6 0 6.5 2.9 6.5 6.5v16.4c0 3.6-2.9 6.5-6.5 6.5zm-21.3-23.3c-.3 0-.5.2-.5.5v16.4c0 .3.2.5.5.5H802c.3 0 .5-.2.5-.5v-16.4c0-.3-.2-.5-.5-.5h-21.3zm21.3 57.6h-21.3c-3.6 0-6.5-2.9-6.5-6.5v-16.4c0-3.6 2.9-6.5 6.5-6.5H802c3.6 0 6.5 2.9 6.5 6.5v16.4c0 3.6-2.9 6.5-6.5 6.5zM780.7-137c-.3 0-.5.2-.5.5v16.4c0 .3.2.5.5.5H802c.3 0 .5-.2.5-.5v-16.4c0-.3-.2-.5-.5-.5h-21.3zM762-113.7h-21.3c-3.6 0-6.5-2.9-6.5-6.5v-16.4c0-3.6 2.9-6.5 6.5-6.5H762c3.6 0 6.5 2.9 6.5 6.5v16.4c0 3.6-2.9 6.5-6.5 6.5zM740.7-137c-.3 0-.5.2-.5.5v16.4c0 .3.2.5.5.5H762c.3 0 .5-.2.5-.5v-16.4c0-.3-.2-.5-.5-.5h-21.3zM762-47.2h-21.3c-3.6 0-6.5-2.9-6.5-6.5V-70c0-3.6 2.9-6.5 6.5-6.5H762c3.6 0 6.5 2.9 6.5 6.5v16.4c0 3.5-2.9 6.4-6.5 6.4zm-21.3-23.3c-.3 0-.5.2-.5.5v16.4c0 .3.2.5.5.5H762c.3 0 .5-.2.5-.5V-70c0-.3-.2-.5-.5-.5h-21.3zm100.6-43.2H820c-3.6 0-6.5-2.9-6.5-6.5v-16.4c0-3.6 2.9-6.5 6.5-6.5h21.3c3.6 0 6.5 2.9 6.5 6.5v16.4c0 3.6-3 6.5-6.5 6.5zM820-137c-.3 0-.5.2-.5.5v16.4c0 .3.2.5.5.5h21.3c.3 0 .5-.2.5-.5v-16.4c0-.3-.2-.5-.5-.5H820zm-97.4-11h-21.3c-3.6 0-6.5-2.9-6.5-6.5v-16.4c0-3.6 2.9-6.5 6.5-6.5h21.3c3.6 0 6.5 2.9 6.5 6.5v16.4c0 3.6-2.9 6.5-6.5 6.5zm-21.2-23.3c-.3 0-.5.2-.5.5v16.4c0 .3.2.5.5.5h21.3c.3 0 .5-.2.5-.5v-16.4c0-.3-.2-.5-.5-.5h-21.3zM857.7-210h-293c-1.5 0-2.6-1.2-2.6-2.6s1.2-2.6 2.6-2.6h293c1.5 0 2.6 1.2 2.6 2.6s-1.2 2.6-2.6 2.6zM734.6 31c1.5-.1 37.3-3.6 80-26 43.4-22.7 45.7-40 45.7-40.7v-142.6c0-1.5-1.2-2.6-2.6-2.6s-2.6 1.2-2.6 2.6v142.1c-.3 1.4-4.4 16.4-42.9 36.5-40.5 21.2-75.7 25.1-77.9 25.4H679c-1.5 0-2.6 1.2-2.6 2.6s1.2 2.6 2.6 2.6h55.5l.1.1zm-4.4-.1C757.8 25 785.1 2 811.6-37.4c.8-1.2 1.4-2.1 1.8-2.6 2.1-2.9 3.4-3 3.8-3 2-.1 5.2 2.1 9.6 6.9 9.4 10.1 27.7 6.6 28.5 6.4 1.4-.3 2.4-1.7 2.1-3.1-.3-1.4-1.7-2.4-3.1-2.1-.2 0-16.1 3.1-23.5-4.8-5.9-6.3-9.9-8.8-13.8-8.6-3.8.2-6.3 3.1-7.8 5.2-.4.6-1.1 1.5-1.9 2.8-25.7 38.3-51.9 60.5-78.1 66.1-1.4.3-2.3 1.7-2 3.1.3 1.2 1.4 2.1 2.6 2.1 0 0 .2 0 .4-.1zM552.9-196v-91.6c0-3.3 2.7-5.9 5.9-5.9h7.3c3.3 0 5.9-2.7 5.9-5.9s-2.7-5.9-5.9-5.9h-7.3c-9.8 0-17.8 8-17.8 17.8v91.6c0 3.3 2.7 5.9 5.9 5.9s6-2.7 6-6zM887.4 35.1v-322.8c0-9.8-8-17.8-17.8-17.8h-8.9c-3.3 0-5.9 2.7-5.9 5.9s2.7 5.9 5.9 5.9h8.9c3.3 0 5.9 2.7 5.9 5.9V35.1c0 3.3-2.7 5.9-5.9 5.9H663.8c-3.3 0-5.9 2.7-5.9 5.9 0 3.3 2.7 5.9 5.9 5.9h205.8c9.8.1 17.8-7.9 17.8-17.7zm-62.5-334.6c0-3.3-2.7-5.9-5.9-5.9H612.9c-3.3 0-5.9 2.7-5.9 5.9s2.7 5.9 5.9 5.9H819c3.3 0 5.9-2.6 5.9-5.9zm-213.3 47.6c0-6.7-3.7-12.8-9.7-15.9-1.8-.9-3.9-.2-4.9 1.5-.9 1.8-.2 3.9 1.5 4.9 3.6 1.8 5.8 5.5 5.8 9.5 0 5.9-4.8 10.6-10.7 10.6s-10.7-4.8-10.7-10.6c0-1.9.5-3.8 1.5-5.4 1-1.7.4-3.9-1.3-4.9-1.7-1-3.9-.4-4.9 1.3-1.6 2.7-2.5 5.9-2.5 9.1 0 9.8 8 17.9 17.8 17.9s18.1-8.1 18.1-18zm224.3 16.8c4.7-.5 9-2.8 12-6.4 4.3-5.2 5.3-12.2 2.6-18.4-.8-1.8-2.9-2.7-4.7-1.9-1.8.8-2.7 2.9-1.9 4.7 1.6 3.7 1 7.9-1.5 11-1.8 2.2-4.4 3.6-7.2 3.8-2.8.3-5.6-.6-7.8-2.4-2.2-1.8-3.6-4.4-3.8-7.2s.6-5.6 2.4-7.8c1.2-1.5 2.8-2.6 4.6-3.2 1.9-.7 2.8-2.7 2.1-4.6-.7-1.9-2.8-2.8-4.6-2.1-3 1.1-5.6 3-7.7 5.4-3 3.7-4.4 8.3-4 13.1.5 4.7 2.8 9 6.4 12 3.2 2.6 7.2 4.1 11.3 4.1.6 0 1.2 0 1.8-.1zm11.6-53.1c0-7.2-.8-43.1-15.8-43.1-9.3 0-12.3 13.4-13.3 17.7-.7 3.2 1.3 6.4 4.5 7.2 3.2.7 6.4-1.3 7.2-4.5.5-2.4 1.1-4.2 1.6-5.6 1.8 4.9 3.8 14.7 3.8 28.3 0 17.5-3.3 28.6-5.2 31.3-2.6.6-4.6 3-4.6 5.8 0 3.3 2.7 6 6 6 15 0 15.8-35.9 15.8-43.1zm-244.2 35.8c0-2.8-2-5.2-4.6-5.8-1.9-2.6-5.2-13.8-5.2-31.3 0-13.6 2-23.4 3.8-28.3.5 1.4 1.1 3.2 1.6 5.6.7 3.2 3.9 5.3 7.2 4.5 3.2-.7 5.3-3.9 4.5-7.2-1-4.4-4-17.7-13.3-17.7-15 0-15.8 35.9-15.8 43.1s.8 43.1 15.8 43.1c3.3 0 6-2.7 6-6zM591-130.5c-2.7 0-4.8-2.2-4.8-4.8v-16.5c0-2.7 2.2-4.8 4.8-4.8s4.8 2.2 4.8 4.8v16.5c0 2.6-2.1 4.8-4.8 4.8zm4.8 152.4V5.4c0-2.7-2.2-4.8-4.8-4.8s-4.8 2.2-4.8 4.8v16.5c0 2.7 2.2 4.8 4.8 4.8s4.8-2.1 4.8-4.8zM525.5-65c0-2.7-2.2-4.8-4.8-4.8h-16.5c-2.7 0-4.8 2.2-4.8 4.8s2.2 4.8 4.8 4.8h16.5c2.6.1 4.8-2.1 4.8-4.8zm157.2 0c0-2.7-2.2-4.8-4.8-4.8h-16.5c-2.7 0-4.8 2.2-4.8 4.8s2.2 4.8 4.8 4.8h16.5c2.6.1 4.8-2.1 4.8-4.8z"/><path fill="#DB0066" d="M524.9-106.1c0 1.8-1.5 3.3-3.3 3.3-1.8 0-3.3-1.5-3.3-3.3s1.5-3.3 3.3-3.3c1.8 0 3.3 1.5 3.3 3.3zm24.8-31.4c-1.8 0-3.3 1.5-3.3 3.3 0 1.8 1.5 3.3 3.3 3.3 1.8 0 3.3-1.5 3.3-3.3 0-1.8-1.4-3.3-3.3-3.3zM631.8-.1c-1.8 0-3.3 1.5-3.3 3.3s1.5 3.3 3.3 3.3c1.8 0 3.3-1.5 3.3-3.3s-1.5-3.3-3.3-3.3zM660-28.2c-1.8 0-3.3 1.5-3.3 3.3s1.5 3.3 3.3 3.3c1.8 0 3.3-1.5 3.3-3.3s-1.5-3.3-3.3-3.3zM542.5 5.2c-.1 1.8 1.2 3.4 3 3.6 1.8.1 3.4-1.2 3.6-3 .1-1.8-1.2-3.4-3-3.6-1.9-.2-3.5 1.1-3.6 3zm-25.8-30.3c-.1 1.8 1.2 3.4 3 3.6 1.8.1 3.4-1.2 3.6-3s-1.2-3.4-3-3.6c-1.9-.2-3.5 1.2-3.6 3zm140.8-84.4c0 1.8 1.5 3.3 3.3 3.3 1.8 0 3.3-1.5 3.3-3.3 0-1.8-1.5-3.3-3.3-3.3-1.8 0-3.3 1.5-3.3 3.3zm-28.2-28.1c0 1.8 1.5 3.3 3.3 3.3 1.8 0 3.3-1.5 3.3-3.3 0-1.8-1.5-3.3-3.3-3.3-1.8 0-3.3 1.5-3.3 3.3zm-51.5 44.3L565-83.8l-4.8-6.1 17.5-12.9h9.3V-30h-9l-.2-63.3zm34.3 64.1h7.7v-3h-5.4v-11.5h5.4v-3h-7.7v2.2h-14v10.8l6.1.4c2.7.2 4.6.4 5.9.8 1.3.4 1.9.9 1.9 1.7v1.6zm-11.3-7.3v-5h11.3v6.7c-.8-.4-1.8-.7-3.1-.9-1.3-.2-2.8-.4-4.8-.5l-3.4-.3zm13.4-25c-.4-1-.9-1.7-1.4-2.3l-1.9 1.2c.5.5.9 1.2 1.2 2 .3.8.4 1.6.4 2.6 0 1.5-.5 2.6-1.5 3.3-1 .7-2.3 1.1-4 1.1h-.1V-64h-1.6c-2.3 0-4.1.5-5.4 1.6-1.4 1.1-2 2.7-2 4.9 0 1.9.8 3.6 2.3 5 1.5 1.4 3.5 2 5.8 2h.7c2.4 0 4.4-.7 5.9-2s2.2-3.1 2.2-5.5c-.1-1.4-.3-2.5-.6-3.5zm-12.9 1.2c.8-.6 1.8-.9 2.9-.9h.2v7.4h-.1c-1.2-.2-2.3-.6-3.1-1.2-.8-.7-1.2-1.5-1.2-2.6.1-1.2.5-2.1 1.3-2.7zM598.1-82v3h7.1v7.3h-7.1v3h16.3v-3h-6.9V-79h6.9v-3h-16.3zm0-8.9v3h16.3v-7c0-1.9-.5-3.4-1.4-4.5-1-1.1-2.2-1.6-3.7-1.6s-2.7.5-3.6 1.6c-.9 1.1-1.4 2.6-1.4 4.5v4.1h-6.2zm8.5-4c0-1.1.3-1.8.8-2.4.6-.5 1.2-.8 1.9-.8.8 0 1.4.3 1.9.8s.8 1.3.8 2.4v4.1h-5.5v-4.1z"/></symbol><symbol viewBox="253 -388.8 752 487.8" id="adv-item1"><circle fill="#FEE699" cx="565.9" cy="-144.9" r="243.9"/><path fill="#D90065" d="M730.5-388.4c-5.5 0-9.9 4.4-9.9 9.9v195.4c0 5.5 4.4 9.9 9.9 9.9h195.4c5.5 0 9.9-4.4 9.9-9.9 0-50.1-18.2-98.3-51.4-135.9-39.1-44.1-95.2-69.4-153.9-69.4zm9.8 195.4v-175.4c49.5 2.7 96.1 25.1 129.2 62.5 27.8 31.4 43.9 71.2 46.2 112.9H740.3z"/><path fill="#132C81" d="M887.6-122.1c0-5.5-4.4-9.9-9.9-9.9H676.5v-201.4c0-5.5-4.4-9.9-9.9-9.9-122 0-221.1 99.1-221.1 221.1S544.6 99 666.6 99s221-99.2 221-221.1zm-221 201.4c-111 0-201.4-90.4-201.4-201.4 0-107.7 85-196 191.5-201.2v201.1c0 5.5 4.4 9.9 9.9 9.9h201.1C862.5-5.8 774.3 79.3 666.6 79.3z"/></symbol><symbol viewBox="253 -388.8 752 487.8" id="adv-item2"><circle fill="#FEE699" cx="569.9" cy="-144.9" r="243.9"/><path fill="#132C81" d="M266.1-142.8v-112h36.5c11.7 0 20.9 2.5 27.5 7.6 6.6 5.1 9.9 12.6 9.9 22.7 0 4.8-1.5 9.1-4.5 13-3 3.8-6.9 6.7-11.8 8.7 7.3 1 13.1 4.2 17.4 9.5 4.3 5.3 6.4 11.6 6.4 18.9 0 10.3-3.3 18.1-10 23.5-6.7 5.4-15.7 8.1-27.1 8.1h-44.3zm15.1-64.4h24.5c5.6 0 10.2-1.6 13.8-4.7 3.5-3.1 5.3-7.4 5.3-13 0-6.1-1.9-10.6-5.7-13.6-3.8-3-9.3-4.5-16.5-4.5h-21.4v35.8zm0 11.9v40.7h29.2c6.9 0 12.3-1.7 16.1-5.1 3.8-3.4 5.7-8.2 5.7-14.5 0-6.2-1.9-11.2-5.8-15-3.9-3.8-9.2-5.8-15.8-6.1h-29.4zm107.3 4v48.6h-15.2v-112h38.3c12.3 0 21.6 2.7 28.1 8.2 6.5 5.4 9.7 13.3 9.7 23.7 0 5.7-1.5 10.7-4.5 15-3 4.3-7.4 7.6-13.1 10.2 6.2 2 10.6 5.2 13.3 9.7 2.7 4.5 4 10 4 16.7v10.5c0 3.5.4 6.6 1.2 9.4s2.1 5 4 6.8v1.8h-15.6c-2-1.7-3.3-4.3-3.8-7.7-.6-3.4-.8-6.9-.8-10.5v-10.2c0-6.1-1.8-10.9-5.3-14.6s-8.3-5.5-14.2-5.5h-26.1zm0-12h21.6c8.6 0 14.7-1.6 18.5-4.9 3.8-3.3 5.7-8.2 5.7-14.9 0-6.3-1.8-11.2-5.5-14.7s-9.4-5.2-17.1-5.2h-23.2v39.7zm150.1 31.7h-42.2l-10 28.9h-15.5l40.4-112h13l39.6 112h-15.5l-9.8-28.9zm-37.8-12.7h33.5L518-232.4h-.5l-16.7 48.1zm183.9 41.5v-112H720c14.6 0 26.4 4.5 35.3 13.5 8.9 9 13.4 20.6 13.4 34.9v15.3c0 14.3-4.5 25.9-13.4 34.9s-20.7 13.4-35.3 13.4h-35.3zm15.2-100.1v88.3H720c10.4 0 18.5-3.4 24.5-10.2 6-6.8 9-15.6 9-26.2v-15.5c0-10.6-3-19.3-9-26.1-6-6.8-14.1-10.2-24.5-10.2h-20.1zM738.8-5.8c-.5-2.5-.9-4.7-1.2-6.7-.3-1.9-.5-3.9-.5-5.8-2.8 4-6.5 7.3-11 10s-9.4 4-14.7 4c-8.7 0-15.3-2.2-19.8-6.7-4.5-4.4-6.8-10.6-6.8-18.4 0-8 3.2-14.2 9.7-18.7 6.4-4.5 15.2-6.7 26.2-6.7h16.5V-63c0-4.9-1.5-8.7-4.5-11.6-3-2.8-7.2-4.3-12.6-4.3-4.9 0-8.9 1.2-11.9 3.7s-4.5 5.4-4.5 8.8l-14.4.2-.2-.5c-.4-6.1 2.5-11.6 8.5-16.6 6-5 13.8-7.5 23.4-7.5 9.4 0 17 2.4 22.8 7.2 5.7 4.8 8.6 11.7 8.6 20.7v40.1c0 3 .2 5.8.5 8.6s.9 5.5 1.7 8.2h-15.8zm-25.1-11.1c5.5 0 10.4-1.4 14.9-4.2 4.4-2.8 7.3-6.1 8.6-9.7v-13.5h-17c-6.1 0-11 1.5-14.7 4.6-3.7 3.1-5.5 6.7-5.5 10.8 0 3.7 1.2 6.6 3.5 8.8 2.3 2.2 5.7 3.2 10.2 3.2zM794.9-89l1.1 10.9c2.7-3.9 6.2-7 10.3-9.2 4.2-2.2 9-3.3 14.6-3.3s10.3 1.3 14.3 3.8c4 2.6 7 6.4 9 11.5 2.7-4.8 6.1-8.5 10.4-11.3 4.3-2.7 9.3-4.1 15-4.1 8.5 0 15.2 2.9 20.1 8.7 4.9 5.8 7.4 14.6 7.4 26.3v49.8H882v-49.9c0-8.2-1.4-14-4.2-17.4-2.8-3.4-7-5.1-12.6-5.1-5.2 0-9.4 1.8-12.6 5.4-3.2 3.6-5.1 8.1-5.7 13.6v53.5h-15.2v-49.9c0-7.8-1.4-13.5-4.3-17.1s-7.1-5.4-12.5-5.4c-4.6 0-8.4.9-11.4 2.8s-5.3 4.6-6.8 8v61.6h-15.2V-89h13.4zM960.7-4.2c-12 0-21.3-3.8-28-11.5-6.7-7.6-10-17.7-10-30.2v-3.4c0-12 3.4-21.8 10.3-29.7 6.9-7.8 15.3-11.7 25.3-11.7 11.1 0 19.5 3.5 25 10.4s8.3 16.1 8.3 27.6v8h-53.2l-.2.4c0 8.4 1.8 15.1 5.5 20.4 3.7 5.2 9.3 7.8 16.9 7.8 5.1 0 9.6-.7 13.5-2.2 3.9-1.5 7.2-3.5 10-6l5.9 9.8c-3 2.9-6.9 5.3-11.8 7.3-4.7 2.1-10.6 3-17.5 3zm-2.4-74.4c-5.3 0-9.7 2-13.1 6.1-3.5 4.1-5.6 9.3-6.3 15.7l.2.4h37.6v-1.2c0-6.1-1.5-11.1-4.5-15-3.1-4.1-7.7-6-13.9-6zM662.8-3.5h-15.2l-53.9-192.6-.5.3V-3.5H578v-252.1h15.2l53.9 192.4.5-.3v-192.1h15.2V-3.5z"/><path fill="#D90065" d="M861.3-135.6c-5.3 0-9.6-4.3-9.6-9.6 0-123.4-100.4-223.8-223.8-223.8-62.1 0-121.9 26.1-164.1 71.7-3.6 3.9-9.7 4.1-13.5.5-3.9-3.6-4.1-9.7-.5-13.5 22.5-24.3 49.2-43.4 79.3-56.8 31.2-13.9 64.4-21 98.9-21 64.9 0 125.9 25.3 171.8 71.1 45.9 45.9 71.2 106.9 71.2 171.8-.1 5.3-4.4 9.6-9.7 9.6zM628 97.8c-55.8 0-110.3-19.4-153.5-54.6C432 8.4 402.2-40.1 390.6-93.4c-1.1-5.2 2.2-10.3 7.3-11.4 5.2-1.1 10.3 2.2 11.4 7.3C431.5 4.5 523.4 78.6 628 78.6c56.6 0 110.6-21.2 152.1-59.7 3.9-3.6 9.9-3.4 13.5.5 3.6 3.9 3.4 9.9-.5 13.5-45 41.9-103.6 64.9-165.1 64.9z"/></symbol><symbol viewBox="253 -388.8 752 487.8" id="adv-item3"><circle fill="#FEE699" cx="599.9" cy="-144.9" r="243.9"/><path fill="#D90065" d="M418.4 67.5c-3.4 0-6.8-1.8-8.6-4.9C383.1 16.9 369-35.2 369-88.3c0-79.9 31.1-155 87.6-211.4s131.6-87.6 211.4-87.6c48 0 93.8 11 136.3 32.8 40.5 20.8 76.3 51 103.5 87.6 3.3 4.4 2.4 10.7-2 14-4.4 3.3-10.7 2.4-14-2-53.3-71.5-134.9-112.4-223.8-112.4-153.8 0-279 125.2-279 279 0 49.6 13.2 98.2 38.1 140.8 2.8 4.8 1.2 10.9-3.6 13.7-1.6.8-3.4 1.3-5.1 1.3z"/><path fill="#132C81" d="M889.6 17.5c-1.1 0-2.3-.2-3.5-.6-5.1-1.9-7.8-7.7-5.9-12.9 24.6-66.7 16.5-139.1-22.2-198.6-66.9-102.9-205.1-132.2-308-65.3-33.2 21.6-60 51.5-77.6 86.7-2.5 4.9-8.5 6.9-13.4 4.5-4.9-2.5-6.9-8.5-4.5-13.4 19.2-38.3 48.5-71 84.6-94.5 54.3-35.3 119.2-47.4 182.6-33.9 63.4 13.4 117.8 50.8 153.1 105.1 21.2 32.7 34 68.7 38 107.2 3.8 36.7-1 74.5-13.8 109.2-1.5 4-5.3 6.5-9.4 6.5z"/><path fill="#132C81" d="M662.7 99c-5 0-9.4-3.8-9.9-8.9-.6-5.5 3.4-10.4 8.9-11 51.1-5.5 95.4-34 121.5-78.3 45.1-76.5 19.7-175.4-56.8-220.5-24.6-14.5-52.7-22.3-81.1-22.4-5.5 0-10-4.5-10-10s4.5-10 10-10c32 .1 63.5 8.8 91.2 25.2C822.4-186.2 851-75 800.3 11c-14.8 25-34.6 45.5-59 61-23.3 14.7-50.1 24-77.5 27h-1.1z"/><path fill="#D90065" d="M646.8 38.3c-7.1 0-14.2-.6-21.4-1.8-39-6.6-73.1-31.6-91.1-66.9-2.5-4.9-.6-10.9 4.3-13.5 4.9-2.5 10.9-.6 13.5 4.3 15.4 30.1 43.4 50.6 76.7 56.3 6 1 11.9 1.5 17.8 1.5 50.7 0 95.7-36.6 104.4-88.3 3.2-18.6 1.3-37.6-5.3-55.1-2-5.2.7-10.9 5.8-12.9 5.2-2 10.9.7 12.9 5.8 7.9 20.8 10.1 43.5 6.3 65.6-5.6 33.2-23.9 62.2-51.3 81.7-21.5 15.3-46.7 23.3-72.6 23.3z"/></symbol><symbol viewBox="253 -388.8 752 487.8" id="adv-item4"><circle fill="#FEE699" cx="588.9" cy="-144.9" r="243.9"/><path fill="#132C81" d="M742-241H480c-5.5 0-10-4.5-10-10s4.5-10 10-10h262c5.5 0 10 4.5 10 10s-4.5 10-10 10z"/><path fill="#D90065" d="M808.5-141c-3.4 0-6.7-1.7-8.5-4.8L662-372.3c-2.9-4.7-1.4-10.9 3.3-13.7 4.7-2.9 10.9-1.4 13.7 3.3l138 226.5c2.9 4.7 1.4 10.9-3.3 13.7-1.6 1-3.4 1.5-5.2 1.5z"/><path fill="#132C81" d="M755.5-45c-1.8 0-3.5-.5-5.1-1.4-4.7-2.8-6.3-9-3.4-13.7l125.5-209.3c2.8-4.7 9-6.3 13.7-3.4 4.7 2.8 6.3 9 3.4 13.7L764.1-49.9c-1.9 3.2-5.2 4.9-8.6 4.9z"/><path fill="#132C81" d="M891-37.5H641.5c-5.5 0-10-4.5-10-10s4.5-10 10-10H891c5.5 0 10 4.5 10 10s-4.5 10-10 10z"/><path fill="#D90065" d="M711.5 93.8c-3.4 0-6.7-1.7-8.6-4.8L567-134.3c-2.9-4.7-1.4-10.9 3.3-13.7 4.7-2.9 10.9-1.4 13.7 3.3L720 78.6c2.9 4.7 1.4 10.9-3.3 13.7-1.6 1-3.4 1.5-5.2 1.5z"/><path fill="#132C81" d="M496.5-6.5c-1.6 0-3.3-.4-4.8-1.2-4.8-2.7-6.6-8.8-3.9-13.6l126.5-228.5c2.7-4.8 8.8-6.6 13.6-3.9 4.8 2.7 6.6 8.8 3.9 13.6L505.3-11.7c-1.9 3.3-5.3 5.2-8.8 5.2z"/><path fill="#132C81" d="M686 99.3C621 99.3 559.9 74 513.9 28 468-17.9 442.7-79 442.7-144S468-270.1 514-316.1s107.1-71.3 172.1-71.3 126.1 25.3 172.1 71.3S929.5-209 929.5-144 904-17.9 858.1 28.1C812.1 74 751 99.3 686 99.3zm0-466.8c-123.2 0-223.5 100.3-223.5 223.5S562.8 79.5 686 79.5 909.5-20.8 909.5-144 809.2-367.5 686-367.5z"/></symbol><symbol viewBox="253 -388.8 752 487.8" id="adv-item5"><circle fill="#FEE699" cx="565.9" cy="-144.9" r="243.9"/><path fill="#D90065" d="M563 65c-.9 0-1.9-.1-2.9-.4l-298-88.7c-5.3-1.6-8.3-7.1-6.8-12.3l37.3-130c1.5-5.3 7.1-8.4 12.4-6.9s8.4 7.1 6.9 12.4L277.3-40.4l288.5 85.8c5.3 1.6 8.3 7.1 6.7 12.4-1.2 4.4-5.2 7.2-9.5 7.2z"/><path fill="#132C81" d="M579.7 58.3c-2.1 0-4.2-.7-5.9-2L291.1-152.3c-2.1-1.6-3.6-3.9-3.9-6.6-.4-2.6.3-5.3 1.8-7.4l73.3-99.3c3.3-4.4 9.5-5.4 14-2.1 4.4 3.3 5.4 9.5 2.1 14L311-162.4 580.8 36.8l19.6-9.1c5-2.3 11-.1 13.3 4.9 2.3 5 .1 11-4.9 13.3l-25 11.5c-1.3.6-2.7.9-4.1.9z"/><path fill="#132C81" d="M587.7 81.7c-3.2 0-6.4-1.6-8.3-4.4L356.7-254.1c-1.5-2.2-2-4.9-1.5-7.5.5-2.6 2.1-4.9 4.3-6.4l113.3-75.3c4.6-3.1 10.8-1.8 13.9 2.8 3.1 4.6 1.8 10.8-2.8 13.9l-105 69.8 212.4 316 19.8-8.6c5.1-2.2 11 .1 13.2 5.2 2.2 5.1-.1 11-5.2 13.2l-27.4 11.9c-1.3.5-2.7.8-4 .8z"/><path fill="#132C81" d="M579.7 69.8c-4.4 0-8.4-2.9-9.6-7.4L462.7-332.4c-.7-2.6-.3-5.4 1.1-7.8 1.4-2.3 3.7-4 6.4-4.6l128-28.7c5.4-1.2 10.7 2.2 11.9 7.6s-2.2 10.7-7.6 11.9l-117.8 26.4 102 375 21.9-5.9c5.3-1.4 10.8 1.7 12.3 7.1 1.4 5.3-1.7 10.8-7.1 12.3l-31.5 8.5c-.9.3-1.8.4-2.6.4z"/><path fill="#132C81" d="M561.4 2.4c-.4 0-.8 0-1.2-.1-5.5-.6-9.4-5.6-8.8-11.1l43-370.1c.3-2.7 1.7-5.1 3.9-6.8s4.9-2.4 7.6-1.9l124 18.7c5.5.8 9.2 5.9 8.4 11.4-.8 5.5-5.9 9.2-11.4 8.4l-113.8-17.1L571.3-6.4c-.6 5.1-4.9 8.8-9.9 8.8z"/><path fill="#D90065" d="M558.4-8.2c-1.5 0-3-.3-4.5-1.1-4.9-2.5-6.9-8.5-4.5-13.4l172.5-345.4c1.2-2.4 3.3-4.2 5.9-5.1 2.6-.8 5.4-.6 7.8.7l118 63.3c4.9 2.6 6.7 8.7 4.1 13.5-2.6 4.9-8.7 6.7-13.5 4.1L735.3-350 567.4-13.8c-1.8 3.5-5.3 5.6-9 5.6z"/><path fill="#132C81" d="M568.2-35c-2.7 0-5.4-1.1-7.3-3.2-3.8-4-3.5-10.4.5-14.1L842.2-313c4-3.7 10.3-3.5 14.1.5L959-203.2c3.8 4 3.6 10.4-.4 14.1-4 3.8-10.4 3.6-14.1-.4l-95.9-102.1L575-37.7c-1.9 1.8-4.3 2.7-6.8 2.7z"/><path fill="#132C81" d="M628.3 99c-3.8 0-7.4-2.2-9.1-5.9L557-44.1c-1.1-2.4-1.2-5.2-.2-7.7s2.9-4.5 5.4-5.6l374-160.4c2.5-1.1 5.3-1.1 7.8 0s4.5 3.1 5.4 5.6l54.9 143c1.9 5-.5 10.7-5.4 12.8L632.2 98.2c-1.3.5-2.6.8-3.9.8zM579.4-43l54 119L982.2-71.1l-47.7-124.2L579.4-43z"/></symbol><symbol viewBox="253 -388.8 752 487.8" id="adv-item6"><circle fill="#FEE699" cx="588.9" cy="-144.9" r="243.9"/><path fill="#D90065" d="M677.2-387.7c-134.4 0-243.3 108.9-243.3 243.3S542.8 99 677.2 99 920.5-9.9 920.5-144.3s-109-243.4-243.3-243.4zm0 471.5C551.2 83.8 449-18.3 449-144.3s102.1-228.1 228.1-228.1 228.1 102.1 228.1 228.1-102.1 228.1-228 228.1z"/><path fill="#132C81" d="M738-205.4c0-8.4-6.8-16.3-15.2-17.7L616-241.9l1.3-1.3h135.9v152.1h15.2v-152.1c0-8.4-6.8-15.2-15.2-15.2H646.7c-1.3 0-28.7-1.8-38 7.6l-15.2 15.2v174.9c0 8.4 6.8 15.2 15.2 15.2l114.1 20.1c8.4 1.4 15.2-4.3 15.2-12.7v-167.3zM722.8-40.6L608.7-60.7V-228l114.1 20.1v167.3z"/><path fill="#132C81" d="M753.2-121.5v45.6H738v15.2h15.2c8.4 0 15.2-6.8 15.2-15.2v-45.6h-15.2z"/></symbol><symbol viewBox="0 0 31.49 31.49" id="basket-step-arrow"><path d="M21.205 5.007a1.112 1.112 0 0 0-1.587 0 1.12 1.12 0 0 0 0 1.571l8.047 8.047H1.111A1.106 1.106 0 0 0 0 15.737c0 .619.492 1.127 1.111 1.127h26.554l-8.047 8.032c-.429.444-.429 1.159 0 1.587a1.112 1.112 0 0 0 1.587 0l9.952-9.952a1.093 1.093 0 0 0 0-1.571l-9.952-9.953z"/></symbol><symbol viewBox="0 0 885 885" id="bg-round"><path d="M442.5 0C198.1 0 0 198.1 0 442.5S198.1 885 442.5 885 885 686.9 885 442.5 686.9 0 442.5 0zm0 640C333.4 640 245 551.6 245 442.5S333.4 245 442.5 245 640 333.4 640 442.5 551.6 640 442.5 640z"/><path d="M442.5 885.5c-59.8 0-117.8-11.7-172.4-34.8-52.8-22.3-100.1-54.3-140.8-94.9-40.7-40.7-72.6-88.1-94.9-140.8C11.2 560.3-.5 502.3-.5 442.5s11.7-117.8 34.8-172.4c22.3-52.8 54.3-100.1 94.9-140.8 40.7-40.7 88.1-72.6 140.8-94.9C324.7 11.2 382.7-.5 442.5-.5s117.8 11.7 172.4 34.8c52.8 22.3 100.1 54.3 140.8 94.9 40.7 40.7 72.6 88.1 94.9 140.8 23.1 54.6 34.8 112.6 34.8 172.4s-11.7 117.8-34.8 172.4c-22.3 52.8-54.3 100.1-94.9 140.8-40.7 40.7-88.1 72.6-140.8 94.9-54.6 23.3-112.6 35-172.4 35zm0-885C198.8.5.5 198.8.5 442.5s198.3 442 442 442 442-198.3 442-442S686.2.5 442.5.5zm0 640c-109.2 0-198-88.8-198-198s88.8-198 198-198 198 88.8 198 198-88.8 198-198 198zm0-395c-108.6 0-197 88.4-197 197s88.4 197 197 197 197-88.4 197-197-88.4-197-197-197z"/></symbol><symbol viewBox="356.3 -388.8 546.8 487.8" id="btn-basket"><circle cx="600.2" cy="-144.9" r="243.9"/><path d="M546.1-100.1h303l53.6-191.4h-78.9L795.5-379l-118.1 38.3 16.2 49.2H688L658.8-379l-118.1 38.3 16.2 49.2h-63.2L480.5-344c-6.6-26.2-29.5-44.8-55.8-44.8h-36.1v21.9h36.1c16.4 0 30.6 10.9 35 27.4l58 227.1c-12 8.6-19.8 22.7-19.8 38.7 0 26.2 21.9 48.2 48.2 48.2h295.4v-21.9H546.1c-14.3 0-26.2-12.1-26.2-26.2 0-14.5 12.1-26.5 26.2-26.5zm235.3-251.7l19.7 59.1h-85.3l-12.1-33.9 77.7-25.2zm-136.8 0l19.7 59.1H579l-12-33.9 77.6-25.2zm229.7 81L832.8-122H537.4l-38.3-148.8h375.2zM745.3 7.1c-25.2 0-46 20.8-46 46s20.8 46 46 46c26.2 0 46-20.8 46-46-.1-25.2-20.9-46-46-46zm0 71.1c-14.3 0-25.2-12.1-25.2-25.2 0-14.3 12.1-25.2 25.2-25.2 14.3 0 25.2 10.9 25.2 25.2-.1 14.3-12.1 25.2-25.2 25.2zM576.8 7.1c-25.2 0-46 20.8-46 46s20.8 46 46 46 46-20.8 46-46c-.1-25.2-20.9-46-46-46zm0 71.1c-14.3 0-25.2-12.1-25.2-25.2 0-14.3 12.1-25.2 25.2-25.2S602 38.7 602 53c-.1 14.3-12.1 25.2-25.2 25.2z" fill="#132C81"/></symbol><symbol viewBox="351 -388.8 563.7 487.8" id="btn-del"><circle cx="594.9" cy="-144.9" r="243.9"/><path fill="#132C81" d="M856.2-344.5h-77.6v-11.1c0-18.3-14.9-33.2-33.2-33.2H634.6c-18.3 0-33.2 14.9-33.2 33.2v11.1h-77.6c-18.3 0-33.2 14.9-33.2 33.2v22.2c0 18.3 14.9 33.2 33.2 33.2h332.4c18.3 0 33.2-14.9 33.2-33.2v-22.2c0-18.3-14.9-33.2-33.2-33.2zm11.1 55.4c0 6.1-5 11.1-11.1 11.1H523.8c-6.1 0-11.1-5-11.1-11.1v-22.2c0-6.1 5-11.1 11.1-11.1h199.4c6.1 0 11.1-5 11.1-11.1s-5-11.1-11.1-11.1h-99.7v-11.1c0-6.1 5-11.1 11.1-11.1h110.8c6.1 0 11.1 5 11.1 11.1v22.2c0 6.1 5 11.1 11.1 11.1h88.6c6.1 0 11.1 5 11.1 11.1v22.2zM690-167.2c-6.1 0-11.1 5-11.1 11.1V21.2c0 6.1 5 11.1 11.1 11.1s11.1-5 11.1-11.1v-177.3c0-6.1-5-11.1-11.1-11.1zm77.5 0c-6.1 0-11.1 5-11.1 11.1v60.4c0 32.9-2.7 65.9-8.1 98.3l-2.8 16.8c-1 6 3.1 11.7 9.1 12.7.6.1 1.2.2 1.8.2 5.3 0 10-3.8 10.9-9.3l2.8-16.8c5.6-33.6 8.4-67.9 8.4-101.9v-60.4c.1-6.1-4.8-11.1-11-11.1zM634.4 19.3l-2.8-16.8c-5.4-32.4-8.1-65.4-8.1-98.3v-60.4c0-6.1-5-11.1-11.1-11.1s-11.1 5-11.1 11.1v60.4c0 34.1 2.8 68.4 8.4 101.9l2.8 16.8c.9 5.4 5.6 9.3 10.9 9.3.6 0 1.2 0 1.8-.2 6.2-.9 10.2-6.6 9.2-12.7z"/><path fill="#132C81" d="M856.2-233.7c-6.1 0-11.1 5-11.1 11.1v87.6c0 58.9-4.9 118.2-14.6 176.3l-4.3 26c-.9 5.4-5.5 9.3-10.9 9.3H564.7c-5.4 0-10-3.9-10.9-9.3l-4.3-26c-9.7-58.1-14.6-117.4-14.6-176.3v-76.5h277c6.1 0 11.1-5 11.1-11.1s-5-11.1-11.1-11.1H523.8c-6.1 0-11.1 5-11.1 11.1v87.6c0 60.1 5 120.6 14.9 179.9l4.3 26c2.7 16.1 16.5 27.8 32.8 27.8h250.5c16.3 0 30.1-11.7 32.8-27.8l4.3-26c9.9-59.3 14.9-119.8 14.9-179.9v-87.6c.1-6.1-4.9-11.1-11-11.1z"/></symbol><symbol viewBox="0 0 44 44" id="btn-email"><path d="M43 6H1a1 1 0 0 0-1 1v30a1 1 0 0 0 1 1h42a1 1 0 0 0 1-1V7a1 1 0 0 0-1-1zm-1 27.581L29.612 21.194l-1.414 1.414L41.59 36H2.41l13.392-13.392-1.414-1.414L2 33.581V8h40v25.581z"/><path d="M39.979 8L22 25.979 4.021 8H2v.807L21.293 28.1a.999.999 0 0 0 1.414 0L42 8.807V8h-2.021z"/></symbol><symbol viewBox="337.3 -388.8 598.5 487.8" id="btn-icon-cash"><circle fill="#FEE699" cx="581.2" cy="-144.9" r="243.9"/><g fill="#132C81"><path d="M626.7-73l80.5 24.4c-.1.5-.3 1.1-.5 1.6-2.2 5.8-6.6 9.1-13.7 10.3-26.5 4.2-70.4 1.5-70.8 1.5-6.8-.4-12.6 4.7-13 11.5s4.7 12.6 11.5 13c1.9.1 47 2.9 76.2-1.8 29-4.6 37.3-30.2 35.8-46.3-.5-5-3.9-9.2-8.7-10.7l-90.2-27.3c-44.5-13.4-93.3 11.4-95.4 12.4-.2.1-.5.2-.7.4L448-29.7c-5.8 3.5-7.7 11.1-4.2 16.9 2.4 3.8 6.4 5.9 10.6 5.9 2.2 0 4.3-.6 6.4-1.7l89.3-53.8c3.7-2 43-20.8 76.6-10.6z"/><path d="M934-93.6c-7.1-12.9-29.1-33.5-62.6-18.8-31.6 14.1-98.4 46.2-99.1 46.5-6.2 3-8.7 10.3-5.7 16.4s10.4 8.7 16.4 5.7c.7-.3 67.1-32.3 98.4-46.2 8.9-4 16.4-4 22.9 0 .2.1.3.2.5.3L737.4 32.9c-11.9 8.7-27 12.3-41.4 10.1L546.8 19.2c-3.5-.5-7.1.4-9.8 2.7l-37.7 31.5c-5.2 4.3-5.9 12.1-1.5 17.3 2.5 2.9 5.9 4.4 9.4 4.4 2.8 0 5.5-.9 7.9-2.9l33.4-27.9 143.8 23c20.9 3.4 42.8-1.9 59.9-14.5L930.6-77.8c4.8-3.7 6.3-10.4 3.4-15.8zm-228.1-14.2c19.2 0 37.1-7.5 50.8-21 28-28 28-73.4 0-101.4-13.5-13.5-31.6-21-50.8-21-19.2 0-37.1 7.5-50.8 21-28 28-28 73.4 0 101.4 13.7 13.5 31.7 21 50.8 21zm-33.3-105c8.9-8.9 20.7-13.8 33.3-13.8 12.6 0 24.4 4.9 33.3 13.8 18.4 18.4 18.4 48.3 0 66.7-8.9 8.9-20.7 13.8-33.3 13.8-12.6 0-24.4-4.9-33.3-13.8-18.4-18.4-18.4-48.4 0-66.7zM790.2-248c15 0 29-5.8 39.6-16.4 21.8-21.8 21.8-57.3 0-79.2-10.6-10.6-24.6-16.4-39.6-16.4s-29 5.8-39.6 16.4c-21.8 21.8-21.8 57.3 0 79.2 10.5 10.7 24.7 16.4 39.6 16.4zM768-326.2c5.9-5.9 13.8-9.2 22.3-9.2s16.3 3.3 22.3 9.2c12.2 12.2 12.2 32.2 0 44.4-5.9 5.9-13.8 9.2-22.3 9.2s-16.3-3.3-22.3-9.2c-12.2-12.2-12.2-32.1 0-44.4z"/></g></symbol><symbol viewBox="337.3 -388.8 598.5 487.8" id="btn-icon-checking"><circle fill="#FEE699" cx="581.2" cy="-144.9" r="243.9"/><path fill="#132C81" d="M924.9-229.8h-36.4c3.5-12.2 1.5-25.6-6-36.4l14.4-14.4c2.1-2.1 3.3-5 3.3-8 0-2.4-.8-4.8-2.3-6.7l25.2-25.2c2.1-2.1 3.3-5 3.3-8s-1.2-5.8-3.3-8l-20.3-20.3c-2.1-2.1-5-3.3-8-3.3s-5.8 1.2-8 3.3l-25.2 25.2c-4.4-3.3-10.7-3-14.7 1L746.4-229.8H382.5c-6.2 0-11.3 5-11.3 11.3V57.7c0 6.2 5 11.3 11.3 11.3h542.4c6.2 0 11.3-5 11.3-11.3v-276.3c-.1-6.2-5.1-11.2-11.3-11.2zm-30-103l4.4 4.4-17.2 17.2-4.4-4.4 17.2-17.2zM855-306.6l18 18L680.6-96.2l-18-18L855-306.6zm8.8 76.8H846l19.9-19.9c2.8 6.4 2.1 14-2.1 19.9zM664.7-80.2l-43.5 43.5c-2.1 2.1-4.8 3.2-7.7 3.2s-5.7-1.1-7.7-3.2l-2.5-2.5c-4.3-4.3-4.3-11.2 0-15.5l43.5-43.5 17.9 18zM913.6 46.5H393.8v-253.8H724L587.3-70.7c-10.7 10.7-12.6 27-5.7 39.6l-9 9H442.5c-6.2 0-11.3 5-11.3 11.3S436.2.5 442.5.5h134.7c3.3 0 6.3-1.5 8.4-3.8l11.9-11.8c4.9 2.6 10.3 4.1 16 4.1 8.9 0 17.3-3.5 23.7-9.8l186.5-186.5h18.2l-38.4 38.4c-4.4 4.4-4.4 11.5 0 15.9 2.2 2.2 5.1 3.3 8 3.3 2.9 0 5.8-1.1 8-3.3l54.3-54.3h40l-.2 253.8z"/><path fill="#132C81" d="M821.5-22h-82.2c-6.2 0-11.3 5-11.3 11.3S733 .6 739.3.6h82.2c6.2 0 11.3-5 11.3-11.3s-5-11.3-11.3-11.3zm48 0h-6.9c-6.2 0-11.3 5-11.3 11.3S856.3.6 862.6.6h6.9c6.2 0 11.3-5 11.3-11.3S875.7-22 869.5-22zM577.2-172.7H442.5c-6.2 0-11.3 5-11.3 11.3s5 11.3 11.3 11.3h134.7c6.2 0 11.3-5 11.3-11.3-.1-6.3-5.1-11.3-11.3-11.3zm0 49.1H442.5c-6.2 0-11.3 5-11.3 11.3s5 11.3 11.3 11.3h134.7c6.2 0 11.3-5 11.3-11.3s-5.1-11.3-11.3-11.3z"/></symbol><symbol viewBox="337.3 -388.8 598.5 487.8" id="btn-icon-courier"><circle fill="#FEE699" cx="581.2" cy="-144.9" r="243.9"/><g fill="#132C81"><path d="M935.6 51.5l-12.1-63.6v-69.2c0-1.9 0-3.7-.1-5.6v-1.4c-.1-1.9-.1-3.7-.2-5.5v-.2c-.1-1.8-.2-3.6-.3-5.3l-.1-1.4c-.1-1.8-.3-3.6-.5-5.5v-.4l-.6-5.1-.2-1.4c-.2-1.8-.5-3.5-.7-5.3l-.1-.6c-.2-1.6-.5-3.2-.8-4.7l-.3-1.5c-.3-1.7-.6-3.4-1-5.1l-.2-.9c-.3-1.5-.6-3-1-4.4l-.3-1.5c-.4-1.7-.8-3.3-1.2-5l-.3-1c-.4-1.4-.7-2.7-1.1-4.1l-.4-1.6c-.5-1.6-.9-3.2-1.4-4.8-.1-.3-.2-.5-.3-.8l-.1-.5c-.4-1.3-.8-2.5-1.3-3.9-.2-.5-.3-1-.5-1.5-.5-1.5-1.1-3.1-1.6-4.6-.1-.3-.2-.6-.4-1l-.2-.5c-.4-1.2-.9-2.3-1.3-3.5-.2-.6-.4-1.1-.7-1.7-.6-1.5-1.2-2.9-1.8-4.4l-.7-1.5c-.5-1.1-.9-2.1-1.4-3.2l-.1-.2c-.2-.5-.5-1-.7-1.5-.6-1.4-1.3-2.8-2-4.2l-.8-1.7c-.5-1-1-2-1.5-2.9l-.2-.3c-.3-.5-.5-1-.8-1.5-.7-1.3-1.4-2.7-2.1-4-.3-.5-.5-.9-.8-1.4l-.2-.4-1.5-2.7-.2-.4-.9-1.5-.1-.2c0-.1-.1-.2-.2-.3-6.8-11.7-14.7-22.9-23.3-33.3l-.4-.5c-1.2-1.5-2.5-3-3.8-4.4l-.8-.9c-1.2-1.3-2.4-2.7-3.6-4l-.9-.9c-1.2-1.3-2.5-2.6-3.8-3.9-3.1-3.2-8.3-3.3-11.5-.1-3.2 3.1-3.3 8.3-.1 11.5 1.2 1.2 2.4 2.4 3.5 3.7l.8.9c1.1 1.2 2.3 2.5 3.3 3.7l.8.8c1.2 1.4 2.4 2.7 3.5 4.1l.4.5c8.1 9.8 15.5 20.3 21.9 31.3 0 .1.1.1.1.2l.1.1c.3.4.5.9.8 1.3l.2.4c.5.8.9 1.7 1.4 2.5l.2.4c.2.4.5.9.7 1.3.7 1.2 1.3 2.5 2 3.7.2.5.5.9.7 1.4l.2.3c.5.9.9 1.8 1.4 2.7l.8 1.6 1.8 3.9c.2.5.4.9.6 1.4l.1.2c.4 1 .9 2 1.3 3l.6 1.5c.6 1.4 1.1 2.7 1.7 4.1.2.5.4 1.1.6 1.6l1.2 3.3.5 1.3c.5 1.4 1 2.8 1.5 4.3.2.5.3.9.5 1.5.4 1.2.8 2.4 1.2 3.5l.4 1.2c.5 1.5.9 3 1.3 4.5l.4 1.5c.4 1.3.7 2.6 1 3.8l.3 1c.4 1.5.8 3.1 1.1 4.6.1.5.2.9.3 1.4.3 1.4.6 2.8.9 4.1l.2.8.9 4.8.2 1.4c.3 1.5.5 2.9.7 4.4l.1.6c.2 1.6.5 3.3.7 4.9l.2 1.3c.2 1.6.4 3.1.5 4.7v.4c.2 1.7.3 3.4.5 5.1l.1 1.3c.1 1.7.2 3.3.3 5v.3c.1 1.7.1 3.4.2 5.2v1.3c0 1.7.1 3.5.1 5.2v46c-.1-.1-.3-.2-.4-.3-.5-.3-1-.6-1.5-1-.3-.2-.6-.4-.9-.5-.6-.3-1.1-.7-1.7-1-.3-.2-.5-.3-.8-.5-.6-.4-1.3-.7-2-1.1-.2-.1-.4-.2-.7-.4-.8-.4-1.7-.9-2.6-1.3-.1 0-.2-.1-.2-.1-2-1-4.1-1.9-6.3-2.9-1.1-.5-2.2-.9-3.3-1.4-.2-.1-.4-.1-.5-.2-1-.4-2-.8-3-1.1-.3-.1-.5-.2-.8-.3-.9-.3-1.9-.7-2.9-1l-.9-.3c-1-.3-1.9-.7-2.9-1-.3-.1-.6-.2-1-.3-1-.3-2-.6-3.1-1-.3-.1-.6-.2-1-.3-1.1-.3-2.2-.6-3.3-1l-.9-.3c-1.2-.3-2.4-.7-3.6-1-.2-.1-.5-.1-.7-.2-1.4-.4-2.8-.7-4.2-1.1-.1 0-.1 0-.2-.1-2.6-.7-5.2-1.3-7.9-1.9v-24.7c0-64.6-17.4-125.4-48.9-171.2-10.7-15.6-22.7-28.8-35.5-39.6l3.6 1.5s.1 0 .1.1l.2.1c1.8.8 3.5 1.5 5.3 2.3l1 .4c1.5.7 3.1 1.5 4.6 2.2l1.1.5c1.5.8 3 1.5 4.5 2.3l.9.5c1.6.9 3.3 1.8 4.9 2.7l.4.2c5.4 3.1 10.7 6.4 15.8 9.9l.5.3c1.5 1 3 2.1 4.5 3.2l.8.6c1.4 1 2.8 2 4.1 3.1l.8.6 4.2 3.3.6.5c3.5 2.8 8.6 2.3 11.4-1.1 2.8-3.5 2.3-8.6-1.1-11.4l-.7-.5c-1.5-1.2-3-2.4-4.5-3.5l-.9-.7c-1.5-1.1-2.9-2.2-4.4-3.3l-.8-.6c-1.6-1.1-3.2-2.3-4.8-3.4l-.5-.4c-5.5-3.8-11.2-7.3-16.9-10.6l-.5-.3c-1.7-1-3.5-1.9-5.2-2.9l-1-.5c-1.6-.8-3.2-1.7-4.8-2.5l-1.2-.6c-1.6-.8-3.3-1.6-4.9-2.4l-1-.5c-1.9-.9-3.8-1.7-5.7-2.5l-.3-.1c-4.1-1.8-8.4-3.4-12.6-5l-.5-.2c-1.9-.7-3.9-1.4-5.8-2l-1.3-.4c-1.6-.5-3.3-1.1-5-1.6-.5-.2-1.1-.3-1.6-.5-1.6-.5-3.2-.9-4.8-1.4l-1.6-.4c-1.7-.4-3.4-.9-5.1-1.3l-.4-.1c-.3-.1-.7-.2-1-.2-2.1-.5-4.2-1-6.2-1.4l-.3-.1c-2.3-.5-4.6-.9-6.8-1.3H722c-2-.4-4.1-.7-6.2-1-.4-.1-.8-.1-1.1-.2l-.7-.1c-.6-.1-1.2-.2-1.8-.2v-10.7c0-12.6-10.2-22.8-22.8-22.8h-19.6c-12.6 0-22.8 10.2-22.8 22.8v10.7c-.6.1-1.2.1-1.8.2l-.7.1c-.4.1-.8.1-1.1.2-2.1.3-4.2.6-6.3 1h-.3c-2.2.4-4.5.8-6.8 1.3h-.2c-2 .4-4.1.9-6.2 1.4-.3.1-.7.2-1 .2l-.4.1c-1.7.4-3.4.8-5.1 1.3l-1.7.5c-1.6.4-3.2.9-4.8 1.4-.5.2-1.1.3-1.6.5-1.7.5-3.3 1-5 1.6l-1.3.4c-1.9.6-3.8 1.3-5.9 2l-.3.1c-4.2 1.5-8.5 3.2-12.6 5l-.3.1c-1.9.8-3.8 1.6-5.6 2.5l-1 .5c-1.7.8-3.3 1.6-5 2.4l-1.1.6c-1.6.8-3.2 1.6-4.8 2.5l-1 .5c-1.7.9-3.5 1.9-5.2 2.9l-.5.3c-5.8 3.3-11.5 6.9-17 10.6l-.5.3c-1.6 1.1-3.2 2.3-4.8 3.4l-.9.6c-1.5 1.1-3 2.2-4.4 3.3l-.9.7c-1.5 1.2-3 2.3-4.5 3.5l-.6.5c-5.1 4.2-10.2 8.6-15 13.3l-.1.1c-1.4 1.4-2.9 2.8-4.4 4.4l-.7.7c-1.3 1.3-2.5 2.6-3.8 3.9l-.9.9c-1.2 1.3-2.4 2.6-3.6 4l-.8.9c-1.3 1.5-2.5 2.9-3.8 4.4l-.4.5c-8.7 10.4-16.5 21.6-23.3 33.3-.1.1-.1.2-.2.3l-.2.3c-.3.5-.6 1-.8 1.5l-.2.4-1.5 2.7-.2.4c-.3.5-.5.9-.8 1.4-.7 1.3-1.4 2.7-2.1 4-.3.5-.5 1-.8 1.5l-.2.3c-.5 1-1 2-1.5 2.9l-.8 1.7c-.7 1.4-1.3 2.8-2 4.2-.2.5-.5 1-.7 1.5l-.1.3c-.5 1.1-.9 2.1-1.4 3.2l-.2.5c-.2.3-.3.7-.4 1-.6 1.5-1.2 2.9-1.8 4.4-.2.6-.4 1.1-.7 1.7-.5 1.2-.9 2.3-1.3 3.5l-.2.5c-.1.3-.2.6-.4.9-.6 1.5-1.1 3.1-1.6 4.6-.2.5-.3 1-.6 1.6-.4 1.3-.8 2.5-1.2 3.8l-.1.4c-.1.3-.2.5-.2.8-.5 1.6-1 3.2-1.4 4.8-.1.5-.3 1-.4 1.4v.1c-.4 1.4-.8 2.7-1.1 4.1l-.3 1c-.4 1.6-.8 3.3-1.2 5l-.3 1.5c-.3 1.5-.7 3-1 4.4l-.2.8c-.3 1.7-.7 3.4-1 5.1l-.3 1.4c-.3 1.6-.5 3.1-.8 4.7l-.1.6c-.3 1.8-.5 3.5-.7 5.3l-.2 1.4c-.2 1.7-.4 3.3-.6 5.1v.4c-.2 1.8-.3 3.6-.5 5.4l-.1 1.4c-.1 1.8-.2 3.5-.3 5.3v.2c-.1 1.8-.2 3.7-.2 5.5v1.4c0 1.9-.1 3.7-.1 5.6v69.2l-12.1 63.5c-.1.5-.1 1-.1 1.5 0 .7 0 1.4.1 2.2 0 .2.1.4.1.5.1.6.2 1.2.3 1.7 0 .2.1.3.1.5.2.7.5 1.4.8 2 .1.2.2.4.2.5.3.5.5 1 .9 1.5.1.1.2.3.3.5.4.6.9 1.1 1.3 1.7.1.1.2.3.4.4.4.4.8.8 1.2 1.1.1.1.3.2.4.3.5.4 1.1.8 1.7 1.2.1.1.2.1.3.2.5.3 1 .6 1.5.8l.4.2c1.1.5 2.4 1 3.8 1.4l.3.1h.2c.6.2 1.1.3 1.7.4.1 0 .2.1.4.1.6.1 1.3.3 2 .4l.5.1c.6.1 1.1.2 1.7.3l.4.1c.7.1 1.4.2 2.1.2h.5c.6 0 1.2.1 1.8.1h.6c.7 0 1.5.1 2.3.1h5.8c.8 0 1.6 0 2.4-.1h.8c.7 0 1.4-.1 2.2-.1h.5c.9-.1 1.7-.1 2.6-.2h.1l.8-.1c.6 0 1.2-.1 1.8-.1l1.2-.1c.9-.1 1.8-.2 2.7-.2l4.3-.4c.8-.1 1.7-.2 2.6-.3l6.3-.7c1.2-.2 2.5-.3 3.7-.5l3.5-.5c9.2-1.2 19.3-2.7 30-4.3 6.9-1 14.2-2.1 21.6-3.2 4.4-.6 7.5-4.7 6.9-9.2-.6-4.4-4.7-7.5-9.2-6.9-7.5 2-14.7 3.1-21.7 4.1-10.6 1.6-20.7 3.1-29.8 4.3l-3.5.5c-1.2.2-2.4.3-3.7.5l-6.1.7c-.8.1-1.6.2-2.5.3l-4.1.4c-.9.1-1.7.2-2.6.2l-1.1.1c-.6 0-1.1.1-1.7.1l-.9.1c-.8.1-1.7.1-2.4.2h-.6c-.7 0-1.3.1-2 .1h-.7c-.7 0-1.4.1-2.1.1h-5.1c-.7 0-1.3 0-1.9-.1h-.5c-.5 0-1-.1-1.3-.1h-.5c-.5 0-1.1-.1-1.6-.2H446c-.4-.1-.8-.1-1.2-.2l-.4-.1c-.4-.1-.8-.2-1.3-.2h-.1c-.3-.1-.7-.2-1-.3l-.2-.1c-.6-.2-1.1-.4-1.4-.5l-.2-.1c-.1-.1-.3-.1-.4-.2h-.1l-.1-.1 12-62.9v-.4c0-.1 0-.3.1-.4v-.8c0-5.8 13.2-18.7 62.7-29.9 3.7-.8 7.6-1.7 11.5-2.4 36.8-7.3 82.3-11.7 130.8-12.8h.7c1.6 0 3.2-.1 4.8-.1h1.7c1.3 0 2.6 0 3.8-.1h22.6c1.8 0 3.6 0 5.3.1h.2c53.8.9 104.3 5.9 143.6 14.3 1.5.3 3 .6 4.4 1 50.2 11 63.4 23.9 63.4 29.7v.8c0 .1 0 .3.1.4v.4l12 62.9-.1.1-.1.1c-.1.1-.2.1-.4.2l-.2.1c-.4.2-.9.4-1.5.6l-.2.1c-.3.1-.6.2-1 .2h-.1c-.4.1-.8.2-1.2.2l-.4.1c-.4.1-.8.1-1.2.2h-.3c-.5.1-1 .1-1.6.2h-.3c-.5 0-.9.1-1.5.1h-.4c-.6 0-1.3.1-1.9.1h-5c-.7 0-1.4 0-2.2-.1h-.7c-.6 0-1.3-.1-1.9-.1h-.6c-.8 0-1.6-.1-2.5-.2l-.9-.1c-.5 0-1.1-.1-1.7-.1l-1.1-.1c-.8-.1-1.7-.2-2.6-.2l-4.1-.4c-.8-.1-1.6-.2-2.5-.3l-6.1-.7c-1.2-.1-2.4-.3-3.6-.5l-3.5-.5c-9.1-1.2-19.2-2.7-29.9-4.3-13.4-2-28.6-4.2-44.5-6.3L763.6 38l-.8-.1c-2.7-.3-5.4-.6-8.1-.8l-2.4-.2c-2.7-.3-5.4-.5-8.1-.7l-2.4-.2c-2.8-.2-5.6-.5-8.4-.7l-1.9-.1c-2.8-.2-5.6-.4-8.3-.6l-1.1-.1c-3-.2-6.1-.3-9.1-.5l-1.9-.1c-3-.1-6-.3-9-.4l-1.9-.1c-3.1-.1-6.2-.2-9.3-.2h-1.5c-3.7-.1-6.9-.1-10-.1-3 0-6.2 0-9.9.1H668c-3.1.1-6.2.1-9.3.2l-1.9.1c-3 .1-6 .2-9 .4l-1.9.1c-3.1.1-6.1.3-9.1.5l-1.1.1-8.4.6-1.9.1c-2.8.2-5.6.4-8.4.7l-2.4.2c-2.7.2-5.4.5-8.1.7l-2.4.2c-2.7.3-5.4.5-8.1.8l-27.2 3.2c-4.4.5-7.6 4.6-7.1 9s4.6 7.6 9 7.1l26.3-3.1.7-.1c2.6-.3 5.3-.5 8-.8l2.3-.2c2.6-.3 5.3-.5 8-.7l2.4-.2c2.8-.2 5.5-.5 8.3-.7l1.8-.1c2.7-.2 5.5-.4 8.2-.6l1.1-.1c3-.2 5.9-.3 9-.5l1.8-.1c2.9-.1 5.9-.3 8.8-.4l1.9-.1c3-.1 6-.2 9-.2h1.4c3.6-.1 6.7-.1 9.7-.1 2.9 0 6 0 9.7.1h1.4c3 .1 6 .1 9 .2l1.9.1c2.9.1 5.9.2 8.8.4l1.8.1c3 .1 6 .3 8.9.5l1.1.1c2.7.2 5.5.4 8.2.6l1.8.1c2.8.2 5.5.4 8.3.7l2.3.2c2.7.2 5.3.5 8 .7l2.3.2c2.7.3 5.3.5 8 .8l30.4 3.6c15.7 2.1 30.8 4.3 44.2 6.3 10.7 1.6 20.8 3.1 30.1 4.3l3.5.5c1.3.2 2.5.3 3.7.5l6.3.7c.9.1 1.7.2 2.6.3l4.3.4c.9.1 1.8.2 2.7.2l1.2.1c.6 0 1.2.1 1.7.1l.9.1h.1c.9.1 1.8.1 2.7.2h.6c.7 0 1.4.1 2.1.1h.8c.8 0 1.6.1 2.4.1h5.7c.8 0 1.5 0 2.3-.1h.5c.6 0 1.3-.1 1.9-.1h.5c.7-.1 1.5-.1 2.1-.2l.5-.1 1.8-.3.5-.1c.7-.1 1.3-.2 1.9-.4.1 0 .2-.1.3-.1.6-.1 1.2-.3 1.7-.4h.2l.3-.1c1.3-.4 2.6-.9 3.8-1.5l.4-.2c.5-.3 1-.5 1.5-.8.1-.1.3-.2.3-.2.6-.4 1.1-.8 1.6-1.2.1-.1.3-.2.4-.3.5-.4.9-.8 1.2-1.2l.4-.4c.5-.5.9-1.1 1.4-1.7.1-.1.2-.3.3-.4.3-.5.6-1 .8-1.5.1-.2.2-.4.2-.5.3-.7.6-1.4.8-2.1 0-.1.1-.3.1-.4.1-.5.3-1.1.4-1.7 0-.2 0-.3.1-.6.1-.8.1-1.4.1-2.1.5-.3.5-.8.4-1.3zM669.9-340.1h19.6c3.7 0 6.6 3 6.6 6.6v9c-.7 0-1.4-.1-2.2-.1h-.7l-6.3-.3h-14.4c-2.2.1-4.3.2-6.5.3-.9.1-1.8.1-2.7.2v-9c0-3.7 3-6.7 6.6-6.7zM509.5-81.3v24.7c-2.7.6-5.3 1.3-7.9 1.9-.1 0-.1 0-.2.1-1.4.4-2.9.7-4.2 1.1-.2.1-.5.1-.7.2-1.2.3-2.4.7-3.6 1l-.9.3c-1.1.3-2.2.6-3.3 1-.3.1-.6.2-1 .3-1 .3-2.1.6-3.1 1-.3.1-.6.2-1 .3-1 .3-2 .7-2.9 1l-.9.3c-1 .3-1.9.7-2.9 1-.3.1-.5.2-.8.3-1 .4-2 .7-3 1.1-.2.1-.4.1-.5.2-3.5 1.4-6.7 2.8-9.7 4.2-.1 0-.2.1-.2.1-.9.4-1.7.9-2.6 1.3-.2.1-.4.2-.7.4-.7.4-1.4.7-2 1.1-.3.2-.5.3-.8.5-.6.3-1.1.7-1.7 1-.3.2-.6.4-.9.5-.5.3-1 .6-1.5 1-.1.1-.3.2-.4.3v-46c0-1.7 0-3.5.1-5.2v-1.3c0-1.7.1-3.4.2-5.2v-.1c.1-1.7.2-3.3.3-5l.1-1.3c.1-1.7.3-3.4.4-5v-.4c.2-1.6.3-3.1.5-4.7l.2-1.3c.2-1.6.4-3.3.7-4.9l.1-.6c.2-1.5.5-2.9.7-4.4l.2-1.3.9-4.8.2-.8c.3-1.4.6-2.8.9-4.1l.3-1.4c.4-1.6.7-3.1 1.1-4.6l.3-1c.3-1.3.7-2.6 1-3.8v-.1c.1-.4.2-.9.4-1.3.4-1.5.9-3 1.3-4.5l.4-1.1c.4-1.2.8-2.4 1.2-3.7.2-.5.3-.9.5-1.4.5-1.4 1-2.9 1.5-4.3l.5-1.3 1.2-3.3c.2-.5.4-1.1.6-1.6.5-1.4 1.1-2.7 1.7-4.1l.6-1.5c.4-1 .9-2 1.3-3l.1-.3c.2-.5.4-.9.6-1.4l1.8-3.9.8-1.6c.4-.9.9-1.8 1.4-2.7l.2-.3c.2-.5.5-.9.7-1.4.6-1.2 1.3-2.5 2-3.7.2-.4.5-.9.7-1.3l.2-.4c.5-.8.9-1.7 1.4-2.5l.2-.4c.3-.4.5-.9.8-1.3l.1-.1c0-.1.1-.2.1-.2 6.4-11 13.7-21.5 21.9-31.3l.4-.5c1.2-1.4 2.3-2.8 3.5-4.1l.7-.8c1.1-1.2 2.2-2.5 3.4-3.7l.8-.9c1.2-1.2 2.3-2.5 3.5-3.7l.7-.7c1.4-1.4 2.8-2.8 4.1-4l.2-.2c4.4-4.3 9.1-8.4 14-12.4l.6-.5 4.2-3.3.8-.6c1.4-1 2.7-2.1 4.1-3.1l.8-.6c1.5-1.1 3-2.1 4.5-3.2l.5-.3c5.1-3.5 10.5-6.8 15.9-9.9l.4-.2c1.6-.9 3.2-1.8 4.9-2.7l.9-.5c1.5-.8 3-1.6 4.5-2.3l1.1-.5c1.5-.8 3.1-1.5 4.6-2.2l1-.4c1.7-.8 3.5-1.6 5.3-2.3l.2-.1h.1l3.6-1.5c-12.9 10.7-24.8 24-35.5 39.6-31.4 45.2-48.8 106-48.8 170.6zM833.7-60c-36.3-7-80.3-11.3-127.4-12.5h-.4c-1.5 0-3-.1-4.5-.1h-1.3c-1.3 0-2.6 0-4-.1h-33.2c-1.1 0-2.3 0-3.4.1h-1.9c-1.3 0-2.6.1-3.9.1h-1.2c-1.5 0-3 .1-4.5.1h-.2c-44.9 1.4-87.1 5.6-122 12.4v-21.3c0-125 68.6-226.8 153.1-227.5h1.9c84.5.8 153 102.5 153 227.5l-.1 21.3z"/><path d="M679.7-214c-27.3 0-49.6 22.2-49.6 49.6s22.2 49.6 49.6 49.6 49.6-22.2 49.6-49.6-22.2-49.6-49.6-49.6zm0 83c-18.4 0-33.4-15-33.4-33.4s15-33.4 33.4-33.4 33.4 15 33.4 33.4-15 33.4-33.4 33.4z"/></g></symbol><symbol viewBox="351 -388.8 563.7 487.8" id="btn-icon-down"><circle fill="#FEE699" cx="620.9" cy="-144.9" r="243.9"/><path fill="#132C81" d="M880.1-180.1l-21.4-21.4c-7.4-7-16.1-10.6-26-10.6-10.1 0-18.7 3.5-25.7 10.6l-83.9 83.9v-201c0-9.9-3.6-18.5-10.9-25.7-7.2-7.2-15.8-10.9-25.7-10.9H650c-9.9 0-18.5 3.6-25.7 10.9-7.2 7.2-10.8 15.8-10.8 25.7v201l-83.9-83.9c-7-7-15.6-10.6-25.7-10.6-9.9 0-18.6 3.5-26 10.6l-21.1 21.4c-7.2 7.2-10.9 15.9-10.9 26 0 10.3 3.6 18.8 10.8 25.7L642.6 57.7c7 7 15.6 10.6 25.7 10.6 9.9 0 18.6-3.5 26-10.6l185.9-186.1c7-7 10.6-15.6 10.6-25.7-.1-9.9-3.6-18.6-10.7-26z"/></symbol><symbol viewBox="117.4 -194.9 565 490" id="btn-icon-maket"><circle fill="#FEE699" cx="361.9" cy="50.1" r="243.9"/><g fill="#132C81"><path d="M674.5-42.1c-2-1.1-48.8-25.4-126.8-40.1l-3-12.8c-7.8-33.5-37.3-57-71.8-57h-70.1c-34.4 0-63.9 23.4-71.8 57l-3 12.8c-78 14.6-124.8 39-126.8 40.1-4.4 2.3-7.2 6.9-7.2 11.9v159c0 63.7 51.8 115.6 115.6 115.6 7.5 0 13.5-6 13.5-13.5s-6-13.5-13.5-13.5c-48.8 0-88.6-39.7-88.6-88.6V-21.7c16.2-7.4 59-24.9 120.5-35.5 5.3-.9 9.6-5 10.8-10.2l5-21.5c5-21.2 23.6-36.1 45.5-36.1h70.1c21.8 0 40.5 14.8 45.5 36.1l5 21.5c1.2 5.3 5.5 9.3 10.8 10.2 61.3 10.6 104.2 28.1 120.5 35.5v150.5c0 48.8-39.7 88.6-88.6 88.6-7.5 0-13.5 6-13.5 13.5s6 13.5 13.5 13.5c63.7 0 115.6-51.8 115.6-115.6v-159c0-5-2.7-9.6-7.2-11.9z"/><path d="M238.2-69.7c1.4 0 2.8-.2 4.2-.7 14.2-4.7 29.1-8.9 44.3-12.5 7.3-1.7 11.7-9 10-16.2-1.7-7.3-9-11.7-16.2-10-15.9 3.8-31.6 8.2-46.6 13.1-7.1 2.3-10.9 10-8.6 17 2 5.7 7.3 9.3 12.9 9.3zm199.7 11c-85.7 0-155.4 69.7-155.4 155.4s69.7 155.5 155.4 155.5 155.4-69.7 155.4-155.4S523.6-58.7 437.9-58.7zm0 284c-70.8 0-128.4-57.6-128.4-128.4S367.1-31.6 437.9-31.6 566.3 26 566.3 96.8s-57.6 128.5-128.4 128.5z"/></g></symbol><symbol viewBox="337.3 -388.8 598.5 487.8" id="btn-icon-pickup"><circle fill="#FEE699" cx="600.2" cy="-144.9" r="243.9"/><path fill="#132C81" d="M909.3-178.2H902V-317c0-11.7-9.5-21.9-21.9-21.9H514.9c-11.7 0-21.9 9.5-21.9 21.9v138.8h-7.3c-4.4 0-7.3 2.9-7.3 7.3v73c0 4.4 2.9 7.3 7.3 7.3h7.3V48.2c0 11.7 9.5 21.9 21.9 21.9H880c11.7 0 21.9-10.2 21.9-21.9V-90.6h7.3c4.4 0 7.3-2.9 7.3-7.3v-73c.1-4.4-2.9-7.3-7.2-7.3zm-22-138.8v138.8h-66.1c-.7-6.4-2-12.5-4-16.1-7.3-13.1-20.5-21.2-36.5-21.2h-.7c-14.4 0-27.3 9.7-38 20.9v-129.8h138c3.7.1 7.3 3 7.3 7.4zM794.5-81.8c-.2.2-.4.5-.6.7-.3.3-.5.5-.8.7-.2.2-.4.3-.6.5l-.1.1c-5.5 4.2-13.4 4.6-20.8 3.1-4.7-1.1-9.5-3-13.8-5.4-10.9-6.7-20.7-18-21.6-31.9 1.2-2.3 2.3-4.7 3.1-7.3l19.5 14.7c1.5.7 2.9 1.5 4.4 1.5 2.2 0 4.4-.7 5.8-2.9 2.2-2.9 1.5-8-1.5-10.2l-21.4-16.1 21.4-16.1c2.9-2.2 3.7-7.3 1.5-10.2-2.2-2.9-7.3-3.7-10.2-1.5l-19.5 14.7c-1.3-4.3-3.3-8.3-5.9-11.9.8-1 1.7-2.2 2.8-3.5 1.5-1.5 2.9-3.7 4.4-5.8.1-.3.3-.5.4-.8 6.8-9.1 23.9-29.9 39.1-29.9 7.8 0 14.2 2.3 18.7 6.7 1.5 1.6 2.8 3.5 3.9 5.7 2.2 4.4 3.7 24.1 2.9 31.4v10.2c0 11-.3 31.9-4.1 47.6-2.5 8.8-5 13.5-7 15.9zm-64.3 37.2l-1.4 2.2c-.3.3-.6.5-.9.8l-20.1-50.3c6-1.5 11.6-4.2 16.4-7.9 1.7 4.3 3.8 8.4 6.6 12.2 3.6 5.3 8.1 9.9 13 13.8l9.6 21.1-12.1-2.1c-2.9 0-5.8 1.5-7.3 3.7l-3.8 6.5zm-72.9-6.6c-1.5-2.2-4.4-3.7-6.6-3.7h-.7l-12.4 2.2 8-17.5c12.2-7.2 20.9-17.9 25.3-29.4 4.6 3.5 10 6.2 15.8 7.7L663.4-41l-6.1-10.2zm-57-29.9c-2.1-2.1-5.6-7-7.8-17.2 0-.4-.1-.7-.2-1.1-3.7-15.3-4.4-33.6-4.4-46v-10.2c0-2.2 0-8 .7-14.6v-.7c.7-10.2 2.2-14.6 2.9-16.1 4.3-8.6 12.1-13 22.7-13.1h.7c.5 0 1 0 1.5.1 15.7 1.4 33 23.6 38.6 31.3.2.3.5.6.8.9 1.3 1.8 2.5 3.5 3.6 5 .7.7 1.5 2.2 2.2 2.9-2.6 3.8-4.7 8-6.1 12.4L636-162.1c-2.9-2.2-8-1.5-10.2 1.5-2.2 2.9-1.5 8 1.5 10.2l21.4 16.1-21.4 16.1c-2.9 2.2-3.7 7.3-1.5 10.2 1.5 2.2 3.7 2.9 5.8 2.9 1.5 0 2.9-.7 4.4-1.5l19.2-14.4c.5 2.2 1.2 4.4 1.9 6.4-.7 16.8-13.9 29.9-27.8 35.8-2.5 1.1-5.1 2.1-7.9 2.7-7.7 1.4-15.6.4-21.1-5zm122.8-67.2c.1.2.3.5.4.7 1.8 3.7 2.9 7.7 3.1 11.8v1.4c0 .6 0 1.2-.1 1.9v.1c-.2 3-.9 5.9-2.1 8.6-1.5.6-2.9 1.7-3.6 3.3-5.1 8.8-14.6 14.6-24.8 14.6-4.1 0-8.1-.8-11.7-2.4-4.5-2.3-8.3-5.7-11.1-9.8-.1-.5-.3-1-.6-1.7-2.5-3.8-4-8.2-4.3-12.6v-.1c0-.6-.1-1.2-.1-1.9v-1.4c.3-6.8 3.3-13.5 9.5-17.6.8-1.1 1.4-2.5 1.6-3.8 5-4 11.3-6.4 18.2-6.4 11 0 20.7 6.2 25.6 15.3zm3.6-27.9c-1 1.3-2 2.6-2.9 3.8-.3.5-.6.9-.8 1.3-.3.2-.5.3-.6.6-6.2-4.3-13.6-7.1-21.5-7.7h-.1c-.4 0-.9-.1-1.3-.1h-3.8c-.4 0-.9 0-1.3.1h-.2c-6.4.5-12.5 2.4-17.9 5.4-1.2.6-2.3 1.3-3.4 2 0-.1-.1-.1-.1-.2-1.4-1.8-2.8-3.7-4.4-5.7v-147.7h58.4l-.1 148.2zM507.5-317c0-3.7 3.7-7.3 7.3-7.3h139.5v130.7c-11.7-11.7-24.8-21.2-39.4-21.2-16.8.7-29.2 8-36.5 21.2-.7 1.5-2.2 4.4-3.7 15.3h-67.2V-317zm-14.6 153.4h80.3v18.3c.7 10.2.7 25.6 2.9 40.2h-83.3c.1-.1.1-58.5.1-58.5zm14.6 211.8V-90.6h71.8c2.4 8.4 5.8 15.6 10.7 20.5 6.6 5.8 15.3 9.5 25.6 9.5 3.1 0 6.1-.3 9.3-1L617.8-46c-1.5 2.2-.7 5.1.7 7.3 2.2 2.2 4.4 3.7 7.3 2.9l21.2-3.7 6.6 11.7v83.3H514.9c-3.7 0-7.4-2.9-7.4-7.3zM669-19c.7-.7 1.5-1.5 2.2-2.9l26.3-57.7 22.6 57.7s0 .1.1.1c.8 2.1 2.9 4.2 5.8 4.2h.7v73H669V-19zm218.3 67.2c0 3.7-2.9 7.3-7.3 7.3H741.3v-90.1l2.9-4.9 18.3 2.9c.5 0 1.1 0 1.6-.1l.6.1c2.9 0 5.8-.7 7.3-2.9s2.2-5.1.7-7.3l-7.7-16c4.8 1.4 9.7 2.1 14.2 2.1 10.2 0 19-3.7 27-11 4.6-4.6 7.8-11.2 10.1-19h71V48.2zM902-105.2h-82.4c2-12.9 2.5-27.3 2.8-40.9v-8.8c0-1.7 0-4.8-.1-8.8H902v58.5z"/></symbol><symbol viewBox="351 -388.8 563.7 487.8" id="btn-icon-print"><circle fill="#FEE699" cx="594.9" cy="-144.9" r="243.9"/><g fill="#132C81"><path d="M767.7-26.7H630.4c-5.4 0-9.8 4.4-9.8 9.8s4.4 9.8 9.8 9.8h137.2c5.4 0 9.8-4.4 9.8-9.8s-4.3-9.8-9.7-9.8zm-58.9 39.2h-98c-5.4 0-9.8 4.4-9.8 9.8s4.4 9.8 9.8 9.8h98c5.4 0 9.8-4.4 9.8-9.8s-4.3-9.8-9.8-9.8zm147.1-156.8c-10.8 0-19.6 8.8-19.6 19.6s8.8 19.6 19.6 19.6 19.6-8.8 19.6-19.6-8.8-19.6-19.6-19.6z"/><path d="M875.5-183.5h-19.6v-68.6c0-5.4-4.4-9.8-9.8-9.8h-9.8v-9.8c0-2.6-1-5.1-2.9-6.9L755-357.1c-1.8-1.8-4.3-2.9-6.9-2.9H601c-21.6 0-39.2 17.6-39.2 39.2v58.8H552c-5.4 0-9.8 4.4-9.8 9.8v68.6h-19.6c-21.6 0-39.2 17.6-39.2 39.2v98c0 21.6 17.6 39.2 39.2 39.2h16.5l-13.6 30.5c-1.9 4.4-2.9 9-2.9 13.8 0 18.8 15.3 34.1 34.1 34.1h284.8c18.8 0 34.1-15.3 34.1-34.1 0-4.8-1-9.5-2.9-13.8L859-7.1h16.5c21.6 0 39.2-17.6 39.2-39.2v-98c0-21.7-17.6-39.2-39.2-39.2zm-117.6-143l45 45h-25.4c-10.8 0-19.6-8.8-19.6-19.6v-25.4zm-176.5 5.7c0-10.8 8.8-19.6 19.6-19.6h137.2v39.2c0 21.6 17.6 39.2 39.2 39.2h39.2v78.4H581.4v-137.2zm260 372.5H556.6c-8 0-14.5-6.5-14.5-14.5 0-2 .4-4 1.2-5.9L578-46.3h242.1l34.5 77.7c.8 1.9 1.2 3.8 1.2 5.9.1 7.9-6.4 14.4-14.4 14.4zm53.7-98c0 10.8-8.8 19.6-19.6 19.6h-25.2l-8.7-19.6h4.5c5.4 0 9.8-4.4 9.8-9.8s-4.4-9.8-9.8-9.8H552c-5.4 0-9.8 4.4-9.8 9.8s4.4 9.8 9.8 9.8h4.5l-8.7 19.6h-25.2c-10.8 0-19.6-8.8-19.6-19.6v-98c0-10.8 8.8-19.6 19.6-19.6h352.9c10.8 0 19.6 8.8 19.6 19.6v98z"/></g></symbol><symbol viewBox="351 -388.8 563.7 487.8" id="btn-icon-requisites"><circle fill="#FEE699" cx="594.9" cy="-144.9" r="243.9"/><g fill="#132C81"><path d="M787.3 14.9c4.8 0 8.7-3.9 8.7-8.7v-348.5c0-4.8-3.9-8.7-8.7-8.7H496.9c-4.8 0-8.7 3.9-8.7 8.7v395c0 4.8 3.9 8.7 8.7 8.7h290.4c4.8 0 8.7-3.9 8.7-8.7 0-4.8-3.9-8.7-8.7-8.7H505.6v-377.5h273V6.2c0 4.8 3.9 8.7 8.7 8.7z"/><path d="M787.3 63.9H496.9c-6.2 0-11.2-5-11.2-11.2v-395c0-6.2 5-11.2 11.2-11.2h290.4c6.2 0 11.2 5 11.2 11.2V6.2c0 6.2-5 11.2-11.2 11.2s-11.2-5-11.2-11.2v-337.3h-268V41.5h279.2c6.2 0 11.2 5 11.2 11.2s-5 11.2-11.2 11.2zM496.9-348.5c-3.4 0-6.2 2.8-6.2 6.2v395c0 3.4 2.8 6.2 6.2 6.2h290.4c3.4 0 6.2-2.8 6.2-6.2s-2.8-6.2-6.2-6.2H503.1V-336h278V6.2c0 3.4 2.8 6.2 6.2 6.2 3.4 0 6.2-2.8 6.2-6.2v-348.5c0-3.4-2.8-6.2-6.2-6.2H496.9z"/></g><g fill="#132C81"><path d="M857-351c-18.2 0-31.9 23.7-31.9 55.2 0 4.8 3.9 8.7 8.7 8.7h37.8V25.8L857 40.4l-14.5-14.5V-261c0-4.8-3.9-8.7-8.7-8.7-4.8 0-8.7 3.9-8.7 8.7V29.4c0 2.3.9 4.5 2.6 6.2l23.2 23.2c1.7 1.7 3.9 2.6 6.2 2.6 2.2 0 4.5-.9 6.2-2.6l23.2-23.2c1.6-1.6 2.6-3.8 2.6-6.2v-325.3C889-327.3 875.2-351 857-351zm-14.1 46.5c1.8-17.8 9.1-29 14.1-29s12.2 11.3 14.1 29h-28.2z"/><path d="M857 63.9c-3 0-5.8-1.2-7.9-3.3l-23.2-23.2c-2.1-2.1-3.3-4.9-3.3-7.9V-261c0-6.2 5-11.2 11.2-11.2s11.2 5 11.2 11.2V24.8l12 12 12-12v-309.4h-35.3c-6.2 0-11.2-5-11.2-11.2 0-32.9 14.8-57.7 34.4-57.7s34.4 24.8 34.4 57.7V29.4c0 3-1.2 5.8-3.3 7.9l-23 23.3c-2.2 2.1-5 3.3-8 3.3zm-23.2-331.1c-3.4 0-6.2 2.8-6.2 6.2V29.4c0 1.7.6 3.2 1.8 4.4L852.6 57c1.2 1.2 2.7 1.8 4.4 1.8s3.2-.6 4.4-1.8l23.2-23.2c1.2-1.2 1.8-2.7 1.8-4.4v-325.3c0-30-12.7-52.7-29.4-52.7s-29.4 22.6-29.4 52.7c0 3.4 2.8 6.2 6.2 6.2H874V26.9l-17 17-17-17V-261c0-3.4-2.8-6.2-6.2-6.2zm40.1-34.8h-33.7l.3-2.8c1.8-17.5 9.1-31.3 16.6-31.3s14.7 13.7 16.6 31.3l.2 2.8zm-28.1-5h22.5c-2.2-15.6-8.4-24-11.3-24s-9 8.4-11.2 24z"/></g><g fill="#132C81"><path d="M903.5-292.9c-4.8 0-8.7 3.9-8.7 8.7v139.4c0 4.8 3.9 8.7 8.7 8.7 4.8 0 8.7-3.9 8.7-8.7v-139.4c0-4.8-3.9-8.7-8.7-8.7z"/><path d="M903.5-133.6c-6.2 0-11.2-5-11.2-11.2v-139.4c0-6.2 5-11.2 11.2-11.2s11.2 5 11.2 11.2v139.4c0 6.2-5 11.2-11.2 11.2zm0-156.8c-3.4 0-6.2 2.8-6.2 6.2v139.4c0 3.4 2.8 6.2 6.2 6.2s6.2-2.8 6.2-6.2v-139.4c0-3.4-2.8-6.2-6.2-6.2z"/></g><g fill="#132C81"><path d="M589.8-292.9h-46.5c-4.8 0-8.7 3.9-8.7 8.7 0 4.8 3.9 8.7 8.7 8.7h46.5c4.8 0 8.7-3.9 8.7-8.7.1-4.8-3.8-8.7-8.7-8.7z"/><path d="M589.8-273h-46.5c-6.2 0-11.2-5-11.2-11.2s5-11.2 11.2-11.2h46.5c6.2 0 11.2 5 11.2 11.2s-5 11.2-11.2 11.2zm-46.4-17.4c-3.4 0-6.2 2.8-6.2 6.2 0 3.4 2.8 6.2 6.2 6.2h46.5c3.4 0 6.2-2.8 6.2-6.2 0-3.4-2.8-6.2-6.2-6.2h-46.5z"/></g><g fill="#132C81"><path d="M740.9-292.9h-46.5c-4.8 0-8.7 3.9-8.7 8.7 0 4.8 3.9 8.7 8.7 8.7h46.5c4.8 0 8.7-3.9 8.7-8.7 0-4.8-3.9-8.7-8.7-8.7z"/><path d="M740.9-273h-46.5c-6.2 0-11.2-5-11.2-11.2s5-11.2 11.2-11.2h46.5c6.2 0 11.2 5 11.2 11.2 0 6.2-5.1 11.2-11.2 11.2zm-46.5-17.4c-3.4 0-6.2 2.8-6.2 6.2 0 3.4 2.8 6.2 6.2 6.2h46.5c3.4 0 6.2-2.8 6.2-6.2 0-3.4-2.8-6.2-6.2-6.2h-46.5z"/></g><g fill="#132C81"><path d="M682.8-223.2h-81.3c-4.8 0-8.7 3.9-8.7 8.7 0 4.8 3.9 8.7 8.7 8.7h81.3c4.8 0 8.7-3.9 8.7-8.7 0-4.8-3.9-8.7-8.7-8.7z"/><path d="M682.8-203.3h-81.3c-6.2 0-11.2-5-11.2-11.2s5-11.2 11.2-11.2h81.3c6.2 0 11.2 5 11.2 11.2 0 6.2-5 11.2-11.2 11.2zm-81.3-17.4c-3.4 0-6.2 2.8-6.2 6.2 0 3.4 2.8 6.2 6.2 6.2h81.3c3.4 0 6.2-2.8 6.2-6.2 0-3.4-2.8-6.2-6.2-6.2h-81.3z"/></g><g fill="#132C81"><path d="M740.9-153.5H543.4c-4.8 0-8.7 3.9-8.7 8.7 0 4.8 3.9 8.7 8.7 8.7h197.5c4.8 0 8.7-3.9 8.7-8.7 0-4.8-3.9-8.7-8.7-8.7z"/><path d="M740.9-133.6H543.4c-6.2 0-11.2-5-11.2-11.2s5-11.2 11.2-11.2h197.5c6.2 0 11.2 5 11.2 11.2 0 6.2-5.1 11.2-11.2 11.2zM543.4-151c-3.4 0-6.2 2.8-6.2 6.2 0 3.4 2.8 6.2 6.2 6.2h197.5c3.4 0 6.2-2.8 6.2-6.2 0-3.4-2.8-6.2-6.2-6.2H543.4z"/></g><g fill="#132C81"><path d="M740.9-118.7H543.4c-4.8 0-8.7 3.9-8.7 8.7 0 4.8 3.9 8.7 8.7 8.7h197.5c4.8 0 8.7-3.9 8.7-8.7 0-4.8-3.9-8.7-8.7-8.7z"/><path d="M740.9-98.7H543.4c-6.2 0-11.2-5-11.2-11.2s5-11.2 11.2-11.2h197.5c6.2 0 11.2 5 11.2 11.2 0 6.1-5.1 11.2-11.2 11.2zm-197.5-17.5c-3.4 0-6.2 2.8-6.2 6.2s2.8 6.2 6.2 6.2h197.5c3.4 0 6.2-2.8 6.2-6.2 0-3.4-2.8-6.2-6.2-6.2H543.4z"/></g><g fill="#132C81"><path d="M740.9-83.8H543.4c-4.8 0-8.7 3.9-8.7 8.7 0 4.8 3.9 8.7 8.7 8.7h197.5c4.8 0 8.7-3.9 8.7-8.7 0-4.8-3.9-8.7-8.7-8.7z"/><path d="M740.9-63.9H543.4c-6.2 0-11.2-5-11.2-11.2s5-11.2 11.2-11.2h197.5c6.2 0 11.2 5 11.2 11.2 0 6.2-5.1 11.2-11.2 11.2zM543.4-81.3c-3.4 0-6.2 2.8-6.2 6.2s2.8 6.2 6.2 6.2h197.5c3.4 0 6.2-2.8 6.2-6.2 0-3.4-2.8-6.2-6.2-6.2H543.4z"/></g><g fill="#132C81"><path d="M624.7-49h-81.3c-4.8 0-8.7 3.9-8.7 8.7s3.9 8.7 8.7 8.7h81.3c4.8 0 8.7-3.9 8.7-8.7s-3.9-8.7-8.7-8.7z"/><path d="M624.7-29h-81.3c-6.2 0-11.2-5-11.2-11.2s5-11.2 11.2-11.2h81.3c6.2 0 11.2 5 11.2 11.2s-5 11.2-11.2 11.2zm-81.3-17.5c-3.4 0-6.2 2.8-6.2 6.2s2.8 6.2 6.2 6.2h81.3c3.4 0 6.2-2.8 6.2-6.2s-2.8-6.2-6.2-6.2h-81.3z"/></g></symbol><symbol viewBox="337.3 -388.8 598.5 487.8" id="btn-icon-transport"><circle fill="#FEE699" cx="581.2" cy="-144.9" r="243.9"/><g fill="#132C81"><path d="M928.5-196.8l-74.2-81.9c-6-6-13.7-9.4-21.3-9.4h-85.3V-306c0-18.8-14.5-33.3-32.4-33.3H456.6c-18.8 0-33.3 14.5-33.3 33.3v295.3c0 16.2 13.7 29.9 29.9 29.9h13.4c4.1 29.2 28.8 51.2 59.1 51.2 30.4 0 55.1-22 59.1-51.2h189c4.1 29.2 28.8 51.2 59.1 51.2 30.4 0 55.1-22 59.1-51.2h44.2v-196.3c-.1-7.7-2.6-14.6-7.7-19.7zm-13.7 11.1c2.6 1.7 3.4 5.1 3.4 7.7v26.5h-128v-85.3h77.7l46.9 51.1zm-474.4 25.6h119.5c5.1 0 8.5-3.4 8.5-8.5s-3.4-8.5-8.5-8.5H440.4v-25.6h85.3c5.1 0 8.5-3.4 8.5-8.5s-3.4-8.5-8.5-8.5h-85.3V-306c0-9.4 6.8-16.2 16.2-16.2h257.7c9.4 0 16.2 7.7 16.2 16.2v205.6H440.4v-59.7zm85.3 213.4c-23.9 0-42.7-18.8-42.7-42.7 0-23.9 18.8-42.7 42.7-42.7 23.9 0 42.7 18.8 42.7 42.7s-18.8 42.7-42.7 42.7zM730.5 2.1H584.8C581-25.2 559-46.3 531.3-48.8h-.6c-.7-.1-1.4-.1-2.1-.1-1 0-1.9-.1-2.9-.1s-1.9 0-2.9.1c-.7 0-1.4.1-2.1.1h-.6c-27.8 2.5-49.7 23.6-53.5 50.9h-13.4c-6.8 0-12.8-6-12.8-12.8v-72.5h290.1V2.1zm102.4 51.2c-23.9 0-42.7-18.8-42.7-42.7 0-23.9 18.8-42.7 42.7-42.7 23.9 0 42.7 18.8 42.7 42.7s-18.8 42.7-42.7 42.7zM892 2.1c-3.8-27.3-25.8-48.4-53.5-50.9h-.6c-.7-.1-1.4-.1-2.1-.1-1 0-1.9-.1-2.9-.1s-1.9 0-2.9.1c-.7 0-1.4.1-2.1.1h-.6c-27.8 2.5-49.7 23.6-53.5 50.9h-26.2V-271h85.3c2.6 0 6 1.7 8.5 3.4l12.2 13.7h-66c-7.7 0-14.5 6.8-14.5 14.5v90.5c0 7.7 6.8 14.5 14.5 14.5h130.6v42.7h-42.7c-5.1 0-8.5 3.4-8.5 8.5s3.4 8.5 8.5 8.5h42.7V2l-26.2.1z"/><path d="M525.7-6.5c-9.4 0-17.1 7.7-17.1 17.1s7.7 17.1 17.1 17.1c9.4 0 17.1-7.7 17.1-17.1s-7.7-17.1-17.1-17.1zm307.2 0c-9.4 0-17.1 7.7-17.1 17.1s7.7 17.1 17.1 17.1c9.4 0 17.1-7.7 17.1-17.1s-7.7-17.1-17.1-17.1z"/></g></symbol><symbol viewBox="337.3 -388.8 598.5 487.8" id="btn-icon-nline"><circle fill="#FEE699" cx="602.2" cy="-144.9" r="243.9"/><g fill="#132C81"><path d="M903.5-210.1L768.9-344.6c-7.3-7.3-16.9-11.3-27.3-11.3-10.3 0-20 4-27.3 11.3L501.1-131.4c-7.3 7.3-11.3 16.9-11.3 27.3 0 10.3 4 20 11.3 27.3l16.6 16.6L629.2 51.3h-15.4c-4.9 0-8.9 4-8.9 8.9s4 8.9 8.9 8.9h177c4.9 0 8.9-4 8.9-8.9s-4-8.9-8.9-8.9h-94.2l206.8-206.8c15.1-15.1 15.1-39.6.1-54.6zm-12.5 42L677.7 45.2c-3.9 3.9-9.1 6.1-14.7 6.1h-.1c-5.6 0-10.8-2.2-14.7-6.1L536.5-66.5l204.8-204.8c3.5-3.5 3.5-9.1 0-12.5-3.5-3.5-9.1-3.5-12.5 0L523.9-79l-10.3-10.3c-3.9-3.9-6.1-9.2-6.1-14.8 0-5.6 2.2-10.8 6.1-14.8l213.3-213.3c3.9-3.9 9.2-6.1 14.8-6.1 5.6 0 10.8 2.2 14.8 6.1l47.9 47.9L599.5-79.4c-3.5 3.5-3.5 9.1 0 12.5 1.7 1.7 4 2.6 6.3 2.6s4.5-.9 6.3-2.6l204.8-204.8 74.1 74.1c8.1 8.2 8.1 21.4 0 29.5z"/><path d="M707.9-100.2c-3.5-3.5-9.1-3.5-12.5 0l-69.7 69.7c-3.5 3.5-3.5 9.1 0 12.5 1.7 1.7 4 2.6 6.3 2.6s4.5-.9 6.3-2.6L708-87.7c3.4-3.5 3.4-9.1-.1-12.5zm-28.5 66.1L650.8-5.5c-3.5 3.5-3.5 9.1 0 12.5 1.7 1.7 4 2.6 6.3 2.6s4.5-.9 6.3-2.6L692-21.6c3.5-3.5 3.5-9.1 0-12.5s-9.2-3.5-12.6 0zm26.3-26.3l-3.8 3.8c-3.5 3.5-3.5 9.1 0 12.5 1.7 1.7 4 2.6 6.3 2.6s4.5-.9 6.3-2.6l3.8-3.8c3.5-3.5 3.5-9.1 0-12.5-3.6-3.5-9.2-3.5-12.6 0zm122-159.6c-1.7-1.7-3.9-2.6-6.3-2.6-2.3 0-4.6.9-6.3 2.6l-37.6 37.6c-1.7 1.7-2.6 3.9-2.6 6.3s.9 4.6 2.6 6.3l25 25c1.7 1.7 4 2.6 6.3 2.6s4.5-.9 6.3-2.6l37.6-37.6c3.5-3.5 3.5-9.1 0-12.5l-25-25.1zm-18.8 56.4l-12.5-12.5 25-25 12.5 12.5-25 25zm-53.2-125.8c2.3 0 4.5-.9 6.3-2.6l3.8-3.8c3.5-3.5 3.5-9.1 0-12.5-3.5-3.5-9.1-3.5-12.5 0l-3.8 3.8c-3.5 3.5-3.5 9.1 0 12.5 1.7 1.8 3.9 2.6 6.2 2.6zM578.8-58.8L575-55c-3.5 3.5-3.5 9.1 0 12.5 1.7 1.7 4 2.6 6.3 2.6s4.5-.9 6.3-2.6l3.8-3.8c3.5-3.5 3.5-9.1 0-12.5-3.5-3.4-9.1-3.4-12.6 0z"/></g></symbol><symbol viewBox="356.3 -388.8 546.8 487.8" id="btn-login"><circle cx="600.2" cy="-144.9" r="243.9"/><g fill="#132C81"><path d="M693.9-126h3.2c29.6-.5 53.5-10.9 71.2-30.8 38.9-43.8 32.4-119 31.7-126.2-2.5-53.8-28-79.6-49-91.6-15.7-9-33.9-13.8-54.3-14.2H695c-11.2 0-33.2 1.8-54.3 13.8-21.2 12-47.1 37.8-49.6 92-.7 7.2-7.2 82.3 31.7 126.2 17.6 19.9 41.5 30.3 71.1 30.8zm-75.8-154.4c0-.3.1-.6.1-.8 3.3-72.4 54.8-80.2 76.8-80.2h1.2c27.3.6 73.6 11.7 76.8 80.2 0 .3 0 .6.1.8.1.7 7.2 69.4-25 105.6-12.7 14.3-29.7 21.4-52 21.6h-1c-22.2-.2-39.3-7.3-51.9-21.6-32.1-36-25.2-105-25.1-105.6z"/><path d="M903.1-1.3v-.3c0-.8-.1-1.6-.1-2.5-.6-20-1.9-66.8-45.8-81.7-.3-.1-.7-.2-1-.3-45.6-11.6-83.4-37.9-83.8-38.2-6.2-4.3-14.6-2.8-19 3.3-4.3 6.2-2.8 14.6 3.3 19 1.7 1.2 41.9 29.2 92.2 42.1 23.5 8.4 26.2 33.5 26.9 56.6 0 .9 0 1.7.1 2.5.1 9.1-.5 23.1-2.1 31.2-16.4 9.3-80.5 41.4-178.1 41.4-97.2 0-161.7-32.2-178.2-41.5-1.6-8.1-2.3-22.1-2.1-31.2 0-.8.1-1.6.1-2.5.7-23 3.3-48.2 26.9-56.6 50.3-12.9 90.5-41 92.2-42.1 6.2-4.3 7.7-12.8 3.3-19-4.3-6.2-12.8-7.7-19-3.3-.4.3-38.1 26.6-83.8 38.2-.4.1-.7.2-1 .3-43.8 15-45.1 61.8-45.7 81.7 0 .9 0 1.7-.1 2.5v.3c-.1 5.3-.2 32.2 5.2 45.8 1 2.6 2.8 4.8 5.3 6.4 3 2 75.7 48.3 197.2 48.3s194-46.5 197-48.4c2.3-1.5 4.2-3.7 5.3-6.4 5-13.4 4.9-40.4 4.8-45.6z"/></g></symbol><symbol viewBox="0 0 47.001 47.001" id="contacts-clock"><path d="M22.432 22.429a1.067 1.067 0 1 0 2.136 0 5.321 5.321 0 0 1 1.251-3.421c1.793-2.126 3.137-4.431 3.988-6.851a1.069 1.069 0 0 0-1.007-1.423H18.199a1.069 1.069 0 0 0-1.008 1.423c.853 2.42 2.195 4.725 3.988 6.851a5.32 5.32 0 0 1 1.253 3.421zm2.136 4.281a1.068 1.068 0 0 0-2.136 0c-.001 1.542-.922 3.067-2.593 4.304-3.574 2.639-6.249 5.506-7.951 8.52a1.06 1.06 0 0 0 .009 1.062c.19.329.542.53.922.53h21.364a1.067 1.067 0 0 0 .93-1.592c-1.701-3.014-4.377-5.881-7.95-8.52-1.673-1.237-2.594-2.762-2.595-4.304z"/><path d="M42.192 42.729h-.639c-.734-8.313-5.602-14.695-9.386-19.228 3.785-4.532 8.651-10.915 9.388-19.228h.639a2.136 2.136 0 0 0 0-4.273H4.807a2.136 2.136 0 0 0 0 4.273h.639c.735 8.314 5.601 14.697 9.386 19.228-3.784 4.532-8.651 10.914-9.387 19.228h-.638a2.137 2.137 0 0 0 0 4.273h37.387a2.137 2.137 0 1 0-.002-4.273zm-32.464 0c.803-7.511 5.686-13.295 9.335-17.617l.195-.231a2.134 2.134 0 0 0 0-2.755l-.194-.23c-3.648-4.323-8.533-10.107-9.336-17.619h27.544c-.803 7.512-5.688 13.296-9.336 17.619l-.193.23a2.134 2.134 0 0 0 0 2.755l.195.231c3.648 4.322 8.531 10.106 9.334 17.617H9.728z"/></symbol><symbol viewBox="0 0 550.795 550.795" id="contacts-email"><path d="M501.613 491.782c12.381 0 23.109-4.088 32.229-12.16L377.793 323.567a2878.213 2878.213 0 0 0-10.801 7.767c-11.678 8.604-21.156 15.318-28.434 20.129-7.277 4.822-16.959 9.737-29.045 14.755-12.094 5.024-23.361 7.528-33.813 7.528h-.612c-10.453 0-21.72-2.503-33.813-7.528-12.093-5.018-21.775-9.933-29.045-14.755-7.277-4.811-16.75-11.524-28.434-20.129a1351.934 1351.934 0 0 0-10.771-7.809L16.946 479.622c9.119 8.072 19.854 12.16 32.234 12.16h452.433zM31.047 225.299C19.37 217.514 9.015 208.598 0 198.555V435.98l137.541-137.541c-27.516-19.21-62.969-43.562-106.494-73.14zm489.012 0c-41.865 28.336-77.447 52.73-106.75 73.195l137.486 137.492V198.555c-8.815 9.841-19.059 18.751-30.736 26.744z"/><path d="M501.613 59.013H49.181c-15.784 0-27.919 5.33-36.42 15.979C4.253 85.646.006 98.97.006 114.949c0 12.907 5.636 26.892 16.903 41.959 11.267 15.061 23.256 26.891 35.961 35.496 6.965 4.921 27.969 19.523 63.012 43.801a20367.497 20367.497 0 0 1 49.505 34.395 8855.122 8855.122 0 0 1 31.022 21.701c.985.691 2.534 1.799 4.59 3.269 2.215 1.591 5.018 3.61 8.476 6.107 6.659 4.816 12.191 8.709 16.597 11.683 4.4 2.975 9.731 6.298 15.985 9.988 6.249 3.685 12.143 6.456 17.675 8.299 5.533 1.842 10.655 2.766 15.367 2.766h.612c4.711 0 9.834-.924 15.368-2.766 5.531-1.843 11.42-4.608 17.674-8.299 6.248-3.69 11.572-7.02 15.986-9.988 4.406-2.974 9.938-6.866 16.598-11.683 3.451-2.497 6.254-4.517 8.469-6.102a643.575 643.575 0 0 1 4.596-3.274c6.684-4.651 17.1-11.892 31.104-21.616 25.482-17.705 63.01-43.764 112.742-78.281 14.957-10.447 27.453-23.054 37.496-37.803 10.025-14.749 15.051-30.22 15.051-46.408 0-13.525-4.873-25.098-14.598-34.737-9.736-9.627-21.265-14.443-34.584-14.443z"/></symbol><symbol viewBox="0 0 487.724 487.724" id="contacts-location"><path d="M236.925.124c-96.9 3.4-177.4 79-186.7 175.5-1.9 19.3-.8 38 2.6 55.9 0 0 .3 2.1 1.3 6.1 3 13.4 7.5 26.4 13.1 38.6 19.5 46.2 64.6 123.5 165.8 207.6 6.2 5.2 15.3 5.2 21.6 0 101.2-84 146.3-161.3 165.9-207.7 5.7-12.2 10.1-25.1 13.1-38.6.9-3.9 1.3-6.1 1.3-6.1 2.3-12 3.5-24.3 3.5-36.9 0-109.8-90.9-198.3-201.5-194.4zm6.9 291.2c-52.2 0-94.5-42.3-94.5-94.5s42.3-94.5 94.5-94.5 94.5 42.3 94.5 94.5-42.3 94.5-94.5 94.5z"/></symbol><symbol viewBox="0 0 348.077 348.077" id="contacts-tel"><path d="M340.273 275.083l-53.755-53.761c-10.707-10.664-28.438-10.34-39.518.744l-27.082 27.076a792.327 792.327 0 0 1-5.344-2.973c-17.102-9.476-40.509-22.464-65.14-47.113-24.704-24.701-37.704-48.144-47.209-65.257-1.003-1.813-1.964-3.561-2.913-5.221l18.176-18.149 8.936-8.947c11.097-11.1 11.403-28.826.721-39.521L73.39 8.194c-10.682-10.68-28.421-10.356-39.518.744l-15.15 15.237.414.411c-5.08 6.482-9.325 13.958-12.484 22.02C3.74 54.28 1.927 61.603 1.098 68.941-6 127.785 20.89 181.564 93.866 254.541c100.875 100.868 182.167 93.248 185.674 92.876 7.638-.913 14.958-2.738 22.397-5.627 7.992-3.122 15.463-7.361 21.941-12.43l.331.294 15.348-15.029c11.074-11.098 11.393-28.83.716-39.542z"/></symbol><symbol viewBox="0 0 139.4 44.7" id="dorohovdesign"><path d="M52.2 19.5V8.1H57c3.6 0 6.1 2.1 6.1 5.7 0 3.5-2.6 5.7-6.1 5.7h-4.8zm7.9-5.7c0-1.8-1.1-3.1-3.1-3.1h-1.9v6.2H57c2 0 3.1-1.4 3.1-3.1m4.1 0c0-3.4 2.6-5.9 6.1-5.9 3.5 0 6.1 2.4 6.1 5.9 0 3.5-2.6 5.9-6.1 5.9-3.5 0-6.1-2.4-6.1-5.9m9.2 0c0-1.9-1.2-3.3-3.1-3.3-1.9 0-3.1 1.4-3.1 3.3 0 1.8 1.2 3.3 3.1 3.3 1.9 0 3.1-1.4 3.1-3.3m11 5.7l-1.9-3.8H81v3.8h-2.9V8.1h5.7c2.5 0 3.9 1.7 3.9 3.8 0 2-1.2 3-2.3 3.4l2.3 4.2h-3.3zm.3-7.6c0-.8-.6-1.2-1.4-1.2H81v2.4h2.3c.8 0 1.4-.4 1.4-1.2m4.2 1.9c0-3.4 2.6-5.9 6.1-5.9 3.5 0 6.1 2.4 6.1 5.9 0 3.5-2.6 5.9-6.1 5.9-3.5 0-6.1-2.4-6.1-5.9m9.1 0c0-1.9-1.2-3.3-3.1-3.3-1.9 0-3.1 1.4-3.1 3.3 0 1.8 1.2 3.3 3.1 3.3 1.9 0 3.1-1.4 3.1-3.3m12.4 5.7v-4.6h-4.7v4.6h-3V8.1h3v4.3h4.7V8.1h2.9v11.4zm4.6-5.7c0-3.4 2.6-5.9 6.1-5.9 3.5 0 6.1 2.4 6.1 5.9 0 3.5-2.6 5.9-6.1 5.9-3.5 0-6.1-2.4-6.1-5.9m9.2 0c0-1.9-1.2-3.3-3.1-3.3-1.9 0-3.1 1.4-3.1 3.3 0 1.8 1.2 3.3 3.1 3.3 1.9 0 3.1-1.4 3.1-3.3m7.3 5.7l-4.3-11.4h3.3l2.8 8.2 2.8-8.2h3.3l-4.2 11.4zm-79.3 17V25.1H57c3.6 0 6.1 2.1 6.1 5.7 0 3.5-2.6 5.7-6.1 5.7h-4.8zm7.9-5.7c0-1.8-1.1-3.1-3.1-3.1h-1.9v6.2H57c2 0 3.1-1.4 3.1-3.1m4.7 5.7V25.1h8.3v2.6h-5.3v1.8H73V32h-5.2v1.9h5.3v2.6zm9.6-1.6l1.5-2.2c.8.8 2.1 1.5 3.6 1.5 1 0 1.6-.4 1.6-.9 0-1.5-6.4-.3-6.4-4.7 0-1.9 1.6-3.6 4.5-3.6 1.8 0 3.4.5 4.6 1.6l-1.6 2.1c-1-.8-2.2-1.2-3.3-1.2-.8 0-1.2.3-1.2.8 0 1.4 6.4.4 6.4 4.6 0 2.3-1.7 3.8-4.7 3.8-2.2 0-3.8-.7-5-1.8m11.5-9.8h2.9v11.3h-2.9zm4.7 5.7c0-3.6 2.8-5.9 6.1-5.9 2.5 0 4.1 1.3 4.8 2.8L99.1 29c-.4-.7-1.3-1.4-2.4-1.4-1.9 0-3.2 1.4-3.2 3.3s1.3 3.3 3.2 3.3c.8 0 1.7-.3 2.1-.7v-.9h-2.6V30h5.5v4.5c-1.2 1.3-2.9 2.2-5 2.2-3.4 0-6.1-2.3-6.1-5.9m20.9 5.7l-4.8-6.6v6.6h-2.9V25.1h3l4.6 6.3v-6.3h2.9v11.4zM17.7 0H0v44.7h17.8c15 0 24.6-8.8 24.6-22.4C42.4 8.7 32.7 0 17.7 0m-.4 35.7h-8V9.5h8c9.3 0 15.7 3.7 15.7 12.7.1 7.5-5.8 13.5-15.7 13.5"/><path d="M19.1 17H17v10.6h2c4 0 6.4-2.4 6.4-5.4 0-3.7-2.6-5.2-6.3-5.2"/></symbol><symbol viewBox="0 0 124.099 124.1" id="email"><path d="M18.25 106.7c5.6 5.399 12.3 9.8 20.1 12.8 7.8 3 16.5 4.6 25.9 4.6 10.5 0 20.2-1.6 28.9-4.899 7.9-2.9 1.1-17.601-4.7-15.2-6.399 2.7-14.2 4.1-23.101 4.1-7 0-13.399-1.1-19-3.199-5.6-2.101-10.5-5.101-14.5-9-4-3.9-7.2-8.7-9.4-14.2-2.3-5.601-3.4-12-3.4-19 0-6.6 1.1-12.9 3.3-18.5 2.2-5.6 5.2-10.6 9.2-14.6 3.9-4.1 8.7-7.4 14.2-9.7 5.5-2.3 11.7-3.5 18.5-3.5 6.301 0 12.1.9 17.301 2.5 5.1 1.6 9.5 4.1 13.199 7.4 3.7 3.3 6.6 7.3 8.7 12.1 2.101 4.8 3.101 10.4 3.101 16.8 0 3.7-.4 7.2-1.201 10.5-.799 3.1-1.799 5.899-3.199 8.1-1.301 2.101-2.801 3.8-4.6 5-2.101 1.4-5.201 2.2-7.601 1.4-3-1-2.399-5.2-2.2-7.7.301-3.4 1.2-6.6 1.9-9.9 1.1-5.4 2.3-10.7 3.4-16 .6-2.9 1.299-5.9 1.899-8.8.8-3.7-2-7.3-5.899-7.3h-4.4c-2.7 0-5.1 1.8-5.801 4.4-.299 1.2-.6 2.2-.6 2.2-2.199-6.8-10.3-8.7-16.7-8.6-8.4.1-16.1 4.4-21.7 10.5-.5.6-1.1 1.2-1.6 1.8-2.9 3.5-5.1 7.6-6.6 11.9-1.6 4.6-2.4 9.3-2.4 14.1 0 4.101.6 8 1.7 11.5 1.2 3.601 2.9 6.7 5.1 9.3 2.2 2.601 5 4.7 8.3 6.2 3.3 1.5 7 2.3 11 2.3 3 0 5.8-.5 8.3-1.399 2.4-.9 4.6-2 6.5-3.3 1.5-1 2.9-2.2 4-3.301.699 1.301 1.5 2.4 2.6 3.5 2.801 3 7.1 4.5 12.801 4.5 4.5 0 8.899-.899 13-2.699 4.1-1.801 7.799-4.601 10.899-8.2 3-3.601 5.5-8 7.3-13.2 1.801-5.2 2.7-11.2 2.7-17.8 0-9-1.7-17-5-23.7s-7.8-12.4-13.399-16.9c-5.5-4.5-11.9-7.8-19-10.1C79.05 1.1 71.75 0 64.25 0c-8.7 0-17 1.6-24.7 4.7-7.7 3.2-14.5 7.6-20.2 13.1-5.8 5.5-10.4 12.2-13.7 19.7-3.3 7.5-5 15.9-5 24.7 0 8.899 1.5 17.3 4.6 24.8 3 7.6 7.4 14.2 13 19.7zm54.099-42c-.699 2.7-1.699 5.3-3.1 7.7-1.4 2.3-3.1 4.199-5.3 5.699-2 1.4-4.4 2.101-7.4 2.101-1.9 0-3.4-.4-4.5-1.101-1.2-.8-2.2-1.8-2.9-3.1-.8-1.4-1.3-2.9-1.6-4.4-.3-1.6-.5-3.1-.5-4.399 0-2.8.4-5.6 1.2-8.5.8-2.8 1.9-5.4 3.4-7.6 1.5-2.2 3.2-4 5.3-5.4 1.9-1.3 4-1.9 6.5-1.9 2 0 3.601.3 4.8 1 1.2.7 2.2 1.6 2.9 2.7.8 1.2 1.3 2.6 1.699 4.1.4 1.7.601 3.5.601 5.2-.1 2.5-.399 5.1-1.1 7.9z"/></symbol><symbol viewBox="0 0 96.124 96.123" id="fb"><path d="M72.089.02L59.624 0C45.62 0 36.57 9.285 36.57 23.656v10.907H24.037a1.96 1.96 0 0 0-1.96 1.961v15.803a1.96 1.96 0 0 0 1.96 1.96H36.57v39.876a1.96 1.96 0 0 0 1.96 1.96h16.352a1.96 1.96 0 0 0 1.96-1.96V54.287h14.654a1.96 1.96 0 0 0 1.96-1.96l.006-15.803a1.963 1.963 0 0 0-1.961-1.961H56.842v-9.246c0-4.444 1.059-6.7 6.848-6.7l8.397-.003a1.96 1.96 0 0 0 1.959-1.96V1.98A1.96 1.96 0 0 0 72.089.02z"/></symbol><symbol viewBox="351 -388.8 563.7 487.8" id="icon-round-sale"><circle fill="#FEE699" cx="633.9" cy="-144.9" r="215.9"/><path fill="#132C81" d="M741.5-40.3h-2.9c-27.5 0-49.8-22.2-50.2-49.6l-20.7-248.4v-.6c0-27.7 22.5-50.2 50.2-50.2h44.3c27.7 0 50.2 22.5 50.2 50.2v1.2l-2.6 31.3c-.6 7.7-7.4 13.4-15.1 12.8-7.7-.6-13.4-7.4-12.8-15.1l2.6-30.6c-.3-12-10.1-21.7-22.2-21.7H718c-12.1 0-22 9.7-22.2 21.7L716.3-91v.6c0 12.3 10 22.2 22.2 22.2h2.9c12.3 0 22.2-10 22.2-22.2v-1.2l13.8-166.2c.6-7.7 7.4-13.4 15.1-12.8 7.7.6 13.4 7.4 12.8 15.1L791.7-89.8c-.3 27.4-22.7 49.5-50.2 49.5zm61.1 77.5c0-33.9-27.6-61.6-61.6-61.6-23.3 0-44.3 12.9-54.9 33.7-3.5 6.9-.8 15.3 6.1 18.8 6.9 3.5 15.3.8 18.8-6.1 5.8-11.3 17.3-18.4 30-18.4 18.5 0 33.6 15.1 33.6 33.6S759.5 70.8 741 70.8c-12.9 0-24.4-7.2-30.2-18.7-3.4-6.9-11.8-9.7-18.7-6.3-6.9 3.4-9.7 11.8-6.3 18.7 10.5 21.1 31.6 34.2 55.2 34.2 33.9 0 61.6-27.6 61.6-61.5z"/></symbol><symbol viewBox="351 -388.8 563.7 487.8" id="icon-round-search"><circle fill="#FEE699" cx="594.9" cy="-144.9" r="243.9"/><path fill="#132C81" d="M908.1 59.2L801.9-51.3c27.3-32.5 42.3-73.3 42.3-115.9 0-99.4-80.9-180.3-180.3-180.3s-180.3 80.9-180.3 180.3S564.5 13.1 663.9 13.1c37.3 0 72.9-11.3 103.3-32.6L874.3 91.8c4.5 4.6 10.5 7.2 16.9 7.2 6.1 0 11.9-2.3 16.3-6.6 9.3-8.9 9.6-23.9.6-33.2zM663.9-300.4c73.5 0 133.2 59.8 133.2 133.2S737.4-34 663.9-34 530.7-93.7 530.7-167.2s59.8-133.2 133.2-133.2z"/></symbol><symbol viewBox="0 0 97.395 97.395" id="inst"><path d="M12.501 0h72.393c6.875 0 12.5 5.09 12.5 12.5v72.395c0 7.41-5.625 12.5-12.5 12.5H12.501C5.624 97.395 0 92.305 0 84.895V12.5C0 5.09 5.624 0 12.501 0zm58.447 10.821a4.395 4.395 0 0 0-4.383 4.385v10.495a4.396 4.396 0 0 0 4.383 4.385h11.008a4.398 4.398 0 0 0 4.385-4.385V15.206a4.397 4.397 0 0 0-4.385-4.385H70.948zm15.439 30.367h-8.572a28.486 28.486 0 0 1 1.25 8.355c0 16.2-13.556 29.332-30.275 29.332-16.718 0-30.272-13.132-30.272-29.332 0-2.904.438-5.708 1.25-8.355h-8.945v41.141a3.884 3.884 0 0 0 3.872 3.872h67.822a3.883 3.883 0 0 0 3.872-3.872V41.188h-.002zM48.789 29.533c-10.802 0-19.56 8.485-19.56 18.953s8.758 18.953 19.56 18.953c10.803 0 19.562-8.485 19.562-18.953s-8.758-18.953-19.562-18.953z"/></symbol><symbol viewBox="0 0 97.713 97.713" id="location"><path d="M48.855 0C29.021 0 12.883 16.138 12.883 35.974c0 5.174 1.059 10.114 3.146 14.684 8.994 19.681 26.238 40.46 31.31 46.359a2.003 2.003 0 0 0 3.034 0c5.07-5.898 22.314-26.676 31.311-46.359 2.088-4.57 3.146-9.51 3.146-14.684C84.828 16.138 68.69 0 48.855 0zm0 54.659c-10.303 0-18.686-8.383-18.686-18.686 0-10.304 8.383-18.687 18.686-18.687s18.686 8.383 18.686 18.687c.001 10.303-8.382 18.686-18.686 18.686z"/></symbol><symbol viewBox="0 0 500 138.4" id="logotip"><path fill="#2F2A81" d="M192.1 33.9c11.6 0 18.3 9.5 18.3 19.9 0 8.7-4.7 20.3-18.5 20.3-11.3 0-18.2-9.3-18.2-20 0-11.2 7.3-20.2 18.4-20.2zm0 33.5c5.7 0 11-4.4 11-13 0-6.8-3.6-13.9-11.1-13.9-6.3 0-10.9 4.9-10.9 13.3 0 6 2.9 13.6 11 13.6zm30.6-21.3v2.4c1.1-1.1 3.4-3.2 7.5-3.2 1.7 0 5.6.3 8.7 3.9 1.4 1.7 3.6 5.2 3.6 10.6 0 1.5-.1 5.5-2.7 9.1-3.2 4.5-7.6 5-9.6 5-1.6 0-4.5-.3-7.5-3v11h-6.5V46.1h6.5zm6.4 5.2c-4.6 0-6.5 4.3-6.5 8.1 0 4.7 2.3 8.4 6.7 8.4 2.5 0 6.4-1.5 6.4-8.4 0-5.6-3.5-8.1-6.6-8.1zm44 21.8h-6.5V56.9l-12 11.9v4.3h-6.5v-27h6.5v15.7l12-11.9v-3.8h6.5v27zm19.6.8c-9.8 0-14.1-7.8-14.1-14.4 0-6.5 4.3-14.2 13.9-14.2 5.9 0 13.9 3.9 14 14.2-.1 7.2-4.6 14.4-13.8 14.4zm0-5.9c4.8 0 7-4.1 7-8.2 0-4.3-2.3-8.7-7.3-8.7-3.8 0-7 2.8-7 8.2 0 4.8 2.6 8.7 7.3 8.7zm25.8-21.9v9.8H330v-9.8h6.5v27.1H330V61.7h-11.5v11.5H312V46.1h6.5zm55.7-11.2v38.2h-7.1V41.4h-16v31.7H344V34.9h30.2zm14.1 11.2v2.4c1.1-1.1 3.4-3.2 7.5-3.2 1.7 0 5.6.3 8.7 3.9 1.4 1.7 3.6 5.2 3.6 10.6 0 1.5-.1 5.5-2.7 9.1-3.2 4.5-7.6 5-9.6 5-1.6 0-4.5-.3-7.5-3v11h-6.5V46.1h6.5zm6.3 5.2c-4.6 0-6.5 4.3-6.5 8.1 0 4.7 2.3 8.4 6.7 8.4 2.5 0 6.4-1.5 6.4-8.4 0-5.6-3.4-8.1-6.6-8.1zm44 21.8h-6.5V56.9l-12 11.9v4.3h-6.5v-27h6.5v15.7l12-11.9v-3.8h6.5v27zm13.6-27v9.8h11.5v-9.8h6.5v27.1h-6.5V61.7h-11.5v11.5h-6.5V46.1h6.5zm47.8 0v5.7h-9.5v21.3H484V51.8h-9.5v-5.7H500zM189.6 94.3v2.1h-4.9v12.8h-2.5V96.4h-4.9v-2.1h12.3zm5.2 0v10l7.9-8.4v-1.6h2.5v14.8h-2.5V98.9l-7.9 8.4v1.8h-2.5V94.3h2.5zm27 0v14.8h-2.5V96.4H212v12.8h-2.5V94.3h12.3zm11-.5c3.9 0 7.1 2.4 7.1 7.8 0 5.3-3.3 8-7.3 8-4.2 0-7.3-2.8-7.3-7.9 0-2.4 1.1-7.9 7.5-7.9zm-.2 13.8c3 0 4.6-2.4 4.6-6.2 0-2.6-1-5.5-4.4-5.5-4.7 0-4.8 5.1-4.8 6 0 1.7.6 5.7 4.6 5.7zm21.5-13.3v2.1h-8.3v12.8h-2.5V94.3h10.8zm5.1 0v2.1c.8-1 2.7-2.6 5.3-2.6 3.1 0 6.7 2.4 6.7 7.9 0 3.4-1.6 7.9-7 7.9-1.9 0-3.9-.7-5-2.2v8.8h-2.5V94.3h2.5zm4.7 13.1c3 0 4.6-2.3 4.6-5.7 0-4-2.4-5.5-4.4-5.5-2.9 0-4.8 2.1-4.8 5.8-.1 3.4 1.7 5.4 4.6 5.4zm19.7-7.6c0-1.4 0-4-3.3-4-2.1 0-3.2 1-3.2 2.9v.2l-2.6-.2c0-.7.4-4.9 5.7-4.9.9 0 2.5.2 3.7.9 2.1 1.2 2.2 2.7 2.2 5.4v5.2c0 .9 0 1.7 1.1 1.7.3 0 .5-.1.8-.1v2.1c-.8.3-1.2.3-1.6.3-.1 0-1 0-1.6-.4-.6-.4-1-1.4-1-1.8-.7.8-2.2 2.4-5.1 2.4-3 0-5-1.7-5-4.3 0-.7.2-2.1 1.6-3.2 1.5-1.1 4.1-1.5 6-1.7l2.3-.2v-.3zm-5.3 3.2c-.5.2-1.8.8-1.8 2.3 0 1.1.8 2.2 2.8 2.2 1.4 0 4.4-.6 4.4-4.4v-1.2c-1.3.2-4.3.6-5.4 1.1zm21.5-16.1v7.4c5.7.3 7.6 3.2 7.6 7.4 0 5.5-3.2 7.3-7.6 7.5v7.1h-2.5v-7.1c-6.2-.1-7.6-3.7-7.6-7.3 0-4.8 2.5-7.1 7.6-7.5V87h2.5zm-2.4 9.4c-2.2.2-4.9 1-4.9 5.5 0 2.9 1.1 4.9 4.9 5.3V96.3zm2.4 10.8c4.2-.2 4.9-2.8 4.9-5.4 0-3.1-1-5.1-4.9-5.5v10.9zm13.6-12.8v10l7.9-8.4v-1.6h2.5v14.8h-2.5V98.9l-7.9 8.4v1.8H311V94.3h2.4zm26.2 14.9h-2.5v-6H334c-4.2 0-2.9 4.4-4.3 6h-2.9c2.1-1.5.5-5.5 4.2-6.7-1.9-.3-2.8-1.9-2.8-3.4 0-3.4 2.1-4.7 5.2-4.7h6.1v14.8zm-6.5-12.8c-2 0-2.5 1.6-2.5 2.4 0 1.1.5 2.4 2.6 2.4h3.9v-4.7h-4z"/><path fill="#9D2E88" d="M43.5 43.5L20.3 20.3c-8.5 8.5-14.7 19.1-17.9 31L34 59.8c1.7-6.3 5-11.9 9.5-16.3z"/><path fill="#FAE900" d="M95 95l23.2 23.2c8.5-8.5 14.7-19.1 17.9-31l-31.7-8.5c-1.7 6.2-5 11.8-9.4 16.3z"/><path fill="#007172" d="M43.5 95l-23.2 23.2c8.5 8.5 19.1 14.8 31 17.9l8.5-31.7c-6.3-1.7-11.9-5-16.3-9.4z"/><path fill="#E84815" d="M95 43.5l23.2-23.2c-8.5-8.5-19.1-14.7-31-17.9L78.6 34c6.3 1.7 11.9 5 16.4 9.5z"/><path fill="#FDC000" d="M105.6 69.2c0 3.3-.4 6.4-1.2 9.4l31.7 8.5c1.5-5.7 2.3-11.7 2.3-17.9 0-6.2-.8-12.2-2.3-17.9l-31.7 8.5c.8 3 1.2 6.2 1.2 9.4z"/><path fill="#5C2483" d="M32.8 69.2c0-3.3.4-6.4 1.2-9.4L2.3 51.3C.8 57 0 63 0 69.2c0 6.2.8 12.2 2.3 17.9L34 78.6c-.8-3-1.2-6.1-1.2-9.4z"/><path fill="#2F2A81" d="M34 78.6L2.3 87.1c3.2 11.9 9.5 22.6 17.9 31L43.5 95C39 90.5 35.7 84.9 34 78.6z"/><path fill="#39A736" d="M69.2 105.6c-3.3 0-6.4-.4-9.4-1.2l-8.5 31.7c5.7 1.5 11.7 2.4 17.9 2.4 6.2 0 12.2-.8 17.9-2.4l-8.5-31.7c-3 .8-6.1 1.2-9.4 1.2z"/><path fill="#8CBE23" d="M78.6 104.4l8.5 31.7c11.9-3.2 22.5-9.5 31-17.9L95 95c-4.5 4.4-10.1 7.7-16.4 9.4z"/><path fill="#F08200" d="M104.4 59.8l31.7-8.5c-3.2-11.9-9.5-22.6-17.9-31L95 43.5c4.4 4.4 7.7 10 9.4 16.3z"/><path fill="#E41716" d="M69.2 32.8c3.3 0 6.4.4 9.4 1.2l8.5-31.7C81.4.8 75.4 0 69.2 0 63 0 57 .8 51.3 2.3L59.8 34c3-.8 6.2-1.2 9.4-1.2z"/><path fill="#DC0068" d="M59.8 34L51.3 2.3c-5.9 1.6-11.5 3.9-16.7 6.9-5.3 3-10.1 6.8-14.3 11l23.2 23.2c4.4-4.4 10-7.7 16.3-9.4z"/><path fill="#9D2E88" d="M83 83l12.4 12.4c4.5-4.5 7.9-10.2 9.6-16.6l-17-4.5c-.8 3.3-2.6 6.3-5 8.7z"/><path fill="#FAE900" d="M55.4 55.4L43 43c-4.5 4.5-7.9 10.2-9.6 16.6l17 4.5c.9-3.3 2.6-6.3 5-8.7z"/><path fill="#007172" d="M83 55.4L95.4 43c-4.5-4.5-10.2-7.9-16.6-9.6l-4.5 17c3.3.9 6.3 2.6 8.7 5z"/><path fill="#E84815" d="M55.4 83L43 95.4c4.5 4.5 10.2 7.9 16.6 9.6l4.5-17c-3.3-.8-6.3-2.6-8.7-5z"/><path fill="#FDC000" d="M49.7 69.2c0-1.7.2-3.4.7-5l-17-4.5c-.8 3.1-1.3 6.3-1.3 9.6s.4 6.5 1.3 9.6l17-4.5c-.5-1.7-.7-3.4-.7-5.2z"/><path fill="#5C2483" d="M88.7 69.2c0 1.7-.2 3.4-.7 5l17 4.5c.8-3.1 1.3-6.3 1.3-9.6s-.4-6.5-1.3-9.6L88 64c.5 1.8.7 3.5.7 5.2z"/><path fill="#2F2A81" d="M88.1 64.2l17-4.5c-1.7-6.4-5.1-12.1-9.6-16.6L83 55.4c2.4 2.4 4.2 5.4 5.1 8.8z"/><path fill="#39A736" d="M69.2 49.7c1.7 0 3.4.2 5 .7l4.5-17c-3.1-.8-6.3-1.3-9.6-1.3s-6.5.4-9.6 1.3l4.5 17c1.8-.5 3.5-.7 5.2-.7z"/><path fill="#8CBE23" d="M64.2 50.4l-4.5-17C53.2 35.1 47.5 38.5 43 43l12.4 12.4c2.4-2.4 5.4-4.1 8.8-5z"/><path fill="#F08200" d="M50.4 74.3l-17 4.5c1.7 6.4 5.1 12.1 9.6 16.6L55.4 83c-2.4-2.4-4.1-5.4-5-8.7z"/><path fill="#E41716" d="M69.2 88.7c-1.7 0-3.4-.2-5.1-.7l-4.5 17c3.1.8 6.3 1.3 9.6 1.3s6.5-.4 9.6-1.3l-4.5-17c-1.6.5-3.3.7-5.1.7z"/><path fill="#DC0068" d="M74.3 88.1l4.5 17c3.2-.8 6.2-2.1 8.9-3.7 2.8-1.6 5.4-3.6 7.7-5.9L83 83c-2.4 2.4-5.4 4.2-8.7 5.1z"/></symbol><symbol viewBox="0 0 41.756 41.756" id="modal-close"><path d="M27.948 20.878L40.291 8.536a5 5 0 1 0-7.07-7.071L20.878 13.809 8.535 1.465a5 5 0 0 0-7.07 7.071l12.342 12.342L1.465 33.22a5 5 0 1 0 7.07 7.071l12.343-12.342 12.343 12.343c.976.977 2.256 1.464 3.535 1.464s2.56-.487 3.535-1.464a5 5 0 0 0 0-7.071L27.948 20.878z"/></symbol><symbol viewBox="0 0 68.1 68.1" id="mouse"><path d="M34.5 67.9h-1c-10.1 0-18.3-8.2-18.3-18.3v-31C15.2 8.5 23.4.3 33.5.3h1c10.1 0 18.3 8.2 18.3 18.3v31c.1 10.1-8.2 18.3-18.3 18.3zm-.9-65.6c-9 0-16.3 7.3-16.3 16.3v31c0 9 7.3 16.3 16.3 16.3h1c9 0 16.3-7.3 16.3-16.3v-31c0-9-7.3-16.3-16.3-16.3h-1z"/><path d="M34.1 25.4c-1.2 0-2.3-1-2.3-2.2v-6.5c0-1.2 1-2.2 2.2-2.2 1.2 0 2.2 1 2.2 2.2v6.5c.1 1.2-.9 2.2-2.1 2.2z"/></symbol><symbol viewBox="0 0 95.481 95.481" id="ok"><path d="M43.041 67.254c-7.402-.772-14.076-2.595-19.79-7.064-.709-.556-1.441-1.092-2.088-1.713-2.501-2.402-2.753-5.153-.774-7.988 1.693-2.426 4.535-3.075 7.489-1.682.572.27 1.117.607 1.639.969 10.649 7.317 25.278 7.519 35.967.329 1.059-.812 2.191-1.474 3.503-1.812 2.551-.655 4.93.282 6.299 2.514 1.564 2.549 1.544 5.037-.383 7.016-2.956 3.034-6.511 5.229-10.461 6.761-3.735 1.448-7.826 2.177-11.875 2.661.611.665.899.992 1.281 1.376 5.498 5.524 11.02 11.025 16.5 16.566 1.867 1.888 2.257 4.229 1.229 6.425-1.124 2.4-3.64 3.979-6.107 3.81-1.563-.108-2.782-.886-3.865-1.977-4.149-4.175-8.376-8.273-12.441-12.527-1.183-1.237-1.752-1.003-2.796.071-4.174 4.297-8.416 8.528-12.683 12.735-1.916 1.889-4.196 2.229-6.418 1.15-2.362-1.145-3.865-3.556-3.749-5.979.08-1.639.886-2.891 2.011-4.014 5.441-5.433 10.867-10.88 16.295-16.322.359-.362.694-.746 1.217-1.305z"/><path d="M47.55 48.329c-13.205-.045-24.033-10.992-23.956-24.218C23.67 10.739 34.505-.037 47.84 0c13.362.036 24.087 10.967 24.02 24.478-.068 13.199-10.971 23.897-24.31 23.851zm12.001-24.186c-.023-6.567-5.253-11.795-11.807-11.801-6.609-.007-11.886 5.316-11.835 11.943.049 6.542 5.324 11.733 11.896 11.709 6.552-.023 11.768-5.285 11.746-11.851z"/></symbol><symbol viewBox="0 0 309.156 309.156" id="owl-bottom"><path fill="#010002" d="M288.461 64.929L154.589 202.766 20.723 64.94 0 85.07l154.589 159.158L309.156 85.07z"/></symbol><symbol viewBox="0 0 306 306" id="owl-next"><path d="M94.35 0l-35.7 35.7L175.95 153 58.65 270.3l35.7 35.7 153-153z"/></symbol><symbol viewBox="51 -52.2 477.2 477.2" id="owl-next-400"><path d="M167.6 401.9c-5.3 5.3-5.3 13.8 0 19.1 2.6 2.7 6.1 4 9.5 4s6.9-1.4 9.5-4l225.1-225c5.3-5.3 5.3-13.8 0-19.1L186.6-48.2c-5.3-5.3-13.8-5.3-19.1 0s-5.3 13.8 0 19.1L383 186.4 167.6 401.9z"/></symbol><symbol viewBox="0 0 306 306" id="owl-prev"><path d="M247.35 270.3L130.05 153l117.3-117.3L211.65 0l-153 153 153 153z"/></symbol><symbol viewBox="0 0 477.175 477.175" id="owl-prev-400"><path d="M145.188 238.575l215.5-215.5c5.3-5.3 5.3-13.8 0-19.1s-13.8-5.3-19.1 0l-225.1 225.1c-5.3 5.3-5.3 13.8 0 19.1l225.1 225c2.6 2.6 6.1 4 9.5 4s6.9-1.3 9.5-4c5.3-5.3 5.3-13.8 0-19.1l-215.4-215.5z"/></symbol><symbol viewBox="0 0 500 500" id="plus"><path d="M250 500c-35.5 0-69.8-7.3-102-21.7-4.8-2.2-7-7.9-4.8-12.7 2.2-4.8 7.9-7 12.7-4.8 29.7 13.3 61.4 20 94.1 20 127.2 0 230.8-103.5 230.8-230.8 0-127.2-103.5-230.8-230.8-230.8C122.8 19.2 19.2 122.8 19.2 250c0 41.4 11.1 82 32.1 117.5 2.7 4.6 1.2 10.5-3.4 13.2-4.6 2.7-10.5 1.2-13.2-3.4C12 338.9 0 294.9 0 250c0-66.8 26-129.6 73.2-176.8S183.2 0 250 0c66.8 0 129.6 26 176.8 73.2S500 183.2 500 250c0 66.8-26 129.6-73.2 176.8S316.8 500 250 500z"/><path d="M264.8 83c23.7 2.1 46.2 9 66.9 20.5 3.1 1.7 4.2 5.7 2.5 8.8-1.7 3.1-5.7 4.2-8.8 2.5-19-10.6-39.8-17-61.7-18.9-85-7.5-160.3 55.5-167.8 140.5s55.5 160.3 140.5 167.8 160.3-55.5 167.8-140.5c2.5-27.7-2.6-55.5-14.5-80.4-1.5-3.2-.2-7.1 3-8.6s7.1-.2 8.6 3c12.9 27 18.4 57.1 15.7 87.1-4 44.6-25 85-59.4 113.8S279.8 421 235.2 417c-44.6-4-85-25-113.8-59.4S79 279.8 83 235.2c4-44.6 25-85 59.4-113.8S220.2 79 264.8 83z"/><path d="M250.3 422.7c-5.2 0-10.3-.2-15.5-.7-45.9-4.1-87.5-25.8-117.2-61.1C88 325.5 73.9 280.7 78 234.8c4.1-45.9 25.8-87.5 61.1-117.2C174.5 88 219.3 73.9 265.2 78c24.4 2.2 47.6 9.3 68.9 21.1 2.7 1.5 4.6 3.9 5.4 6.9.8 2.9.5 6-1 8.7-1.5 2.7-3.9 4.6-6.9 5.4-2.9.8-6 .5-8.7-1-18.4-10.3-38.5-16.4-59.7-18.3-39.8-3.5-78.6 8.7-109.3 34.4-30.7 25.7-49.6 61.8-53.1 101.6-7.3 82.3 53.7 155.1 136 162.4 82.3 7.3 155.1-53.7 162.4-136 2.4-26.8-2.5-53.7-14-77.8-2.7-5.7-.3-12.5 5.4-15.3 2.8-1.3 5.9-1.5 8.7-.5 2.9 1 5.2 3.1 6.5 5.9 13.3 27.8 18.9 58.8 16.2 89.7-4.1 45.9-25.8 87.5-61.1 117.2-31.4 26.2-70.2 40.3-110.6 40.3zm-.6-335.4c-38.1 0-74.6 13.2-104.1 38-33.3 27.9-53.8 67.1-57.6 110.4-3.8 43.3 9.4 85.5 37.3 118.8s67.1 53.8 110.4 57.6c43.3 3.8 85.5-9.4 118.8-37.3s53.8-67.1 57.6-110.4c2.6-29.1-2.7-58.3-15.2-84.5-.2-.4-.6-.6-.8-.7-.3-.1-.7-.2-1.1.1-.7.3-1 1.2-.7 1.9 12.3 25.7 17.5 54.4 15 83-7.3 83-77.2 145.7-159 145.7-4.7 0-9.4-.2-14.2-.6-87.8-7.8-152.8-85.5-145.1-173.2C98.8 148.3 176.5 83.3 264.2 91c22.6 2 44 8.6 63.7 19.6.4.2.8.2 1.1.1.3-.1.6-.3.9-.7.2-.4.2-.8.1-1.1-.1-.3-.3-.6-.7-.9-20-11.2-41.8-17.9-64.9-19.9-4.9-.6-9.8-.8-14.7-.8z"/><path d="M252.2 325.3h-4.7c-6 0-10.8-4.9-10.8-10.8V187.2c0-6 4.9-10.8 10.8-10.8h4.7c6 0 10.8 4.9 10.8 10.8v127.3c0 6-4.9 10.8-10.8 10.8z"/><path d="M175.3 253v-4.3c0-5.9 4.8-10.7 10.7-10.7h127.6c5.9 0 10.7 4.8 10.7 10.7v4.3c0 5.9-4.8 10.7-10.7 10.7H186c-5.9 0-10.7-4.8-10.7-10.7z"/></symbol><symbol viewBox="0 0 512 512" id="qty-minus"><path d="M492 236H20c-11.046 0-20 8.954-20 20s8.954 20 20 20h472c11.046 0 20-8.954 20-20s-8.954-20-20-20z"/></symbol><symbol viewBox="0 0 512 512" id="qty-plus"><path d="M492 236H276V20c0-11.046-8.954-20-20-20s-20 8.954-20 20v216H20c-11.046 0-20 8.954-20 20s8.954 20 20 20h216v216c0 11.046 8.954 20 20 20s20-8.954 20-20V276h216c11.046 0 20-8.954 20-20s-8.954-20-20-20z"/></symbol><symbol viewBox="306.8 -206 310.3 512" id="ruble"><path d="M485.3 57.8c72.7 0 131.9-59.2 131.9-131.9S558-206 485.3-206H376.7c-12.9 0-23.3 10.4-23.3 23.3v287h-23.3c-12.9 0-23.3 10.4-23.3 23.3s10.4 23.3 23.3 23.3h23.3v131.9c0 12.9 10.4 23.3 23.3 23.3s23.3-10.4 23.3-23.3v-132h85.3c12.9 0 23.3-10.4 23.3-23.3s-10.4-23.3-23.3-23.3H400V57.8h85.3zm0-217.2h.8c46.7.4 84.6 38.5 84.6 85.3 0 47.1-38.3 85.3-85.3 85.3h-85.3v-170.7h85.2z"/></symbol><symbol viewBox="0 0 68.1 68.1" id="scrollto"><path d="M34.5 67.9h-1c-10.1 0-18.3-8.2-18.3-18.3v-31C15.2 8.5 23.4.3 33.5.3h1c10.1 0 18.3 8.2 18.3 18.3v31c.1 10.1-8.2 18.3-18.3 18.3zm-.9-65.6c-9 0-16.3 7.3-16.3 16.3v31c0 9 7.3 16.3 16.3 16.3h1c9 0 16.3-7.3 16.3-16.3v-31c0-9-7.3-16.3-16.3-16.3h-1z"/><path d="M34.1 25.4c-1.2 0-2.3-1-2.3-2.2v-6.5c0-1.2 1-2.2 2.2-2.2 1.2 0 2.2 1 2.2 2.2v6.5c.1 1.2-.9 2.2-2.1 2.2z"/></symbol><symbol viewBox="0 0 56.966 56.966" id="search"><path d="M55.146 51.887L41.588 37.786A22.926 22.926 0 0 0 46.984 23c0-12.682-10.318-23-23-23s-23 10.318-23 23 10.318 23 23 23c4.761 0 9.298-1.436 13.177-4.162l13.661 14.208c.571.593 1.339.92 2.162.92.779 0 1.518-.297 2.079-.837a3.004 3.004 0 0 0 .083-4.242zM23.984 6c9.374 0 17 7.626 17 17s-7.626 17-17 17-17-7.626-17-17 7.626-17 17-17z"/></symbol><symbol viewBox="0 0 438.536 438.536" id="skype"><path d="M415.7 262.093c3.039-14.657 4.564-28.935 4.564-42.826 0-27.218-5.276-53.247-15.844-78.087-10.562-24.838-24.838-46.249-42.825-64.237-17.987-17.988-39.395-32.263-64.234-42.829-24.845-10.559-50.866-15.843-78.088-15.843-13.894 0-28.171 1.524-42.827 4.57C156.651 7.614 134.381 0 109.637 0 79.375 0 53.538 10.705 32.124 32.115 10.708 53.531.004 79.368.004 109.631c0 24.744 7.614 47.014 22.839 66.809-3.044 14.655-4.568 28.933-4.568 42.827 0 27.215 5.28 53.243 15.843 78.085 10.562 24.838 24.838 46.25 42.827 64.241 17.987 17.986 39.401 32.257 64.239 42.824 24.84 10.564 50.869 15.845 78.087 15.845 13.893 0 28.17-1.526 42.834-4.572 19.79 15.229 42.058 22.847 66.804 22.847 30.259 0 56.103-10.711 77.505-32.12 21.416-21.416 32.12-47.253 32.12-77.519-.005-24.74-7.616-47.007-22.834-66.805zm-90.228 42.397c-6.276 11.136-14.702 20.033-25.263 26.696-10.567 6.663-22.224 11.748-34.975 15.273-12.751 3.518-26.073 5.283-39.971 5.283-32.163 0-59.855-6.235-83.078-18.705-23.223-12.471-34.833-27.453-34.833-44.968 0-8.562 2.428-15.693 7.282-21.408 4.853-5.712 12.038-8.562 21.555-8.562 5.52 0 10.657 1.522 15.415 4.564 4.758 3.046 9.135 6.715 13.134 10.999 3.999 4.285 8.326 8.562 12.99 12.847 4.661 4.285 10.847 7.946 18.555 10.992 7.71 3.046 16.418 4.572 26.128 4.572 12.371 0 22.36-2.423 29.981-7.275 7.61-4.859 11.416-10.999 11.416-18.418 0-7.618-3.042-13.326-9.13-17.132-4.182-2.673-14.846-6.098-31.977-10.283l-41.688-10.284c-11.419-2.662-21.222-5.752-29.408-9.271-8.186-3.524-15.8-8.134-22.841-13.849-7.039-5.708-12.369-12.891-15.986-21.555-3.616-8.658-5.424-18.796-5.424-30.406 0-13.896 3.189-26.121 9.563-36.688 6.374-10.565 14.849-18.846 25.409-24.841 10.562-5.996 21.935-10.468 34.119-13.418 12.179-2.951 24.742-4.426 37.685-4.426 18.276 0 35.589 2.19 51.961 6.567 16.368 4.377 29.882 10.801 40.538 19.271 10.657 8.473 15.985 17.942 15.985 28.409 0 8.562-2.707 15.893-8.138 21.982-5.414 6.088-12.601 9.134-21.55 9.134-4.948 0-9.514-1.143-13.702-3.427a54.891 54.891 0 0 1-11.423-8.278 217.22 217.22 0 0 0-10.852-9.563c-3.806-3.14-8.946-5.852-15.41-8.136-6.479-2.284-13.802-3.427-21.986-3.427-27.406 0-41.112 7.323-41.112 21.982 0 3.234.715 6.09 2.141 8.564 1.427 2.474 3 4.473 4.71 5.996 1.709 1.525 4.565 3.046 8.564 4.57 3.999 1.525 7.33 2.622 9.994 3.284 2.663.666 6.854 1.665 12.562 2.996l29.694 6.851c9.325 2.096 17.648 4.286 24.981 6.567 7.331 2.288 15.181 5.521 23.555 9.71 8.374 4.187 15.321 8.848 20.838 13.988 5.523 5.144 10.137 11.656 13.853 19.555 3.714 7.901 5.564 16.61 5.564 26.124-.001 13.894-3.136 26.411-9.425 37.544z"/></symbol><symbol viewBox="-169 262.9 277 286" id="swape"><path d="M44.5 310.8l-23-23c-2.3-2.3-6.1-2.3-8.5 0-2.3 2.3-2.3 6.1 0 8.5l12.2 12.2h-57.5c-3.3 0-6 2.7-6 6s2.7 6 6 6h58.6l-12.7 12.7c-2.3 2.3-2.3 6.1 0 8.5 1.2 1.2 2.7 1.8 4.2 1.8s3.1-.6 4.2-1.8l22.4-22.4c2.4-2.4 2.4-6.2.1-8.5zm-20.9 79c-6.4-4.2-13-5.9-18.1-6.4-6.6-8.9-16.2-13.7-27.2-13.7-2.4 0-4.9.2-7.4.7-6.5-7.5-15.5-11.5-25.6-11.5h-.6v-36.8c0-8.5-3.3-16-9.2-21.2-5.2-4.6-12-7.1-19.2-7.1-7.8 0-15.2 3-20.4 8.2-5.2 5.2-8 12.2-8 20.2l.1 53.2v33.7c-7.6 4.1-12.8 10.5-15.3 18.8-3.7 12.7-.8 29.1 9.1 50.2 6.5 13.8 14.3 25.9 18.1 31.4l1.7 22.1c.7 9.9 9.1 17.6 18.9 17.6l78.6-.1c9.5 0 17.6-7.1 18.8-16.5L21 509c18.6-29.1 25.4-59.3 20.2-89.7-2.8-16.5-11.1-25.2-17.6-29.5zM10.3 503.4c-.6.9-.9 1.9-1.1 2.9L6 530.7c-.5 3.5-3.4 5.9-6.9 5.9l-78.6-.1c-3.7 0-6.7-2.6-7-6.3l-1.8-23.3c-.1-1.2-.5-2.4-1.2-3.4-7.2-10.5-47.4-71.4-14.8-85 2.6-1.1 4.3-3.6 4.3-6.4 0-16.6-.1-71.7-.1-90.1 0-10.9 8.2-16.4 16.4-16.4s16.4 5.5 16.4 16.4l.1 42.3c0 3.9 3.2 7 7 7 .4 0 .7 0 1.1-.1 1.4-.2 2.9-.4 4.5-.4 5.9 0 12.8 2 18.1 9.3 1.3 1.8 3.4 2.8 5.6 2.8.6 0 1.2-.1 1.8-.2 2.1-.5 4.7-1 7.5-1 6.2 0 13.4 2.2 18.8 10.7 1 1.6 2.8 2.6 4.8 2.7 7.1.3 23.6 3.4 27.4 26.2 3.6 21.2 1.9 49.6-19.1 82.1z"/><path d="M-125.8 350.4c-1.8 0-3.6-.9-4.6-2.5-5.6-8.8-8.6-19.1-8.6-29.6 0-30.4 24.7-55 55-55 30.4 0 55 24.7 55 55 0 10.4-2.9 20.6-8.5 29.4-1.6 2.6-5 3.3-7.6 1.7-2.6-1.6-3.3-5-1.7-7.6 4.4-7 6.8-15.1 6.8-23.5 0-24.3-19.8-44-44-44-24.3 0-44 19.8-44 44 0 8.4 2.4 16.6 6.9 23.7 1.6 2.6.9 6-1.7 7.6-1 .6-2 .8-3 .8z"/></symbol><symbol viewBox="0 0 480.56 480.56" id="tel"><path d="M365.354 317.9c-15.7-15.5-35.3-15.5-50.9 0-11.9 11.8-23.8 23.6-35.5 35.6-3.2 3.3-5.9 4-9.8 1.8-7.7-4.2-15.9-7.6-23.3-12.2-34.5-21.7-63.4-49.6-89-81-12.7-15.6-24-32.3-31.9-51.1-1.6-3.8-1.3-6.3 1.8-9.4 11.9-11.5 23.5-23.3 35.2-35.1 16.3-16.4 16.3-35.6-.1-52.1-9.3-9.4-18.6-18.6-27.9-28-9.6-9.6-19.1-19.3-28.8-28.8-15.7-15.3-35.3-15.3-50.9.1-12 11.8-23.5 23.9-35.7 35.5-11.3 10.7-17 23.8-18.2 39.1-1.9 24.9 4.2 48.4 12.8 71.3 17.6 47.4 44.4 89.5 76.9 128.1 43.9 52.2 96.3 93.5 157.6 123.3 27.6 13.4 56.2 23.7 87.3 25.4 21.4 1.2 40-4.2 54.9-20.9 10.2-11.4 21.7-21.8 32.5-32.7 16-16.2 16.1-35.8.2-51.8-19-19.1-38.1-38.1-57.2-57.1zm-19.1-79.7l36.9-6.3c-5.8-33.9-21.8-64.6-46.1-89-25.7-25.7-58.2-41.9-94-46.9l-5.2 37.1c27.7 3.9 52.9 16.4 72.8 36.3 18.8 18.8 31.1 42.6 35.6 68.8zm57.7-160.4c-42.6-42.6-96.5-69.5-156-77.8l-5.2 37.1c51.4 7.2 98 30.5 134.8 67.2 34.9 34.9 57.8 79 66.1 127.5l36.9-6.3c-9.7-56.2-36.2-107.2-76.6-147.7z"/></symbol><symbol viewBox="176 -48.8 231 200" id="transport-icon-baikalsr"><path fill="#0291D3" d="M343.4 133.6H239.6c-3.3 0-6.3-2.8-6.3-6.3 0-3.3 2.8-6.1 6.3-6.1h103.8c3.3 0 6.1 2.8 6.1 6.1.2 3.6-2.6 6.3-6.1 6.3zm6.3-156.2c0 1.7-1.3 3-3 3h-6.3c-1.7 0-3-1.3-3-3v-6.3c0-1.7 1.3-3 3-3h6.3c1.7 0 3 1.3 3 3v6.3zm-104 0c0 1.7-1.3 3-3 3h-6.5c-1.7 0-3-1.3-3-3v-6.1c0-1.7 1.3-3 3-3h6.3c1.7 0 3 1.3 3 3v6.1h.2zm-6.3 89.7c-3.3 0-6.1-2.8-6.1-6.1V-8.7c0-3.3 2.8-6.1 6.1-6.1s6.1 2.8 6.1 6.1V61c.2 3.3-2.6 6.1-6.1 6.1zm104.2 0c-3.3 0-6.1-2.8-6.1-6.1V-8.7c0-3.3 2.8-6.1 6.1-6.1s6.1 2.8 6.1 6.1V61c0 3.3-2.8 6.1-6.1 6.1zm-17.3-86.5h-69.7c-3.3 0-6.1-2.8-6.1-6.1s2.8-6.1 6.1-6.1h69.7c3.3 0 6.1 2.8 6.1 6.1s-2.7 6.1-6.1 6.1zm23.4 94.3c0-1.7-1.3-3-3-3h-6.3c-1.7 0-3 1.3-3 3v6.3c0 1.7 1.3 3 3 3h6.3c1.7 0 3-1.3 3-3v-6.3zm-104 0c0-1.7-1.3-3-3-3h-6.3c-1.7 0-3 1.3-3 3v6.3c0 1.7 1.3 3 3 3h6.3c1.7 0 3-1.3 3-3v-6.3zm80.6-3h-69.7c-3.3 0-6.1 2.8-6.1 6.1s2.8 6.1 6.1 6.1h69.7c3.3 0 6.1-2.8 6.1-6.1.1-3.5-2.7-6.1-6.1-6.1zm.4-5.2c-1.5 0-3-.6-4.1-1.7L252.2-5c-2.2-2.2-2.2-5.9 0-8.3 2.2-2.4 5.9-2.4 8.2-.2l70.4 70.1c2.2 2.2 2.2 5.9.2 8.3-1.3 1.3-2.8 1.8-4.3 1.8z"/><path fill="#0291D3" d="M256.3 66.7c-1.5 0-3-.6-4.1-1.9-2.2-2.4-2.2-6.1.2-8.3l70.4-70.1c2.2-2.2 5.9-2.2 8.2.2s2.2 6.1-.2 8.3L260.4 65c-1.1 1.2-2.6 1.7-4.1 1.7z"/></symbol><symbol viewBox="-182 320.9 231 200" id="transport-icon-dellin"><path fill="#FCAF17" d="M-51.9 472.3l-73.4-31.8-15.6 27.1 82.7 15.9 6.3-11.2zm-10.3 31.6h24.4l21.5-37.2 21.5 37.2h24.4l-45.9-79.5-45.9 79.5zm-82.5-30.1l-17.3 30h91.9l8.1-14.1-82.7-15.9zm124.4-56.3l-45.9-79.6-17.3 30 55.1 63.6 8.1-14zm-11.8 20.4l-55.1-63.6-15.6 27 64.3 47.7 6.4-11.1zM-42 455l-64.3-47.7-15.7 27.2 73.5 31.8L-42 455z"/></symbol><symbol viewBox="397.5 320.9 200 200" id="transport-icon-pacom"><path fill="#252069" d="M397.5 408.3v-50.4h54.8v50.4h-16.7v-32.4h-21.2v32.3zm63.1-36.2l-2.4-12.7s19.3-3.2 47.9 0c4.1 17.6 4.4 31.3 0 47.5-14.9 1.4-28.7 1.7-47.9.3.5-3.1 2.5-12.7 2.5-12.7s23.8 2.3 32.9 0c.8-5.1 1-5.6 1-5.6h-22.2v-11.8h22.3l-.9-5.1c-.1.1-15.6-2.7-33.2.1zm55.7-14.2v50.3h17.4V389h6l14.4 19.2h21.8L554.4 382l21-24h-20.1l-15.8 19.2h-5.9V358z"/><path fill="#E4003C" d="M580.1 359.4h17.4v15h-17.4zm0 33.2h17.4v15h-17.4zm-164.9 37.9v16.3l2 .1-.2 8.4h-3.4l-.2-5h-11.6l-.2 5h-3.4l-.2-8.4 1.6-.1c.8-1.4 1.4-2.8 1.9-4.4.6-2 .8-4.1.8-6.6v-5.3h12.9zm-8.9 6.3c0 2.3-.3 4.5-.9 6.5-.4 1.2-.9 2.4-1.4 3.3h6.6v-12.5h-4.3v2.7zm32.7 3.4c0 6.5-3.9 10.4-9.7 10.4-5.9 0-9.3-4.4-9.3-10.1 0-5.9 3.8-10.4 9.6-10.4 6.1.1 9.4 4.6 9.4 10.1zm-14.3.3c0 3.9 1.8 6.6 4.8 6.6s4.8-2.9 4.8-6.7c0-3.6-1.7-6.6-4.8-6.6-3 0-4.8 2.8-4.8 6.7zm33.3 9.3c-.8.4-2.7.9-5.1.9-6.8 0-10.4-4.3-10.4-9.9 0-6.8 4.8-10.5 10.8-10.5 2.3 0 4.1.5 4.9.9l-.9 3.6c-.9-.4-2.2-.7-3.8-.7-3.6 0-6.3 2.1-6.3 6.5 0 4 2.4 6.5 6.3 6.5 1.4 0 2.8-.3 3.7-.6l.8 3.3zm8.8-15.5h-5.3v-3.8h15.2v3.8h-5.4v16h-4.5v-16zm16.1 10.9l-1.4 5.1h-4.6l6.1-19.8h5.9l6.1 19.8h-4.8l-1.5-5.1h-5.8zm5-3.3l-1.2-4.2c-.4-1.2-.7-2.6-1-3.8h-.1c-.3 1.2-.6 2.7-.9 3.8l-1.2 4.2h4.4zm11.1-11.1c1.2-.2 3.6-.4 5.8-.4 2.7 0 4.4.3 5.8 1.1 1.4.7 2.4 2.1 2.4 3.9 0 1.8-1 3.4-3.3 4.2v.1c2.3.6 3.9 2.3 3.9 4.9 0 1.8-.8 3.2-2.1 4.2-1.4 1.1-3.8 1.8-7.8 1.8-2.2 0-3.8-.1-4.8-.3v-19.5zm4.5 7.6h1.5c2.4 0 3.6-1 3.6-2.4 0-1.5-1.1-2.3-3.2-2.3-1 0-1.5.1-1.9.1v4.6zm0 8.7c.4.1 1 .1 1.7.1 2 0 3.8-.8 3.8-2.8 0-2-1.8-2.8-4-2.8h-1.5v5.5zm29.8-16.6v19.8h-4.5v-16.1h-4.5v4.7c0 5.1-.6 9-3.6 10.8-1 .6-2.4 1-3.9 1l-.6-3.6c1-.1 1.8-.5 2.3-1.1 1.2-1.2 1.5-3.8 1.5-6.8v-8.7h13.3zm3.6 19.8c.4-.6.7-1.4 1-2.2.8-2.3 1.3-4.6 2.8-6 .4-.4 1-.8 1.6-1v-.1c-2.2-.4-4.2-1.9-4.2-4.8 0-1.9.8-3.3 2.1-4.2 1.5-1.2 3.9-1.6 6.5-1.6 2.2 0 4.3.2 5.7.4v19.5H548v-7.8h-1.1c-.9 0-1.6.3-2.1.8-1.3 1.2-1.8 3.7-2.3 5.3-.2.6-.4 1.1-.7 1.7h-4.9zm11.1-16.4c-.3-.1-.9-.2-1.8-.2-1.9 0-3.5.8-3.5 2.8 0 1.8 1.7 2.8 3.7 2.8.6 0 1.2 0 1.6-.1v-5.3zm21.5 8h-7.3v4.7h8.1v3.7h-12.6v-19.8H570v3.7h-7.7v4.1h7.3v3.6zm22.1.8c-.1-2.4-.2-5.3-.2-8.1h-.1c-.6 2.5-1.4 5.3-2.2 7.7l-2.4 7.7h-3.5l-2.1-7.7c-.6-2.3-1.3-5.1-1.8-7.7h-.1c-.1 2.7-.2 5.7-.4 8.2l-.4 7.5h-4.1l1.3-19.8h6l1.9 6.6c.6 2.3 1.2 4.8 1.7 7.1h.1c.6-2.3 1.2-4.9 1.9-7.1l2.1-6.6h5.8l1.1 19.8h-4.4l-.2-7.6zm-180.1 40.4c-.7.4-2.4.8-4.5.8-6.1 0-9.3-3.8-9.3-8.9 0-6 4.3-9.4 9.7-9.4 2.1 0 3.7.4 4.4.8l-.8 3.2c-.8-.3-1.9-.7-3.4-.7-3.2 0-5.6 1.9-5.6 5.9 0 3.5 2.1 5.8 5.7 5.8 1.2 0 2.5-.3 3.3-.6l.5 3.1zm15.7-17.2v3.3h-7.8v3c.6-.1 1.4-.1 2.2-.1 1.8 0 3.7.4 5 1.4 1.2.9 2 2.3 2 4.2 0 1.7-.7 3.1-1.7 4-1.7 1.5-4.5 2.1-7.2 2.1-2 0-3.4-.1-4.3-.3v-17.6h11.8zm-7.8 14.8c.4.1 1 .1 1.6.1 1 0 1.9-.3 2.6-.9.5-.5.9-1.2.9-2 0-.9-.4-1.6-.9-2-.7-.6-1.7-.8-2.7-.8-.4 0-.9 0-1.4.1v5.5zm29.2-6.1c0 5.8-3.5 9.3-8.7 9.3-5.3 0-8.3-4-8.3-9 0-5.3 3.4-9.3 8.6-9.3 5.5 0 8.4 4.1 8.4 9zm-12.8.2c0 3.5 1.6 5.9 4.3 5.9 2.7 0 4.3-2.6 4.3-6 0-3.2-1.5-5.9-4.3-5.9-2.7 0-4.3 2.6-4.3 6zm16.8-8.7c1.2-.2 3-.4 5.4-.4 2.5 0 4.2.5 5.4 1.4 1.1.9 1.9 2.4 1.9 4.1 0 1.7-.6 3.2-1.6 4.2-1.4 1.3-3.4 1.9-5.8 1.9-.5 0-1 0-1.4-.1v6.3h-4v-17.4zm3.9 8.1c.3.1.8.1 1.3.1 2.1 0 3.4-1.1 3.4-2.9 0-1.6-1.1-2.6-3.1-2.6-.8 0-1.4.1-1.7.2v5.2zm16.7-8.3v6.8h6.6v-6.8h4v17.7h-4v-7.4h-6.6v7.4h-4v-17.7h4zm19.4 0v6.2c.5-.1 1.3-.2 2-.2 3.7 0 7 1.8 7 5.8 0 1.7-.6 2.9-1.4 3.8-1.7 1.7-4.7 2.3-7.3 2.3-1.9 0-3.4-.1-4.3-.3v-17.6h4zm-.1 14.8c.3.1.8.1 1.4.1 1.8 0 3.4-1 3.4-3s-1.9-2.8-3.4-2.8c-.6 0-1 .1-1.4.1v5.6zm14.7-14.8v17.7h-4v-17.7h4zm8.7 0v5.3c0 2.8-.1 5.6-.2 8h.1c.9-2.1 2.1-4.4 3.2-6.3l3.8-7h4.1v17.7h-3.7v-5.2c0-2.7.1-5.2.3-7.5h-.1c-.8 2.1-1.9 4.4-3 6.3l-3.6 6.4h-4.6v-17.7h3.7zm2.5-4.1c0 1 .3 1.6 1.2 1.6.8 0 1.1-.6 1.2-1.6h2.7c-.2 2.3-1.6 3.2-4 3.2-2.3 0-3.6-1-3.8-3.2h2.7zm30.7 4.1v3.3h-6.7v14.4h-4v-17.7h10.7zm3.4.2c1.2-.2 3-.4 5.4-.4 2.5 0 4.2.5 5.4 1.4 1.1.9 1.9 2.4 1.9 4.1 0 1.7-.6 3.2-1.6 4.2-1.4 1.3-3.4 1.9-5.8 1.9-.5 0-1 0-1.4-.1v6.3h-4v-17.4zm4 8.1c.3.1.8.1 1.3.1 2.1 0 3.4-1.1 3.4-2.9 0-1.6-1.1-2.6-3.1-2.6-.8 0-1.4.1-1.7.2v5.2zm15.2-8.3l2.6 6.2c.5 1.3.8 2.3 1.2 3.4h.1c.2-.8.5-1.9 1-3.4l1.9-6.2h4.2l-3.3 8.6c-1.1 2.8-2.2 5.4-3.5 7.1-1.2 1.4-2.6 2.3-4.7 2.3-.9 0-1.5-.1-2-.3l.3-3.2c.3.1.7.1 1.3.1 1.2 0 2.1-.8 2.4-1.7.2-.3.1-.5-.1-.8l-6-12.2h4.6zm13.5 1.1c1.2-.7 3.1-1.4 5.5-1.4 3.9 0 6.2 1.9 6.2 4.5 0 2.2-1.5 3.7-3.5 4.2v.1c2.2.3 4.2 1.8 4.2 4.2 0 3.9-4 5.3-7.3 5.3-1.8 0-3.8-.4-5.3-1.2l.8-3.1c.8.4 2.6 1.1 4.3 1.1 2 0 3.3-.8 3.3-2.3 0-2-2-2.4-3.7-2.4H588v-3h1.7c1.8 0 3.2-.8 3.2-2.2 0-1.2-1-1.9-2.7-1.9-1.4 0-2.9.6-3.9 1.1l-1.1-3z"/></symbol><symbol viewBox="-98.7 -49 238 200" id="transport-icon-skif"><path d="M65.3-31.2s-.4.1-1.2.4c-.8.3-1.9.7-3.4 1.3-3 1.1-7.3 2.9-12.8 5.4-2.7 1.3-5.7 2.7-8.9 4.3-1.6.8-3.2 1.7-4.9 2.6-1.7.9-3.4 1.9-5.2 2.9-3.5 2.1-7.2 4.5-10.9 7.1-3.7 2.7-7.5 5.6-11.1 9C3.3 5.2-.2 9-3.3 13.2c-.7 1.1-1.5 2.2-2.2 3.3-.7 1.1-1.4 2.3-2.1 3.4-.6 1.2-1.3 2.4-1.9 3.6-.6 1.3-1.2 2.6-1.7 3.9l-.5 1c-.1.2-.1.3-.2.5l-.3.6-.7 1.2c-.2.4-.5.7-.7 1.1-1 1.4-2.1 2.7-3.2 3.9-2.3 2.4-4.8 4.4-7.4 6.4-5.1 3.8-10.5 7.1-15.7 10.8-5.2 3.7-10.2 7.7-14.2 12.7-2 2.5-3.7 5.3-5 8.2-1.3 3-2 6.1-2.8 9.5-.8 3.3-1.6 6.6-2.5 9.9-.8 3.3-1.7 6.6-2.6 9.9-1.7 6.6-3.5 13.3-5 19.9-.4 1.6-.7 3.3-.9 4.8-.1.7-.2 1.6-.1 1.9 0 .1 0 .1 0 0v-.2s-.1-.1-.1-.2c-.1-.2-.3-.5-.6-.6-.2-.1-.4-.2-.5-.2-.1-.1-.3-.1-.5-.1h-.6c.3-.2.9-.7 1.4-1.2l1.8-1.8 3.5-3.7a251.238 251.238 0 0 1 14.9-14.3c10.3-9.1 21.5-17.1 33.6-23 .8-.4 1.5-.7 2.3-1.1.8-.3 1.5-.7 2.3-1 1.5-.7 3.1-1.2 4.6-1.9 3.1-1.1 6.3-2.1 9.5-2.8 1.6-.4 3.2-.7 4.8-1 1.4-.2 2.9-.5 4.6-.6 3-.3 5.9-.6 9-.8l4.5-.3c1.5-.1 2.9-.1 4.4-.2 2.9-.1 5.8-.2 8.6-.2 5.6-.1 11 .1 16.2.2 10.4.4 19.7.9 27.8.6 1-.1 2-.1 3-.2s1.9-.2 2.9-.3c1.9-.2 3.8-.4 5.6-.6 3.6-.4 6.9-.8 9.9-1.1 6-.6 10.7-1.1 13.9-1.4 3.2-.3 4.9-.4 4.9-.4.2 0 .5.2.5.4s-.1.4-.3.5c0 0-1.7.4-4.8 1.2-3.1.8-7.7 1.9-13.6 3.2-2.9.7-6.2 1.4-9.7 2.2-1.8.4-3.6.8-5.5 1.2l-3 .6c-1 .2-2.1.3-3.1.5-8.5 1.2-18.1 1.3-28.4 1.5-10.2.2-21.3.7-32.8 1.8-2.8.2-5.9.6-8.9.9l-4.2.6c-1.4.3-2.8.5-4.2.9-2.8.6-5.7 1.5-8.5 2.5s-5.7 2.1-8.5 3.4c-11.2 5.1-22.1 12.3-32.4 20.7-2.6 2.1-5.1 4.2-7.7 6.4-2.6 2.2-5.1 4.4-7.6 6.7l-3.8 3.4c-.7.6-1.3 1.2-2 1.7-.8.6-1.4 1.2-2.7 1.9-.3.2-.7.3-1.3.5-.2 0-.3.1-.5.1h-.6c-.5 0-1-.2-1.6-.5-.5-.3-.9-.7-1.1-1.1-.1-.2-.2-.4-.3-.5-.1-.1-.1-.3-.2-.5-.1-.5-.2-.9-.2-1.3 0-1.3.2-2.2.4-3.2.4-1.8.9-3.5 1.4-5.2 1-3.3 2.2-6.6 3.3-9.8 1.1-3.3 2.1-6.5 3.2-9.7 1-3.3 2-6.5 3-9.8.9-3.3 1.8-6.5 2.6-9.8l.6-2.4c.2-.8.4-1.6.6-2.5l.3-1.3c.1-.4.3-.8.4-1.2l.4-1.2c.2-.4.3-.8.5-1.2 1.3-3.2 3-6.2 5-9 4-5.6 8.9-10.3 13.8-14.5 4.9-4.3 10-8.1 14.5-12.1 2.2-2 4.3-4 6.1-6.1.9-1.1 1.7-2.1 2.3-3.2l.5-.8.4-.7.2-.4c.1-.1.1-.3.2-.5l.4-1c.6-1.4 1.2-2.8 1.7-4.2.7-1.4 1.4-2.8 2.1-4.1l2.4-3.9c.8-1.2 1.7-2.4 2.6-3.6C-6 3.9-2-.1 2-3.6c8.1-7 16.5-11.9 24.2-15.7 1.9-.9 3.8-1.8 5.6-2.6 1.8-.8 3.6-1.5 5.3-2.2 3.4-1.3 6.6-2.5 9.5-3.4 5.8-1.8 10.4-2.9 13.6-3.6 3.2-.7 4.9-.9 4.9-.9.2 0 .5.1.5.4 0 .2-.2.4-.3.4z"/><path d="M9.5 30.4s-12.3.3-11.8 6.7c.9 5.2 10.8 7.3 12.9 2.3 2-4.6-3.9-5-2.6-7 1.2-1.9 1.5-2 1.5-2z"/><path fill="#F14C27" d="M74.3 116.9H-32.2v-15.8l2.6-1.6v14.8H71.7V17.9H-29.6v20.3l-2.6 2.2V15.3H74.3z"/><path fill="#F14C27" d="M-29.5 89.3l-2.6 1.6V47.6l2.6-1.8z"/></symbol><symbol viewBox="0 0 304.36 304.36" id="vk"><path d="M261.945 175.576c10.096 9.857 20.752 19.131 29.807 29.982 4 4.822 7.787 9.798 10.684 15.394 4.105 7.955.387 16.709-6.746 17.184l-44.34-.02c-11.436.949-20.559-3.655-28.23-11.474-6.139-6.253-11.824-12.908-17.727-19.372-2.42-2.642-4.953-5.128-7.979-7.093-6.053-3.929-11.307-2.726-14.766 3.587-3.523 6.421-4.322 13.531-4.668 20.687-.475 10.441-3.631 13.186-14.119 13.664-22.414 1.057-43.686-2.334-63.447-13.641-17.422-9.968-30.932-24.04-42.691-39.971-22.895-31.021-40.428-65.108-56.186-100.15C-2.01 76.458.584 72.22 9.295 72.07c14.465-.281 28.928-.261 43.41-.02 5.879.086 9.771 3.458 12.041 9.012 7.826 19.243 17.402 37.551 29.422 54.521 3.201 4.518 6.465 9.036 11.113 12.216 5.142 3.521 9.057 2.354 11.476-3.374 1.535-3.632 2.207-7.544 2.553-11.434 1.146-13.383 1.297-26.743-.713-40.079-1.234-8.323-5.922-13.711-14.227-15.286-4.238-.803-3.607-2.38-1.555-4.799 3.564-4.172 6.916-6.769 13.598-6.769h50.111c7.889 1.557 9.641 5.101 10.721 13.039l.043 55.663c-.086 3.073 1.535 12.192 7.07 14.226 4.43 1.448 7.35-2.096 10.008-4.905 11.998-12.734 20.561-27.783 28.211-43.366 3.395-6.852 6.314-13.968 9.143-21.078 2.096-5.276 5.385-7.872 11.328-7.757l48.229.043c1.43 0 2.877.021 4.262.258 8.127 1.385 10.354 4.881 7.844 12.817-3.955 12.451-11.65 22.827-19.174 33.251-8.043 11.129-16.645 21.877-24.621 33.072-7.328 10.223-6.746 15.376 2.357 24.255zm0 0" fill-rule="evenodd" clip-rule="evenodd"/></symbol></svg>