<svg version="1" xmlns="http://www.w3.org/2000/svg" width="346.667" height="346.667" viewBox="0 0 260.000000 260.000000"><path d="M112 1c-2.5.4-5.8 1-7.5 1.3-13 2.1-34.5 10.8-46.3 18.9C28.8 41 7.7 73.5 1.7 108.1-1.2 124.2 0 147.5 4.3 164c10.9 41 43.3 75.6 83.5 89 4.8 1.6 10.1 3.2 11.7 3.5 21.8 4.4 42.4 4.4 60 0 53.1-13.2 90.8-54 99-107.5 1.3-8.4 1.3-33.3 0-39.5-.6-2.9-2.2-10.1-3.1-14-1.7-6.9-6.1-17.9-10.6-26.5-14.5-27.3-38.5-48.7-67.3-60-5.7-2.2-11.2-4-12.3-4-1 0-2.2-.3-2.6-.8-.4-.4-1.1-.7-1.4-.8-1-.1-8.3-1.6-10.7-2.1C147 .4 116.7.2 112 1zm26.1 93.4c4.6 1 10.9 4.2 15.3 7.8 12.6 10.4 16.5 29.2 9 44-2.3 4.5-10.2 13.8-11.8 13.8-.4 0-2 .9-3.5 1.9-3.7 2.6-10.3 4.3-17.4 4.2-19.9-.1-35.9-15.9-36-35.6 0-8.5 2.3-16 6.8-22 1.9-2.4 3-4.7 2.7-5.1-.4-.4-.2-.4.4-.1.7.4 1.8 0 2.5-.9 2.1-2.6 9.2-6.3 14.8-7.7 5.5-1.4 11-1.5 17.2-.3z"/></svg>