<svg width="599" height="490" viewBox="0 0 599 490" fill="none" xmlns="http://www.w3.org/2000/svg">
<path d="M243.9 487.8C378.602 487.8 487.8 378.602 487.8 243.9C487.8 109.198 378.602 0 243.9 0C109.198 0 0 109.198 0 243.9C0 378.602 109.198 487.8 243.9 487.8Z" transform="translate(56 2)" fill="#FEE699"/>
<path d="M380.369 109.518L369.777 67.2142C372.673 66.6 374.846 64.0348 374.846 60.9614V54.1407C374.846 39.3314 362.78 27.2837 347.949 27.2837H299.707V13.2155C299.707 5.92815 293.77 0 286.472 0H40.5582C33.2601 0 27.3232 5.92815 27.3232 13.2155V129.17C27.3232 132.702 30.1902 135.565 33.7274 135.565C37.2638 135.565 40.1316 132.702 40.1316 129.17V13.2155C40.1316 12.9802 40.3225 12.7896 40.5582 12.7896H286.471C286.706 12.7896 286.897 12.9802 286.897 13.2155V129.172C286.897 132.703 289.764 135.567 293.302 135.567C296.838 135.567 299.706 132.704 299.706 129.172V121.923H375.248C375.255 121.923 375.261 121.925 375.268 121.925C375.275 121.925 375.281 121.924 375.289 121.924C384.584 121.931 392.476 128.023 395.186 136.418H375.273C371.736 136.418 368.868 139.281 368.868 142.813V156.454C368.868 167.503 377.87 176.491 388.934 176.491H396.192V204.626H379.447C373.947 188.767 358.848 177.342 341.118 177.342C323.388 177.342 308.288 188.767 302.788 204.626H299.705V156.453C299.705 152.922 296.838 150.059 293.301 150.059C289.764 150.059 286.896 152.921 286.896 156.453V204.625H154.028C148.527 188.767 133.429 177.342 115.699 177.342C97.9685 177.342 82.869 188.766 77.369 204.625H40.5582C40.3225 204.625 40.1316 204.435 40.1316 204.2V190.131H67.8821C71.4186 190.131 74.2864 187.269 74.2864 183.736C74.2864 180.204 71.4194 177.342 67.8821 177.342H6.40422C2.8678 177.342 0 180.204 0 183.736C0 187.269 2.867 190.131 6.40422 190.131H27.324V204.2C27.324 211.487 33.2609 217.415 40.559 217.415H75.1515C75.1499 217.557 75.1403 217.698 75.1403 217.841C75.1403 240.171 93.3353 258.34 115.699 258.34C138.062 258.34 156.257 240.171 156.257 217.841C156.257 217.697 156.247 217.557 156.245 217.415H300.57C300.568 217.557 300.559 217.698 300.559 217.841C300.559 240.171 318.754 258.34 341.117 258.34C363.48 258.34 381.675 240.171 381.675 217.841C381.675 217.697 381.666 217.557 381.664 217.415H402.596C406.132 217.415 409 214.552 409 211.02V142.812C409.001 125.97 396.557 111.978 380.369 109.518ZM299.707 40.0717H347.949C355.718 40.0717 362.038 46.3827 362.038 54.1399V54.5658H299.707V40.0717ZM299.707 109.133V67.3554H356.611L367.071 109.133H299.707ZM115.699 245.551C100.397 245.551 87.948 233.12 87.948 217.841C87.948 202.562 100.397 190.131 115.699 190.131C131 190.131 143.449 202.562 143.449 217.841C143.449 233.12 131 245.551 115.699 245.551ZM341.119 245.551C325.817 245.551 313.368 233.12 313.368 217.841C313.368 202.562 325.817 190.131 341.119 190.131C356.42 190.131 368.869 202.562 368.869 217.841C368.869 233.12 356.42 245.551 341.119 245.551ZM396.193 163.7H388.935C384.933 163.7 381.677 160.449 381.677 156.453V149.205H396.192L396.193 163.7Z" transform="translate(130 181.66)" fill="#132C81"/>
<path d="M265.978 177.342H170.346C166.809 177.342 163.941 180.205 163.941 183.737C163.941 187.269 166.808 190.131 170.346 190.131H265.978C269.515 190.131 272.383 187.269 272.383 183.737C272.383 180.205 269.516 177.342 265.978 177.342Z" transform="translate(130 181.66)" fill="#132C81"/>
<path d="M102.036 150.059H20.0654C16.5289 150.059 13.6611 152.921 13.6611 156.453C13.6611 159.985 16.5281 162.848 20.0654 162.848H102.036C105.573 162.848 108.441 159.985 108.441 156.453C108.441 152.921 105.573 150.059 102.036 150.059Z" transform="translate(130 181.66)" fill="#132C81"/>
<path d="M73.6979 335.285C66.3998 335.285 60.4629 341.213 60.4629 348.501C60.4629 355.788 66.3998 361.716 73.6979 361.716C80.996 361.716 86.9329 355.788 86.9329 348.501C86.9329 341.213 80.996 335.285 73.6979 335.285Z" transform="translate(172 51)" fill="#DB0066"/>
<path d="M299.119 335.285C291.821 335.285 285.884 341.213 285.884 348.501C285.884 355.788 291.821 361.716 299.119 361.716C306.417 361.716 312.354 355.788 312.354 348.501C312.354 341.213 306.417 335.285 299.119 335.285Z" transform="translate(172 51)" fill="#DB0066"/>
<path fill-rule="evenodd" clip-rule="evenodd" d="M6 67C6 92.4051 26.5949 113 52 113H98V67C98 41.5949 77.4051 21 52 21C26.5949 21 6 41.5949 6 67ZM104 116.019V67C104 38.2812 80.7188 15 52 15C23.2812 15 0 38.2812 0 67C0 95.7188 23.2812 119 52 119H101.02C102.676 119 104 117.676 104 116.019Z" transform="translate(172 51)" fill="#DB0066"/>
<path fill-rule="evenodd" clip-rule="evenodd" d="M223.135 59.5C223.135 88.5693 199.569 112.135 170.5 112.135H117.865V59.5C117.865 30.4307 141.431 6.86538 170.5 6.86538C199.569 6.86538 223.135 30.4307 223.135 59.5ZM111 115.589V59.5C111 26.6391 137.639 0 170.5 0C203.361 0 230 26.6391 230 59.5C230 92.3609 203.361 119 170.5 119H114.41C112.514 119 111 117.485 111 115.589Z" transform="translate(172 51)" fill="#DB0066"/>
</svg>
