<?xml version="1.0" encoding="utf-8"?>
<!-- Generator: Adobe Illustrator 19.0.0, SVG Export Plug-In . SVG Version: 6.00 Build 0)  -->
<svg version="1.1" id="Capa_1" xmlns="http://www.w3.org/2000/svg" xmlns:xlink="http://www.w3.org/1999/xlink" x="0px" y="0px"
	 viewBox="337.3 -388.8 598.5 487.8" enable-background="new 337.3 -388.8 598.5 487.8" xml:space="preserve">
<circle id="XMLID_45_" fill="#FEE699" cx="637.2" cy="-144.9" r="243.9"/>
<path id="XMLID_7_" fill="#132C81" d="M865-138.9H754.3c-3.3,0-6-2.7-6-6s2.7-6,6-6H865c1.1,0,2-0.9,2-2V-196c0-1.1-0.9-2-2-2H754.7
	c-3.3,0-6-2.7-6-6s2.7-6,6-6H865c7.7,0,14,6.3,14,14v43.1C879-145.2,872.7-138.9,865-138.9z M655.3-144.9c0-3.3-2.7-6-6-6H536
	c-1.1,0-2-0.9-2-2V-196c0-1.1,0.9-2,2-2h112.3c3.3,0,6-2.7,6-6s-2.7-6-6-6H536c-7.7,0-14,6.3-14,14v43.1c0,7.7,6.3,14,14,14h113.3
	C652.6-138.9,655.3-141.6,655.3-144.9z M668.3,43c0-3.3-2.7-6-6-6H555.7c-3.8,0-7-3.1-7-7v-143.6c0-3.8,3.1-7,7-7h106.6
	c3.3,0,6-2.7,6-6s-2.7-6-6-6H555.7c-10.5,0-19,8.5-19,19V30c0,10.5,8.5,19,19,19h106.6C665.6,49,668.3,46.3,668.3,43z M864.2,30
	v-143.6c0-10.5-8.5-19-19-19H740c-3.3,0-6,2.7-6,6s2.7,6,6,6h105.3c3.8,0,7,3.1,7,7V30c0,3.8-3.1,7-7,7H740.7c-3.3,0-6,2.7-6,6
	s2.7,6,6,6h104.6C855.7,49,864.2,40.5,864.2,30z"/>
<path id="XMLID_2_" fill="#DB0066" d="M715.3-139h-27.7c-13.8,0-25-11.2-25-25v-27c0-13.8,11.2-25,25-25h27.7c13.8,0,25,11.2,25,25
	v27C740.3-150.2,729.1-139,715.3-139z M687.7-210c-10.5,0-19,8.5-19,19v27c0,10.5,8.5,19,19,19h27.7c10.5,0,19-8.5,19-19v-27
	c0-10.5-8.5-19-19-19H687.7z M710.4,46h-17.1c-8.1,0-14.6-6.6-14.6-14.6v-146.3c0-8.1,6.6-14.6,14.6-14.6h17.1
	c8.1,0,14.6,6.6,14.6,14.6V31.4C725,39.4,718.4,46,710.4,46z M693.3-123.5c-4.8,0-8.6,3.9-8.6,8.6V31.4c0,4.8,3.9,8.6,8.6,8.6h17.1
	c4.8,0,8.6-3.9,8.6-8.6v-146.3c0-4.8-3.9-8.6-8.6-8.6H693.3z M694-221.1h-56.3c-32.7,0-59.3-26.6-59.3-59.3s26.6-59.3,59.3-59.3
	s59.3,26.6,59.3,59.3v56.3C696.9-222.4,695.6-221.1,694-221.1z M637.7-333.7c-29.5,0-53.4,24-53.4,53.4s24,53.4,53.4,53.4h53.4
	v-53.4C691.1-309.8,667.1-333.7,637.7-333.7z M755.2-221h-47.5c-1.7,0-3-1.3-3-3v-47.5c0-27.8,22.7-50.5,50.5-50.5
	s50.5,22.7,50.5,50.5S783.1-221,755.2-221z M710.7-227h44.5c24.5,0,44.5-20,44.5-44.5s-20-44.5-44.5-44.5s-44.5,20-44.5,44.5V-227z"
	/>
</svg>
