<?xml version="1.0" encoding="utf-8"?>
<!-- Generator: Adobe Illustrator 19.0.0, SVG Export Plug-In . SVG Version: 6.00 Build 0)  -->
<svg version="1.1" id="Capa_1" xmlns="http://www.w3.org/2000/svg" xmlns:xlink="http://www.w3.org/1999/xlink" x="0px" y="0px"
	 viewBox="337.3 -388.8 598.5 487.8" enable-background="new 337.3 -388.8 598.5 487.8" xml:space="preserve">
<circle id="XMLID_45_" fill="#FEE699" cx="622.2" cy="-144.9" r="243.9"/>
<g id="XMLID_6_">
	<g id="XMLID_111_">
		<g id="XMLID_112_">
			<path id="XMLID_113_" fill="#DB0066" d="M674.1-75.2c1.1,0,2.4-0.3,3.7-0.9l23-12.6l23,12.6c1.3,0.6,2.6,0.9,3.7,0.9
				c3.5,0,5.8-2.7,5.7-7.2l-3-25.5l17.2-17.7c3.6-4.7,1.8-9.8-3.9-11.3l-25.6-4.1l-11.3-22.7c-1.7-2.5-3.9-3.8-6.1-3.8
				c-2.2,0-4.3,1.2-6,3.5l-13.1,23L658-137c-5.7,1.6-7.4,6.8-3.8,11.5l17.2,17.7l-3,25.5C668.2-77.9,670.6-75.2,674.1-75.2z
				 M660.4-129.9l22.2-3.7l3.5-0.6l1.8-3.1l12.6-22.1l10.8,21.8l1.7,3.4l3.8,0.6l24.2,3.9l-16.2,16.6l-2.5,2.6l0.4,3.5l2.8,23.3
				l-21.2-11.5l-3.6-1.9l-3.6,1.9L676-83.7l2.8-23.3l0.4-3.5l-2.5-2.6L660.4-129.9z"/>
		</g>
	</g>
</g>
<path id="XMLID_10_" fill="#132C81" d="M700.2-11.3c-59.8,0-108.5-48.7-108.5-108.5s48.7-108.5,108.5-108.5s108.5,48.7,108.5,108.5
	S760-11.3,700.2-11.3z M700.2-216.3c-53.2,0-96.5,43.3-96.5,96.5s43.3,96.5,96.5,96.5s96.5-43.3,96.5-96.5S753.4-216.3,700.2-216.3z
	"/>
<path id="XMLID_11_" fill="#132C81" d="M638-56.1c-0.6,0-1.3-0.2-1.8-0.7c-16.8-16.8-26.1-39.2-26.1-63c0-23.6,9.1-45.9,25.8-62.6
	c1-1,2.6-1,3.6,0c1,1,1,2.6,0,3.6c-15.7,15.8-24.3,36.8-24.3,59.1c0,22.4,8.7,43.5,24.6,59.4c1,1,1,2.6,0,3.6
	C639.3-56.4,638.6-56.1,638-56.1z"/>
<path id="XMLID_9_" fill="#132C81" d="M795-25.2c-0.6,0-1.3-0.2-1.8-0.7l-13.4-13.4c-1-1-1-2.6,0-3.6c1-1,2.6-1,3.6,0l13.4,13.4
	c1,1,1,2.6,0,3.6C796.3-25.5,795.6-25.2,795-25.2z"/>
<path id="XMLID_12_" fill="#132C81" d="M875.6,69.9c-4.9,0-9.4-1.8-12.9-5.2L800.8,5.6c-7.5-7.1-7.7-19-0.6-26.5l1.4-1.5
	c7.1-7.5,19-7.7,26.5-0.6L890,36.1c7.5,7.1,7.7,19,0.6,26.5h0l-1.4,1.5c-3.4,3.6-8.1,5.7-13.1,5.8C875.9,69.9,875.7,69.9,875.6,69.9
	z M815.1-16.2c-1.8,0-3.6,0.7-4.9,2.1l-1.4,1.5c-2.6,2.7-2.5,7,0.2,9.5L871,56c1.3,1.2,3,1.9,4.8,1.8c1.8,0,3.5-0.8,4.7-2.1l1.4-1.5
	c2.6-2.7,2.5-7-0.2-9.5l-61.9-59.1C818.5-15.6,816.8-16.2,815.1-16.2z"/>
<path id="XMLID_13_" fill="#132C81" d="M497.3,32c-3.3,0-6-2.7-6-6v-324.7c0-0.7,0.3-15.2,12.2-27.1c11.1-11.1,23.7-10.9,26.2-10.8
	l152,0l60.8,60.2v41.2c0,3.3-2.7,6-6,6s-6-2.7-6-6v-36.2l-53.7-53.2l-147.6,0l-0.3,0c-0.3,0-8.9-0.7-16.9,7.3
	c-8.3,8.3-8.7,18.6-8.7,18.7l0,324.6C503.3,29.3,500.6,32,497.3,32z"/>
<path id="XMLID_14_" fill="#132C81" d="M722.8-263.8h-31.9c-14.1,0-18.1-11.9-18.2-18.2l0-34.4c0-1.7,1.3-3,3-3s3,1.3,3,3v34.3
	c0,1.2,0.7,12.3,12.3,12.3h31.9c1.7,0,3,1.3,3,3S724.5-263.8,722.8-263.8z"/>
</svg>
