<?xml version="1.0" encoding="utf-8"?>
<!-- Generator: Adobe Illustrator 19.0.0, SVG Export Plug-In . SVG Version: 6.00 Build 0)  -->
<svg version="1.1" id="Capa_1" xmlns="http://www.w3.org/2000/svg" xmlns:xlink="http://www.w3.org/1999/xlink" x="0px" y="0px"
	 viewBox="337.3 -388.8 598.5 487.8" enable-background="new 337.3 -388.8 598.5 487.8" xml:space="preserve">
<circle id="XMLID_45_" fill="#FEE699" cx="631.2" cy="-144.9" r="243.9"/>
<path id="XMLID_84_" fill="#132C81" d="M591,53C525.6,53,472.3-0.2,472.3-65.7S525.6-184.3,591-184.3c65.4,0,118.7,53.2,118.7,118.7
	S656.4,53,591,53z M591-172.3c-58.8,0-106.7,47.9-106.7,106.7C484.3-6.9,532.2,41,591,41S697.7-6.9,697.7-65.7
	C697.7-124.5,649.8-172.3,591-172.3z"/>
<path id="XMLID_98_" fill="#132C81" d="M591,36.3c-56.2,0-102-45.7-102-102s45.7-102,102-102c56.2,0,102,45.7,102,102
	S647.2,36.3,591,36.3z M591-162.4c-53.3,0-96.7,43.4-96.7,96.7c0,53.3,43.4,96.7,96.7,96.7s96.7-43.4,96.7-96.7
	C687.7-119,644.3-162.4,591-162.4z"/>
<path id="XMLID_9_" fill="#DB0066" d="M799.9-80.3h-17c-4.2,0-7.6-3.4-7.6-7.6V-101c0-4.2,3.4-7.6,7.6-7.6h17c4.2,0,7.6,3.4,7.6,7.6
	v13.1C807.5-83.7,804.1-80.3,799.9-80.3z M784.9-89.9h13V-99h-13V-89.9z"/>
<path id="XMLID_1_" fill="#132C81" d="M802-148h-21.3c-3.6,0-6.5-2.9-6.5-6.5v-16.4c0-3.6,2.9-6.5,6.5-6.5H802
	c3.6,0,6.5,2.9,6.5,6.5v16.4C808.5-150.9,805.6-148,802-148z M780.7-171.3c-0.3,0-0.5,0.2-0.5,0.5v16.4c0,0.3,0.2,0.5,0.5,0.5H802
	c0.3,0,0.5-0.2,0.5-0.5v-16.4c0-0.3-0.2-0.5-0.5-0.5H780.7z M802-113.7h-21.3c-3.6,0-6.5-2.9-6.5-6.5v-16.4c0-3.6,2.9-6.5,6.5-6.5
	H802c3.6,0,6.5,2.9,6.5,6.5v16.4C808.5-116.6,805.6-113.7,802-113.7z M780.7-137c-0.3,0-0.5,0.2-0.5,0.5v16.4c0,0.3,0.2,0.5,0.5,0.5
	H802c0.3,0,0.5-0.2,0.5-0.5v-16.4c0-0.3-0.2-0.5-0.5-0.5H780.7z M762-113.7h-21.3c-3.6,0-6.5-2.9-6.5-6.5v-16.4
	c0-3.6,2.9-6.5,6.5-6.5H762c3.6,0,6.5,2.9,6.5,6.5v16.4C768.5-116.6,765.6-113.7,762-113.7z M740.7-137c-0.3,0-0.5,0.2-0.5,0.5v16.4
	c0,0.3,0.2,0.5,0.5,0.5H762c0.3,0,0.5-0.2,0.5-0.5v-16.4c0-0.3-0.2-0.5-0.5-0.5H740.7z M762-47.2h-21.3c-3.6,0-6.5-2.9-6.5-6.5V-70
	c0-3.6,2.9-6.5,6.5-6.5H762c3.6,0,6.5,2.9,6.5,6.5v16.4C768.5-50.1,765.6-47.2,762-47.2z M740.7-70.5c-0.3,0-0.5,0.2-0.5,0.5v16.4
	c0,0.3,0.2,0.5,0.5,0.5H762c0.3,0,0.5-0.2,0.5-0.5V-70c0-0.3-0.2-0.5-0.5-0.5H740.7z M841.3-113.7H820c-3.6,0-6.5-2.9-6.5-6.5v-16.4
	c0-3.6,2.9-6.5,6.5-6.5h21.3c3.6,0,6.5,2.9,6.5,6.5v16.4C847.8-116.6,844.8-113.7,841.3-113.7z M820-137c-0.3,0-0.5,0.2-0.5,0.5
	v16.4c0,0.3,0.2,0.5,0.5,0.5h21.3c0.3,0,0.5-0.2,0.5-0.5v-16.4c0-0.3-0.2-0.5-0.5-0.5H820z M722.6-148h-21.3c-3.6,0-6.5-2.9-6.5-6.5
	v-16.4c0-3.6,2.9-6.5,6.5-6.5h21.3c3.6,0,6.5,2.9,6.5,6.5v16.4C729.1-150.9,726.2-148,722.6-148z M701.4-171.3
	c-0.3,0-0.5,0.2-0.5,0.5v16.4c0,0.3,0.2,0.5,0.5,0.5h21.3c0.3,0,0.5-0.2,0.5-0.5v-16.4c0-0.3-0.2-0.5-0.5-0.5H701.4z M857.7-210
	h-293c-1.5,0-2.6-1.2-2.6-2.6s1.2-2.6,2.6-2.6h293c1.5,0,2.6,1.2,2.6,2.6S859.1-210,857.7-210z M734.6,31c1.5-0.1,37.3-3.6,80-26
	c43.4-22.7,45.7-40,45.7-40.7l0-0.1v-142.5c0-1.5-1.2-2.6-2.6-2.6s-2.6,1.2-2.6,2.6v142.1c-0.3,1.4-4.4,16.4-42.9,36.5
	c-40.5,21.2-75.7,25.1-77.9,25.4H679c-1.5,0-2.6,1.2-2.6,2.6s1.2,2.6,2.6,2.6h55.5L734.6,31z M730.2,30.9
	C757.8,25,785.1,2,811.6-37.4c0.8-1.2,1.4-2.1,1.8-2.6c2.1-2.9,3.4-3,3.8-3c2-0.1,5.2,2.1,9.6,6.9c9.4,10.1,27.7,6.6,28.5,6.4
	c1.4-0.3,2.4-1.7,2.1-3.1c-0.3-1.4-1.7-2.4-3.1-2.1c-0.2,0-16.1,3.1-23.5-4.8c-5.9-6.3-9.9-8.8-13.8-8.6c-3.8,0.2-6.3,3.1-7.8,5.2
	c-0.4,0.6-1.1,1.5-1.9,2.8c-25.7,38.3-51.9,60.5-78.1,66.1c-1.4,0.3-2.3,1.7-2,3.1c0.3,1.2,1.4,2.1,2.6,2.1
	C729.8,31,730,31,730.2,30.9z M552.9-196v-91.6c0-3.3,2.7-5.9,5.9-5.9h7.3c3.3,0,5.9-2.7,5.9-5.9s-2.7-5.9-5.9-5.9h-7.3
	c-9.8,0-17.8,8-17.8,17.8v91.6c0,3.3,2.7,5.9,5.9,5.9S552.9-192.7,552.9-196z M887.4,35.1v-322.8c0-9.8-8-17.8-17.8-17.8h-8.9
	c-3.3,0-5.9,2.7-5.9,5.9s2.7,5.9,5.9,5.9h8.9c3.3,0,5.9,2.7,5.9,5.9V35.1c0,3.3-2.7,5.9-5.9,5.9H663.8c-3.3,0-5.9,2.7-5.9,5.9
	c0,3.3,2.7,5.9,5.9,5.9h205.8C879.4,52.9,887.4,44.9,887.4,35.1z M824.9-299.5c0-3.3-2.7-5.9-5.9-5.9H612.9c-3.3,0-5.9,2.7-5.9,5.9
	s2.7,5.9,5.9,5.9H819C822.3-293.6,824.9-296.2,824.9-299.5z M611.6-251.9c0-6.7-3.7-12.8-9.7-15.9c-1.8-0.9-3.9-0.2-4.9,1.5
	c-0.9,1.8-0.2,3.9,1.5,4.9c3.6,1.8,5.8,5.5,5.8,9.5c0,5.9-4.8,10.6-10.7,10.6s-10.7-4.8-10.7-10.6c0-1.9,0.5-3.8,1.5-5.4
	c1-1.7,0.4-3.9-1.3-4.9c-1.7-1-3.9-0.4-4.9,1.3c-1.6,2.7-2.5,5.9-2.5,9.1c0,9.8,8,17.9,17.8,17.9S611.6-242,611.6-251.9z
	 M835.9-235.1c4.7-0.5,9-2.8,12-6.4c4.3-5.2,5.3-12.2,2.6-18.4c-0.8-1.8-2.9-2.7-4.7-1.9c-1.8,0.8-2.7,2.9-1.9,4.7
	c1.6,3.7,1,7.9-1.5,11c-1.8,2.2-4.4,3.6-7.2,3.8c-2.8,0.3-5.6-0.6-7.8-2.4c-2.2-1.8-3.6-4.4-3.8-7.2s0.6-5.6,2.4-7.8
	c1.2-1.5,2.8-2.6,4.6-3.2c1.9-0.7,2.8-2.7,2.1-4.6c-0.7-1.9-2.8-2.8-4.6-2.1c-3,1.1-5.6,3-7.7,5.4c-3,3.7-4.4,8.3-4,13.1
	c0.5,4.7,2.8,9,6.4,12c3.2,2.6,7.2,4.1,11.3,4.1C834.7-235,835.3-235,835.9-235.1z M847.5-288.2c0-7.2-0.8-43.1-15.8-43.1
	c-9.3,0-12.3,13.4-13.3,17.7c-0.7,3.2,1.3,6.4,4.5,7.2c3.2,0.7,6.4-1.3,7.2-4.5c0.5-2.4,1.1-4.2,1.6-5.6c1.8,4.9,3.8,14.7,3.8,28.3
	c0,17.5-3.3,28.6-5.2,31.3c-2.6,0.6-4.6,3-4.6,5.8c0,3.3,2.7,6,6,6C846.7-245.1,847.5-281,847.5-288.2z M603.3-252.4
	c0-2.8-2-5.2-4.6-5.8c-1.9-2.6-5.2-13.8-5.2-31.3c0-13.6,2-23.4,3.8-28.3c0.5,1.4,1.1,3.2,1.6,5.6c0.7,3.2,3.9,5.3,7.2,4.5
	c3.2-0.7,5.3-3.9,4.5-7.2c-1-4.4-4-17.7-13.3-17.7c-15,0-15.8,35.9-15.8,43.1s0.8,43.1,15.8,43.1
	C600.6-246.4,603.3-249.1,603.3-252.4z"/>
<path id="XMLID_4_" fill="#132C81" d="M591-130.5c-2.7,0-4.8-2.2-4.8-4.8v-16.5c0-2.7,2.2-4.8,4.8-4.8s4.8,2.2,4.8,4.8v16.5
	C595.8-132.7,593.7-130.5,591-130.5z M595.8,21.9V5.4c0-2.7-2.2-4.8-4.8-4.8s-4.8,2.2-4.8,4.8v16.5c0,2.7,2.2,4.8,4.8,4.8
	S595.8,24.6,595.8,21.9z M525.5-65c0-2.7-2.2-4.8-4.8-4.8h-16.5c-2.7,0-4.8,2.2-4.8,4.8s2.2,4.8,4.8,4.8h16.5
	C523.3-60.1,525.5-62.3,525.5-65z M682.7-65c0-2.7-2.2-4.8-4.8-4.8h-16.5c-2.7,0-4.8,2.2-4.8,4.8s2.2,4.8,4.8,4.8h16.5
	C680.5-60.1,682.7-62.3,682.7-65z"/>
<path id="XMLID_35_" fill="#DB0066" d="M524.9-106.1c0,1.8-1.5,3.3-3.3,3.3c-1.8,0-3.3-1.5-3.3-3.3s1.5-3.3,3.3-3.3
	C523.4-109.4,524.9-107.9,524.9-106.1z M549.7-137.5c-1.8,0-3.3,1.5-3.3,3.3c0,1.8,1.5,3.3,3.3,3.3c1.8,0,3.3-1.5,3.3-3.3
	C553-136,551.6-137.5,549.7-137.5z M631.8-0.1c-1.8,0-3.3,1.5-3.3,3.3s1.5,3.3,3.3,3.3c1.8,0,3.3-1.5,3.3-3.3S633.6-0.1,631.8-0.1z
	 M660-28.2c-1.8,0-3.3,1.5-3.3,3.3s1.5,3.3,3.3,3.3c1.8,0,3.3-1.5,3.3-3.3S661.8-28.2,660-28.2z M542.5,5.2c-0.1,1.8,1.2,3.4,3,3.6
	c1.8,0.1,3.4-1.2,3.6-3c0.1-1.8-1.2-3.4-3-3.6C544.2,2,542.6,3.3,542.5,5.2z M516.7-25.1c-0.1,1.8,1.2,3.4,3,3.6
	c1.8,0.1,3.4-1.2,3.6-3s-1.2-3.4-3-3.6C518.4-28.3,516.8-26.9,516.7-25.1z M657.5-109.5c0,1.8,1.5,3.3,3.3,3.3
	c1.8,0,3.3-1.5,3.3-3.3c0-1.8-1.5-3.3-3.3-3.3C659-112.8,657.5-111.3,657.5-109.5z M629.3-137.6c0,1.8,1.5,3.3,3.3,3.3
	c1.8,0,3.3-1.5,3.3-3.3c0-1.8-1.5-3.3-3.3-3.3C630.8-140.9,629.3-139.4,629.3-137.6z"/>
<path id="XMLID_2_" fill="#DB0066" d="M577.8-93.3L565-83.8l-4.8-6.1l17.5-12.9h9.3V-30h-9L577.8-93.3z M612.1-29.2h7.7v-3h-5.4
	v-11.5h5.4v-3h-7.7v2.2h-14v10.8l6.1,0.4c2.7,0.2,4.6,0.4,5.9,0.8c1.3,0.4,1.9,0.9,1.9,1.7V-29.2z M600.8-36.5v-5h11.3v6.7
	c-0.8-0.4-1.8-0.7-3.1-0.9c-1.3-0.2-2.8-0.4-4.8-0.5L600.8-36.5z M614.2-61.5c-0.4-1-0.9-1.7-1.4-2.3l-1.9,1.2
	c0.5,0.5,0.9,1.2,1.2,2c0.3,0.8,0.4,1.6,0.4,2.6c0,1.5-0.5,2.6-1.5,3.3c-1,0.7-2.3,1.1-4,1.1l-0.1,0v-10.4h-1.6
	c-2.3,0-4.1,0.5-5.4,1.6c-1.4,1.1-2,2.7-2,4.9c0,1.9,0.8,3.6,2.3,5c1.5,1.4,3.5,2,5.8,2h0.7c2.4,0,4.4-0.7,5.9-2
	c1.5-1.3,2.2-3.1,2.2-5.5C614.7-59.4,614.5-60.5,614.2-61.5z M601.3-60.3c0.8-0.6,1.8-0.9,2.9-0.9h0.2v7.4l-0.1,0
	c-1.2-0.2-2.3-0.6-3.1-1.2c-0.8-0.7-1.2-1.5-1.2-2.6C600.1-58.8,600.5-59.7,601.3-60.3z M598.1-82v3h7.1v7.3h-7.1v3h16.3v-3h-6.9
	v-7.3h6.9v-3H598.1z M598.1-90.9v3h16.3v-7c0-1.9-0.5-3.4-1.4-4.5c-1-1.1-2.2-1.6-3.7-1.6c-1.5,0-2.7,0.5-3.6,1.6
	c-0.9,1.1-1.4,2.6-1.4,4.5v4.1H598.1z M606.6-94.9c0-1.1,0.3-1.8,0.8-2.4c0.6-0.5,1.2-0.8,1.9-0.8c0.8,0,1.4,0.3,1.9,0.8
	c0.5,0.5,0.8,1.3,0.8,2.4v4.1h-5.5V-94.9z"/>
</svg>
