<?xml version="1.0" encoding="utf-8"?>
<!-- Generator: Adobe Illustrator 19.0.0, SVG Export Plug-In . SVG Version: 6.00 Build 0)  -->
<svg version="1.1" id="Capa_1" xmlns="http://www.w3.org/2000/svg" xmlns:xlink="http://www.w3.org/1999/xlink" x="0px" y="0px"
	 viewBox="253 -388.8 752 487.8" enable-background="new 253 -388.8 752 487.8" xml:space="preserve">
<circle id="XMLID_45_" fill="#FEE699" cx="569.9" cy="-144.9" r="243.9"/>
<path id="XMLID_2_" fill="#132C81" d="M266.1-142.8v-112h36.5c11.7,0,20.9,2.5,27.5,7.6c6.6,5.1,9.9,12.6,9.9,22.7
	c0,4.8-1.5,9.1-4.5,13c-3,3.8-6.9,6.7-11.8,8.7c7.3,1,13.1,4.2,17.4,9.5c4.3,5.3,6.4,11.6,6.4,18.9c0,10.3-3.3,18.1-10,23.5
	c-6.7,5.4-15.7,8.1-27.1,8.1H266.1z M281.2-207.2h24.5c5.6,0,10.2-1.6,13.8-4.7c3.5-3.1,5.3-7.4,5.3-13c0-6.1-1.9-10.6-5.7-13.6
	c-3.8-3-9.3-4.5-16.5-4.5h-21.4V-207.2z M281.2-195.3v40.7h29.2c6.9,0,12.3-1.7,16.1-5.1c3.8-3.4,5.7-8.2,5.7-14.5
	c0-6.2-1.9-11.2-5.8-15c-3.9-3.8-9.2-5.8-15.8-6.1h-1H281.2z M388.5-191.3v48.6h-15.2v-112h38.3c12.3,0,21.6,2.7,28.1,8.2
	c6.5,5.4,9.7,13.3,9.7,23.7c0,5.7-1.5,10.7-4.5,15c-3,4.3-7.4,7.6-13.1,10.2c6.2,2,10.6,5.2,13.3,9.7c2.7,4.5,4,10,4,16.7v10.5
	c0,3.5,0.4,6.6,1.2,9.4s2.1,5,4,6.8v1.8h-15.6c-2-1.7-3.3-4.3-3.8-7.7c-0.6-3.4-0.8-6.9-0.8-10.5v-10.2c0-6.1-1.8-10.9-5.3-14.6
	s-8.3-5.5-14.2-5.5H388.5z M388.5-203.3h21.6c8.6,0,14.7-1.6,18.5-4.9c3.8-3.3,5.7-8.2,5.7-14.9c0-6.3-1.8-11.2-5.5-14.7
	c-3.7-3.5-9.4-5.2-17.1-5.2h-23.2V-203.3z M538.6-171.6h-42.2l-10,28.9h-15.5l40.4-112h13l39.6,112h-15.5L538.6-171.6z M500.8-184.3
	h33.5L518-232.4h-0.5L500.8-184.3z M684.7-142.8v-112H720c14.6,0,26.4,4.5,35.3,13.5c8.9,9,13.4,20.6,13.4,34.9v15.3
	c0,14.3-4.5,25.9-13.4,34.9c-8.9,9-20.7,13.4-35.3,13.4H684.7z M699.9-242.9v88.3H720c10.4,0,18.5-3.4,24.5-10.2
	c6-6.8,9-15.6,9-26.2v-15.5c0-10.6-3-19.3-9-26.1c-6-6.8-14.1-10.2-24.5-10.2H699.9z M738.8-5.8c-0.5-2.5-0.9-4.7-1.2-6.7
	c-0.3-1.9-0.5-3.9-0.5-5.8c-2.8,4-6.5,7.3-11,10c-4.5,2.7-9.4,4-14.7,4c-8.7,0-15.3-2.2-19.8-6.7c-4.5-4.4-6.8-10.6-6.8-18.4
	c0-8,3.2-14.2,9.7-18.7c6.4-4.5,15.2-6.7,26.2-6.7h16.5v-8.2c0-4.9-1.5-8.7-4.5-11.6c-3-2.8-7.2-4.3-12.6-4.3
	c-4.9,0-8.9,1.2-11.9,3.7c-3,2.5-4.5,5.4-4.5,8.8l-14.4,0.2l-0.2-0.5c-0.4-6.1,2.5-11.6,8.5-16.6c6-5,13.8-7.5,23.4-7.5
	c9.4,0,17,2.4,22.8,7.2c5.7,4.8,8.6,11.7,8.6,20.7v40.1c0,3,0.2,5.8,0.5,8.6c0.3,2.8,0.9,5.5,1.7,8.2H738.8z M713.7-16.9
	c5.5,0,10.4-1.4,14.9-4.2c4.4-2.8,7.3-6.1,8.6-9.7v-13.5h-17c-6.1,0-11,1.5-14.7,4.6c-3.7,3.1-5.5,6.7-5.5,10.8
	c0,3.7,1.2,6.6,3.5,8.8C705.8-17.9,709.2-16.9,713.7-16.9z M794.9-89l1.1,10.9c2.7-3.9,6.2-7,10.3-9.2c4.2-2.2,9-3.3,14.6-3.3
	s10.3,1.3,14.3,3.8c4,2.6,7,6.4,9,11.5c2.7-4.8,6.1-8.5,10.4-11.3c4.3-2.7,9.3-4.1,15-4.1c8.5,0,15.2,2.9,20.1,8.7
	c4.9,5.8,7.4,14.6,7.4,26.3v49.8H882v-49.9c0-8.2-1.4-14-4.2-17.4c-2.8-3.4-7-5.1-12.6-5.1c-5.2,0-9.4,1.8-12.6,5.4
	c-3.2,3.6-5.1,8.1-5.7,13.6v0.6v52.9h-15.2v-49.9c0-7.8-1.4-13.5-4.3-17.1s-7.1-5.4-12.5-5.4c-4.6,0-8.4,0.9-11.4,2.8
	c-3,1.9-5.3,4.6-6.8,8v61.6h-15.2V-89H794.9z M960.7-4.2c-12,0-21.3-3.8-28-11.5c-6.7-7.6-10-17.7-10-30.2v-3.4
	c0-12,3.4-21.8,10.3-29.7c6.9-7.8,15.3-11.7,25.3-11.7c11.1,0,19.5,3.5,25,10.4s8.3,16.1,8.3,27.6v8h-53.2l-0.2,0.4
	c0,8.4,1.8,15.1,5.5,20.4c3.7,5.2,9.3,7.8,16.9,7.8c5.1,0,9.6-0.7,13.5-2.2c3.9-1.5,7.2-3.5,10-6l5.9,9.8c-3,2.9-6.9,5.3-11.8,7.3
	C973.5-5.1,967.6-4.2,960.7-4.2z M958.3-78.6c-5.3,0-9.7,2-13.1,6.1c-3.5,4.1-5.6,9.3-6.3,15.7l0.2,0.4h37.6v-1.2
	c0-6.1-1.5-11.1-4.5-15C969.1-76.7,964.5-78.6,958.3-78.6z M662.8-3.5h-15.2l-53.9-192.6l-0.5,0.3V-3.5h-15.2v-252.1h15.2
	l53.9,192.4l0.5-0.3v-192.1h15.2V-3.5z"/>
<path id="XMLID_4_" fill="#D90065" d="M861.3-135.6c-5.3,0-9.6-4.3-9.6-9.6c0-123.4-100.4-223.8-223.8-223.8
	c-62.1,0-121.9,26.1-164.1,71.7c-3.6,3.9-9.7,4.1-13.5,0.5c-3.9-3.6-4.1-9.7-0.5-13.5c22.5-24.3,49.2-43.4,79.3-56.8
	c31.2-13.9,64.4-21,98.9-21c64.9,0,125.9,25.3,171.8,71.1c45.9,45.9,71.2,106.9,71.2,171.8C870.9-139.9,866.6-135.6,861.3-135.6z"/>
<path id="XMLID_6_" fill="#D90065" d="M628,97.8c-55.8,0-110.3-19.4-153.5-54.6C432,8.4,402.2-40.1,390.6-93.4
	c-1.1-5.2,2.2-10.3,7.3-11.4c5.2-1.1,10.3,2.2,11.4,7.3C431.5,4.5,523.4,78.6,628,78.6c56.6,0,110.6-21.2,152.1-59.7
	c3.9-3.6,9.9-3.4,13.5,0.5c3.6,3.9,3.4,9.9-0.5,13.5C748.1,74.8,689.5,97.8,628,97.8z"/>
</svg>
