<?xml version="1.0" encoding="utf-8"?>
<!-- Generator: Adobe Illustrator 19.0.0, SVG Export Plug-In . SVG Version: 6.00 Build 0)  -->
<svg version="1.1" id="Capa_1" xmlns="http://www.w3.org/2000/svg" xmlns:xlink="http://www.w3.org/1999/xlink" x="0px" y="0px"
	 viewBox="337.3 -388.8 598.5 487.8" enable-background="new 337.3 -388.8 598.5 487.8" xml:space="preserve">
<circle id="XMLID_45_" fill="#FEE699" cx="622.2" cy="-144.9" r="243.9"/>
<path id="XMLID_20_" fill="#132C81" d="M872.1-75.1H511.5c-14.8,0-26.8-12-26.8-26.8v-205.2c0-14.8,12-26.8,26.8-26.8h360.6
	c14.8,0,26.8,12,26.8,26.8v205.2C898.9-87.1,886.9-75.1,872.1-75.1z M511.5-322.1c-8.3,0-15,6.7-15,15v205.2c0,8.3,6.7,15,15,15
	h360.6c8.3,0,15-6.7,15-15v-205.2c0-8.3-6.7-15-15-15H511.5z M862.5-93.5H518.1c-7.7,0-14-6.3-14-14v-192c0-7.7,6.3-14,14-14h344.4
	c7.7,0,14,6.3,14,14v192C876.5-99.8,870.2-93.5,862.5-93.5z M518.1-307.5c-4.4,0-8,3.6-8,8v192c0,4.4,3.6,8,8,8h344.4
	c4.4,0,8-3.6,8-8v-192c0-4.4-3.6-8-8-8H518.1z M754.3-1.6c0.5-1,0.5-2.1-0.1-3.1l-11.9-18.3L741-65.1c-0.1-1.7-1.5-3-3.1-2.9
	c-1.7,0.1-3,1.4-2.9,3.1l1.3,43c0,0.5,0.2,1.1,0.5,1.5L746.1-6H635.6l8.9-14.8c0.3-0.4,0.4-0.9,0.4-1.4l2.7-42.7
	c0.1-1.7-1.2-3.1-2.8-3.2c-1.7-0.1-3.1,1.2-3.2,2.8l-2.6,41.9L627.8-4.5c-0.6,0.9-0.6,2.1,0,3s1.5,1.5,2.6,1.5h121.3
	C752.8,0,753.8-0.6,754.3-1.6z M729,36c0-3.3-2.7-6-6-6H519.5l28.8-12.5H845l37.6,12.7c3.1,1.1,6.5-0.6,7.6-3.8
	c1.1-3.1-0.6-6.5-3.8-7.6l-38.5-13c-0.6-0.2-1.3-0.3-1.9-0.3H547c-0.8,0-1.6,0.2-2.4,0.5l-56.4,24.5c-2.6,1.1-4.1,3.9-3.5,6.7
	c0.6,2.8,3,4.8,5.9,4.8H723C726.3,42,729,39.3,729,36z"/>
<path id="XMLID_2_" fill="#132C81" d="M471.5-91c-18.9,0-30.1-1.9-44.2-5.3c-4.8-1.2-7.4-3.3-7.9-6.4c-0.9-5.9,7.3-11.5,9.8-13
	c1.4-0.9,3.3-0.4,4.1,1c0.9,1.4,0.4,3.3-1,4.1c-4,2.5-7.2,5.9-7,7l0,0c0,0,0.5,0.8,3.4,1.5c13.6,3.3,24.5,5.2,42.8,5.2
	c1.7,0,3,1.3,3,3S473.2-91,471.5-91z M467.9,2.5c20.2-0.3,39.5-8.1,40.3-8.5c1-0.4,1.7-1.4,1.8-2.5l5.9-57.5c0.2-1.6-1-3.1-2.7-3.3
	c-1.7-0.2-3.1,1-3.3,2.7l-5.7,55.7c-5,1.9-20.7,7.2-36.5,7.4c-15.5,0.2-26.4-6.1-29.6-8.2l-10-80.4c-0.2-1.6-1.7-2.8-3.3-2.6
	c-1.6,0.2-2.8,1.7-2.6,3.3l10.1,81.8c0.1,0.8,0.5,1.5,1.1,2c0.5,0.4,13.4,10.1,33.6,10.1C467.4,2.5,467.6,2.5,467.9,2.5z"/>
<path id="XMLID_13_" fill="#DB0066" d="M791.1,63.7c-1.4,0-2.6,0-3.3,0c-5.4-0.2-34.9-8-36.4-17.1c-0.2-1.1-0.1-2.9,1.6-4.7
	c5.9-6.4,31.6-11,46.5-9.8c10.6,0.9,23.3,8,34.6,14.3c7,3.9,13.6,7.6,17.5,8.5c9.4,2,17.1-6.6,18-9c0.3-1,0.3-1.7-0.1-2.5
	c-1.7-3.5-9.4-5.9-13-7.1l-1.2-0.4c-17.7-5.8-54.8-8.3-73.7-7.9c-18.8,0.5-33.6,11.5-33.8,11.6c-1.3,1-3.2,0.7-4.2-0.6
	c-1-1.3-0.7-3.2,0.6-4.2c0.7-0.5,16.5-12.3,37.2-12.9c19.8-0.5,57.2,2.1,75.8,8.1l1.1,0.4c5.1,1.6,13.7,4.4,16.6,10.1
	c1.1,2.2,1.2,4.7,0.4,7.2c-1.8,5-12.4,15.5-24.9,12.9c-4.8-1-11.5-4.8-19.3-9.1c-10.7-6-22.8-12.8-32.1-13.6
	c-15.7-1.3-38.7,4.1-41.5,7.8c2.2,3.8,23.1,11.6,30.5,11.8c6.7,0.2,40.8-0.7,41.2-0.8c1.6-0.1,3,1.3,3.1,2.9c0,1.7-1.3,3-2.9,3.1
	C828.1,62.9,801.9,63.7,791.1,63.7z"/>
<path id="XMLID_8_" fill="#DB0066" d="M455-101.8c-1.5,0-2.9-1.2-3-2.8l-5.8-73c-0.1-1.7,1.1-3.1,2.8-3.2c1.6-0.1,3.1,1.1,3.2,2.8
	l5.8,73c0.1,1.7-1.1,3.1-2.8,3.2C455.2-101.8,455.1-101.8,455-101.8z M445.1-104.9c1.6-0.5,2.5-2.1,2.1-3.7l-17.8-62
	c-0.5-1.6-2.1-2.5-3.7-2.1c-1.6,0.5-2.5,2.1-2.1,3.7l17.8,62c0.4,1.3,1.6,2.2,2.9,2.2C444.5-104.7,444.8-104.8,445.1-104.9z
	 M469.1-180.8v76 M472.1-180.8h-6v76h6V-180.8z"/>
</svg>
