<?xml version="1.0" encoding="utf-8"?>
<!-- Generator: Adobe Illustrator 19.0.0, SVG Export Plug-In . SVG Version: 6.00 Build 0)  -->
<svg version="1.1" id="Capa_1" xmlns="http://www.w3.org/2000/svg" xmlns:xlink="http://www.w3.org/1999/xlink" x="0px" y="0px"
	 viewBox="253 -388.8 752 487.8" enable-background="new 253 -388.8 752 487.8" xml:space="preserve">
<circle id="XMLID_45_" fill="#FEE699" cx="588.9" cy="-144.9" r="243.9"/>
<path id="XMLID_66_" fill="#132C81" d="M742-241H480c-5.5,0-10-4.5-10-10s4.5-10,10-10h262c5.5,0,10,4.5,10,10S747.5-241,742-241z"
	/>
<path id="XMLID_67_" fill="#D90065" d="M808.5-141c-3.4,0-6.7-1.7-8.5-4.8L662-372.3c-2.9-4.7-1.4-10.9,3.3-13.7
	c4.7-2.9,10.9-1.4,13.7,3.3l138,226.5c2.9,4.7,1.4,10.9-3.3,13.7C812.1-141.5,810.3-141,808.5-141z"/>
<path id="XMLID_68_" fill="#132C81" d="M755.5-45c-1.8,0-3.5-0.5-5.1-1.4c-4.7-2.8-6.3-9-3.4-13.7l125.5-209.3
	c2.8-4.7,9-6.3,13.7-3.4c4.7,2.8,6.3,9,3.4,13.7L764.1-49.9C762.2-46.7,758.9-45,755.5-45z"/>
<path id="XMLID_69_" fill="#132C81" d="M891-37.5H641.5c-5.5,0-10-4.5-10-10s4.5-10,10-10H891c5.5,0,10,4.5,10,10
	S896.5-37.5,891-37.5z"/>
<path id="XMLID_70_" fill="#D90065" d="M711.5,93.8c-3.4,0-6.7-1.7-8.6-4.8L567-134.3c-2.9-4.7-1.4-10.9,3.3-13.7
	c4.7-2.9,10.9-1.4,13.7,3.3L720,78.6c2.9,4.7,1.4,10.9-3.3,13.7C715.1,93.3,713.3,93.8,711.5,93.8z"/>
<path id="XMLID_71_" fill="#132C81" d="M496.5-6.5c-1.6,0-3.3-0.4-4.8-1.2c-4.8-2.7-6.6-8.8-3.9-13.6l126.5-228.5
	c2.7-4.8,8.8-6.6,13.6-3.9c4.8,2.7,6.6,8.8,3.9,13.6L505.3-11.7C503.4-8.4,500-6.5,496.5-6.5z"/>
<path id="XMLID_72_" fill="#132C81" d="M686,99.3c-65,0-126.1-25.3-172.1-71.3C468-17.9,442.7-79,442.7-144s25.3-126.1,71.3-172.1
	c46-46,107.1-71.3,172.1-71.3c65,0,126.1,25.3,172.1,71.3c46,46,71.3,107.1,71.3,172.1S904-17.9,858.1,28.1
	C812.1,74,751,99.3,686,99.3z M686-367.5c-123.2,0-223.5,100.3-223.5,223.5C462.5-20.8,562.8,79.5,686,79.5S909.5-20.8,909.5-144
	C909.5-267.2,809.2-367.5,686-367.5z"/>
</svg>
