<?xml version="1.0" encoding="utf-8"?>
<!-- Generator: Adobe Illustrator 19.0.0, SVG Export Plug-In . SVG Version: 6.00 Build 0)  -->
<svg version="1.1" id="Capa_1" xmlns="http://www.w3.org/2000/svg" xmlns:xlink="http://www.w3.org/1999/xlink" x="0px" y="0px"
	 viewBox="253 -388.8 752 487.8" enable-background="new 253 -388.8 752 487.8" xml:space="preserve">
<circle id="XMLID_45_" fill="#FEE699" cx="599.9" cy="-144.9" r="243.9"/>
<path id="XMLID_4_" fill="#D90065" d="M418.4,67.5c-3.4,0-6.8-1.8-8.6-4.9C383.1,16.9,369-35.2,369-88.3c0-79.9,31.1-155,87.6-211.4
	s131.6-87.6,211.4-87.6c48,0,93.8,11,136.3,32.8c40.5,20.8,76.3,51,103.5,87.6c3.3,4.4,2.4,10.7-2,14c-4.4,3.3-10.7,2.4-14-2
	C838.5-326.4,756.9-367.3,668-367.3c-153.8,0-279,125.2-279,279c0,49.6,13.2,98.2,38.1,140.8c2.8,4.8,1.2,10.9-3.6,13.7
	C421.9,67,420.1,67.5,418.4,67.5z"/>
<path id="XMLID_5_" fill="#132C81" d="M889.6,17.5c-1.1,0-2.3-0.2-3.5-0.6C881,15,878.3,9.2,880.2,4
	c24.6-66.7,16.5-139.1-22.2-198.6C791.1-297.5,652.9-326.8,550-259.9c-33.2,21.6-60,51.5-77.6,86.7c-2.5,4.9-8.5,6.9-13.4,4.5
	c-4.9-2.5-6.9-8.5-4.5-13.4c19.2-38.3,48.5-71,84.6-94.5c54.3-35.3,119.2-47.4,182.6-33.9c63.4,13.4,117.8,50.8,153.1,105.1
	c21.2,32.7,34,68.7,38,107.2c3.8,36.7-1,74.5-13.8,109.2C897.5,15,893.7,17.5,889.6,17.5z"/>
<path id="XMLID_6_" fill="#132C81" d="M662.7,99c-5,0-9.4-3.8-9.9-8.9c-0.6-5.5,3.4-10.4,8.9-11c51.1-5.5,95.4-34,121.5-78.3
	c45.1-76.5,19.7-175.4-56.8-220.5c-24.6-14.5-52.7-22.3-81.1-22.4c-5.5,0-10-4.5-10-10c0-5.5,4.5-10,10-10c0,0,0,0,0,0
	c32,0.1,63.5,8.8,91.2,25.2C822.4-186.2,851-75,800.3,11c-14.8,25-34.6,45.5-59,61c-23.3,14.7-50.1,24-77.5,27
	C663.4,99,663,99,662.7,99z"/>
<path id="XMLID_7_" fill="#D90065" d="M646.8,38.3c-7.1,0-14.2-0.6-21.4-1.8c-39-6.6-73.1-31.6-91.1-66.9
	c-2.5-4.9-0.6-10.9,4.3-13.5c4.9-2.5,10.9-0.6,13.5,4.3c15.4,30.1,43.4,50.6,76.7,56.3c6,1,11.9,1.5,17.8,1.5
	c50.7,0,95.7-36.6,104.4-88.3c3.2-18.6,1.3-37.6-5.3-55.1c-2-5.2,0.7-10.9,5.8-12.9c5.2-2,10.9,0.7,12.9,5.8
	c7.9,20.8,10.1,43.5,6.3,65.6c-5.6,33.2-23.9,62.2-51.3,81.7C697.9,30.3,672.7,38.3,646.8,38.3z"/>
</svg>
