<?xml version="1.0" encoding="utf-8"?>
<!-- Generator: Adobe Illustrator 19.0.0, SVG Export Plug-In . SVG Version: 6.00 Build 0)  -->
<svg version="1.1" id="Capa_1" xmlns="http://www.w3.org/2000/svg" xmlns:xlink="http://www.w3.org/1999/xlink" x="0px" y="0px"
	 viewBox="253 -388.8 752 487.8" enable-background="new 253 -388.8 752 487.8" xml:space="preserve">
<circle id="XMLID_45_" fill="#FEE699" cx="565.9" cy="-144.9" r="243.9"/>
<g id="XMLID_2_">
	<g id="XMLID_3_">
		<path id="XMLID_7_" fill="#D90065" d="M730.5-388.4c-5.5,0-9.9,4.4-9.9,9.9v195.4c0,5.5,4.4,9.9,9.9,9.9h195.4
			c5.5,0,9.9-4.4,9.9-9.9c0-50.1-18.2-98.3-51.4-135.9C845.3-363.1,789.2-388.4,730.5-388.4z M740.3-193v-175.4
			c49.5,2.7,96.1,25.1,129.2,62.5c27.8,31.4,43.9,71.2,46.2,112.9H740.3z"/>
		<path id="XMLID_4_" fill="#132C81" d="M887.6-122.1c0-5.5-4.4-9.9-9.9-9.9H676.5v-201.4c0-5.5-4.4-9.9-9.9-9.9
			c-122,0-221.1,99.1-221.1,221.1C445.5-0.2,544.6,99,666.6,99S887.6-0.2,887.6-122.1z M666.6,79.3c-111,0-201.4-90.4-201.4-201.4
			c0-107.7,85-196,191.5-201.2v201.1c0,5.5,4.4,9.9,9.9,9.9h201.1C862.5-5.8,774.3,79.3,666.6,79.3z"/>
	</g>
</g>
<image display="none" overflow="visible" width="159" height="103" id="XMLID_10_" xlink:href="88BB15.jpg"  transform="matrix(4.7296 0 0 4.7296 253 -388.4059)">
</image>
</svg>
