<?xml version="1.0" encoding="utf-8"?>
<!-- Generator: Adobe Illustrator 19.0.0, SVG Export Plug-In . SVG Version: 6.00 Build 0)  -->
<svg version="1.1" id="Capa_1" xmlns="http://www.w3.org/2000/svg" xmlns:xlink="http://www.w3.org/1999/xlink" x="0px" y="0px"
	 viewBox="253 -388.8 752 487.8" enable-background="new 253 -388.8 752 487.8" xml:space="preserve">
<circle id="XMLID_45_" fill="#FEE699" cx="588.9" cy="-144.9" r="243.9"/>
<g id="XMLID_8_">
	<g id="XMLID_9_">
		<g id="circle_71_">
			<g id="XMLID_78_">
				<path id="XMLID_79_" fill="#D90065" d="M677.2-387.7c-134.4,0-243.3,108.9-243.3,243.3S542.8,99,677.2,99S920.5-9.9,920.5-144.3
					S811.5-387.7,677.2-387.7z M677.2,83.8C551.2,83.8,449-18.3,449-144.3s102.1-228.1,228.1-228.1s228.1,102.1,228.1,228.1
					S803.1,83.8,677.2,83.8z"/>
			</g>
		</g>
		<g id="Rectangle_3_copy_2">
			<g id="XMLID_64_">
				<path id="XMLID_75_" fill="#132C81" d="M738-205.4c0-8.4-6.8-16.3-15.2-17.7L616-241.9l1.3-1.3h135.9v152.1h15.2v-152.1
					c0-8.4-6.8-15.2-15.2-15.2H646.7c-1.3,0-28.7-1.8-38,7.6l-15.2,15.2c0,10.9,0,174.9,0,174.9c0,8.4,6.8,15.2,15.2,15.2
					l114.1,20.1c8.4,1.4,15.2-4.3,15.2-12.7V-205.4z M722.8-40.6L608.7-60.7V-228l114.1,20.1V-40.6z"/>
			</g>
		</g>
		<g id="correction">
			<g id="XMLID_10_">
				<path id="XMLID_2_" fill="#132C81" d="M753.2-121.5v45.6H738v15.2h15.2c8.4,0,15.2-6.8,15.2-15.2v-45.6H753.2z"/>
			</g>
		</g>
	</g>
</g>
</svg>
