<?xml version="1.0" encoding="utf-8"?>
<!-- Generator: Adobe Illustrator 19.0.0, SVG Export Plug-In . SVG Version: 6.00 Build 0)  -->
<svg version="1.1" id="Capa_1" xmlns="http://www.w3.org/2000/svg" xmlns:xlink="http://www.w3.org/1999/xlink" x="0px" y="0px"
	 viewBox="253 -388.8 752 487.8" enable-background="new 253 -388.8 752 487.8" xml:space="preserve">
<circle id="XMLID_45_" fill="#FEE699" cx="565.9" cy="-144.9" r="243.9"/>
<path id="XMLID_65_" fill="#D90065" d="M563,65c-0.9,0-1.9-0.1-2.9-0.4l-298-88.7c-5.3-1.6-8.3-7.1-6.8-12.3l37.3-130
	c1.5-5.3,7.1-8.4,12.4-6.9s8.4,7.1,6.9,12.4L277.3-40.4l288.5,85.8c5.3,1.6,8.3,7.1,6.7,12.4C571.3,62.2,567.3,65,563,65z"/>
<path id="XMLID_66_" fill="#132C81" d="M579.7,58.3c-2.1,0-4.2-0.7-5.9-2L291.1-152.3c-2.1-1.6-3.6-3.9-3.9-6.6
	c-0.4-2.6,0.3-5.3,1.8-7.4l73.3-99.3c3.3-4.4,9.5-5.4,14-2.1c4.4,3.3,5.4,9.5,2.1,14L311-162.4L580.8,36.8l19.6-9.1
	c5-2.3,11-0.1,13.3,4.9c2.3,5,0.1,11-4.9,13.3l-25,11.5C582.5,58,581.1,58.3,579.7,58.3z"/>
<path id="XMLID_67_" fill="#132C81" d="M587.7,81.7c-3.2,0-6.4-1.6-8.3-4.4L356.7-254.1c-1.5-2.2-2-4.9-1.5-7.5
	c0.5-2.6,2.1-4.9,4.3-6.4l113.3-75.3c4.6-3.1,10.8-1.8,13.9,2.8c3.1,4.6,1.8,10.8-2.8,13.9l-105,69.8L591.3,59.2l19.8-8.6
	c5.1-2.2,11,0.1,13.2,5.2c2.2,5.1-0.1,11-5.2,13.2l-27.4,11.9C590.4,81.4,589,81.7,587.7,81.7z"/>
<path id="XMLID_68_" fill="#132C81" d="M579.7,69.8c-4.4,0-8.4-2.9-9.6-7.4L462.7-332.4c-0.7-2.6-0.3-5.4,1.1-7.8
	c1.4-2.3,3.7-4,6.4-4.6l128-28.7c5.4-1.2,10.7,2.2,11.9,7.6s-2.2,10.7-7.6,11.9l-117.8,26.4l102,375l21.9-5.9
	c5.3-1.4,10.8,1.7,12.3,7.1c1.4,5.3-1.7,10.8-7.1,12.3l-31.5,8.5C581.4,69.7,580.5,69.8,579.7,69.8z"/>
<path id="XMLID_69_" fill="#132C81" d="M561.4,2.4c-0.4,0-0.8,0-1.2-0.1c-5.5-0.6-9.4-5.6-8.8-11.1l43-370.1
	c0.3-2.7,1.7-5.1,3.9-6.8s4.9-2.4,7.6-1.9l124,18.7c5.5,0.8,9.2,5.9,8.4,11.4c-0.8,5.5-5.9,9.2-11.4,8.4l-113.8-17.1L571.3-6.4
	C570.7-1.3,566.4,2.4,561.4,2.4z"/>
<path id="XMLID_70_" fill="#D90065" d="M558.4-8.2c-1.5,0-3-0.3-4.5-1.1c-4.9-2.5-6.9-8.5-4.5-13.4l172.5-345.4
	c1.2-2.4,3.3-4.2,5.9-5.1c2.6-0.8,5.4-0.6,7.8,0.7l118,63.3c4.9,2.6,6.7,8.7,4.1,13.5c-2.6,4.9-8.7,6.7-13.5,4.1L735.3-350
	L567.4-13.8C565.6-10.3,562.1-8.2,558.4-8.2z"/>
<path id="XMLID_71_" fill="#132C81" d="M568.2-35c-2.7,0-5.4-1.1-7.3-3.2c-3.8-4-3.5-10.4,0.5-14.1L842.2-313
	c4-3.7,10.3-3.5,14.1,0.5L959-203.2c3.8,4,3.6,10.4-0.4,14.1c-4,3.8-10.4,3.6-14.1-0.4l-95.9-102.1L575-37.7
	C573.1-35.9,570.7-35,568.2-35z"/>
<path id="XMLID_72_" fill="#132C81" d="M628.3,99c-3.8,0-7.4-2.2-9.1-5.9L557-44.1c-1.1-2.4-1.2-5.2-0.2-7.7c1-2.5,2.9-4.5,5.4-5.6
	l374-160.4c2.5-1.1,5.3-1.1,7.8,0c2.5,1.1,4.5,3.1,5.4,5.6l54.9,143c1.9,5-0.5,10.7-5.4,12.8L632.2,98.2
	C630.9,98.7,629.6,99,628.3,99z M579.4-43l54,119L982.2-71.1l-47.7-124.2L579.4-43z"/>
</svg>
