<?xml version="1.0" encoding="utf-8"?>
<!-- Generator: Adobe Illustrator 19.0.0, SVG Export Plug-In . SVG Version: 6.00 Build 0)  -->
<svg version="1.1" id="Capa_1" xmlns="http://www.w3.org/2000/svg" xmlns:xlink="http://www.w3.org/1999/xlink" x="0px" y="0px"
	 viewBox="337.3 -388.8 598.5 487.8" enable-background="new 337.3 -388.8 598.5 487.8" xml:space="preserve">
<circle id="XMLID_45_" fill="#FEE699" cx="581.2" cy="-144.9" r="243.9"/>
<path id="XMLID_6_" fill="#132C81" d="M857.5-6.7H414c-10.5,0-19-8.5-19-19V-314c0-10.5,8.5-19,19-19h443.5c10.5,0,19,8.5,19,19
	v288.3C876.5-15.2,868-6.7,857.5-6.7z M414-321c-3.9,0-7,3.1-7,7v288.3c0,3.9,3.1,7,7,7h443.5c3.9,0,7-3.1,7-7V-314c0-3.9-3.1-7-7-7
	H414z"/>
<path id="XMLID_4_" fill="#132C81" d="M915.8,50H357.2c-10.9,0-19.7-8.9-19.7-19.7c0-10.9,8.9-19.8,19.7-19.8h558.6
	c10.9,0,19.7,8.9,19.7,19.7C935.5,41.1,926.6,50,915.8,50z M357.2,22.5c-4.3,0-7.7,3.5-7.7,7.7c0,4.3,3.5,7.8,7.7,7.8h558.6
	c4.3,0,7.7-3.5,7.7-7.7c0-4.3-3.5-7.8-7.7-7.8H357.2z"/>
<path id="XMLID_7_" fill="#132C81" d="M842.1-23H428c-5,0-9-4-9-9v-266.5c0-5,4-9,9-9h414.1c5,0,9,4,9,9V-32
	C851.1-27,847.1-23,842.1-23z M428-301.5c-1.7,0-3,1.3-3,3V-32c0,1.7,1.3,3,3,3h414.1c1.7,0,3-1.3,3-3v-266.5c0-1.7-1.3-3-3-3H428z"
	/>
<path id="XMLID_21_" fill="#DB0066" d="M601.9-142.5h104.8l18.5-66.2h-27.3l-9.8-30.3l-40.9,13.2l5.6,17h-1.9L640.8-239L600-225.7
	l5.6,17h-21.8l-4.5-18.1c-2.3-9.1-10.2-15.5-19.3-15.5h-12.5v7.6h12.5c5.7,0,10.6,3.8,12.1,9.5l20.1,78.5c-4.1,3-6.9,7.8-6.9,13.4
	c0,9.1,7.6,16.7,16.7,16.7H704v-7.6H601.9c-4.9,0-9.1-4.2-9.1-9.1C592.8-138.4,597-142.5,601.9-142.5L601.9-142.5z M683.2-229.5
	l6.8,20.4h-29.5l-4.2-11.7L683.2-229.5z M636-229.5l6.8,20.4h-29.5l-4.2-11.7L636-229.5z M715.4-201.5L701-150.1H598.9l-13.2-51.4
	L715.4-201.5L715.4-201.5z M670.7-105.4c-8.7,0-15.9,7.2-15.9,15.9c0,8.7,7.2,15.9,15.9,15.9c9.1,0,15.9-7.2,15.9-15.9
	C686.6-98.3,679.5-105.4,670.7-105.4z M670.7-80.9c-4.9,0-8.7-4.2-8.7-8.7c0-4.9,4.2-8.7,8.7-8.7c4.9,0,8.7,3.8,8.7,8.7
	C679.5-84.6,675.3-80.9,670.7-80.9z M612.5-105.4c-8.7,0-15.9,7.2-15.9,15.9c0,8.7,7.2,15.9,15.9,15.9s15.9-7.2,15.9-15.9
	C628.4-98.3,621.2-105.4,612.5-105.4z M612.5-80.9c-4.9,0-8.7-4.2-8.7-8.7c0-4.9,4.2-8.7,8.7-8.7s8.7,3.8,8.7,8.7
	C621.2-84.6,617-80.9,612.5-80.9z"/>
</svg>
