<?xml version="1.0" encoding="utf-8"?>
<!-- Generator: Adobe Illustrator 19.0.0, SVG Export Plug-In . SVG Version: 6.00 Build 0)  -->
<svg version="1.1" xmlns="http://www.w3.org/2000/svg" xmlns:xlink="http://www.w3.org/1999/xlink" x="0px" y="0px"
	 viewBox="0 0 885 885" enable-background="new 0 0 885 885" xml:space="preserve">
<g id="Слой_1">
</g>
<g id="Слой_1__x28_копия_x29_">
	<g id="XMLID_12_">
		<path id="XMLID_1_" d="M442.5,0C198.1,0,0,198.1,0,442.5S198.1,885,442.5,885S885,686.9,885,442.5S686.9,0,442.5,0z M442.5,640
			C333.4,640,245,551.6,245,442.5S333.4,245,442.5,245S640,333.4,640,442.5S551.6,640,442.5,640z"/>
		<path id="XMLID_7_" d="M442.5,885.5c-59.8,0-117.8-11.7-172.4-34.8c-52.8-22.3-100.1-54.3-140.8-94.9
			c-40.7-40.7-72.6-88.1-94.9-140.8C11.2,560.3-0.5,502.3-0.5,442.5s11.7-117.8,34.8-172.4c22.3-52.8,54.3-100.1,94.9-140.8
			c40.7-40.7,88.1-72.6,140.8-94.9C324.7,11.2,382.7-0.5,442.5-0.5c59.8,0,117.8,11.7,172.4,34.8c52.8,22.3,100.1,54.3,140.8,94.9
			c40.7,40.7,72.6,88.1,94.9,140.8c23.1,54.6,34.8,112.6,34.8,172.4s-11.7,117.8-34.8,172.4c-22.3,52.8-54.3,100.1-94.9,140.8
			c-40.7,40.7-88.1,72.6-140.8,94.9C560.3,873.8,502.3,885.5,442.5,885.5z M442.5,0.5c-243.7,0-442,198.3-442,442s198.3,442,442,442
			s442-198.3,442-442S686.2,0.5,442.5,0.5z M442.5,640.5c-109.2,0-198-88.8-198-198s88.8-198,198-198s198,88.8,198,198
			S551.7,640.5,442.5,640.5z M442.5,245.5c-108.6,0-197,88.4-197,197c0,108.6,88.4,197,197,197c108.6,0,197-88.4,197-197
			C639.5,333.9,551.1,245.5,442.5,245.5z"/>
	</g>
</g>
</svg>
