<?xml version="1.0" encoding="utf-8"?>
<!-- Generator: Adobe Illustrator 19.0.0, SVG Export Plug-In . SVG Version: 6.00 Build 0)  -->
<svg version="1.1" id="Слой_1" xmlns="http://www.w3.org/2000/svg" xmlns:xlink="http://www.w3.org/1999/xlink" x="0px" y="0px"
	 viewBox="0 0 511.3 487.8" enable-background="new 0 0 511.3 487.8" xml:space="preserve">
<circle id="XMLID_45_" fill="#FFE79A" cx="243.9" cy="243.9" r="243.9"/>
<path fill="#263675" d="M510.5,301.7L475,224.9c0-0.1-1.5-3.8-6-4.6l-149.5-24.6c-0.1,0-1.4-0.2-2.7,0l-149.4,24.6
	c-2.6,0.4-4.9,2.1-6,4.6l-35.5,76.9c-3.2,7.6,4.2,11.8,7.3,11.4h27.4v96.7c0,3.9,2.9,7.3,6.7,7.9l149.5,24.6c0.1,0,2.5,0,2.6,0
	L469,417.8c3.9-0.6,6.7-4,6.7-7.9v-96.7h27.4c2.7,0,5.3-1.4,6.8-3.7C511.5,307.1,511.7,304.2,510.5,301.7z M145.8,297.1l28.4-61.6
	L256,222l50.2-8.3l-29.1,83.3H145.8z M310.2,424.9L176.8,403v-89.9h106c3.4,0,6.5-2.2,7.6-5.4l19.8-56.7L310.2,424.9L310.2,424.9z
	 M459.7,403l-133.4,21.9V251l19.8,56.7c1.1,3.2,4.2,5.4,7.6,5.4h106V403z M359.4,297.1l-29.1-83.3l52.3,8.6l79.6,13.1l28.4,61.6
	L359.4,297.1L359.4,297.1z M381.9,121.7H345V56.4h-53.5v65.3h-36.9l63.7,63.3L381.9,121.7z M307.6,137.8V72.5h21.4v65.3h14
	l-24.7,24.5l-24.7-24.5H307.6z"/>
</svg>
