<?xml version="1.0" encoding="utf-8"?>
<!-- Generator: Adobe Illustrator 19.0.0, SVG Export Plug-In . SVG Version: 6.00 Build 0)  -->
<svg version="1.1" id="Capa_1" xmlns="http://www.w3.org/2000/svg" xmlns:xlink="http://www.w3.org/1999/xlink" x="0px" y="0px"
	 viewBox="351 -388.8 563.7 487.8" enable-background="new 351 -388.8 563.7 487.8" xml:space="preserve">
<circle fill="#FEE699" cx="594.9" cy="-144.9" r="243.9"/>
<g>
	<g>
		<g>
			<path fill="#132C81" d="M767.7-26.7H630.4c-5.4,0-9.8,4.4-9.8,9.8s4.4,9.8,9.8,9.8h137.2c5.4,0,9.8-4.4,9.8-9.8
				S773.1-26.7,767.7-26.7z"/>
			<path fill="#132C81" d="M708.8,12.5h-98c-5.4,0-9.8,4.4-9.8,9.8s4.4,9.8,9.8,9.8h98c5.4,0,9.8-4.4,9.8-9.8
				C718.6,16.9,714.3,12.5,708.8,12.5z"/>
			<path fill="#132C81" d="M855.9-144.3c-10.8,0-19.6,8.8-19.6,19.6c0,10.8,8.8,19.6,19.6,19.6c10.8,0,19.6-8.8,19.6-19.6
				C875.5-135.5,866.7-144.3,855.9-144.3z"/>
			<path fill="#132C81" d="M875.5-183.5h-19.6v-68.6c0-5.4-4.4-9.8-9.8-9.8h-9.8v-9.8c0-2.6-1-5.1-2.9-6.9L755-357.1
				c-1.8-1.8-4.3-2.9-6.9-2.9H601c-21.6,0-39.2,17.6-39.2,39.2v58.8H552c-5.4,0-9.8,4.4-9.8,9.8v68.6h-19.6
				c-21.6,0-39.2,17.6-39.2,39.2v98c0,21.6,17.6,39.2,39.2,39.2h16.5l-13.6,30.5c-1.9,4.4-2.9,9-2.9,13.8
				c0,18.8,15.3,34.1,34.1,34.1h284.8c18.8,0,34.1-15.3,34.1-34.1c0-4.8-1-9.5-2.9-13.8L859-7.1h16.5c21.6,0,39.2-17.6,39.2-39.2
				v-98C914.7-166,897.1-183.5,875.5-183.5z M757.9-326.5l45,45h-25.4c-10.8,0-19.6-8.8-19.6-19.6V-326.5z M581.4-320.8
				c0-10.8,8.8-19.6,19.6-19.6h137.2v39.2c0,21.6,17.6,39.2,39.2,39.2h39.2v78.4H581.4C581.4-183.5,581.4-320.8,581.4-320.8z
				 M841.4,51.7H556.6c-8,0-14.5-6.5-14.5-14.5c0-2,0.4-4,1.2-5.9L578-46.3h242.1l34.5,77.7c0.8,1.9,1.2,3.8,1.2,5.9
				C855.9,45.2,849.4,51.7,841.4,51.7z M895.1-46.3c0,10.8-8.8,19.6-19.6,19.6h-25.2l-8.7-19.6h4.5c5.4,0,9.8-4.4,9.8-9.8
				s-4.4-9.8-9.8-9.8h-19.8c0,0,0,0,0,0H571.8c0,0,0,0,0,0H552c-5.4,0-9.8,4.4-9.8,9.8s4.4,9.8,9.8,9.8h4.5l-8.7,19.6h-25.2
				c-10.8,0-19.6-8.8-19.6-19.6v-98c0-10.8,8.8-19.6,19.6-19.6H552h19.6h254.9h19.6h29.4c10.8,0,19.6,8.8,19.6,19.6L895.1-46.3
				L895.1-46.3z"/>
		</g>
	</g>
</g>
</svg>
