<?xml version="1.0" encoding="utf-8"?>
<!-- Generator: Adobe Illustrator 19.0.0, SVG Export Plug-In . SVG Version: 6.00 Build 0)  -->
<svg version="1.1" id="Capa_1" xmlns="http://www.w3.org/2000/svg" xmlns:xlink="http://www.w3.org/1999/xlink" x="0px" y="0px"
	 viewBox="337.3 -388.8 598.5 487.8" enable-background="new 337.3 -388.8 598.5 487.8" xml:space="preserve">
<circle id="XMLID_45_" fill="#FEE699" cx="581.2" cy="-144.9" r="243.9"/>
<g id="XMLID_2_">
	<g id="XMLID_3_">
		<g id="XMLID_4_">
			<path id="XMLID_10_" fill="#132C81" d="M935.6,51.5l-12.1-63.6v-69.2c0-1.9,0-3.7-0.1-5.6l0-1.4c-0.1-1.9-0.1-3.7-0.2-5.5l0-0.2
				c-0.1-1.8-0.2-3.6-0.3-5.3l-0.1-1.4c-0.1-1.8-0.3-3.6-0.5-5.5l0-0.4c-0.2-1.7-0.4-3.4-0.6-5.1l-0.2-1.4c-0.2-1.8-0.5-3.5-0.7-5.3
				l-0.1-0.6c-0.2-1.6-0.5-3.2-0.8-4.7l-0.3-1.5c-0.3-1.7-0.6-3.4-1-5.1l-0.2-0.9c-0.3-1.5-0.6-3-1-4.4c-0.1-0.5-0.2-1-0.3-1.5
				c-0.4-1.7-0.8-3.3-1.2-5l-0.3-1c-0.4-1.4-0.7-2.7-1.1-4.1l-0.4-1.6c-0.5-1.6-0.9-3.2-1.4-4.8c-0.1-0.3-0.2-0.5-0.3-0.8l-0.1-0.5
				c-0.4-1.3-0.8-2.5-1.3-3.9c-0.2-0.5-0.3-1-0.5-1.5c-0.5-1.5-1.1-3.1-1.6-4.6c-0.1-0.3-0.2-0.6-0.4-1l-0.2-0.5
				c-0.4-1.2-0.9-2.3-1.3-3.5c-0.2-0.6-0.4-1.1-0.7-1.7c-0.6-1.5-1.2-2.9-1.8-4.4l-0.7-1.5c-0.5-1.1-0.9-2.1-1.4-3.2l-0.1-0.2
				c-0.2-0.5-0.5-1-0.7-1.5c-0.6-1.4-1.3-2.8-2-4.2l-0.8-1.7c-0.5-1-1-2-1.5-2.9l-0.2-0.3c-0.3-0.5-0.5-1-0.8-1.5
				c-0.7-1.3-1.4-2.7-2.1-4c-0.3-0.5-0.5-0.9-0.8-1.4l-0.2-0.4c-0.5-0.9-1-1.8-1.5-2.7l-0.2-0.4c-0.3-0.5-0.6-1-0.9-1.5l-0.1-0.2
				c0-0.1-0.1-0.2-0.2-0.3c-6.8-11.7-14.7-22.9-23.3-33.3l-0.4-0.5c-1.2-1.5-2.5-3-3.8-4.4l-0.8-0.9c-1.2-1.3-2.4-2.7-3.6-4
				l-0.9-0.9c-1.2-1.3-2.5-2.6-3.8-3.9c-3.1-3.2-8.3-3.3-11.5-0.1c-3.2,3.1-3.3,8.3-0.1,11.5c1.2,1.2,2.4,2.4,3.5,3.7l0.8,0.9
				c1.1,1.2,2.3,2.5,3.3,3.7l0.8,0.8c1.2,1.4,2.4,2.7,3.5,4.1l0.4,0.5c8.1,9.8,15.5,20.3,21.9,31.3c0,0.1,0.1,0.1,0.1,0.2l0.1,0.1
				c0.3,0.4,0.5,0.9,0.8,1.3l0.2,0.4c0.5,0.8,0.9,1.7,1.4,2.5l0.2,0.4c0.2,0.4,0.5,0.9,0.7,1.3c0.7,1.2,1.3,2.5,2,3.7
				c0.2,0.5,0.5,0.9,0.7,1.4l0.2,0.3c0.5,0.9,0.9,1.8,1.4,2.7l0.8,1.6c0.6,1.3,1.2,2.6,1.8,3.9c0.2,0.5,0.4,0.9,0.6,1.4l0.1,0.2
				c0.4,1,0.9,2,1.3,3l0.6,1.5c0.6,1.4,1.1,2.7,1.7,4.1c0.2,0.5,0.4,1.1,0.6,1.6c0.4,1.1,0.8,2.2,1.2,3.3l0.5,1.3
				c0.5,1.4,1,2.8,1.5,4.3c0.2,0.5,0.3,0.9,0.5,1.5c0.4,1.2,0.8,2.4,1.2,3.5l0.4,1.2c0.5,1.5,0.9,3,1.3,4.5l0.4,1.5
				c0.4,1.3,0.7,2.6,1,3.8l0.3,1c0.4,1.5,0.8,3.1,1.1,4.6c0.1,0.5,0.2,0.9,0.3,1.4c0.3,1.4,0.6,2.8,0.9,4.1l0.2,0.8
				c0.3,1.6,0.6,3.2,0.9,4.8l0.2,1.4c0.3,1.5,0.5,2.9,0.7,4.4l0.1,0.6c0.2,1.6,0.5,3.3,0.7,4.9l0.2,1.3c0.2,1.6,0.4,3.1,0.5,4.7
				l0,0.4c0.2,1.7,0.3,3.4,0.5,5.1l0.1,1.3c0.1,1.7,0.2,3.3,0.3,5c0,0,0,0.1,0,0.2c0,0,0,0,0,0.1c0.1,1.7,0.1,3.4,0.2,5.2l0,1.3
				c0,1.7,0.1,3.5,0.1,5.2v46c-0.1-0.1-0.3-0.2-0.4-0.3c-0.5-0.3-1-0.6-1.5-1c-0.3-0.2-0.6-0.4-0.9-0.5c-0.6-0.3-1.1-0.7-1.7-1
				c-0.3-0.2-0.5-0.3-0.8-0.5c-0.6-0.4-1.3-0.7-2-1.1c-0.2-0.1-0.4-0.2-0.7-0.4c-0.8-0.4-1.7-0.9-2.6-1.3c-0.1,0-0.2-0.1-0.2-0.1
				c-2-1-4.1-1.9-6.3-2.9c0,0,0,0,0,0c-1.1-0.5-2.2-0.9-3.3-1.4c-0.2-0.1-0.4-0.1-0.5-0.2c-1-0.4-2-0.8-3-1.1
				c-0.3-0.1-0.5-0.2-0.8-0.3c-0.9-0.3-1.9-0.7-2.9-1c-0.3-0.1-0.6-0.2-0.9-0.3c-1-0.3-1.9-0.7-2.9-1c-0.3-0.1-0.6-0.2-1-0.3
				c-1-0.3-2-0.6-3.1-1c-0.3-0.1-0.6-0.2-1-0.3c-1.1-0.3-2.2-0.6-3.3-1c-0.3-0.1-0.6-0.2-0.9-0.3c-1.2-0.3-2.4-0.7-3.6-1
				c-0.2-0.1-0.5-0.1-0.7-0.2c-1.4-0.4-2.8-0.7-4.2-1.1c-0.1,0-0.1,0-0.2-0.1c-2.6-0.7-5.2-1.3-7.9-1.9v-24.7
				c0-64.6-17.4-125.4-48.9-171.2c-10.7-15.6-22.7-28.8-35.5-39.6c1.2,0.5,2.4,1,3.6,1.5c0,0,0.1,0,0.1,0.1l0.2,0.1
				c1.8,0.8,3.5,1.5,5.3,2.3l1,0.4c1.5,0.7,3.1,1.5,4.6,2.2l1.1,0.5c1.5,0.8,3,1.5,4.5,2.3l0.9,0.5c1.6,0.9,3.3,1.8,4.9,2.7l0.4,0.2
				c5.4,3.1,10.7,6.4,15.8,9.9l0.5,0.3c1.5,1,3,2.1,4.5,3.2l0.8,0.6c1.4,1,2.8,2,4.1,3.1l0.8,0.6c1.4,1.1,2.8,2.2,4.2,3.3l0.6,0.5
				c3.5,2.8,8.6,2.3,11.4-1.1c2.8-3.5,2.3-8.6-1.1-11.4l-0.7-0.5c-1.5-1.2-3-2.4-4.5-3.5l-0.9-0.7c-1.5-1.1-2.9-2.2-4.4-3.3
				l-0.8-0.6c-1.6-1.1-3.2-2.3-4.8-3.4l-0.5-0.4c-5.5-3.8-11.2-7.3-16.9-10.6l-0.5-0.3c-1.7-1-3.5-1.9-5.2-2.9l-1-0.5
				c-1.6-0.8-3.2-1.7-4.8-2.5l-1.2-0.6c-1.6-0.8-3.3-1.6-4.9-2.4l-1-0.5c-1.9-0.9-3.8-1.7-5.7-2.5l-0.3-0.1h0
				c-4.1-1.8-8.4-3.4-12.6-5l-0.5-0.2c-1.9-0.7-3.9-1.4-5.8-2l-1.3-0.4c-1.6-0.5-3.3-1.1-5-1.6c-0.5-0.2-1.1-0.3-1.6-0.5
				c-1.6-0.5-3.2-0.9-4.8-1.4l-1.6-0.4c-1.7-0.4-3.4-0.9-5.1-1.3l-0.4-0.1c-0.3-0.1-0.7-0.2-1-0.2c-2.1-0.5-4.2-1-6.2-1.4l-0.3-0.1
				c-2.3-0.5-4.6-0.9-6.8-1.3l-0.2,0c0,0-0.1,0-0.1,0c-2-0.4-4.1-0.7-6.2-1c-0.4-0.1-0.8-0.1-1.1-0.2l-0.7-0.1
				c-0.6-0.1-1.2-0.2-1.8-0.2v-10.7c0-12.6-10.2-22.8-22.8-22.8h-19.6c-12.6,0-22.8,10.2-22.8,22.8v10.7c-0.6,0.1-1.2,0.1-1.8,0.2
				l-0.7,0.1c-0.4,0.1-0.8,0.1-1.1,0.2c-2.1,0.3-4.2,0.6-6.3,1l-0.3,0c-2.2,0.4-4.5,0.8-6.8,1.3l-0.2,0c-2,0.4-4.1,0.9-6.2,1.4
				c-0.3,0.1-0.7,0.2-1,0.2l-0.4,0.1c-1.7,0.4-3.4,0.8-5.1,1.3l-1.7,0.5c-1.6,0.4-3.2,0.9-4.8,1.4c-0.5,0.2-1.1,0.3-1.6,0.5
				c-1.7,0.5-3.3,1-5,1.6l-1.3,0.4c-1.9,0.6-3.8,1.3-5.9,2l-0.3,0.1c-4.2,1.5-8.5,3.2-12.6,5h0l-0.3,0.1c-1.9,0.8-3.8,1.6-5.6,2.5
				l-1,0.5c-1.7,0.8-3.3,1.6-5,2.4l-1.1,0.6c-1.6,0.8-3.2,1.6-4.8,2.5l-1,0.5c-1.7,0.9-3.5,1.9-5.2,2.9l-0.5,0.3
				c-5.8,3.3-11.5,6.9-17,10.6l-0.5,0.3c-1.6,1.1-3.2,2.3-4.8,3.4l-0.9,0.6c-1.5,1.1-3,2.2-4.4,3.3l-0.9,0.7c-1.5,1.2-3,2.3-4.5,3.5
				l-0.6,0.5c-5.1,4.2-10.2,8.6-15,13.3c0,0-0.1,0.1-0.1,0.1c-1.4,1.4-2.9,2.8-4.4,4.4l-0.7,0.7c-1.3,1.3-2.5,2.6-3.8,3.9l-0.9,0.9
				c-1.2,1.3-2.4,2.6-3.6,4l-0.8,0.9c-1.3,1.5-2.5,2.9-3.8,4.4l-0.4,0.5c-8.7,10.4-16.5,21.6-23.3,33.3c-0.1,0.1-0.1,0.2-0.2,0.3
				l-0.2,0.3c-0.3,0.5-0.6,1-0.8,1.5l-0.2,0.4c-0.5,0.9-1,1.8-1.5,2.7l-0.2,0.4c-0.3,0.5-0.5,0.9-0.8,1.4c-0.7,1.3-1.4,2.7-2.1,4
				c-0.3,0.5-0.5,1-0.8,1.5l-0.2,0.3c-0.5,1-1,2-1.5,2.9l-0.8,1.7c-0.7,1.4-1.3,2.8-2,4.2c-0.2,0.5-0.5,1-0.7,1.5l-0.1,0.3
				c-0.5,1.1-0.9,2.1-1.4,3.2l-0.2,0.5c-0.2,0.3-0.3,0.7-0.4,1c-0.6,1.5-1.2,2.9-1.8,4.4c-0.2,0.6-0.4,1.1-0.7,1.7
				c-0.5,1.2-0.9,2.3-1.3,3.5l-0.2,0.5c-0.1,0.3-0.2,0.6-0.4,0.9c-0.6,1.5-1.1,3.1-1.6,4.6c-0.2,0.5-0.3,1-0.6,1.6
				c-0.4,1.3-0.8,2.5-1.2,3.8l-0.1,0.4c-0.1,0.3-0.2,0.5-0.2,0.8c-0.5,1.6-1,3.2-1.4,4.8c-0.1,0.5-0.3,1-0.4,1.4l0,0.1
				c-0.4,1.4-0.8,2.7-1.1,4.1l-0.3,1c-0.4,1.6-0.8,3.3-1.2,5c-0.1,0.5-0.2,1-0.3,1.5c-0.3,1.5-0.7,3-1,4.4l-0.2,0.8
				c-0.3,1.7-0.7,3.4-1,5.1l-0.3,1.4c-0.3,1.6-0.5,3.1-0.8,4.7l-0.1,0.6c-0.3,1.8-0.5,3.5-0.7,5.3l-0.2,1.4
				c-0.2,1.7-0.4,3.3-0.6,5.1l0,0.4c-0.2,1.8-0.3,3.6-0.5,5.4l-0.1,1.4c-0.1,1.8-0.2,3.5-0.3,5.3l0,0.2h0c-0.1,1.8-0.2,3.7-0.2,5.5
				l0,1.4c0,1.9-0.1,3.7-0.1,5.6v69.2l-12.1,63.5c-0.1,0.5-0.1,1-0.1,1.5c0,0.7,0,1.4,0.1,2.2c0,0.2,0.1,0.4,0.1,0.5
				c0.1,0.6,0.2,1.2,0.3,1.7c0,0.2,0.1,0.3,0.1,0.5c0.2,0.7,0.5,1.4,0.8,2c0.1,0.2,0.2,0.4,0.2,0.5c0.3,0.5,0.5,1,0.9,1.5
				c0.1,0.1,0.2,0.3,0.3,0.5c0.4,0.6,0.9,1.1,1.3,1.7c0.1,0.1,0.2,0.3,0.4,0.4c0.4,0.4,0.8,0.8,1.2,1.1c0.1,0.1,0.3,0.2,0.4,0.3
				c0.5,0.4,1.1,0.8,1.7,1.2c0.1,0.1,0.2,0.1,0.3,0.2c0.5,0.3,1,0.6,1.5,0.8l0.4,0.2c1.1,0.5,2.4,1,3.8,1.4l0.3,0.1c0,0,0.1,0,0.2,0
				c0.6,0.2,1.1,0.3,1.7,0.4c0.1,0,0.2,0.1,0.4,0.1c0.6,0.1,1.3,0.3,2,0.4l0.5,0.1c0.6,0.1,1.1,0.2,1.7,0.3l0.4,0.1
				c0.7,0.1,1.4,0.2,2.1,0.2l0.5,0c0.6,0,1.2,0.1,1.8,0.1l0.6,0c0.7,0,1.5,0.1,2.3,0.1l0.3,0c0.7,0,1.4,0,2.1,0l0.7,0
				c0.8,0,1.6,0,2.4,0l0.1,0c0.1,0,0.1,0,0.2,0c0.8,0,1.6,0,2.4-0.1l0.8,0c0.7,0,1.4-0.1,2.2-0.1l0.5,0c0.9-0.1,1.7-0.1,2.6-0.2
				c0,0,0.1,0,0.1,0l0.8-0.1c0.6,0,1.2-0.1,1.8-0.1l1.2-0.1c0.9-0.1,1.8-0.2,2.7-0.2l4.3-0.4c0.8-0.1,1.7-0.2,2.6-0.3l6.3-0.7
				c1.2-0.2,2.5-0.3,3.7-0.5l3.5-0.5c9.2-1.2,19.3-2.7,30-4.3c6.9-1,14.2-2.1,21.6-3.2c4.4-0.6,7.5-4.7,6.9-9.2
				c-0.6-4.4-4.7-7.5-9.2-6.9C535.2,45.9,528,47,521,48c-10.6,1.6-20.7,3.1-29.8,4.3l-3.5,0.5c-1.2,0.2-2.4,0.3-3.7,0.5l-6.1,0.7
				c-0.8,0.1-1.6,0.2-2.5,0.3l-4.1,0.4c-0.9,0.1-1.7,0.2-2.6,0.2l-1.1,0.1c-0.6,0-1.1,0.1-1.7,0.1l-0.9,0.1
				c-0.8,0.1-1.7,0.1-2.4,0.2l-0.6,0c-0.7,0-1.3,0.1-2,0.1l-0.7,0c-0.7,0-1.4,0.1-2.1,0.1l0,0c-0.1,0-0.1,0-0.2,0
				c-0.7,0-1.4,0-2.2,0l-0.6,0c-0.6,0-1.2,0-1.8,0l-0.3,0c-0.7,0-1.3,0-1.9-0.1l-0.5,0c-0.5,0-1-0.1-1.3-0.1l-0.5,0
				c-0.5,0-1.1-0.1-1.6-0.2l-0.2,0c0,0-0.1,0-0.1,0c-0.4-0.1-0.8-0.1-1.2-0.2l-0.4-0.1c-0.4-0.1-0.8-0.2-1.3-0.2c0,0,0,0,0,0
				c0,0-0.1,0-0.1,0c-0.3-0.1-0.7-0.2-1-0.3l-0.2-0.1c-0.6-0.2-1.1-0.4-1.4-0.5l-0.2-0.1c-0.1-0.1-0.3-0.1-0.4-0.2l-0.1,0
				c0,0-0.1-0.1-0.1-0.1c0,0,0,0,0,0l12-62.9c0,0,0,0,0,0l0-0.1c0-0.1,0-0.2,0-0.3c0-0.1,0-0.3,0.1-0.4c0-0.3,0-0.5,0-0.8
				c0-5.8,13.2-18.7,62.7-29.9c3.7-0.8,7.6-1.7,11.5-2.4c36.8-7.3,82.3-11.7,130.8-12.8c0.2,0,0.5,0,0.7,0c1.6,0,3.2-0.1,4.8-0.1
				c0.6,0,1.2,0,1.7,0c1.3,0,2.6,0,3.8-0.1c1,0,2,0,3,0c0.9,0,1.8,0,2.6,0c1,0,2.1,0,3.1,0c0.9,0,1.7,0,2.6,0c1.9,0,3.8,0,5.7,0
				c1.4,0,2.8,0,4.1,0c0.5,0,1,0,1.5,0c1.8,0,3.6,0,5.3,0.1c0.1,0,0.1,0,0.2,0c53.8,0.9,104.3,5.9,143.6,14.3c0,0,0,0,0,0
				c1.5,0.3,3,0.6,4.4,1C894-30,907.2-17.1,907.2-11.3c0,0.3,0,0.5,0,0.8c0,0.1,0,0.3,0.1,0.4c0,0.1,0,0.2,0,0.3l0,0.1c0,0,0,0,0,0
				l12,62.9l0,0c0,0-0.1,0.1-0.1,0.1c0,0-0.1,0.1-0.1,0.1c-0.1,0.1-0.2,0.1-0.4,0.2l-0.2,0.1c-0.4,0.2-0.9,0.4-1.5,0.6l-0.2,0.1
				c-0.3,0.1-0.6,0.2-1,0.2c0,0-0.1,0-0.1,0c0,0,0,0,0,0c-0.4,0.1-0.8,0.2-1.2,0.2l-0.4,0.1c-0.4,0.1-0.8,0.1-1.2,0.2
				c0,0-0.1,0-0.1,0l-0.2,0c-0.5,0.1-1,0.1-1.6,0.2c0,0-0.1,0-0.1,0l-0.2,0c-0.5,0-0.9,0.1-1.5,0.1l-0.4,0c-0.6,0-1.3,0.1-1.9,0.1
				l-0.4,0c-0.6,0-1.1,0-1.7,0l-0.6,0c-0.7,0-1.4,0-2.1,0c-0.1,0-0.1,0-0.2,0c-0.7,0-1.4,0-2.2-0.1l-0.7,0c-0.6,0-1.3-0.1-1.9-0.1
				l-0.6,0c-0.8,0-1.6-0.1-2.5-0.2l-0.9-0.1c-0.5,0-1.1-0.1-1.7-0.1l-1.1-0.1c-0.8-0.1-1.7-0.2-2.6-0.2l-4.1-0.4
				c-0.8-0.1-1.6-0.2-2.5-0.3l-6.1-0.7c-1.2-0.1-2.4-0.3-3.6-0.5l-3.5-0.5c-9.1-1.2-19.2-2.7-29.9-4.3c-13.4-2-28.6-4.2-44.5-6.3
				l-29.9-3.6l-0.8-0.1c-2.7-0.3-5.4-0.6-8.1-0.8l-2.4-0.2c-2.7-0.3-5.4-0.5-8.1-0.7l-2.4-0.2c-2.8-0.2-5.6-0.5-8.4-0.7l-1.9-0.1
				c-2.8-0.2-5.6-0.4-8.3-0.6l-1.1-0.1c-3-0.2-6.1-0.3-9.1-0.5l-1.9-0.1c-3-0.1-6-0.3-9-0.4l-1.9-0.1c-3.1-0.1-6.2-0.2-9.3-0.2
				l-1.5,0c-3.7-0.1-6.9-0.1-10-0.1c-3,0-6.2,0-9.9,0.1l-1.5,0c-3.1,0.1-6.2,0.1-9.3,0.2l-1.9,0.1c-3,0.1-6,0.2-9,0.4l-1.9,0.1
				c-3.1,0.1-6.1,0.3-9.1,0.5l-1.1,0.1c-2.8,0.2-5.6,0.4-8.4,0.6l-1.9,0.1c-2.8,0.2-5.6,0.4-8.4,0.7l-2.4,0.2
				c-2.7,0.2-5.4,0.5-8.1,0.7l-2.4,0.2c-2.7,0.3-5.4,0.5-8.1,0.8l-27.2,3.2c-4.4,0.5-7.6,4.6-7.1,9c0.5,4.4,4.6,7.6,9,7.1l26.3-3.1
				l0.7-0.1c2.6-0.3,5.3-0.5,8-0.8l2.3-0.2c2.6-0.3,5.3-0.5,8-0.7l2.4-0.2c2.8-0.2,5.5-0.5,8.3-0.7l1.8-0.1c2.7-0.2,5.5-0.4,8.2-0.6
				l1.1-0.1c3-0.2,5.9-0.3,9-0.5l1.8-0.1c2.9-0.1,5.9-0.3,8.8-0.4l1.9-0.1c3-0.1,6-0.2,9-0.2l1.4,0c3.6-0.1,6.7-0.1,9.7-0.1
				c2.9,0,6,0,9.7,0.1l1.4,0c3,0.1,6,0.1,9,0.2l1.9,0.1c2.9,0.1,5.9,0.2,8.8,0.4l1.8,0.1c3,0.1,6,0.3,8.9,0.5l1.1,0.1
				c2.7,0.2,5.5,0.4,8.2,0.6l1.8,0.1c2.8,0.2,5.5,0.4,8.3,0.7l2.3,0.2c2.7,0.2,5.3,0.5,8,0.7l2.3,0.2c2.7,0.3,5.3,0.5,8,0.8
				l30.4,3.6c15.7,2.1,30.8,4.3,44.2,6.3c10.7,1.6,20.8,3.1,30.1,4.3l3.5,0.5c1.3,0.2,2.5,0.3,3.7,0.5l6.3,0.7
				c0.9,0.1,1.7,0.2,2.6,0.3l4.3,0.4c0.9,0.1,1.8,0.2,2.7,0.2l1.2,0.1c0.6,0,1.2,0.1,1.7,0.1l0.9,0.1c0,0,0.1,0,0.1,0
				c0.9,0.1,1.8,0.1,2.7,0.2l0.6,0c0.7,0,1.4,0.1,2.1,0.1l0.8,0c0.8,0,1.6,0.1,2.4,0.1c0.1,0,0.1,0,0.2,0c0.8,0,1.6,0,2.4,0l0.7,0
				c0.7,0,1.4,0,2,0l0.4,0c0.8,0,1.5,0,2.3-0.1l0.5,0c0.6,0,1.3-0.1,1.9-0.1c0,0,0.1,0,0.2,0l0.3,0c0.7-0.1,1.5-0.1,2.1-0.2l0.5-0.1
				c0.6-0.1,1.2-0.2,1.8-0.3l0.5-0.1c0.7-0.1,1.3-0.2,1.9-0.4c0.1,0,0.2-0.1,0.3-0.1c0.6-0.1,1.2-0.3,1.7-0.4c0,0,0.1,0,0.2,0
				l0.3-0.1c1.3-0.4,2.6-0.9,3.8-1.5l0.4-0.2c0.5-0.3,1-0.5,1.5-0.8c0.1-0.1,0.3-0.2,0.3-0.2c0.6-0.4,1.1-0.8,1.6-1.2
				c0.1-0.1,0.3-0.2,0.4-0.3c0.5-0.4,0.9-0.8,1.2-1.2c0.1-0.1,0.3-0.3,0.4-0.4c0.5-0.5,0.9-1.1,1.4-1.7c0.1-0.1,0.2-0.3,0.3-0.4
				c0.3-0.5,0.6-1,0.8-1.5c0.1-0.2,0.2-0.4,0.2-0.5c0.3-0.7,0.6-1.4,0.8-2.1c0-0.1,0.1-0.3,0.1-0.4c0.1-0.5,0.3-1.1,0.4-1.7
				c0-0.2,0-0.3,0.1-0.6c0.1-0.8,0.1-1.4,0.1-2.1C935.7,52.5,935.7,52,935.6,51.5z M669.9-340.1h19.6c3.7,0,6.6,3,6.6,6.6v9
				c-0.7,0-1.4-0.1-2.2-0.1c-0.2,0-0.4,0-0.6,0c0,0-0.1,0-0.1,0c-2.1-0.1-4.2-0.2-6.3-0.3c-0.1,0-0.2,0-0.3,0c-0.7,0-1.4,0-2.1,0
				c-0.4,0-0.8,0-1.2,0c-1.2,0-2.4,0-3.6,0c0,0,0,0,0,0c-1.1,0-2.3,0-3.6,0c-0.4,0-0.8,0-1.3,0c-0.7,0-1.3,0-2,0c-0.1,0-0.2,0-0.3,0
				c-2.2,0.1-4.3,0.2-6.5,0.3c0,0,0,0,0,0c0,0,0,0,0,0c-0.9,0.1-1.8,0.1-2.7,0.2v-9h0C663.3-337.1,666.3-340.1,669.9-340.1z
				 M509.5-81.3v24.7c-2.7,0.6-5.3,1.3-7.9,1.9c-0.1,0-0.1,0-0.2,0.1c-1.4,0.4-2.9,0.7-4.2,1.1c-0.2,0.1-0.5,0.1-0.7,0.2
				c-1.2,0.3-2.4,0.7-3.6,1c-0.3,0.1-0.6,0.2-0.9,0.3c-1.1,0.3-2.2,0.6-3.3,1c-0.3,0.1-0.6,0.2-1,0.3c-1,0.3-2.1,0.6-3.1,1
				c-0.3,0.1-0.6,0.2-1,0.3c-1,0.3-2,0.7-2.9,1c-0.3,0.1-0.6,0.2-0.9,0.3c-1,0.3-1.9,0.7-2.9,1c-0.3,0.1-0.5,0.2-0.8,0.3
				c-1,0.4-2,0.7-3,1.1c-0.2,0.1-0.4,0.1-0.5,0.2c-3.5,1.4-6.7,2.8-9.7,4.2c-0.1,0-0.2,0.1-0.2,0.1c-0.9,0.4-1.7,0.9-2.6,1.3
				c-0.2,0.1-0.4,0.2-0.7,0.4c-0.7,0.4-1.4,0.7-2,1.1c-0.3,0.2-0.5,0.3-0.8,0.5c-0.6,0.3-1.1,0.7-1.7,1c-0.3,0.2-0.6,0.4-0.9,0.5
				c-0.5,0.3-1,0.6-1.5,1c-0.1,0.1-0.3,0.2-0.4,0.3v-46h0c0-1.7,0-3.5,0.1-5.2l0-1.3c0-1.7,0.1-3.4,0.2-5.2c0,0,0,0,0,0
				c0,0,0-0.1,0-0.1c0.1-1.7,0.2-3.3,0.3-5l0.1-1.3c0.1-1.7,0.3-3.4,0.4-5l0-0.4c0.2-1.6,0.3-3.1,0.5-4.7l0.2-1.3
				c0.2-1.6,0.4-3.3,0.7-4.9l0.1-0.6c0.2-1.5,0.5-2.9,0.7-4.4l0.2-1.3c0.3-1.6,0.6-3.2,0.9-4.8l0.2-0.8c0.3-1.4,0.6-2.8,0.9-4.1
				l0.3-1.4c0.4-1.6,0.7-3.1,1.1-4.6l0.3-1c0.3-1.3,0.7-2.6,1-3.8l0-0.1c0.1-0.4,0.2-0.9,0.4-1.3c0.4-1.5,0.9-3,1.3-4.5l0.4-1.1
				c0.4-1.2,0.8-2.4,1.2-3.7c0.2-0.5,0.3-0.9,0.5-1.4c0.5-1.4,1-2.9,1.5-4.3l0.5-1.3c0.4-1.1,0.8-2.2,1.2-3.3
				c0.2-0.5,0.4-1.1,0.6-1.6c0.5-1.4,1.1-2.7,1.7-4.1l0.6-1.5c0.4-1,0.9-2,1.3-3l0.1-0.3c0.2-0.5,0.4-0.9,0.6-1.4
				c0.6-1.3,1.2-2.6,1.8-3.9l0.8-1.6c0.4-0.9,0.9-1.8,1.4-2.7l0.2-0.3c0.2-0.5,0.5-0.9,0.7-1.4c0.6-1.2,1.3-2.5,2-3.7
				c0.2-0.4,0.5-0.9,0.7-1.3l0.2-0.4c0.5-0.8,0.9-1.7,1.4-2.5l0.2-0.4c0.3-0.4,0.5-0.9,0.8-1.3l0.1-0.1c0-0.1,0.1-0.2,0.1-0.2
				c6.4-11,13.7-21.5,21.9-31.3l0.4-0.5c1.2-1.4,2.3-2.8,3.5-4.1l0.7-0.8c1.1-1.2,2.2-2.5,3.4-3.7l0.8-0.9c1.2-1.2,2.3-2.5,3.5-3.7
				l0.7-0.7c1.4-1.4,2.8-2.8,4.1-4l0.2-0.2c4.4-4.3,9.1-8.4,14-12.4l0.6-0.5c1.4-1.1,2.8-2.2,4.2-3.3l0.8-0.6c1.4-1,2.7-2.1,4.1-3.1
				l0.8-0.6c1.5-1.1,3-2.1,4.5-3.2l0.5-0.3c5.1-3.5,10.5-6.8,15.9-9.9l0.4-0.2c1.6-0.9,3.2-1.8,4.9-2.7l0.9-0.5
				c1.5-0.8,3-1.6,4.5-2.3l1.1-0.5c1.5-0.8,3.1-1.5,4.6-2.2l1-0.4c1.7-0.8,3.5-1.6,5.3-2.3l0.2-0.1c0,0,0.1,0,0.1,0
				c1.2-0.5,2.4-1,3.6-1.5c-12.9,10.7-24.8,24-35.5,39.6C526.9-206.7,509.5-145.9,509.5-81.3z M833.7-60
				c-36.3-7-80.3-11.3-127.4-12.5c-0.1,0-0.3,0-0.4,0c-1.5,0-3-0.1-4.5-0.1c-0.4,0-0.8,0-1.3,0c-1.3,0-2.6,0-4-0.1c-0.7,0-1.3,0-2,0
				c-1.1,0-2.2,0-3.4,0c-1,0-1.9,0-2.9,0c-0.5,0-1,0-1.4,0c-0.3,0-0.5,0-0.8,0c-0.1,0-0.2,0-0.4,0c-1.8,0-3.6,0-5.5,0
				c0,0-0.1,0-0.1,0c0,0,0,0,0,0c0,0,0,0,0,0c-1.9,0-3.8,0-5.6,0c-0.7,0-1.4,0-2.2,0c-1.1,0-2.2,0-3.4,0c-1,0-1.9,0-2.9,0
				c-0.9,0-1.7,0-2.6,0c-1.1,0-2.3,0-3.4,0.1c-0.6,0-1.2,0-1.9,0c-1.3,0-2.6,0.1-3.9,0.1c-0.4,0-0.8,0-1.2,0c-1.5,0-3,0.1-4.5,0.1
				c-0.1,0-0.2,0-0.2,0C602.9-71,560.7-66.8,525.8-60c0,0,0,0,0,0v-21.3c0-125,68.6-226.8,153.1-227.5c0.6,0,1.3,0,1.9,0
				c84.5,0.8,153,102.5,153,227.5L833.7-60L833.7-60z"/>
			<path id="XMLID_7_" fill="#132C81" d="M679.7-214c-27.3,0-49.6,22.2-49.6,49.6s22.2,49.6,49.6,49.6s49.6-22.2,49.6-49.6
				S707.1-214,679.7-214z M679.7-131c-18.4,0-33.4-15-33.4-33.4s15-33.4,33.4-33.4c18.4,0,33.4,15,33.4,33.4S698.1-131,679.7-131z"
				/>
		</g>
	</g>
</g>
</svg>
