<?xml version="1.0" encoding="utf-8"?>
<!-- Generator: Adobe Illustrator 19.0.0, SVG Export Plug-In . SVG Version: 6.00 Build 0)  -->
<svg version="1.1" id="Capa_1" xmlns="http://www.w3.org/2000/svg" xmlns:xlink="http://www.w3.org/1999/xlink" x="0px" y="0px"
	 viewBox="117.4 -194.9 565 490" enable-background="new 117.4 -194.9 565 490" xml:space="preserve">
<circle fill="#FEE699" cx="361.9" cy="50.1" r="243.9"/>
<g>
	<g>
		<path fill="#132C81" d="M674.5-42.1c-2-1.1-48.8-25.4-126.8-40.1l-3-12.8c-7.8-33.5-37.3-57-71.8-57h-70.1
			c-34.4,0-63.9,23.4-71.8,57l-3,12.8c-78,14.6-124.8,39-126.8,40.1c-4.4,2.3-7.2,6.9-7.2,11.9v159c0,63.7,51.8,115.6,115.6,115.6
			c7.5,0,13.5-6,13.5-13.5s-6-13.5-13.5-13.5c-48.8,0-88.6-39.7-88.6-88.6V-21.7c16.2-7.4,59-24.9,120.5-35.5
			c5.3-0.9,9.6-5,10.8-10.2l5-21.5c5-21.2,23.6-36.1,45.5-36.1h70.1c21.8,0,40.5,14.8,45.5,36.1l5,21.5c1.2,5.3,5.5,9.3,10.8,10.2
			c61.3,10.6,104.2,28.1,120.5,35.5v150.5c0,48.8-39.7,88.6-88.6,88.6c-7.5,0-13.5,6-13.5,13.5s6,13.5,13.5,13.5
			c63.7,0,115.6-51.8,115.6-115.6v-159C681.7-35.2,679-39.8,674.5-42.1z"/>
		<path fill="#132C81" d="M238.2-69.7c1.4,0,2.8-0.2,4.2-0.7c14.2-4.7,29.1-8.9,44.3-12.5c7.3-1.7,11.7-9,10-16.2
			c-1.7-7.3-9-11.7-16.2-10c-15.9,3.8-31.6,8.2-46.6,13.1c-7.1,2.3-10.9,10-8.6,17C227.3-73.3,232.6-69.7,238.2-69.7z"/>
		<path fill="#132C81" d="M437.9-58.7c-85.7,0-155.4,69.7-155.4,155.4s69.7,155.5,155.4,155.5s155.4-69.7,155.4-155.4
			S523.6-58.7,437.9-58.7z M437.9,225.3c-70.8,0-128.4-57.6-128.4-128.4S367.1-31.6,437.9-31.6S566.3,26,566.3,96.8
			S508.7,225.3,437.9,225.3z"/>
	</g>
</g>
</svg>
