<?xml version="1.0" encoding="utf-8"?>
<!-- Generator: Adobe Illustrator 19.0.0, SVG Export Plug-In . SVG Version: 6.00 Build 0)  -->
<svg version="1.1" id="Capa_1" xmlns="http://www.w3.org/2000/svg" xmlns:xlink="http://www.w3.org/1999/xlink" x="0px" y="0px"
	 viewBox="356.3 -388.8 546.8 487.8" enable-background="new 356.3 -388.8 546.8 487.8" xml:space="preserve">
<circle id="XMLID_45_" cx="600.2" cy="-144.9" r="243.9"/>
<g id="XMLID_42_">
	<g id="XMLID_43_">
		<g id="XMLID_44_">
			<path id="XMLID_52_" fill="#132C81" d="M546.1-100.1h303l53.6-191.4h-78.9L795.5-379l-118.1,38.3l16.2,49.2H688L658.8-379
				l-118.1,38.3l16.2,49.2h-63.2L480.5-344c-6.6-26.2-29.5-44.8-55.8-44.8h-36.1v21.9h36.1c16.4,0,30.6,10.9,35,27.4l58,227.1
				c-12,8.6-19.8,22.7-19.8,38.7c0,26.2,21.9,48.2,48.2,48.2h295.4v-21.9H546.1c-14.3,0-26.2-12.1-26.2-26.2
				C519.9-88.1,532-100.1,546.1-100.1L546.1-100.1z M781.4-351.8l19.7,59.1h-85.3l-12.1-33.9L781.4-351.8z M644.6-351.8l19.7,59.1
				h-85.3L567-326.6L644.6-351.8z M874.3-270.8L832.8-122H537.4l-38.3-148.8L874.3-270.8L874.3-270.8z"/>
			<path id="XMLID_49_" fill="#132C81" d="M745.3,7.1c-25.2,0-46,20.8-46,46c0,25.2,20.8,46,46,46c26.2,0,46-20.8,46-46
				C791.2,27.9,770.4,7.1,745.3,7.1z M745.3,78.2c-14.3,0-25.2-12.1-25.2-25.2c0-14.3,12.1-25.2,25.2-25.2
				c14.3,0,25.2,10.9,25.2,25.2C770.4,67.3,758.4,78.2,745.3,78.2z"/>
			<path id="XMLID_46_" fill="#132C81" d="M576.8,7.1c-25.2,0-46,20.8-46,46c0,25.2,20.8,46,46,46c25.2,0,46-20.8,46-46
				C622.7,27.9,601.9,7.1,576.8,7.1z M576.8,78.2c-14.3,0-25.2-12.1-25.2-25.2c0-14.3,12.1-25.2,25.2-25.2
				c13.1,0,25.2,10.9,25.2,25.2C601.9,67.3,589.9,78.2,576.8,78.2z"/>
		</g>
	</g>
</g>
</svg>
