<?xml version="1.0" encoding="utf-8"?>
<!-- Generator: Adobe Illustrator 19.0.0, SVG Export Plug-In . SVG Version: 6.00 Build 0)  -->
<svg version="1.1" id="Capa_1" xmlns="http://www.w3.org/2000/svg" xmlns:xlink="http://www.w3.org/1999/xlink" x="0px" y="0px"
	 viewBox="351 -388.8 563.7 487.8" enable-background="new 351 -388.8 563.7 487.8" xml:space="preserve">
<circle fill="#FEE699" cx="594.9" cy="-144.9" r="243.9"/>
<g>
	<g>
		<g>
			<g>
				<path fill="#132C81" d="M787.3,14.9c4.8,0,8.7-3.9,8.7-8.7v-348.5c0-4.8-3.9-8.7-8.7-8.7H496.9c-4.8,0-8.7,3.9-8.7,8.7v395
					c0,4.8,3.9,8.7,8.7,8.7h290.4c4.8,0,8.7-3.9,8.7-8.7c0-4.8-3.9-8.7-8.7-8.7H505.6v-377.5h273V6.2
					C778.6,11,782.5,14.9,787.3,14.9z"/>
				<path fill="#132C81" d="M787.3,63.9H496.9c-6.2,0-11.2-5-11.2-11.2v-395c0-6.2,5-11.2,11.2-11.2h290.4c6.2,0,11.2,5,11.2,11.2
					V6.2c0,6.2-5,11.2-11.2,11.2s-11.2-5-11.2-11.2v-337.3h-268V41.5h279.2c6.2,0,11.2,5,11.2,11.2S793.5,63.9,787.3,63.9z
					 M496.9-348.5c-3.4,0-6.2,2.8-6.2,6.2v395c0,3.4,2.8,6.2,6.2,6.2h290.4c3.4,0,6.2-2.8,6.2-6.2s-2.8-6.2-6.2-6.2H503.1v-382.5
					h278V6.2c0,3.4,2.8,6.2,6.2,6.2c3.4,0,6.2-2.8,6.2-6.2v-348.5c0-3.4-2.8-6.2-6.2-6.2H496.9z"/>
			</g>
		</g>
	</g>
	<g>
		<g>
			<g>
				<path fill="#132C81" d="M857-351c-18.2,0-31.9,23.7-31.9,55.2c0,4.8,3.9,8.7,8.7,8.7h37.8V25.8L857,40.4l-14.5-14.5V-261
					c0-4.8-3.9-8.7-8.7-8.7c-4.8,0-8.7,3.9-8.7,8.7V29.4c0,2.3,0.9,4.5,2.6,6.2l23.2,23.2c1.7,1.7,3.9,2.6,6.2,2.6
					c2.2,0,4.5-0.9,6.2-2.6l23.2-23.2c1.6-1.6,2.6-3.8,2.6-6.2v-325.3C889-327.3,875.2-351,857-351z M842.9-304.5
					c1.8-17.8,9.1-29,14.1-29s12.2,11.3,14.1,29H842.9z"/>
				<path fill="#132C81" d="M857,63.9c-3,0-5.8-1.2-7.9-3.3l-23.2-23.2c-2.1-2.1-3.3-4.9-3.3-7.9V-261c0-6.2,5-11.2,11.2-11.2
					s11.2,5,11.2,11.2V24.8l12,12l12-12v-309.4h-35.3c-6.2,0-11.2-5-11.2-11.2c0-32.9,14.8-57.7,34.4-57.7s34.4,24.8,34.4,57.7V29.4
					c0,3-1.2,5.8-3.3,7.9L865,60.6C862.8,62.7,860,63.9,857,63.9z M833.8-267.2c-3.4,0-6.2,2.8-6.2,6.2V29.4c0,1.7,0.6,3.2,1.8,4.4
					l23.2,23.2c1.2,1.2,2.7,1.8,4.4,1.8s3.2-0.6,4.4-1.8l23.2-23.2c1.2-1.2,1.8-2.7,1.8-4.4v-325.3c0-30-12.7-52.7-29.4-52.7
					s-29.4,22.6-29.4,52.7c0,3.4,2.8,6.2,6.2,6.2H874V26.9l-17,17l-17-17V-261C840-264.4,837.2-267.2,833.8-267.2z M873.9-302h-33.7
					l0.3-2.8c1.8-17.5,9.1-31.3,16.6-31.3s14.7,13.7,16.6,31.3L873.9-302z M845.8-307h22.5c-2.2-15.6-8.4-24-11.3-24
					S848-322.6,845.8-307z"/>
			</g>
		</g>
	</g>
	<g>
		<g>
			<g>
				<path fill="#132C81" d="M903.5-292.9c-4.8,0-8.7,3.9-8.7,8.7v139.4c0,4.8,3.9,8.7,8.7,8.7c4.8,0,8.7-3.9,8.7-8.7v-139.4
					C912.2-289,908.3-292.9,903.5-292.9z"/>
				<path fill="#132C81" d="M903.5-133.6c-6.2,0-11.2-5-11.2-11.2v-139.4c0-6.2,5-11.2,11.2-11.2s11.2,5,11.2,11.2v139.4
					C914.7-138.6,909.7-133.6,903.5-133.6z M903.5-290.4c-3.4,0-6.2,2.8-6.2,6.2v139.4c0,3.4,2.8,6.2,6.2,6.2s6.2-2.8,6.2-6.2
					v-139.4C909.7-287.6,906.9-290.4,903.5-290.4z"/>
			</g>
		</g>
	</g>
	<g>
		<g>
			<g>
				<path fill="#132C81" d="M589.8-292.9h-46.5c-4.8,0-8.7,3.9-8.7,8.7c0,4.8,3.9,8.7,8.7,8.7h46.5c4.8,0,8.7-3.9,8.7-8.7
					C598.6-289,594.7-292.9,589.8-292.9z"/>
				<path fill="#132C81" d="M589.8-273h-46.5c-6.2,0-11.2-5-11.2-11.2s5-11.2,11.2-11.2h46.5c6.2,0,11.2,5,11.2,11.2
					S596-273,589.8-273z M543.4-290.4c-3.4,0-6.2,2.8-6.2,6.2c0,3.4,2.8,6.2,6.2,6.2h46.5c3.4,0,6.2-2.8,6.2-6.2
					c0-3.4-2.8-6.2-6.2-6.2H543.4z"/>
			</g>
		</g>
	</g>
	<g>
		<g>
			<g>
				<path fill="#132C81" d="M740.9-292.9h-46.5c-4.8,0-8.7,3.9-8.7,8.7c0,4.8,3.9,8.7,8.7,8.7h46.5c4.8,0,8.7-3.9,8.7-8.7
					C749.6-289,745.7-292.9,740.9-292.9z"/>
				<path fill="#132C81" d="M740.9-273h-46.5c-6.2,0-11.2-5-11.2-11.2s5-11.2,11.2-11.2h46.5c6.2,0,11.2,5,11.2,11.2
					C752.1-278,747-273,740.9-273z M694.4-290.4c-3.4,0-6.2,2.8-6.2,6.2c0,3.4,2.8,6.2,6.2,6.2h46.5c3.4,0,6.2-2.8,6.2-6.2
					c0-3.4-2.8-6.2-6.2-6.2H694.4z"/>
			</g>
		</g>
	</g>
	<g>
		<g>
			<g>
				<path fill="#132C81" d="M682.8-223.2h-81.3c-4.8,0-8.7,3.9-8.7,8.7c0,4.8,3.9,8.7,8.7,8.7h81.3c4.8,0,8.7-3.9,8.7-8.7
					C691.5-219.3,687.6-223.2,682.8-223.2z"/>
				<path fill="#132C81" d="M682.8-203.3h-81.3c-6.2,0-11.2-5-11.2-11.2s5-11.2,11.2-11.2h81.3c6.2,0,11.2,5,11.2,11.2
					C694-208.3,689-203.3,682.8-203.3z M601.5-220.7c-3.4,0-6.2,2.8-6.2,6.2c0,3.4,2.8,6.2,6.2,6.2h81.3c3.4,0,6.2-2.8,6.2-6.2
					c0-3.4-2.8-6.2-6.2-6.2H601.5z"/>
			</g>
		</g>
	</g>
	<g>
		<g>
			<g>
				<path fill="#132C81" d="M740.9-153.5H543.4c-4.8,0-8.7,3.9-8.7,8.7c0,4.8,3.9,8.7,8.7,8.7h197.5c4.8,0,8.7-3.9,8.7-8.7
					C749.6-149.6,745.7-153.5,740.9-153.5z"/>
				<path fill="#132C81" d="M740.9-133.6H543.4c-6.2,0-11.2-5-11.2-11.2s5-11.2,11.2-11.2h197.5c6.2,0,11.2,5,11.2,11.2
					C752.1-138.6,747-133.6,740.9-133.6z M543.4-151c-3.4,0-6.2,2.8-6.2,6.2c0,3.4,2.8,6.2,6.2,6.2h197.5c3.4,0,6.2-2.8,6.2-6.2
					c0-3.4-2.8-6.2-6.2-6.2H543.4z"/>
			</g>
		</g>
	</g>
	<g>
		<g>
			<g>
				<path fill="#132C81" d="M740.9-118.7H543.4c-4.8,0-8.7,3.9-8.7,8.7c0,4.8,3.9,8.7,8.7,8.7h197.5c4.8,0,8.7-3.9,8.7-8.7
					C749.6-114.8,745.7-118.7,740.9-118.7z"/>
				<path fill="#132C81" d="M740.9-98.7H543.4c-6.2,0-11.2-5-11.2-11.2s5-11.2,11.2-11.2h197.5c6.2,0,11.2,5,11.2,11.2
					C752.1-103.8,747-98.7,740.9-98.7z M543.4-116.2c-3.4,0-6.2,2.8-6.2,6.2s2.8,6.2,6.2,6.2h197.5c3.4,0,6.2-2.8,6.2-6.2
					c0-3.4-2.8-6.2-6.2-6.2H543.4z"/>
			</g>
		</g>
	</g>
	<g>
		<g>
			<g>
				<path fill="#132C81" d="M740.9-83.8H543.4c-4.8,0-8.7,3.9-8.7,8.7c0,4.8,3.9,8.7,8.7,8.7h197.5c4.8,0,8.7-3.9,8.7-8.7
					C749.6-79.9,745.7-83.8,740.9-83.8z"/>
				<path fill="#132C81" d="M740.9-63.9H543.4c-6.2,0-11.2-5-11.2-11.2s5-11.2,11.2-11.2h197.5c6.2,0,11.2,5,11.2,11.2
					C752.1-68.9,747-63.9,740.9-63.9z M543.4-81.3c-3.4,0-6.2,2.8-6.2,6.2s2.8,6.2,6.2,6.2h197.5c3.4,0,6.2-2.8,6.2-6.2
					c0-3.4-2.8-6.2-6.2-6.2H543.4z"/>
			</g>
		</g>
	</g>
	<g>
		<g>
			<g>
				<path fill="#132C81" d="M624.7-49h-81.3c-4.8,0-8.7,3.9-8.7,8.7s3.9,8.7,8.7,8.7h81.3c4.8,0,8.7-3.9,8.7-8.7S629.5-49,624.7-49z
					"/>
				<path fill="#132C81" d="M624.7-29h-81.3c-6.2,0-11.2-5-11.2-11.2s5-11.2,11.2-11.2h81.3c6.2,0,11.2,5,11.2,11.2
					S630.9-29,624.7-29z M543.4-46.5c-3.4,0-6.2,2.8-6.2,6.2s2.8,6.2,6.2,6.2h81.3c3.4,0,6.2-2.8,6.2-6.2s-2.8-6.2-6.2-6.2H543.4z"
					/>
			</g>
		</g>
	</g>
</g>
</svg>
