<?xml version="1.0" encoding="utf-8"?>
<!-- Generator: Adobe Illustrator 19.0.0, SVG Export Plug-In . SVG Version: 6.00 Build 0)  -->
<svg version="1.1" id="Capa_1" xmlns="http://www.w3.org/2000/svg" xmlns:xlink="http://www.w3.org/1999/xlink" x="0px" y="0px"
	 viewBox="337.3 -388.8 598.5 487.8" enable-background="new 337.3 -388.8 598.5 487.8" xml:space="preserve">
<circle id="XMLID_45_" fill="#FEE699" cx="581.2" cy="-144.9" r="243.9"/>
<g id="XMLID_5_">
	<g id="XMLID_98_">
		<g id="XMLID_99_">
			<path id="XMLID_107_" fill="#132C81" d="M626.7-73l80.5,24.4c-0.1,0.5-0.3,1.1-0.5,1.6c-2.2,5.8-6.6,9.1-13.7,10.3
				c-26.5,4.2-70.4,1.5-70.8,1.5c-6.8-0.4-12.6,4.7-13,11.5s4.7,12.6,11.5,13c1.9,0.1,47,2.9,76.2-1.8c29-4.6,37.3-30.2,35.8-46.3
				c-0.5-5-3.9-9.2-8.7-10.7l-90.2-27.3c-44.5-13.4-93.3,11.4-95.4,12.4c-0.2,0.1-0.5,0.2-0.7,0.4l-89.7,54.3
				c-5.8,3.5-7.7,11.1-4.2,16.9c2.4,3.8,6.4,5.9,10.6,5.9c2.2,0,4.3-0.6,6.4-1.7l89.3-53.8C553.8-64.4,593.1-83.2,626.7-73z"/>
			<path id="XMLID_106_" fill="#132C81" d="M934-93.6c-7.1-12.9-29.1-33.5-62.6-18.8c-31.6,14.1-98.4,46.2-99.1,46.5
				c-6.2,3-8.7,10.3-5.7,16.4s10.4,8.7,16.4,5.7c0.7-0.3,67.1-32.3,98.4-46.2c8.9-4,16.4-4,22.9,0c0.2,0.1,0.3,0.2,0.5,0.3
				L737.4,32.9c-11.9,8.7-27,12.3-41.4,10.1L546.8,19.2c-3.5-0.5-7.1,0.4-9.8,2.7l-37.7,31.5c-5.2,4.3-5.9,12.1-1.5,17.3
				c2.5,2.9,5.9,4.4,9.4,4.4c2.8,0,5.5-0.9,7.9-2.9l33.4-27.9l143.8,23c20.9,3.4,42.8-1.9,59.9-14.5L930.6-77.8
				C935.4-81.5,936.9-88.2,934-93.6z"/>
			<path id="XMLID_103_" fill="#132C81" d="M705.9-107.8c19.2,0,37.1-7.5,50.8-21c28-28,28-73.4,0-101.4c-13.5-13.5-31.6-21-50.8-21
				c-19.2,0-37.1,7.5-50.8,21c-28,28-28,73.4,0,101.4C668.8-115.3,686.8-107.8,705.9-107.8z M672.6-212.8
				c8.9-8.9,20.7-13.8,33.3-13.8c12.6,0,24.4,4.9,33.3,13.8c18.4,18.4,18.4,48.3,0,66.7c-8.9,8.9-20.7,13.8-33.3,13.8
				c-12.6,0-24.4-4.9-33.3-13.8C654.2-164.5,654.2-194.5,672.6-212.8z"/>
			<path id="XMLID_100_" fill="#132C81" d="M790.2-248c15,0,29-5.8,39.6-16.4c21.8-21.8,21.8-57.3,0-79.2
				c-10.6-10.6-24.6-16.4-39.6-16.4c-15,0-29,5.8-39.6,16.4c-21.8,21.8-21.8,57.3,0,79.2C761.1-253.7,775.3-248,790.2-248z
				 M768-326.2c5.9-5.9,13.8-9.2,22.3-9.2s16.3,3.3,22.3,9.2c12.2,12.2,12.2,32.2,0,44.4c-5.9,5.9-13.8,9.2-22.3,9.2
				s-16.3-3.3-22.3-9.2C755.8-294,755.8-313.9,768-326.2z"/>
		</g>
	</g>
</g>
</svg>
