<?xml version="1.0" encoding="utf-8"?>
<!-- Generator: Adobe Illustrator 19.0.0, SVG Export Plug-In . SVG Version: 6.00 Build 0)  -->
<svg version="1.1" id="Слой_1" xmlns="http://www.w3.org/2000/svg" xmlns:xlink="http://www.w3.org/1999/xlink" x="0px" y="0px"
	 viewBox="0 0 547.4 487.8" enable-background="new 0 0 547.4 487.8" xml:space="preserve">
<circle id="XMLID_45_" cx="244.6" cy="243.9" r="243.9"/>
<g id="XMLID_6_">
	<g id="XMLID_15_">
		<path id="XMLID_17_"  fill="#132C81" d="M338.3,262.8c0.5,0,1,0,1.6,0c0.2,0,0.4,0,0.6,0c0.3,0,0.7,0,1,0
			c29.6-0.5,53.5-10.9,71.2-30.8c38.9-43.8,32.4-119,31.7-126.2c-2.5-53.8-28-79.6-49-91.6c-15.7-9-33.9-13.8-54.3-14.2h-0.7
			c-0.1,0-0.3,0-0.4,0h-0.6c-11.2,0-33.2,1.8-54.3,13.8c-21.2,12-47.1,37.8-49.6,92c-0.7,7.2-7.2,82.3,31.7,126.2
			C284.8,251.9,308.7,262.3,338.3,262.8z M262.5,108.4c0-0.3,0.1-0.6,0.1-0.8c3.3-72.4,54.8-80.2,76.8-80.2h0.4c0.2,0,0.5,0,0.8,0
			c27.3,0.6,73.6,11.7,76.8,80.2c0,0.3,0,0.6,0.1,0.8c0.1,0.7,7.2,69.4-25,105.6c-12.7,14.3-29.7,21.4-52,21.6c-0.2,0-0.3,0-0.5,0
			l0,0c-0.2,0-0.3,0-0.5,0c-22.2-0.2-39.3-7.3-51.9-21.6C255.5,178,262.4,109,262.5,108.4z"/>
		<path id="XMLID_16_" fill="#132C81" d="M547.5,387.5c0-0.1,0-0.2,0-0.3c0-0.8-0.1-1.6-0.1-2.5c-0.6-20-1.9-66.8-45.8-81.7
			c-0.3-0.1-0.7-0.2-1-0.3c-45.6-11.6-83.4-37.9-83.8-38.2c-6.2-4.3-14.6-2.8-19,3.3c-4.3,6.2-2.8,14.6,3.3,19
			c1.7,1.2,41.9,29.2,92.2,42.1c23.5,8.4,26.2,33.5,26.9,56.6c0,0.9,0,1.7,0.1,2.5c0.1,9.1-0.5,23.1-2.1,31.2
			c-16.4,9.3-80.5,41.4-178.1,41.4c-97.2,0-161.7-32.2-178.2-41.5c-1.6-8.1-2.3-22.1-2.1-31.2c0-0.8,0.1-1.6,0.1-2.5
			c0.7-23,3.3-48.2,26.9-56.6c50.3-12.9,90.5-41,92.2-42.1c6.2-4.3,7.7-12.8,3.3-19c-4.3-6.2-12.8-7.7-19-3.3
			c-0.4,0.3-38.1,26.6-83.8,38.2c-0.4,0.1-0.7,0.2-1,0.3c-43.8,15-45.1,61.8-45.7,81.7c0,0.9,0,1.7-0.1,2.5c0,0.1,0,0.2,0,0.3
			c-0.1,5.3-0.2,32.2,5.2,45.8c1,2.6,2.8,4.8,5.3,6.4c3,2,75.7,48.3,197.2,48.3s194-46.5,197-48.4c2.3-1.5,4.2-3.7,5.3-6.4
			C547.7,419.7,547.6,392.7,547.5,387.5z"/>
	</g>
</g>
<circle id="XMLID_1_" fill="#3AA835" cx="439.5" cy="108" r="108"/>
<path fill="#FFFFFF" d="M432,151c-3.8,0-7.7-1.5-10.6-4.4l-35-35c-5.9-5.9-5.9-15.4,0-21.2c5.9-5.9,15.4-5.9,21.2,0l24.4,24.4
	l50.9-50.9c5.9-5.9,15.4-5.9,21.2,0c5.9,5.9,5.9,15.4,0,21.2l-61.5,61.5C439.6,149.6,435.8,151,432,151z"/>
</svg>
