<?xml version="1.0" encoding="utf-8"?>
<!-- Generator: Adobe Illustrator 19.0.0, SVG Export Plug-In . SVG Version: 6.00 Build 0)  -->
<svg version="1.1" id="Capa_1" xmlns="http://www.w3.org/2000/svg" xmlns:xlink="http://www.w3.org/1999/xlink" x="0px" y="0px"
	 viewBox="337.3 -388.8 598.5 487.8" enable-background="new 337.3 -388.8 598.5 487.8" xml:space="preserve">
<circle id="XMLID_45_" fill="#FEE699" cx="602.2" cy="-144.9" r="243.9"/>
<g id="XMLID_5_">
	<g id="XMLID_6_">
		<g id="XMLID_25_">
			<path id="XMLID_34_" fill="#132C81" d="M903.5-210.1L768.9-344.6c-7.3-7.3-16.9-11.3-27.3-11.3c-10.3,0-20,4-27.3,11.3
				L501.1-131.4c-7.3,7.3-11.3,16.9-11.3,27.3c0,10.3,4,20,11.3,27.3l16.6,16.6c0,0,0,0,0,0c0,0,0,0,0,0L629.2,51.3h-15.4
				c-4.9,0-8.9,4-8.9,8.9c0,4.9,4,8.9,8.9,8.9h49.1c0,0,0,0,0,0c0,0,0,0,0,0l127.9,0c4.9,0,8.9-4,8.9-8.9c0-4.9-4-8.9-8.9-8.9
				l-94.2,0l206.8-206.8C918.5-170.6,918.5-195.1,903.5-210.1z M891-168.1L677.7,45.2c-3.9,3.9-9.1,6.1-14.7,6.1h-0.1
				c-5.6,0-10.8-2.2-14.7-6.1L536.5-66.5l204.8-204.8c3.5-3.5,3.5-9.1,0-12.5c-3.5-3.5-9.1-3.5-12.5,0L523.9-79l-10.3-10.3
				c-3.9-3.9-6.1-9.2-6.1-14.8c0-5.6,2.2-10.8,6.1-14.8l213.3-213.3c3.9-3.9,9.2-6.1,14.8-6.1c5.6,0,10.8,2.2,14.8,6.1l47.9,47.9
				L599.5-79.4c-3.5,3.5-3.5,9.1,0,12.5c1.7,1.7,4,2.6,6.3,2.6s4.5-0.9,6.3-2.6l204.8-204.8l74.1,74.1
				C899.1-189.4,899.1-176.2,891-168.1z"/>
			<path id="XMLID_33_" fill="#132C81" d="M707.9-100.2c-3.5-3.5-9.1-3.5-12.5,0l-69.7,69.7c-3.5,3.5-3.5,9.1,0,12.5
				c1.7,1.7,4,2.6,6.3,2.6s4.5-0.9,6.3-2.6l69.7-69.7C711.4-91.2,711.4-96.8,707.9-100.2z"/>
			<path id="XMLID_32_" fill="#132C81" d="M679.4-34.1L650.8-5.5c-3.5,3.5-3.5,9.1,0,12.5c1.7,1.7,4,2.6,6.3,2.6
				c2.3,0,4.5-0.9,6.3-2.6l28.6-28.6c3.5-3.5,3.5-9.1,0-12.5S682.8-37.6,679.4-34.1z"/>
			<path id="XMLID_31_" fill="#132C81" d="M705.7-60.4l-3.8,3.8c-3.5,3.5-3.5,9.1,0,12.5c1.7,1.7,4,2.6,6.3,2.6s4.5-0.9,6.3-2.6
				l3.8-3.8c3.5-3.5,3.5-9.1,0-12.5C714.7-63.9,709.1-63.9,705.7-60.4z"/>
			<path id="XMLID_28_" fill="#132C81" d="M827.7-220c-1.7-1.7-3.9-2.6-6.3-2.6c-2.3,0-4.6,0.9-6.3,2.6l-37.6,37.6
				c-1.7,1.7-2.6,3.9-2.6,6.3s0.9,4.6,2.6,6.3l25,25c1.7,1.7,4,2.6,6.3,2.6c2.3,0,4.5-0.9,6.3-2.6l37.6-37.6c3.5-3.5,3.5-9.1,0-12.5
				L827.7-220z M808.9-163.6l-12.5-12.5l25-25l12.5,12.5L808.9-163.6z"/>
			<path id="XMLID_27_" fill="#132C81" d="M755.7-289.4c2.3,0,4.5-0.9,6.3-2.6l3.8-3.8c3.5-3.5,3.5-9.1,0-12.5
				c-3.5-3.5-9.1-3.5-12.5,0l-3.8,3.8c-3.5,3.5-3.5,9.1,0,12.5C751.2-290.2,753.4-289.4,755.7-289.4z"/>
			<path id="XMLID_26_" fill="#132C81" d="M578.8-58.8l-3.8,3.8c-3.5,3.5-3.5,9.1,0,12.5c1.7,1.7,4,2.6,6.3,2.6s4.5-0.9,6.3-2.6
				l3.8-3.8c3.5-3.5,3.5-9.1,0-12.5C587.9-62.2,582.3-62.2,578.8-58.8z"/>
		</g>
	</g>
</g>
</svg>
