<svg width="547" height="488" viewBox="0 0 547 488" xmlns="http://www.w3.org/2000/svg">
<path d="M243.9 487.8C378.602 487.8 487.8 378.602 487.8 243.9C487.8 109.198 378.602 0 243.9 0C109.198 0 0 109.198 0 243.9C0 378.602 109.198 487.8 243.9 487.8Z"/>
<path d="M122.5 210.812C122.5 204.461 117.351 199.312 111 199.312C104.649 199.312 99.5 204.461 99.5 210.812C99.5 290.154 163.732 354.5 243 354.5C249.351 354.5 254.5 349.351 254.5 343C254.5 336.649 249.351 331.5 243 331.5C176.465 331.5 122.5 277.482 122.5 210.812Z" fill="#132C81"/>
<path d="M128.164 144.575C133.921 147.257 136.415 154.098 133.733 159.856C130.22 167.397 127.464 175.362 125.561 183.653C124.14 189.843 117.97 193.71 111.78 192.289C105.589 190.868 101.723 184.698 103.144 178.508C105.412 168.625 108.698 159.131 112.884 150.145C115.565 144.387 122.406 141.894 128.164 144.575Z" fill="#132C81"/>
<path fill-rule="evenodd" clip-rule="evenodd" d="M249.5 417C307.517 417 360 393.303 397.797 355.061L411.275 368.539C403.829 382.788 406.107 400.77 418.054 412.716L481.833 476.495C496.577 491.239 520.481 491.239 535.225 476.495C549.969 461.751 549.969 437.847 535.225 423.103L471.446 359.324C459.576 347.454 441.79 345.152 427.625 352.361L413.071 337.807C441.203 302.268 458 257.346 458 208.5C458 93.3486 364.651 0 249.5 0C134.349 0 41 93.3486 41 208.5C41 323.651 134.349 417 249.5 417ZM249.5 394C351.949 394 435 310.949 435 208.5C435 106.051 351.949 23 249.5 23C147.051 23 64 106.051 64 208.5C64 310.949 147.051 394 249.5 394ZM498.097 460.232L434.317 396.452C428.603 390.739 428.549 381.491 434.195 375.711C439.936 369.833 449.373 369.777 455.183 375.587L518.962 439.366C524.724 445.128 524.724 454.47 518.962 460.232C513.2 465.994 503.858 465.994 498.097 460.232Z" fill="#132C81"/>
</svg>
