<?xml version="1.0" encoding="utf-8"?>
<!-- Generator: Adobe Illustrator 19.0.0, SVG Export Plug-In . SVG Version: 6.00 Build 0)  -->
<svg version="1.1" id="Capa_1" xmlns="http://www.w3.org/2000/svg" xmlns:xlink="http://www.w3.org/1999/xlink" x="0px" y="0px"
	 viewBox="351 -388.8 563.7 487.8" enable-background="new 351 -388.8 563.7 487.8" xml:space="preserve">
<circle cx="594.9" cy="-144.9" r="243.9"/>
<g>
	<g>
		<path fill="#132C81" d="M856.2-344.5h-77.6v-11.1c0-18.3-14.9-33.2-33.2-33.2H634.6c-18.3,0-33.2,14.9-33.2,33.2v11.1h-77.6
			c-18.3,0-33.2,14.9-33.2,33.2v22.2c0,18.3,14.9,33.2,33.2,33.2h332.4c18.3,0,33.2-14.9,33.2-33.2v-22.2
			C889.4-329.6,874.5-344.5,856.2-344.5z M867.3-289.1c0,6.1-5,11.1-11.1,11.1H523.8c-6.1,0-11.1-5-11.1-11.1v-22.2
			c0-6.1,5-11.1,11.1-11.1h199.4c6.1,0,11.1-5,11.1-11.1c0-6.1-5-11.1-11.1-11.1h-99.7v-11.1c0-6.1,5-11.1,11.1-11.1h110.8
			c6.1,0,11.1,5,11.1,11.1v22.2c0,6.1,5,11.1,11.1,11.1h88.6c6.1,0,11.1,5,11.1,11.1L867.3-289.1L867.3-289.1z"/>
	</g>
</g>
<g>
	<g>
		<path fill="#132C81" d="M690-167.2c-6.1,0-11.1,5-11.1,11.1V21.2c0,6.1,5,11.1,11.1,11.1c6.1,0,11.1-5,11.1-11.1v-177.3
			C701.1-162.2,696.1-167.2,690-167.2z"/>
	</g>
</g>
<g>
	<g>
		<path fill="#132C81" d="M767.5-167.2c-6.1,0-11.1,5-11.1,11.1v60.4c0,32.9-2.7,65.9-8.1,98.3l-2.8,16.8c-1,6,3.1,11.7,9.1,12.7
			c0.6,0.1,1.2,0.2,1.8,0.2c5.3,0,10-3.8,10.9-9.3l2.8-16.8c5.6-33.6,8.4-67.9,8.4-101.9v-60.4C778.6-162.2,773.7-167.2,767.5-167.2
			z"/>
	</g>
</g>
<g>
	<g>
		<path fill="#132C81" d="M634.4,19.3l-2.8-16.8c-5.4-32.4-8.1-65.4-8.1-98.3v-60.4c0-6.1-5-11.1-11.1-11.1c-6.1,0-11.1,5-11.1,11.1
			v60.4c0,34.1,2.8,68.4,8.4,101.9l2.8,16.8c0.9,5.4,5.6,9.3,10.9,9.3c0.6,0,1.2,0,1.8-0.2C631.4,31.1,635.4,25.4,634.4,19.3z"/>
	</g>
</g>
<g>
	<g>
		<path fill="#132C81" d="M856.2-233.7c-6.1,0-11.1,5-11.1,11.1v87.6c0,58.9-4.9,118.2-14.6,176.3l-4.3,26
			c-0.9,5.4-5.5,9.3-10.9,9.3H564.7c-5.4,0-10-3.9-10.9-9.3l-4.3-26c-9.7-58.1-14.6-117.4-14.6-176.3v-76.5h277
			c6.1,0,11.1-5,11.1-11.1c0-6.1-5-11.1-11.1-11.1H523.8c-6.1,0-11.1,5-11.1,11.1v87.6c0,60.1,5,120.6,14.9,179.9l4.3,26
			c2.7,16.1,16.5,27.8,32.8,27.8h250.5c16.3,0,30.1-11.7,32.8-27.8l4.3-26c9.9-59.3,14.9-119.8,14.9-179.9v-87.6
			C867.3-228.7,862.3-233.7,856.2-233.7z"/>
	</g>
</g>
</svg>
