<?xml version="1.0" encoding="utf-8"?>
<!-- Generator: Adobe Illustrator 19.0.0, SVG Export Plug-In . SVG Version: 6.00 Build 0)  -->
<svg version="1.1" id="Capa_1" xmlns="http://www.w3.org/2000/svg" xmlns:xlink="http://www.w3.org/1999/xlink" x="0px" y="0px"
	 viewBox="337.3 -388.8 598.5 487.8" enable-background="new 337.3 -388.8 598.5 487.8" xml:space="preserve">
<circle id="XMLID_45_" fill="#FEE699" cx="581.2" cy="-144.9" r="243.9"/>
<g id="XMLID_5_" transform="translate(1 1)">
	<g id="XMLID_6_">
		<g id="XMLID_15_">
			<path id="XMLID_18_" fill="#132C81" d="M927.5-197.8l-74.2-81.9c-6-6-13.7-9.4-21.3-9.4h-85.3V-307c0-18.8-14.5-33.3-32.4-33.3
				H455.6c-18.8,0-33.3,14.5-33.3,33.3v205.7v17.1v72.5c0,16.2,13.7,29.9,29.9,29.9h13.4c4.1,29.2,28.8,51.2,59.1,51.2
				c30.4,0,55.1-22,59.1-51.2h145.7h17.1h26.2c4.1,29.2,28.8,51.2,59.1,51.2c30.4,0,55.1-22,59.1-51.2h43.3h0.9v-196.3
				C935.1-185.8,932.6-192.7,927.5-197.8z M913.8-186.7c2.6,1.7,3.4,5.1,3.4,7.7v26.5h-128v-85.3h77.7L913.8-186.7z M439.4-161.1
				h119.5c5.1,0,8.5-3.4,8.5-8.5s-3.4-8.5-8.5-8.5H439.4v-25.6h85.3c5.1,0,8.5-3.4,8.5-8.5c0-5.1-3.4-8.5-8.5-8.5h-85.3V-307
				c0-9.4,6.8-16.2,16.2-16.2h257.7c9.4,0,16.2,7.7,16.2,16.2v17.9v187.7H439.4V-161.1z M524.7,52.3c-23.9,0-42.7-18.8-42.7-42.7
				c0-23.9,18.8-42.7,42.7-42.7c23.9,0,42.7,18.8,42.7,42.7S548.6,52.3,524.7,52.3z M729.5,1.1H583.8c-3.8-27.3-25.8-48.4-53.5-50.9
				c-0.2,0-0.4,0-0.6,0c-0.7-0.1-1.4-0.1-2.1-0.1c-1,0-1.9-0.1-2.9-0.1c-1,0-1.9,0-2.9,0.1c-0.7,0-1.4,0.1-2.1,0.1
				c-0.2,0-0.4,0-0.6,0c-27.8,2.5-49.7,23.6-53.5,50.9h-13.4c-6.8,0-12.8-6-12.8-12.8v-72.5h290.1V1.1z M831.9,52.3
				c-23.9,0-42.7-18.8-42.7-42.7c0-23.9,18.8-42.7,42.7-42.7c23.9,0,42.7,18.8,42.7,42.7S855.8,52.3,831.9,52.3z M891,1.1
				c-3.8-27.3-25.8-48.4-53.5-50.9c-0.2,0-0.4,0-0.6,0c-0.7-0.1-1.4-0.1-2.1-0.1c-1,0-1.9-0.1-2.9-0.1c-1,0-1.9,0-2.9,0.1
				c-0.7,0-1.4,0.1-2.1,0.1c-0.2,0-0.4,0-0.6,0c-27.8,2.5-49.7,23.6-53.5,50.9h-26.2v-85.3v-17.1V-272h85.3c2.6,0,6,1.7,8.5,3.4
				l12.2,13.7h-66c-7.7,0-14.5,6.8-14.5,14.5v90.5c0,7.7,6.8,14.5,14.5,14.5h130.6v42.7h-42.7c-5.1,0-8.5,3.4-8.5,8.5
				s3.4,8.5,8.5,8.5h42.7V1L891,1.1L891,1.1z"/>
			<path id="XMLID_17_" fill="#132C81" d="M524.7-7.5c-9.4,0-17.1,7.7-17.1,17.1s7.7,17.1,17.1,17.1c9.4,0,17.1-7.7,17.1-17.1
				S534.1-7.5,524.7-7.5z"/>
			<path id="XMLID_16_" fill="#132C81" d="M831.9-7.5c-9.4,0-17.1,7.7-17.1,17.1s7.7,17.1,17.1,17.1c9.4,0,17.1-7.7,17.1-17.1
				S841.3-7.5,831.9-7.5z"/>
		</g>
	</g>
</g>
</svg>
