<?xml version="1.0" encoding="utf-8"?>
<!-- Generator: Adobe Illustrator 19.0.0, SVG Export Plug-In . SVG Version: 6.00 Build 0)  -->
<svg version="1.1" id="Capa_1" xmlns="http://www.w3.org/2000/svg" xmlns:xlink="http://www.w3.org/1999/xlink" x="0px" y="0px"
	 viewBox="337.3 -388.8 598.5 487.8" enable-background="new 337.3 -388.8 598.5 487.8" xml:space="preserve">
<circle id="XMLID_45_" fill="#FEE699" cx="581.2" cy="-144.9" r="243.9"/>
<g id="XMLID_16_">
	<g id="XMLID_17_">
		<path id="XMLID_18_" fill="#132C81" d="M924.9-229.8h-36.4c3.5-12.2,1.5-25.6-6-36.4l14.4-14.4c2.1-2.1,3.3-5,3.3-8
			c0-2.4-0.8-4.8-2.3-6.7l25.2-25.2c2.1-2.1,3.3-5,3.3-8c0-3-1.2-5.8-3.3-8l-20.3-20.3c-2.1-2.1-5-3.3-8-3.3c-3,0-5.8,1.2-8,3.3
			l-25.2,25.2c-4.4-3.3-10.7-3-14.7,1L746.4-229.8H382.5c-6.2,0-11.3,5-11.3,11.3V57.7c0,6.2,5,11.3,11.3,11.3h542.4
			c6.2,0,11.3-5,11.3-11.3v-276.3C936.1-224.8,931.1-229.8,924.9-229.8z M894.9-332.8l4.4,4.4l-17.2,17.2l-4.4-4.4L894.9-332.8z
			 M855-306.6l18,18L680.6-96.2l-18-18L855-306.6z M863.8-229.8h-17.8l19.9-19.9C868.7-243.3,868-235.7,863.8-229.8z M664.7-80.2
			l-43.5,43.5c-2.1,2.1-4.8,3.2-7.7,3.2s-5.7-1.1-7.7-3.2l-2.5-2.5c-4.3-4.3-4.3-11.2,0-15.5l43.5-43.5L664.7-80.2z M913.6,46.5
			H393.8v-253.8h330.2L587.3-70.7c-10.7,10.7-12.6,27-5.7,39.6l-9,9H442.5c-6.2,0-11.3,5-11.3,11.3s5,11.3,11.3,11.3h134.7
			c3.3,0,6.3-1.5,8.4-3.8l11.9-11.8c4.9,2.6,10.3,4.1,16,4.1c8.9,0,17.3-3.5,23.7-9.8l186.5-186.5h18.2l-38.4,38.4
			c-4.4,4.4-4.4,11.5,0,15.9c2.2,2.2,5.1,3.3,8,3.3c2.9,0,5.8-1.1,8-3.3l54.3-54.3h40L913.6,46.5L913.6,46.5z"/>
	</g>
</g>
<g id="XMLID_13_">
	<g id="XMLID_14_">
		<path id="XMLID_15_" fill="#132C81" d="M821.5-22h-82.2c-6.2,0-11.3,5-11.3,11.3s5,11.3,11.3,11.3h82.2c6.2,0,11.3-5,11.3-11.3
			S827.8-22,821.5-22z"/>
	</g>
</g>
<g id="XMLID_10_">
	<g id="XMLID_11_">
		<path id="XMLID_12_" fill="#132C81" d="M869.5-22h-6.9c-6.2,0-11.3,5-11.3,11.3s5,11.3,11.3,11.3h6.9c6.2,0,11.3-5,11.3-11.3
			S875.7-22,869.5-22z"/>
	</g>
</g>
<g id="XMLID_7_">
	<g id="XMLID_8_">
		<path id="XMLID_9_" fill="#132C81" d="M577.2-172.7H442.5c-6.2,0-11.3,5-11.3,11.3s5,11.3,11.3,11.3h134.7c6.2,0,11.3-5,11.3-11.3
			C588.4-167.7,583.4-172.7,577.2-172.7z"/>
	</g>
</g>
<g id="XMLID_2_">
	<g id="XMLID_3_">
		<path id="XMLID_4_" fill="#132C81" d="M577.2-123.6H442.5c-6.2,0-11.3,5-11.3,11.3s5,11.3,11.3,11.3h134.7c6.2,0,11.3-5,11.3-11.3
			S583.4-123.6,577.2-123.6z"/>
	</g>
</g>
</svg>
