<?xml version="1.0" encoding="utf-8"?>
<!-- Generator: Adobe Illustrator 19.0.0, SVG Export Plug-In . SVG Version: 6.00 Build 0)  -->
<svg version="1.1" id="Capa_1" xmlns="http://www.w3.org/2000/svg" xmlns:xlink="http://www.w3.org/1999/xlink" x="0px" y="0px"
	 viewBox="337.3 -388.8 598.5 487.8" enable-background="new 337.3 -388.8 598.5 487.8" xml:space="preserve">
<circle id="XMLID_45_" fill="#FEE699" cx="600.2" cy="-144.9" r="243.9"/>
<g id="XMLID_29_" transform="translate(1 1)">
	<g id="XMLID_30_">
		<path id="XMLID_31_" fill="#132C81" d="M908.3-179.2H901V-318c0-11.7-9.5-21.9-21.9-21.9H733.7H733h-72.3c-0.1,0-0.2,0-0.4,0
			c-0.1,0-0.2,0-0.4,0H513.9c-11.7,0-21.9,9.5-21.9,21.9v138.8h-7.3c-4.4,0-7.3,2.9-7.3,7.3v73c0,4.4,2.9,7.3,7.3,7.3h7.3V47.2
			c0,11.7,9.5,21.9,21.9,21.9h146.1h73H879c11.7,0,21.9-10.2,21.9-21.9V-91.6h7.3c4.4,0,7.3-2.9,7.3-7.3v-73
			C915.6-176.3,912.6-179.2,908.3-179.2z M886.3-318v138.8h-66.1c-0.7-6.4-2-12.5-4-16.1c-7.3-13.1-20.5-21.2-36.5-21.2H779
			c-14.4,0-27.3,9.7-38,20.9v-129.8h138C882.7-325.3,886.3-322.4,886.3-318z M793.5-82.8c-0.2,0.2-0.4,0.5-0.6,0.7
			c-0.3,0.3-0.5,0.5-0.8,0.7c-0.2,0.2-0.4,0.3-0.6,0.5c0,0-0.1,0.1-0.1,0.1c-5.5,4.2-13.4,4.6-20.8,3.1c-4.7-1.1-9.5-3-13.8-5.4
			c-10.9-6.7-20.7-18-21.6-31.9c1.2-2.3,2.3-4.7,3.1-7.3l19.5,14.7c1.5,0.7,2.9,1.5,4.4,1.5c2.2,0,4.4-0.7,5.8-2.9
			c2.2-2.9,1.5-8-1.5-10.2l-21.4-16.1l21.4-16.1c2.9-2.2,3.7-7.3,1.5-10.2c-2.2-2.9-7.3-3.7-10.2-1.5l-19.5,14.7
			c-1.3-4.3-3.3-8.3-5.9-11.9c0.8-1,1.7-2.2,2.8-3.5c1.5-1.5,2.9-3.7,4.4-5.8c0.1-0.3,0.3-0.5,0.4-0.8c6.8-9.1,23.9-29.9,39.1-29.9
			c7.8,0,14.2,2.3,18.7,6.7c1.5,1.6,2.8,3.5,3.9,5.7c2.2,4.4,3.7,24.1,2.9,31.4c0,2.2,0,5.8,0,10.2c0,11-0.3,31.9-4.1,47.6
			C798-89.9,795.5-85.2,793.5-82.8z M729.2-45.6l-1.4,2.2c-0.3,0.3-0.6,0.5-0.9,0.8l-20.1-50.3c6-1.5,11.6-4.2,16.4-7.9
			c1.7,4.3,3.8,8.4,6.6,12.2c3.6,5.3,8.1,9.9,13,13.8l9.6,21.1l-12.1-2.1c-2.9,0-5.8,1.5-7.3,3.7L729.2-45.6z M656.3-52.2
			c-1.5-2.2-4.4-3.7-6.6-3.7c-0.7,0-0.7,0-0.7,0l-12.4,2.2l8-17.5c0,0,0,0,0,0c12.2-7.2,20.9-17.9,25.3-29.4
			c4.6,3.5,10,6.2,15.8,7.7L662.4-42L656.3-52.2z M599.3-82.1c-2.1-2.1-5.6-7-7.8-17.2c0-0.4-0.1-0.7-0.2-1.1
			c-3.7-15.3-4.4-33.6-4.4-46l0,0c0-4.4,0-8,0-10.2c0-2.2,0-8,0.7-14.6c0-0.2,0-0.4,0-0.6c0,0,0-0.1,0-0.1
			c0.7-10.2,2.2-14.6,2.9-16.1c4.3-8.6,12.1-13,22.7-13.1c0.2,0,0.4,0,0.7,0c0,0,0,0,0,0c0.5,0,1,0,1.5,0.1
			c15.7,1.4,33,23.6,38.6,31.3c0.2,0.3,0.5,0.6,0.8,0.9c1.3,1.8,2.5,3.5,3.6,5c0.7,0.7,1.5,2.2,2.2,2.9c-2.6,3.8-4.7,8-6.1,12.4
			l-19.5-14.6c-2.9-2.2-8-1.5-10.2,1.5c-2.2,2.9-1.5,8,1.5,10.2l21.4,16.1l-21.4,16.1c-2.9,2.2-3.7,7.3-1.5,10.2
			c1.5,2.2,3.7,2.9,5.8,2.9c1.5,0,2.9-0.7,4.4-1.5l19.2-14.4c0.5,2.2,1.2,4.4,1.9,6.4c-0.7,16.8-13.9,29.9-27.8,35.8
			c-2.5,1.1-5.1,2.1-7.9,2.7C612.7-75.7,604.8-76.7,599.3-82.1z M722.1-149.3C722.1-149.3,722.1-149.3,722.1-149.3
			c0.1,0.2,0.3,0.5,0.4,0.7c1.8,3.7,2.9,7.7,3.1,11.8c0,0.5,0,0.9,0,1.4c0,0.6,0,1.2-0.1,1.9c0,0,0,0.1,0,0.1
			c-0.2,3-0.9,5.9-2.1,8.6c-1.5,0.6-2.9,1.7-3.6,3.3c-5.1,8.8-14.6,14.6-24.8,14.6c-4.1,0-8.1-0.8-11.7-2.4
			c-4.5-2.3-8.3-5.7-11.1-9.8c-0.1-0.5-0.3-1-0.6-1.7c-2.5-3.8-4-8.2-4.3-12.6c0,0,0-0.1,0-0.1c0-0.6-0.1-1.2-0.1-1.9
			c0-0.5,0-0.9,0-1.4c0.3-6.8,3.3-13.5,9.5-17.6c0.8-1.1,1.4-2.5,1.6-3.8c5-4,11.3-6.4,18.2-6.4
			C707.5-164.6,717.2-158.4,722.1-149.3z M725.7-177.2c-1,1.3-2,2.6-2.9,3.8c-0.3,0.5-0.6,0.9-0.8,1.3c-0.3,0.2-0.5,0.3-0.6,0.6
			c-6.2-4.3-13.6-7.1-21.5-7.7c0,0-0.1,0-0.1,0c-0.4,0-0.9-0.1-1.3-0.1c-0.6,0-1.2,0-1.9,0s-1.2,0-1.9,0c-0.4,0-0.9,0-1.3,0.1
			c-0.1,0-0.1,0-0.2,0c-6.4,0.5-12.5,2.4-17.9,5.4c-1.2,0.6-2.3,1.3-3.4,2c0-0.1-0.1-0.1-0.1-0.2c-1.4-1.8-2.8-3.7-4.4-5.7v-147.7
			h58.4L725.7-177.2L725.7-177.2z M506.5-318c0-3.7,3.7-7.3,7.3-7.3h139.5v130.7c-11.7-11.7-24.8-21.2-39.4-21.2
			c-16.8,0.7-29.2,8-36.5,21.2c-0.7,1.5-2.2,4.4-3.7,15.3h-67.2V-318z M491.9-164.6h7.3h73c0,3.7,0,7.3,0,9.5c0,1.5,0,5.1,0,8.8
			c0.7,10.2,0.7,25.6,2.9,40.2h-76h-7.3C491.9-106.2,491.9-164.6,491.9-164.6z M506.5,47.2V-91.6h71.8c2.4,8.4,5.8,15.6,10.7,20.5
			c6.6,5.8,15.3,9.5,25.6,9.5c3.1,0,6.1-0.3,9.3-1l-7.1,15.6c-1.5,2.2-0.7,5.1,0.7,7.3c2.2,2.2,4.4,3.7,7.3,2.9l21.2-3.7l6.6,11.7
			v83.3H513.9C510.2,54.5,506.5,51.6,506.5,47.2z M668-20c0.7-0.7,1.5-1.5,2.2-2.9l26.3-57.7l22.6,57.7c0,0,0,0.1,0.1,0.1
			c0.8,2.1,2.9,4.2,5.8,4.2h0.4c0,0,0.3,0,0.3,0v73H668V-20z M886.3,47.2c0,3.7-2.9,7.3-7.3,7.3H740.3v-90.1l2.9-4.9l18.3,2.9
			c0.5,0,1.1,0,1.6-0.1l0.6,0.1c2.9,0,5.8-0.7,7.3-2.9c1.5-2.2,2.2-5.1,0.7-7.3l-7.7-16c4.8,1.4,9.7,2.1,14.2,2.1
			c10.2,0,19-3.7,27-11c4.6-4.6,7.8-11.2,10.1-19h71L886.3,47.2L886.3,47.2z M901-106.2h-7.3h-75.1c2-12.9,2.5-27.3,2.8-40.9
			c0-3.7,0-6.6,0-8.8c0-1.7,0-4.8-0.1-8.8h72.4h7.3V-106.2L901-106.2z"/>
	</g>
</g>
</svg>
