<?xml version="1.0" encoding="utf-8"?>
<!-- Generator: Adobe Illustrator 19.0.0, SVG Export Plug-In . SVG Version: 6.00 Build 0)  -->
<svg version="1.1" id="Capa_1" xmlns="http://www.w3.org/2000/svg" xmlns:xlink="http://www.w3.org/1999/xlink" x="0px" y="0px"
	 viewBox="-269 390.9 60 60" enable-background="new -269 390.9 60 60" xml:space="preserve">
<path d="M-237.4,411.8h-3.2c-0.5,0-0.9,0.4-0.9,0.9c0,0.5,0.4,0.9,0.9,0.9h3.2c0.5,0,0.9-0.4,0.9-0.9
	C-236.5,412.2-236.9,411.8-237.4,411.8z M-229.8,411.8h-18.4c-0.5,0-0.9,0.4-0.9,0.9s0.4,0.9,0.9,0.9h18.4c0.5,0,0.9-0.4,0.9-0.9
	C-229,412.2-229.3,411.8-229.8,411.8z M-229.8,418.2h-18.4c-0.5,0-0.9,0.4-0.9,0.9c0,0.5,0.4,0.9,0.9,0.9h18.4
	c0.5,0,0.9-0.4,0.9-0.9S-229.3,418.2-229.8,418.2z M-237.4,418.2h-3.2c-0.5,0-0.9,0.4-0.9,0.9c0,0.5,0.4,0.9,0.9,0.9h3.2
	c0.5,0,0.9-0.4,0.9-0.9C-236.5,418.6-236.9,418.2-237.4,418.2z M-211.5,411.6C-211.6,411.6-211.6,411.6-211.5,411.6
	c-0.7-0.7-1.6-1.1-2.5-1.2c0,0,0,0,0,0c-0.1,0-0.1,0-0.2,0c0,0,0,0,0,0c-0.1,0-0.1,0-0.2,0h-2.8v-16.6c0-1.6-1.3-2.9-2.9-2.9h-37.6
	c-1.6,0-2.9,1.3-2.9,2.9v16.6h-2.8c-0.1,0-0.1,0-0.2,0c0,0,0,0,0,0c-0.1,0-0.1,0-0.2,0c0,0,0,0,0,0c-0.9,0.1-1.8,0.5-2.5,1.2
	c0,0,0,0,0,0c-0.7,0.8-1.2,1.8-1.2,2.9v32.2c0,1.2,0.5,2.2,1.3,3c0,0,0,0,0,0c0.2,0.2,0.4,0.4,0.7,0.5c0,0,0,0,0,0
	c0.1,0,0.1,0.1,0.2,0.1c0,0,0,0,0,0c0.1,0,0.1,0.1,0.2,0.1c0,0,0,0,0,0c0.1,0,0.1,0,0.2,0.1c0,0,0,0,0,0c0,0,0.1,0,0.1,0.1
	c0,0,0,0,0,0c0,0,0.1,0,0.1,0c0,0,0,0,0.1,0c0,0,0.1,0,0.1,0c0,0,0,0,0.1,0c0,0,0.1,0,0.1,0c0,0,0.1,0,0.1,0c0,0,0.1,0,0.1,0
	c0,0,0.1,0,0.1,0c0,0,0.1,0,0.1,0c0,0,0.1,0,0.1,0c0,0,0.1,0,0.1,0c0,0,0,0,0.1,0c0.1,0,0.1,0,0.2,0h49c0.1,0,0.1,0,0.2,0
	c0,0,0,0,0.1,0c0,0,0.1,0,0.1,0c0,0,0.1,0,0.1,0c0,0,0.1,0,0.1,0c0,0,0.1,0,0.1,0c0,0,0.1,0,0.1,0c0,0,0.1,0,0.1,0c0,0,0.1,0,0.1,0
	c0,0,0,0,0.1,0c0,0,0.1,0,0.1,0c0,0,0,0,0.1,0c0,0,0.1,0,0.1,0c0,0,0,0,0.1,0c0,0,0.1,0,0.1-0.1c0,0,0,0,0,0c0.1,0,0.1,0,0.2-0.1
	c0,0,0,0,0,0c0.1,0,0.1-0.1,0.2-0.1c0,0,0,0,0,0c0.1,0,0.1-0.1,0.2-0.1c0,0,0,0,0,0c0.2-0.1,0.5-0.3,0.7-0.5c0,0,0,0,0,0
	c0.8-0.8,1.3-1.8,1.3-3v-32.2C-210.4,413.4-210.8,412.4-211.5,411.6z M-217.3,412.1h2.8c0.1,0,0.2,0,0.2,0c0,0,0,0,0.1,0
	c0.1,0,0.1,0,0.2,0c0,0,0,0,0,0c0.1,0,0.1,0,0.2,0c0,0,0,0,0,0c0.1,0,0.1,0,0.2,0.1l-3.7,3.3V412.1z M-258.9,393.7
	c0-0.6,0.5-1.1,1.1-1.1h37.6c0.6,0,1.1,0.5,1.1,1.1v23.3l-18.7,16.5c-0.1,0.1-0.1,0.1-0.2,0.1c-0.7,0.5-1.6,0.4-2.3-0.1l-18.7-16.5
	V393.7z M-264.2,412.2C-264.2,412.2-264.2,412.2-264.2,412.2c0.1,0,0.2,0,0.2-0.1c0,0,0,0,0,0c0.1,0,0.1,0,0.2,0c0,0,0,0,0.1,0
	c0.1,0,0.2,0,0.2,0h2.8v3.5l-3.7-3.3C-264.3,412.2-264.3,412.2-264.2,412.2z M-265.6,447.9c-0.2-0.3-0.3-0.7-0.3-1.2v-32.2
	c0-0.4,0.1-0.7,0.2-1.1l19.9,17.5L-265.6,447.9z M-213.8,449C-213.8,449-213.8,449.1-213.8,449c-0.1,0-0.2,0-0.2,0.1
	c0,0-0.1,0-0.1,0c0,0-0.1,0-0.2,0c0,0,0,0-0.1,0c-0.1,0-0.2,0-0.2,0h-49c-0.1,0-0.2,0-0.2,0c0,0,0,0-0.1,0c-0.1,0-0.1,0-0.2,0
	c0,0-0.1,0-0.1,0c0,0-0.1,0-0.1,0c0,0,0,0-0.1,0c0,0,0,0,0,0l19.8-16.9l3,2.7v0c0.1,0.1,0.2,0.1,0.3,0.2c0.6,0.5,1.4,0.7,2.1,0.7
	c0.4,0,0.9-0.1,1.3-0.2s0.8-0.4,1.1-0.7l3-2.7L-213.8,449C-213.7,449-213.8,449-213.8,449z M-212.1,446.7L-212.1,446.7
	c0,0.4-0.1,0.8-0.3,1.2l-19.9-16.9l19.9-17.5c0.2,0.3,0.2,0.7,0.2,1.1V446.7L-212.1,446.7z M-236,395.1c-1.1,0-2.1,0.4-3,1.1
	c-0.8-0.7-1.9-1.1-3-1.1c-2.5,0-4.6,2.1-4.6,4.6c0,5.2,7,8,7.3,8.1c0.1,0,0.2,0.1,0.3,0.1s0.2,0,0.3-0.1c0.3-0.1,7.3-2.9,7.3-8.1
	C-231.4,397.2-233.5,395.1-236,395.1z M-239,406.1c-0.5-0.2-1.7-0.8-2.8-1.7c-2-1.5-3-3.1-3-4.7c0-1.6,1.3-2.9,2.9-2.9
	c0.9,0,1.7,0.4,2.3,1.1c0.2,0.2,0.4,0.3,0.7,0.3s0.5-0.1,0.7-0.3c0.6-0.7,1.4-1.1,2.3-1.1c1.6,0,2.9,1.3,2.9,2.9
	C-233.2,403.3-237.7,405.6-239,406.1z"/>
</svg>
