<?xml version="1.0" encoding="utf-8"?>
<!-- Generator: Adobe Illustrator 19.0.0, SVG Export Plug-In . SVG Version: 6.00 Build 0)  -->
<svg version="1.1" id="Capa_1" xmlns="http://www.w3.org/2000/svg" xmlns:xlink="http://www.w3.org/1999/xlink" x="0px" y="0px"
	 viewBox="351 -388.8 563.7 487.8" enable-background="new 351 -388.8 563.7 487.8" xml:space="preserve">
<circle fill="#FEE699" cx="594.9" cy="-144.9" r="243.9"/>
<path fill="#132C81" d="M908.1,59.2L801.9-51.3c27.3-32.5,42.3-73.3,42.3-115.9c0-99.4-80.9-180.3-180.3-180.3
	s-180.3,80.9-180.3,180.3S564.5,13.1,663.9,13.1c37.3,0,72.9-11.3,103.3-32.6L874.3,91.8c4.5,4.6,10.5,7.2,16.9,7.2
	c6.1,0,11.9-2.3,16.3-6.6C916.8,83.5,917.1,68.5,908.1,59.2z M663.9-300.4c73.5,0,133.2,59.8,133.2,133.2S737.4-34,663.9-34
	S530.7-93.7,530.7-167.2S590.5-300.4,663.9-300.4z"/>
</svg>
