<?xml version="1.0" encoding="utf-8"?>
<!-- Generator: Adobe Illustrator 19.0.0, SVG Export Plug-In . SVG Version: 6.00 Build 0)  -->
<svg version="1.1" id="Capa_1" xmlns="http://www.w3.org/2000/svg" xmlns:xlink="http://www.w3.org/1999/xlink" x="0px" y="0px"
	 viewBox="351 -388.8 563.7 487.8" enable-background="new 351 -388.8 563.7 487.8" xml:space="preserve">
<circle fill="#FEE699" cx="633.9" cy="-144.9" r="215.9"/>
<path fill="#132C81" d="M741.5-40.3h-2.9c-27.5,0-49.8-22.2-50.2-49.6l-20.7-248.4v-0.6c0-27.7,22.5-50.2,50.2-50.2h44.3
	c27.7,0,50.2,22.5,50.2,50.2l0,1.2l-2.6,31.3c-0.6,7.7-7.4,13.4-15.1,12.8c-7.7-0.6-13.4-7.4-12.8-15.1l2.6-30.6
	c-0.3-12-10.1-21.7-22.2-21.7h-44.3c-12.1,0-22,9.7-22.2,21.7L716.3-91v0.6c0,12.3,10,22.2,22.2,22.2h2.9c12.3,0,22.2-10,22.2-22.2
	l0-1.2l13.8-166.2c0.6-7.7,7.4-13.4,15.1-12.8c7.7,0.6,13.4,7.4,12.8,15.1L791.7-89.8C791.4-62.4,769-40.3,741.5-40.3z M802.6,37.2
	c0-33.9-27.6-61.6-61.6-61.6c-23.3,0-44.3,12.9-54.9,33.7c-3.5,6.9-0.8,15.3,6.1,18.8c6.9,3.5,15.3,0.8,18.8-6.1
	c5.8-11.3,17.3-18.4,30-18.4c18.5,0,33.6,15.1,33.6,33.6c0,18.5-15.1,33.6-33.6,33.6c-12.9,0-24.4-7.2-30.2-18.7
	c-3.4-6.9-11.8-9.7-18.7-6.3c-6.9,3.4-9.7,11.8-6.3,18.7c10.5,21.1,31.6,34.2,55.2,34.2C774.9,98.7,802.6,71.1,802.6,37.2z"/>
</svg>
