<?xml version="1.0" encoding="utf-8"?>
<!-- Generator: Adobe Illustrator 19.0.0, SVG Export Plug-In . SVG Version: 6.00 Build 0)  -->
<svg version="1.1" id="Слой_1" xmlns="http://www.w3.org/2000/svg" xmlns:xlink="http://www.w3.org/1999/xlink" x="0px" y="0px"
  viewBox="0 0 392.9 392.9" enable-background="new 0 0 392.9 392.9" xml:space="preserve">
<circle id="XMLID_1_" fill="#FFE799" cx="196.4" cy="196.5" r="196.5"/>
<g id="XMLID_58_">
 <path id="XMLID_59_" fill="#263675" d="M195.9,152.7v134.8l107.3-20.4v-65.7c0-2.7,2.4-4.9,5.1-4.6l13.2,2c2.3,0.3,4.1,2.2,4.1,4.6
  v76.3c0,2.2-1.5,4-3.6,4.5l-117.5,25.3c-5.7,1.2-11.5,1.2-17.2,0L71.1,285.1c-2.1-0.4-3.6-2.3-3.7-4.4l-2-77.5
  c-0.1-2.4,1.8-4.5,4.2-4.7l98.7-8.7c1.7-0.2,3.2-1.2,3.9-2.8l14.9-36.1C189,146.2,195.9,147.6,195.9,152.7z M64.3,108.5l-31,66.2
  c-1.5,3.2,1.1,6.9,4.6,6.5l116.4-11.8c1.6-0.2,3.1-1.2,3.7-2.7l37.4-84.3L67.6,105.9C66.2,106.2,64.9,107.2,64.3,108.5z
   M195.5,82.5l39.6,87c0.7,1.5,2.2,2.5,3.8,2.7l116.1,9.3c3.5,0.3,6-3.3,4.6-6.5l-30.3-66.4c-0.6-1.4-1.9-2.4-3.4-2.6L195.5,82.5z"
  />
</g>
</svg>