<?xml version="1.0" encoding="utf-8"?>
<!-- Generator: Adobe Illustrator 19.0.0, SVG Export Plug-In . SVG Version: 6.00 Build 0)  -->
<svg version="1.1" id="Слой_1" xmlns="http://www.w3.org/2000/svg" xmlns:xlink="http://www.w3.org/1999/xlink" x="0px" y="0px"
	 viewBox="0 0 500 138.4" enable-background="new 0 0 500 138.4" xml:space="preserve">
<g>
	<path fill="#2F2A81" d="M192.1,33.9c11.6,0,18.3,9.5,18.3,19.9c0,8.7-4.7,20.3-18.5,20.3c-11.3,0-18.2-9.3-18.2-20
		C173.7,42.9,181,33.9,192.1,33.9z M192.1,67.4c5.7,0,11-4.4,11-13c0-6.8-3.6-13.9-11.1-13.9c-6.3,0-10.9,4.9-10.9,13.3
		C181.1,59.8,184,67.4,192.1,67.4z M222.7,46.1v2.4c1.1-1.1,3.4-3.2,7.5-3.2c1.7,0,5.6,0.3,8.7,3.9c1.4,1.7,3.6,5.2,3.6,10.6
		c0,1.5-0.1,5.5-2.7,9.1c-3.2,4.5-7.6,5-9.6,5c-1.6,0-4.5-0.3-7.5-3v11h-6.5V46.1H222.7z M229.1,51.3c-4.6,0-6.5,4.3-6.5,8.1
		c0,4.7,2.3,8.4,6.7,8.4c2.5,0,6.4-1.5,6.4-8.4C235.7,53.8,232.2,51.3,229.1,51.3z M273.1,73.1h-6.5V56.9l-12,11.9v4.3h-6.5V46.1
		h6.5v15.7l12-11.9v-3.8h6.5V73.1z M292.7,73.9c-9.8,0-14.1-7.8-14.1-14.4c0-6.5,4.3-14.2,13.9-14.2c5.9,0,13.9,3.9,14,14.2
		C306.4,66.7,301.9,73.9,292.7,73.9z M292.7,68c4.8,0,7-4.1,7-8.2c0-4.3-2.3-8.7-7.3-8.7c-3.8,0-7,2.8-7,8.2
		C285.4,64.1,288,68,292.7,68z M318.5,46.1v9.8H330v-9.8h6.5v27.1H330V61.7h-11.5v11.5H312V46.1H318.5z M374.2,34.9v38.2h-7.1V41.4
		h-16v31.7h-7.1V34.9H374.2z M388.3,46.1v2.4c1.1-1.1,3.4-3.2,7.5-3.2c1.7,0,5.6,0.3,8.7,3.9c1.4,1.7,3.6,5.2,3.6,10.6
		c0,1.5-0.1,5.5-2.7,9.1c-3.2,4.5-7.6,5-9.6,5c-1.6,0-4.5-0.3-7.5-3v11h-6.5V46.1H388.3z M394.6,51.3c-4.6,0-6.5,4.3-6.5,8.1
		c0,4.7,2.3,8.4,6.7,8.4c2.5,0,6.4-1.5,6.4-8.4C401.2,53.8,397.8,51.3,394.6,51.3z M438.6,73.1h-6.5V56.9l-12,11.9v4.3h-6.5V46.1
		h6.5v15.7l12-11.9v-3.8h6.5V73.1z M452.2,46.1v9.8h11.5v-9.8h6.5v27.1h-6.5V61.7h-11.5v11.5h-6.5V46.1H452.2z M500,46.1v5.7h-9.5
		v21.3H484V51.8h-9.5v-5.7H500z M189.6,94.3v2.1h-4.9v12.8h-2.5V96.4h-4.9v-2.1H189.6z M194.8,94.3v10l7.9-8.4v-1.6h2.5v14.8h-2.5
		V98.9l-7.9,8.4v1.8h-2.5V94.3H194.8z M221.8,94.3v14.8h-2.5V96.4H212v12.8h-2.5V94.3H221.8z M232.8,93.8c3.9,0,7.1,2.4,7.1,7.8
		c0,5.3-3.3,8-7.3,8c-4.2,0-7.3-2.8-7.3-7.9C225.3,99.3,226.4,93.8,232.8,93.8z M232.6,107.6c3,0,4.6-2.4,4.6-6.2
		c0-2.6-1-5.5-4.4-5.5c-4.7,0-4.8,5.1-4.8,6C228,103.6,228.6,107.6,232.6,107.6z M254.1,94.3v2.1h-8.3v12.8h-2.5V94.3H254.1z
		 M259.2,94.3v2.1c0.8-1,2.7-2.6,5.3-2.6c3.1,0,6.7,2.4,6.7,7.9c0,3.4-1.6,7.9-7,7.9c-1.9,0-3.9-0.7-5-2.2v8.8h-2.5V94.3H259.2z
		 M263.9,107.4c3,0,4.6-2.3,4.6-5.7c0-4-2.4-5.5-4.4-5.5c-2.9,0-4.8,2.1-4.8,5.8C259.2,105.4,261,107.4,263.9,107.4z M283.6,99.8
		c0-1.4,0-4-3.3-4c-2.1,0-3.2,1-3.2,2.9v0.2l-2.6-0.2c0-0.7,0.4-4.9,5.7-4.9c0.9,0,2.5,0.2,3.7,0.9c2.1,1.2,2.2,2.7,2.2,5.4v5.2
		c0,0.9,0,1.7,1.1,1.7c0.3,0,0.5-0.1,0.8-0.1v2.1c-0.8,0.3-1.2,0.3-1.6,0.3c-0.1,0-1,0-1.6-0.4c-0.6-0.4-1-1.4-1-1.8
		c-0.7,0.8-2.2,2.4-5.1,2.4c-3,0-5-1.7-5-4.3c0-0.7,0.2-2.1,1.6-3.2c1.5-1.1,4.1-1.5,6-1.7l2.3-0.2V99.8z M278.3,103
		c-0.5,0.2-1.8,0.8-1.8,2.3c0,1.1,0.8,2.2,2.8,2.2c1.4,0,4.4-0.6,4.4-4.4v-1.2C282.4,102.1,279.4,102.5,278.3,103z M299.8,86.9v7.4
		c5.7,0.3,7.6,3.2,7.6,7.4c0,5.5-3.2,7.3-7.6,7.5v7.1h-2.5v-7.1c-6.2-0.1-7.6-3.7-7.6-7.3c0-4.8,2.5-7.1,7.6-7.5v-7.4H299.8z
		 M297.4,96.3c-2.2,0.2-4.9,1-4.9,5.5c0,2.9,1.1,4.9,4.9,5.3V96.3z M299.8,107.1c4.2-0.2,4.9-2.8,4.9-5.4c0-3.1-1-5.1-4.9-5.5V107.1
		z M313.4,94.3v10l7.9-8.4v-1.6h2.5v14.8h-2.5V98.9l-7.9,8.4v1.8H311V94.3H313.4z M339.6,109.2h-2.5v-6H334c-4.2,0-2.9,4.4-4.3,6
		h-2.9c2.1-1.5,0.5-5.5,4.2-6.7c-1.9-0.3-2.8-1.9-2.8-3.4c0-3.4,2.1-4.7,5.2-4.7h6.1V109.2z M333.1,96.4c-2,0-2.5,1.6-2.5,2.4
		c0,1.1,0.5,2.4,2.6,2.4h3.9v-4.7H333.1z"/>
	<g>
		<g>
			<path id="XMLID_24_" fill="#9D2E88" d="M43.5,43.5L20.3,20.3c-8.5,8.5-14.7,19.1-17.9,31L34,59.8C35.7,53.5,39,47.9,43.5,43.5z"
				/>
			<path id="XMLID_23_" fill="#FAE900" d="M95,95l23.2,23.2c8.5-8.5,14.7-19.1,17.9-31l-31.7-8.5C102.7,84.9,99.4,90.5,95,95z"/>
			<path id="XMLID_22_" fill="#007172" d="M43.5,95l-23.2,23.2c8.5,8.5,19.1,14.8,31,17.9l8.5-31.7C53.5,102.7,47.9,99.4,43.5,95z"
				/>
			<path id="XMLID_21_" fill="#E84815" d="M95,43.5l23.2-23.2c-8.5-8.5-19.1-14.7-31-17.9L78.6,34C84.9,35.7,90.5,39,95,43.5z"/>
			<path id="XMLID_20_" fill="#FDC000" d="M105.6,69.2c0,3.3-0.4,6.4-1.2,9.4l31.7,8.5c1.5-5.7,2.3-11.7,2.3-17.9
				c0-6.2-0.8-12.2-2.3-17.9l-31.7,8.5C105.2,62.8,105.6,66,105.6,69.2z"/>
			<path id="XMLID_19_" fill="#5C2483" d="M32.8,69.2c0-3.3,0.4-6.4,1.2-9.4L2.3,51.3C0.8,57,0,63,0,69.2c0,6.2,0.8,12.2,2.3,17.9
				L34,78.6C33.2,75.6,32.8,72.5,32.8,69.2z"/>
			<path id="XMLID_18_" fill="#2F2A81" d="M34,78.6L2.3,87.1c3.2,11.9,9.5,22.6,17.9,31L43.5,95C39,90.5,35.7,84.9,34,78.6z"/>
			<path id="XMLID_17_" fill="#39A736" d="M69.2,105.6c-3.3,0-6.4-0.4-9.4-1.2l-8.5,31.7c5.7,1.5,11.7,2.4,17.9,2.4
				c6.2,0,12.2-0.8,17.9-2.4l-8.5-31.7C75.6,105.2,72.5,105.6,69.2,105.6z"/>
			<path id="XMLID_16_" fill="#8CBE23" d="M78.6,104.4l8.5,31.7c11.9-3.2,22.5-9.5,31-17.9L95,95C90.5,99.4,84.9,102.7,78.6,104.4z"
				/>
			<path id="XMLID_15_" fill="#F08200" d="M104.4,59.8l31.7-8.5c-3.2-11.9-9.5-22.6-17.9-31L95,43.5
				C99.4,47.9,102.7,53.5,104.4,59.8z"/>
			<path id="XMLID_14_" fill="#E41716" d="M69.2,32.8c3.3,0,6.4,0.4,9.4,1.2l8.5-31.7C81.4,0.8,75.4,0,69.2,0C63,0,57,0.8,51.3,2.3
				L59.8,34C62.8,33.2,66,32.8,69.2,32.8z"/>
			<path id="XMLID_13_" fill="#DC0068" d="M59.8,34L51.3,2.3c-5.9,1.6-11.5,3.9-16.7,6.9c-5.3,3-10.1,6.8-14.3,11l23.2,23.2
				C47.9,39,53.5,35.7,59.8,34z"/>
		</g>
		<g>
			<path id="XMLID_12_" fill="#9D2E88" d="M83,83l12.4,12.4c4.5-4.5,7.9-10.2,9.6-16.6l-17-4.5C87.2,77.6,85.4,80.6,83,83z"/>
			<path id="XMLID_11_" fill="#FAE900" d="M55.4,55.4L43,43c-4.5,4.5-7.9,10.2-9.6,16.6l17,4.5C51.3,60.8,53,57.8,55.4,55.4z"/>
			<path id="XMLID_10_" fill="#007172" d="M83,55.4L95.4,43c-4.5-4.5-10.2-7.9-16.6-9.6l-4.5,17C77.6,51.3,80.6,53,83,55.4z"/>
			<path id="XMLID_9_" fill="#E84815" d="M55.4,83L43,95.4c4.5,4.5,10.2,7.9,16.6,9.6l4.5-17C60.8,87.2,57.8,85.4,55.4,83z"/>
			<path id="XMLID_8_" fill="#FDC000" d="M49.7,69.2c0-1.7,0.2-3.4,0.7-5l-17-4.5c-0.8,3.1-1.3,6.3-1.3,9.6c0,3.3,0.4,6.5,1.3,9.6
				l17-4.5C49.9,72.7,49.7,71,49.7,69.2z"/>
			<path id="XMLID_7_" fill="#5C2483" d="M88.7,69.2c0,1.7-0.2,3.4-0.7,5l17,4.5c0.8-3.1,1.3-6.3,1.3-9.6c0-3.3-0.4-6.5-1.3-9.6
				l-17,4.5C88.5,65.8,88.7,67.5,88.7,69.2z"/>
			<path id="XMLID_6_" fill="#2F2A81" d="M88.1,64.2l17-4.5c-1.7-6.4-5.1-12.1-9.6-16.6L83,55.4C85.4,57.8,87.2,60.8,88.1,64.2z"/>
			<path id="XMLID_5_" fill="#39A736" d="M69.2,49.7c1.7,0,3.4,0.2,5,0.7l4.5-17c-3.1-0.8-6.3-1.3-9.6-1.3c-3.3,0-6.5,0.4-9.6,1.3
				l4.5,17C65.8,49.9,67.5,49.7,69.2,49.7z"/>
			<path id="XMLID_4_" fill="#8CBE23" d="M64.2,50.4l-4.5-17C53.2,35.1,47.5,38.5,43,43l12.4,12.4C57.8,53,60.8,51.3,64.2,50.4z"/>
			<path id="XMLID_3_" fill="#F08200" d="M50.4,74.3l-17,4.5c1.7,6.4,5.1,12.1,9.6,16.6L55.4,83C53,80.6,51.3,77.6,50.4,74.3z"/>
			<path id="XMLID_2_" fill="#E41716" d="M69.2,88.7c-1.7,0-3.4-0.2-5.1-0.7l-4.5,17c3.1,0.8,6.3,1.3,9.6,1.3c3.3,0,6.5-0.4,9.6-1.3
				l-4.5-17C72.7,88.5,71,88.7,69.2,88.7z"/>
			<path id="XMLID_1_" fill="#DC0068" d="M74.3,88.1l4.5,17c3.2-0.8,6.2-2.1,8.9-3.7c2.8-1.6,5.4-3.6,7.7-5.9L83,83
				C80.6,85.4,77.6,87.2,74.3,88.1z"/>
		</g>
	</g>
</g>
</svg>
