<?xml version="1.0" encoding="iso-8859-1"?>
<!-- Generator: Adobe Illustrator 19.0.0, SVG Export Plug-In . SVG Version: 6.00 Build 0)  -->
<svg version="1.1" id="Capa_1" xmlns="http://www.w3.org/2000/svg" xmlns:xlink="http://www.w3.org/1999/xlink" x="0px" y="0px"
	 viewBox="0 0 512.001 512.001" style="enable-background:new 0 0 512.001 512.001;" xml:space="preserve">
<g>
	<g>
		<path d="M165.329,364.42l-11.279-11.279c-8.994-8.994-20.966-13.946-33.715-13.946c-12.748,0-24.721,4.953-33.715,13.946
			l-45.372,45.373c-5.934,5.932-9.202,13.831-9.202,22.238s3.268,16.306,9.2,22.238l22.756,22.756c2.896,2.895,7.733,2.895,10.629,0
			l90.698-90.698C168.264,372.113,168.264,367.354,165.329,364.42z M69.317,449.804l-17.441-17.442
			c-6.319-6.318-6.317-16.902,0.001-23.22l45.373-45.373c6.154-6.155,14.352-9.544,23.085-9.544s16.931,3.389,23.085,9.544
			l5.966,5.966L69.317,449.804z"/>
	</g>
</g>
<g>
	<g>
		<path d="M470.751,398.515l-45.372-45.374c-8.994-8.994-20.966-13.946-33.715-13.946c-12.748,0-24.721,4.953-33.715,13.946
			l-11.28,11.28c-2.935,2.935-2.935,7.694,0,10.628l90.698,90.698c2.896,2.895,7.733,2.895,10.629,0l22.756-22.756
			c5.932-5.932,9.2-13.831,9.2-22.238C479.952,412.346,476.685,404.447,470.751,398.515z M460.123,432.363l-17.441,17.442
			l-80.069-80.069l5.966-5.966c6.154-6.155,14.352-9.544,23.085-9.544c8.733,0,16.931,3.389,23.085,9.544l45.373,45.373
			C466.451,415.45,466.435,426.052,460.123,432.363z"/>
	</g>
</g>
<g>
	<g>
		<path d="M493.427,375.84l-45.373-45.373c-31.093-31.092-81.685-31.092-112.778,0l-0.297,0.297l-28.154-28.154l146.332-110.391
			c50.336-37.974,70.758-103.675,50.82-163.49l-2.384-7.153c-1.734-5.2-8.561-6.822-12.445-2.938L256,251.784L81.412,77.196
			c-2.936-2.935-7.694-2.935-10.629,0c-2.935,2.935-2.935,7.694,0,10.628l174.587,174.589l-29.464,29.464L67.895,180.219
			c-43.934-33.144-62.479-89.82-47.008-142.29l20.506,20.506c2.936,2.936,7.694,2.935,10.629,0s2.935-7.694,0-10.628l-29.171-29.17
			c-3.883-3.884-10.71-2.262-12.444,2.938l-2.384,7.153c-19.938,59.815,0.484,125.517,50.82,163.49L205.176,302.61l-28.154,28.153
			l-0.297-0.297c-31.093-31.092-81.685-31.092-112.778,0L18.573,375.84c-24.764,24.765-24.764,65.061,0,89.826l22.757,22.756
			c7.716,7.716,17.852,11.574,27.988,11.574s20.272-3.858,27.99-11.574l113.003-113.004l45.69-34.467l45.691,34.467l113.004,113.004
			c7.716,7.716,17.852,11.574,27.988,11.574s20.272-3.858,27.99-11.574l22.756-22.756
			C518.192,440.901,518.192,400.605,493.427,375.84z M86.679,477.793c-9.573,9.57-25.148,9.573-34.72,0l-22.756-22.756
			c-18.904-18.904-18.904-49.664,0-68.569l45.373-45.373c25.231-25.232,66.288-25.232,91.519,0l28.64,28.64L86.679,477.793z
			 M206.056,359.799l-18.406-18.406L491.114,37.929c15.47,52.47-3.074,109.146-47.009,142.29L206.056,359.799z M268.478,331.536
			l26.229-19.786l29.642,29.642l-18.406,18.406L268.478,331.536z M482.797,455.037l-22.755,22.756c-9.573,9.57-25.148,9.573-34.72,0
			L317.265,369.735l28.64-28.64c25.231-25.232,66.288-25.232,91.519,0l45.373,45.373
			C501.702,405.373,501.702,436.133,482.797,455.037z"/>
	</g>
</g>
<g>
	<g>
		<path d="M257.002,292.586H256c-4.152,0-7.516,3.365-7.516,7.516s3.365,7.516,7.516,7.516h1.002c4.152,0,7.516-3.365,7.516-7.516
			S261.153,292.586,257.002,292.586z"/>
	</g>
</g>
<g>
	<g>
		<path d="M256,76.137c-4.152,0-7.516,3.365-7.516,7.516v8.017c0,4.151,3.365,7.516,7.516,7.516c4.152,0,7.516-3.365,7.516-7.516
			v-8.017C263.515,79.502,260.151,76.137,256,76.137z"/>
	</g>
</g>
<g>
	<g>
		<path d="M256,12.005c-4.152,0-7.516,3.365-7.516,7.516v8.017c0,4.151,3.365,7.516,7.516,7.516c4.152,0,7.516-3.365,7.516-7.516
			V19.52C263.515,15.37,260.151,12.005,256,12.005z"/>
	</g>
</g>
<g>
	<g>
		<path d="M256,108.204c-4.152,0-7.516,3.365-7.516,7.516v8.017c0,4.151,3.365,7.516,7.516,7.516c4.152,0,7.516-3.365,7.516-7.516
			v-8.017C263.515,111.569,260.151,108.204,256,108.204z"/>
	</g>
</g>
<g>
	<g>
		<path d="M256,44.071c-4.152,0-7.516,3.365-7.516,7.516v8.017c0,4.151,3.365,7.516,7.516,7.516c4.152,0,7.516-3.365,7.516-7.516
			v-8.017C263.515,47.436,260.151,44.071,256,44.071z"/>
	</g>
</g>
<g>
	<g>
		<path d="M256,140.27c-4.152,0-7.516,3.365-7.516,7.516v8.017c0,4.151,3.365,7.516,7.516,7.516c4.152,0,7.516-3.365,7.516-7.516
			v-8.017C263.515,143.635,260.151,140.27,256,140.27z"/>
	</g>
</g>
<g>
	<g>
		<path d="M256,204.403c-4.152,0-7.516,3.365-7.516,7.516v8.017c0,4.151,3.365,7.516,7.516,7.516c4.152,0,7.516-3.365,7.516-7.516
			v-8.017C263.515,207.768,260.151,204.403,256,204.403z"/>
	</g>
</g>
<g>
	<g>
		<path d="M256,172.337c-4.152,0-7.516,3.365-7.516,7.516v8.017c0,4.151,3.365,7.516,7.516,7.516c4.152,0,7.516-3.365,7.516-7.516
			v-8.017C263.515,175.702,260.151,172.337,256,172.337z"/>
	</g>
</g>
<g>
</g>
<g>
</g>
<g>
</g>
<g>
</g>
<g>
</g>
<g>
</g>
<g>
</g>
<g>
</g>
<g>
</g>
<g>
</g>
<g>
</g>
<g>
</g>
<g>
</g>
<g>
</g>
<g>
</g>
</svg>
