<?xml version="1.0" encoding="iso-8859-1"?>
<!-- Generator: Adobe Illustrator 19.0.0, SVG Export Plug-In . SVG Version: 6.00 Build 0)  -->
<svg version="1.1" id="Capa_1" xmlns="http://www.w3.org/2000/svg" xmlns:xlink="http://www.w3.org/1999/xlink" x="0px" y="0px"
	 viewBox="0 0 512.007 512.007" style="enable-background:new 0 0 512.007 512.007;" xml:space="preserve">
<g>
	<g>
		<path d="M359.517,280.473l-128-128c-3.755-3.755-9.685-4.16-13.931-0.981l-170.667,128c-2.091,1.579-3.541,3.861-4.053,6.443
			L0.242,499.033c-0.235,1.067-0.299,2.197-0.192,3.349c0.064,0.576,0.171,1.173,0.32,1.728c0.533,2.005,1.643,3.755,3.093,5.099
			c0.512,0.448,1.067,0.875,1.664,1.237c1.643,1.003,3.541,1.557,5.547,1.557c0.683,0,1.387-0.064,2.048-0.213l213.333-42.667
			c2.581-0.491,4.864-1.941,6.443-4.053l128-170.667C363.698,290.18,363.271,284.228,359.517,280.473z M217.927,449.006
			L43.143,483.972l124.416-124.437c4.16-4.16,4.16-10.923,0-15.083c-2.091-2.069-4.821-3.115-7.552-3.115s-5.461,1.045-7.531,3.115
			L28.039,468.868l34.965-174.784l160-120l114.923,114.923L217.927,449.006z"/>
	</g>
</g>
<g>
	<g>
		<path d="M501.341,0.004H330.674c-3.243,0-6.293,1.472-8.341,4.011l-85.333,106.667c-3.392,4.245-3.051,10.368,0.789,14.208
			l149.333,149.333c2.091,2.069,4.821,3.115,7.552,3.115c2.347,0,4.715-0.768,6.656-2.325l106.667-85.333
			c2.539-2.048,4.011-5.099,4.011-8.341V10.67C512.007,4.782,507.229,0.004,501.341,0.004z M490.674,176.217l-95.211,76.16
			L259.634,116.548l76.16-95.211h154.88V176.217z"/>
	</g>
</g>
<g>
	<g>
		<path d="M192.007,277.337c-23.531,0-42.667,19.136-42.667,42.667s19.136,42.667,42.667,42.667s42.667-19.136,42.667-42.667
			C234.674,296.473,215.538,277.337,192.007,277.337z M192.007,341.337c-11.755,0-21.333-9.579-21.333-21.333
			s9.579-21.333,21.333-21.333s21.333,9.579,21.333,21.333S203.762,341.337,192.007,341.337z"/>
	</g>
</g>
<g>
</g>
<g>
</g>
<g>
</g>
<g>
</g>
<g>
</g>
<g>
</g>
<g>
</g>
<g>
</g>
<g>
</g>
<g>
</g>
<g>
</g>
<g>
</g>
<g>
</g>
<g>
</g>
<g>
</g>
</svg>
