<?xml version="1.0" encoding="iso-8859-1"?>
<!-- Generator: Adobe Illustrator 19.0.0, SVG Export Plug-In . SVG Version: 6.00 Build 0)  -->
<svg version="1.1" id="Layer_1" xmlns="http://www.w3.org/2000/svg" xmlns:xlink="http://www.w3.org/1999/xlink" x="0px" y="0px"
	 viewBox="0 0 512.001 512.001" style="enable-background:new 0 0 512.001 512.001;" xml:space="preserve">
<g>
	<g>
		<path d="M413.785,396.072c4.446,0,8.05-3.603,8.05-8.05V189.454c0.001-31.073-25.278-56.352-56.351-56.352h-8.05v-26.297
			c0-4.447-3.604-8.05-8.05-8.05h-15.206V53.136c0-4.447-3.604-8.05-8.05-8.05H286.77c-4.446,0-8.05,3.603-8.05,8.05v45.618h-15.206
			c-4.446,0-8.05,3.603-8.05,8.05v26.297h-8.05c-31.073,0-56.352,25.28-56.352,56.352V487.85c0,13.316,10.833,24.151,24.151,24.151
			h182.473c13.317,0,24.151-10.835,24.151-24.151v-56.889c0-4.447-3.604-8.05-8.05-8.05c-4.446,0-8.05,3.603-8.05,8.05v56.889
			c0,4.439-3.611,8.05-8.05,8.05H215.212c-4.439,0-8.05-3.611-8.05-8.05V217.898h134.708c4.446,0,8.05-3.603,8.05-8.05
			c0-4.447-3.604-8.05-8.05-8.05H207.162v-12.344c0-22.195,18.056-40.251,40.251-40.251h118.07
			c22.195,0,40.251,18.056,40.251,40.251v12.344h-20.931c-4.446,0-8.05,3.603-8.05,8.05c0,4.447,3.604,8.05,8.05,8.05h20.931
			v170.124C405.735,392.468,409.339,396.072,413.785,396.072z M294.822,61.186h23.257v37.568h-23.257V61.186z M341.334,133.102
			h-69.769v-18.247h69.769V133.102z"/>
	</g>
</g>
<g>
	<g>
		<path d="M231.314,70.846h-8.05c-4.446,0-8.05,3.603-8.05,8.05s3.604,8.05,8.05,8.05h8.05c4.446,0,8.05-3.603,8.05-8.05
			S235.759,70.846,231.314,70.846z"/>
	</g>
</g>
<g>
	<g>
		<path d="M150.14,70.846h-14.625c-4.446,0-8.05,3.603-8.05,8.05s3.604,8.05,8.05,8.05h14.625c4.446,0,8.05-3.603,8.05-8.05
			S154.586,70.846,150.14,70.846z"/>
	</g>
</g>
<g>
	<g>
		<path d="M194.014,70.846h-14.625c-4.446,0-8.05,3.603-8.05,8.05s3.604,8.05,8.05,8.05h14.625c4.446,0,8.05-3.603,8.05-8.05
			S198.46,70.846,194.014,70.846z"/>
	</g>
</g>
<g>
	<g>
		<path d="M106.266,70.846h-8.05c-4.446,0-8.05,3.603-8.05,8.05s3.604,8.05,8.05,8.05h8.05c4.446,0,8.05-3.603,8.05-8.05
			S110.712,70.846,106.266,70.846z"/>
	</g>
</g>
<g>
	<g>
		<path d="M194.565,121.078c-1.813-4.058-6.574-5.882-10.634-4.066l-14.7,6.568c-3.794,1.695-5.703,6.165-4.291,10.077
			c1.567,4.341,6.637,6.512,10.859,4.624l14.7-6.568C194.557,129.898,196.378,125.137,194.565,121.078z"/>
	</g>
</g>
<g>
	<g>
		<path d="M150.464,140.783c-1.813-4.059-6.573-5.883-10.634-4.067l-12.697,5.673c-3.794,1.695-5.703,6.165-4.291,10.077
			c1.567,4.341,6.637,6.512,10.859,4.624l12.697-5.673C150.458,149.604,152.278,144.842,150.464,140.783z"/>
	</g>
</g>
<g>
	<g>
		<path d="M238.663,101.374c-1.814-4.058-6.573-5.881-10.634-4.066l-14.7,6.568c-3.348,1.495-5.298,5.193-4.635,8.801
			c0.695,3.778,4.081,6.601,7.924,6.601c1.097,0,2.213-0.225,3.279-0.702l14.7-6.568
			C238.656,110.195,240.477,105.434,238.663,101.374z"/>
	</g>
</g>
<g>
	<g>
		<path d="M234.597,45.784l-14.7-6.568c-4.059-1.814-8.821,0.008-10.634,4.066c-1.813,4.061,0.008,8.822,4.066,10.635l14.7,6.568
			c4.279,1.913,9.396-0.341,10.906-4.765C240.261,51.838,238.339,47.457,234.597,45.784z"/>
	</g>
</g>
<g>
	<g>
		<path d="M190.498,26.081l-14.7-6.568c-4.059-1.814-8.821,0.008-10.634,4.066c-1.814,4.061,0.006,8.821,4.066,10.635l14.7,6.568
			c4.28,1.913,9.396-0.341,10.906-4.765C196.162,32.134,194.239,27.753,190.498,26.081z"/>
	</g>
</g>
<g>
	<g>
		<path d="M146.398,6.376l-12.697-5.673c-4.061-1.815-8.82,0.006-10.634,4.066c-1.814,4.061,0.006,8.822,4.066,10.635l12.697,5.673
			c4.28,1.913,9.396-0.341,10.906-4.765C152.062,12.429,150.14,8.048,146.398,6.376z"/>
	</g>
</g>
<g>
	<g>
		<path d="M312.967,258.79c-3.161-4.359-9.874-4.358-13.034,0c-6.529,9.001-63.789,88.987-63.789,124.943
			c0,38.767,31.539,70.306,70.306,70.306s70.306-31.539,70.307-70.306C376.756,347.777,319.496,267.792,312.967,258.79z
			 M306.449,437.939c-29.889,0-54.205-24.316-54.205-54.205c0-23.157,34.65-78.021,54.206-106.274
			c19.556,28.248,54.204,83.101,54.204,106.274C360.654,413.622,336.338,437.939,306.449,437.939z"/>
	</g>
</g>
<g>
	<g>
		<path d="M322.595,320.184c-2.296-3.807-7.243-5.03-11.051-2.733c-3.806,2.297-5.03,7.245-2.733,11.051
			c25.21,41.776,26.06,54.788,26.083,55.231c0,15.684-12.76,28.444-28.444,28.444c-4.446,0-8.05,3.603-8.05,8.05
			s3.604,8.05,8.05,8.05c24.563,0,44.545-19.983,44.545-44.545C350.994,379.865,348.946,363.848,322.595,320.184z"/>
	</g>
</g>
<g>
</g>
<g>
</g>
<g>
</g>
<g>
</g>
<g>
</g>
<g>
</g>
<g>
</g>
<g>
</g>
<g>
</g>
<g>
</g>
<g>
</g>
<g>
</g>
<g>
</g>
<g>
</g>
<g>
</g>
</svg>
