<?xml version="1.0" encoding="utf-8"?>
<!-- Generator: Adobe Illustrator 19.0.0, SVG Export Plug-In . SVG Version: 6.00 Build 0)  -->
<svg version="1.1" id="Слой_1" xmlns="http://www.w3.org/2000/svg" xmlns:xlink="http://www.w3.org/1999/xlink" x="0px" y="0px"
	 viewBox="0 0 500 500" enable-background="new 0 0 500 500" xml:space="preserve">
<path id="XMLID_3_" d="M250,500c-35.5,0-69.8-7.3-102-21.7c-4.8-2.2-7-7.9-4.8-12.7c2.2-4.8,7.9-7,12.7-4.8
	c29.7,13.3,61.4,20,94.1,20c127.2,0,230.8-103.5,230.8-230.8c0-127.2-103.5-230.8-230.8-230.8C122.8,19.2,19.2,122.8,19.2,250
	c0,41.4,11.1,82,32.1,117.5c2.7,4.6,1.2,10.5-3.4,13.2c-4.6,2.7-10.5,1.2-13.2-3.4C12,338.9,0,294.9,0,250
	c0-66.8,26-129.6,73.2-176.8S183.2,0,250,0c66.8,0,129.6,26,176.8,73.2S500,183.2,500,250c0,66.8-26,129.6-73.2,176.8
	S316.8,500,250,500z"/>
<g id="XMLID_7_">
	<path id="XMLID_2_" d="M264.8,83c23.7,2.1,46.2,9,66.9,20.5c3.1,1.7,4.2,5.7,2.5,8.8c-1.7,3.1-5.7,4.2-8.8,2.5
		c-19-10.6-39.8-17-61.7-18.9c-85-7.5-160.3,55.5-167.8,140.5c-7.5,85,55.5,160.3,140.5,167.8c85,7.5,160.3-55.5,167.8-140.5
		c2.5-27.7-2.6-55.5-14.5-80.4c-1.5-3.2-0.2-7.1,3-8.6c3.2-1.5,7.1-0.2,8.6,3c12.9,27,18.4,57.1,15.7,87.1c-4,44.6-25,85-59.4,113.8
		S279.8,421,235.2,417c-44.6-4-85-25-113.8-59.4S79,279.8,83,235.2c4-44.6,25-85,59.4-113.8S220.2,79,264.8,83z"/>
	<path id="XMLID_4_" d="M250.3,422.7c-5.2,0-10.3-0.2-15.5-0.7c-45.9-4.1-87.5-25.8-117.2-61.1C88,325.5,73.9,280.7,78,234.8
		c4.1-45.9,25.8-87.5,61.1-117.2C174.5,88,219.3,73.9,265.2,78c24.4,2.2,47.6,9.3,68.9,21.1c2.7,1.5,4.6,3.9,5.4,6.9
		c0.8,2.9,0.5,6-1,8.7c-1.5,2.7-3.9,4.6-6.9,5.4c-2.9,0.8-6,0.5-8.7-1c-18.4-10.3-38.5-16.4-59.7-18.3
		c-39.8-3.5-78.6,8.7-109.3,34.4c-30.7,25.7-49.6,61.8-53.1,101.6c-7.3,82.3,53.7,155.1,136,162.4c82.3,7.3,155.1-53.7,162.4-136
		c2.4-26.8-2.5-53.7-14-77.8c-2.7-5.7-0.3-12.5,5.4-15.3c2.8-1.3,5.9-1.5,8.7-0.5c2.9,1,5.2,3.1,6.5,5.9
		c13.3,27.8,18.9,58.8,16.2,89.7c-4.1,45.9-25.8,87.5-61.1,117.2C329.5,408.6,290.7,422.7,250.3,422.7z M249.7,87.3
		c-38.1,0-74.6,13.2-104.1,38c-33.3,27.9-53.8,67.1-57.6,110.4c-3.8,43.3,9.4,85.5,37.3,118.8c27.9,33.3,67.1,53.8,110.4,57.6
		c43.3,3.8,85.5-9.4,118.8-37.3c33.3-27.9,53.8-67.1,57.6-110.4c2.6-29.1-2.7-58.3-15.2-84.5c-0.2-0.4-0.6-0.6-0.8-0.7
		c-0.3-0.1-0.7-0.2-1.1,0.1c-0.7,0.3-1,1.2-0.7,1.9c12.3,25.7,17.5,54.4,15,83c-7.3,83-77.2,145.7-159,145.7
		c-4.7,0-9.4-0.2-14.2-0.6c-87.8-7.8-152.8-85.5-145.1-173.2c7.8-87.8,85.5-152.8,173.2-145.1c22.6,2,44,8.6,63.7,19.6
		c0.4,0.2,0.8,0.2,1.1,0.1c0.3-0.1,0.6-0.3,0.9-0.7c0.2-0.4,0.2-0.8,0.1-1.1c-0.1-0.3-0.3-0.6-0.7-0.9c-20-11.2-41.8-17.9-64.9-19.9
		C259.5,87.5,254.6,87.3,249.7,87.3z"/>
</g>
<path id="XMLID_1_" d="M252.2,325.3h-4.7c-6,0-10.8-4.9-10.8-10.8V187.2c0-6,4.9-10.8,10.8-10.8h4.7c6,0,10.8,4.9,10.8,10.8v127.3
	C263,320.5,258.1,325.3,252.2,325.3z"/>
<path id="XMLID_8_" d="M175.3,253v-4.3c0-5.9,4.8-10.7,10.7-10.7h127.6c5.9,0,10.7,4.8,10.7,10.7v4.3c0,5.9-4.8,10.7-10.7,10.7H186
	C180.1,263.7,175.3,258.9,175.3,253z"/>
</svg>
