<?xml version="1.0" encoding="utf-8"?>
<!-- Generator: Adobe Illustrator 19.0.0, SVG Export Plug-In . SVG Version: 6.00 Build 0)  -->
<svg version="1.1" id="Слой_1" xmlns="http://www.w3.org/2000/svg" xmlns:xlink="http://www.w3.org/1999/xlink" x="0px" y="0px"
	 viewBox="0 0 255.8 172" enable-background="new 0 0 255.8 172" xml:space="preserve">
<path id="XMLID_2_" fill="#E5231F" d="M146.4,1.5c44.6-4.7,74.9,2,97.3,19.7c1.6,1.3,5.5,4.4,8.5,9.8c6.5,11.9,2.8,24.9,1.8,28.4
	c-4.8,17.1-19.3,29.2-21.2,28c-0.4-0.3-0.2-1.3-0.1-1.8c1.4-7.8,5.8-23.7,2.4-34.8c-2.8-9.1-10.5-22.4-29.8-33.1
	C176,1.5,146.2,3.5,146.4,1.5z M50.7,154.3c-19.3-10.8-27-24-29.8-33.1c-3.4-11.1,0.9-27,2.4-34.8c0.1-0.6,0.3-1.5-0.1-1.8
	c-1.9-1.3-16.4,10.9-21.2,28c-1,3.5-4.7,16.5,1.8,28.4c2.9,5.4,6.8,8.6,8.5,9.8c22.4,17.7,52.7,24.4,97.3,19.7
	C109.6,168.5,79.8,170.6,50.7,154.3z"/>
<g id="XMLID_109_">
	<path id="XMLID_110_" fill="#06509F" d="M123.8,72.1c0.8-0.3,1.4-0.8,2-1.5c0.5-0.7,0.9-1.7,1.2-2.9l0-0.2c0.4-1.7,0.3-3-0.4-3.8
		c-0.7-0.8-1.9-1.2-3.6-1.2h-5.8l-2.3,9.9h5.8C122,72.6,123,72.4,123.8,72.1z"/>
	<path id="XMLID_111_" fill="#06509F" d="M96.1,103.6L96.1,103.6c-1.1,0-2.1,0.4-3,1.2c-0.9,0.8-1.5,2.1-1.9,3.7
		c-0.4,1.7-0.3,2.9,0.2,3.7c0.5,0.8,1.3,1.2,2.3,1.2l0.1,0c1,0,1.9-0.4,2.8-1.3c0.8-0.9,1.4-2.1,1.8-3.6c0.3-1.4,0.3-2.6-0.1-3.5
		S97.2,103.6,96.1,103.6z"/>
	<path id="XMLID_112_" fill="#06509F" d="M132.3,102.9c-0.7,0-1.4,0.3-2.2,0.8c-0.4,0.3-0.8,0.6-1.1,1.2c-0.3,0.5-0.6,1.2-0.8,2h6.3
		C135.1,104.2,134.4,102.9,132.3,102.9z"/>
	<path id="XMLID_115_" fill="#06509F" d="M173.6,134.9c38.1-18.7,61.1-49.3,53.7-75.8c-2.4-8.6-7.8-15.9-15.5-21.8
		c-14.1-13.2-28-18.4-28-18.4c-17.9-6.7-52.9-12.6-94.8,2.5C39.1,39.3,9.4,75.2,2.8,92.1c16.9-17.6,36.6-42.5,81.1-53.8
		c-38.4,18.7-61.6,49.4-54.2,76c2.3,8.3,7.4,15.3,14.5,21c14.4,13.7,28.8,19.1,28.8,19.1c17.9,6.7,52.9,12.6,94.8-2.5
		c49.9-17.9,79.6-53.8,86.2-70.7C237.1,98.8,217.5,123.5,173.6,134.9z M179.6,55.5h16.2c8.6,0,12,3.7,10.3,11.2
		c-0.5,2.2-1.5,3.9-2.9,5.1c-1.4,1.2-3.1,2.1-5,2.7l0,0.2c2.1,0.4,3.3,1.4,3.5,2.9c0.1,0.8,0.2,1.7,0.2,2.6c0,0.9-0.2,1.9-0.4,2.9
		l-0.7,3c-0.2,0.9-0.3,1.8-0.3,2.5c0,0.8,0.2,1.5,0.4,2.1h-8.9c-0.3-0.7-0.5-1.4-0.5-2.2c0-0.4,0.1-1,0.2-1.7
		c0.1-0.7,0.2-1.5,0.4-2.3c0.4-1.7,0.5-2.9,0.5-3.7c-0.2-2-1.6-3-4.2-3h-5.2l-3,13h-8.9L179.6,55.5z M126.3,55.5
		c4.9,0,8,1.2,9.3,3.5c1.3,2.3,1.6,5.1,0.9,8.4c-0.8,3.6-2.2,6.3-4.2,8.2c-1.9,1.8-3.9,3-5.8,3.4c-2,0.5-3.9,0.7-5.8,0.7h-7.2
		l-2.6,11.2h-8.9l8.2-35.4H126.3z M70.5,79.5h9c-0.4,1.5-0.2,2.9,0.4,4.1c0.6,1.2,2.1,1.8,4.4,1.8c1.8,0,3.3-0.3,4.4-1
		c1.1-0.6,1.8-1.6,2.1-3l0-0.1c0.3-1.3,0-2.3-0.8-3c-0.8-0.7-1.7-1.2-2.8-1.3c-1-0.3-2.1-0.5-3.4-0.7c-2.7-0.7-4.8-1.3-6.1-1.9
		c-1.4-0.7-2.5-1.7-3.2-3.1c-0.7-1.4-0.8-3.4-0.2-5.9l0.2-0.3c0.3-1.2,0.8-2.4,1.6-3.6c0.8-1.2,1.7-2.4,2.9-3.6
		c2.3-2.3,6.3-3.4,12-3.4c4.9,0,8.1,1.1,9.5,3.4c0.8,1.1,1.3,2.3,1.5,3.6c0.2,1.3,0.2,2.6-0.1,4h-8.4c0.3-1.4,0.1-2.4-0.6-3.2
		c-0.7-0.7-1.9-1.1-3.6-1.1h-0.3c-1.8,0-3.1,0.3-3.9,1c-0.9,0.7-1.4,1.4-1.6,2.2l-0.2,0.3c-0.3,1.4,0.3,2.4,1.8,3
		c1.1,0.4,2.3,0.8,3.6,1c1,0.2,2,0.5,2.9,0.8c0.9,0.3,1.7,0.5,2.3,0.7c1.4,0.4,2.6,1,3.6,1.8c1,0.8,1.7,1.8,2.1,3
		c0.2,0.6,0.3,1.4,0.3,2.2c0,0.8-0.1,1.7-0.3,2.6l-0.1,0.3c-0.4,1.9-1.3,3.7-2.6,5.5c-1.3,1.8-3.2,3.3-5.5,4.4
		c-2.4,1.2-5.2,1.7-8.6,1.7h-0.4c-3.1,0-6.1-0.8-9-2.4c-1.5-0.8-2.4-2-2.9-3.7C69.9,84.1,69.9,82,70.5,79.5z M59.1,116
		c-1.4,0.8-2.7,1.3-4,1.6c-1.3,0.2-2.3,0.3-3.1,0.3c-1,0-2.2-0.2-3.5-0.5c-1.3-0.3-2.5-1.2-3.5-2.5c-0.5-0.7-0.8-1.5-0.9-2.5
		c-0.1-1,0-2.2,0.3-3.5l0-0.2l0-0.1c0.4-1.9,1.2-3.6,2.4-5c1.1-1.4,2.5-2.5,4.1-3.2c1.6-0.7,3.4-1.1,5.2-1.1c2.5,0,4.3,0.6,5.4,1.7
		c1.1,1.1,1.7,2.5,1.8,4c0.1,1.5,0,3-0.4,4.5l0,0.2l0,0.2H50.5c-0.4,1.7-0.3,2.9,0.3,3.6c0.6,0.7,1.3,1,2.1,1l0.2-0.1h0.2
		c0.7,0,1.4-0.2,1.9-0.5c0.5-0.4,0.9-0.8,1.1-1.4h5.8C61.5,113.9,60.5,115.2,59.1,116z M74.8,117.3l-1.9-5.7l-4.6,5.7h-6l8.2-9
		l-4-8.5h6l1.7,5.7l4.3-5.7h6l-7.9,8.5l4.1,9H74.8z M104.3,108.7c-0.1,0.5-0.3,1.1-0.5,1.6c-0.2,0.5-0.4,1.1-0.7,1.6
		c-0.5,1.1-1.1,2-1.9,2.9c-0.8,0.9-1.7,1.6-2.8,2.1c-1.1,0.5-2.3,0.8-3.7,0.8h-0.4c-1,0-1.9-0.2-2.6-0.5c-0.7-0.4-1.4-0.9-1.9-1.5
		h-0.1l-0.2,1.5l-1.5,6.4h-5.8l5.5-23.9h4.9l-0.5,2h0.2c1.2-1.1,2.4-1.8,3.6-2.1c1.1-0.3,2.1-0.5,2.9-0.5c1.2,0,2.3,0.3,3.1,0.8
		c0.9,0.5,1.5,1.2,1.9,2.1c0.4,0.9,0.7,1.9,0.7,3C104.8,106.1,104.6,107.4,104.3,108.7z M116.1,105.1c-0.9,0.7-1.6,1.5-2,2.4
		c-0.4,0.9-0.8,1.9-1,2.9l-1.6,6.9h-5.8l4-17.5h5.3l-0.6,2.7h0.2c1.6-2,3.7-3,6.5-3h1l-1.1,4.8c-0.6-0.1-1.1-0.2-1.6-0.2
		C118.2,104.1,117,104.4,116.1,105.1z M139.9,109.4l0,0.2l0,0.2h-12.4c-0.4,1.7-0.3,2.9,0.3,3.6c0.6,0.7,1.3,1,2.1,1l0.2-0.1h0.2
		c0.7,0,1.4-0.2,1.9-0.5c0.5-0.4,0.9-0.8,1.1-1.4h5.8c-0.6,1.7-1.6,2.9-3,3.7c-1.4,0.8-2.7,1.3-4,1.6c-1.3,0.2-2.3,0.3-3.1,0.3
		c-1,0-2.2-0.2-3.5-0.5c-1.3-0.3-2.5-1.2-3.5-2.5c-0.5-0.7-0.8-1.5-0.9-2.5c-0.1-1,0-2.2,0.3-3.5l0-0.2l0-0.1c0.4-1.9,1.2-3.6,2.4-5
		c1.1-1.4,2.5-2.5,4.1-3.2c1.6-0.7,3.4-1.1,5.2-1.1c2.5,0,4.3,0.6,5.4,1.7c1.1,1.1,1.7,2.5,1.8,4
		C140.4,106.4,140.3,107.9,139.9,109.4z M138.6,85.8c-0.5-1.7-0.4-3.8,0.2-6.4h9c-0.4,1.5-0.2,2.9,0.4,4.1c0.6,1.2,2.1,1.8,4.4,1.8
		c1.8,0,3.3-0.3,4.4-1c1.1-0.6,1.8-1.6,2.1-3l0-0.1c0.3-1.3,0-2.3-0.8-3c-0.8-0.7-1.7-1.2-2.8-1.3c-1-0.3-2.1-0.5-3.4-0.7
		c-2.7-0.7-4.8-1.3-6.1-1.9c-1.4-0.7-2.5-1.7-3.2-3.1c-0.7-1.4-0.8-3.4-0.2-5.9l0.2-0.3c0.3-1.2,0.8-2.4,1.6-3.6
		c0.8-1.2,1.7-2.4,2.9-3.6c2.3-2.3,6.3-3.4,12-3.4c4.9,0,8.1,1.1,9.5,3.4c0.8,1.1,1.3,2.3,1.5,3.6c0.2,1.3,0.2,2.6-0.1,4h-8.4
		c0.3-1.4,0.1-2.4-0.6-3.2c-0.7-0.7-1.9-1.1-3.6-1.1h-0.3c-1.8,0-3.1,0.3-3.9,1c-0.9,0.7-1.4,1.4-1.6,2.2l-0.2,0.3
		c-0.3,1.4,0.3,2.4,1.8,3c1.1,0.4,2.3,0.8,3.6,1c1,0.2,2,0.5,2.9,0.8c0.9,0.3,1.7,0.5,2.3,0.7c1.4,0.4,2.6,1,3.6,1.8
		c1,0.8,1.7,1.8,2.1,3c0.2,0.6,0.3,1.4,0.3,2.2c0,0.8-0.1,1.7-0.3,2.6l-0.1,0.3c-0.4,1.9-1.3,3.7-2.6,5.5c-1.3,1.8-3.2,3.3-5.5,4.4
		c-2.4,1.2-5.2,1.7-8.6,1.7h-0.4c-3.1,0-6.1-0.8-9-2.4C140,88.7,139.1,87.5,138.6,85.8z M159.7,104.7h-5c0.1-0.8,0-1.3-0.3-1.7
		c-0.3-0.4-0.9-0.6-1.7-0.6c-0.6,0-1.2,0.2-1.8,0.5c-0.5,0.3-0.9,0.7-1,1.3l-0.1,0.1c-0.2,0.8,0,1.3,0.7,1.6c0.6,0.2,1.6,0.4,3,0.6
		l2.2,0.5c2.7,0.8,3.7,2.5,3,5.2l0,0.1c-0.5,2.3-1.7,3.8-3.6,4.6c-1.9,0.8-3.8,1.2-5.9,1.2c-2.9,0-4.9-0.6-6.1-1.8
		c-0.6-0.6-0.9-1.2-1.1-1.9c-0.2-0.7-0.2-1.5,0-2.4h5.7c-0.2,0.7-0.1,1.3,0.1,1.9c0.2,0.6,0.9,0.9,1.9,0.9l0.2-0.1
		c0.5,0,1.1-0.1,1.7-0.3c0.6-0.2,1-0.7,1.2-1.5l0-0.1c0.2-0.9,0-1.4-0.7-1.7c-0.7-0.3-1.8-0.5-3.2-0.7c-0.7-0.1-1.4-0.2-2.1-0.4
		c-0.9-0.2-1.6-0.7-2.2-1.5c-0.6-0.8-0.8-1.9-0.4-3.3l0.1-0.2c0.1-0.5,0.3-0.9,0.5-1.3c0.2-0.4,0.5-0.9,0.8-1.3
		c0.6-0.8,1.6-1.5,2.8-2c0.6-0.3,1.4-0.5,2.2-0.6c0.8-0.2,1.8-0.2,2.8-0.2h0.2c2.7,0,4.5,0.6,5.4,1.7c0.5,0.6,0.8,1.2,0.9,1.8
		C159.9,103.3,159.9,104,159.7,104.7z M163.1,116.1c-0.6-0.6-0.9-1.2-1.1-1.9c-0.2-0.7-0.2-1.5,0-2.4h5.7c-0.2,0.7-0.1,1.3,0.1,1.9
		c0.2,0.6,0.9,0.9,1.9,0.9l0.2-0.1c0.5,0,1.1-0.1,1.7-0.3c0.6-0.2,1-0.7,1.2-1.5l0-0.1c0.2-0.9,0-1.4-0.7-1.7
		c-0.7-0.3-1.8-0.5-3.2-0.7c-0.7-0.1-1.4-0.2-2.1-0.4c-0.9-0.2-1.6-0.7-2.2-1.5c-0.6-0.8-0.8-1.9-0.4-3.3l0.1-0.2
		c0.1-0.5,0.3-0.9,0.5-1.3c0.2-0.4,0.5-0.9,0.8-1.3c0.6-0.8,1.6-1.5,2.8-2c0.6-0.3,1.4-0.5,2.2-0.6c0.8-0.2,1.8-0.2,2.8-0.2h0.2
		c2.7,0,4.5,0.6,5.4,1.7c0.5,0.6,0.8,1.2,0.9,1.8c0.2,0.6,0.2,1.3,0,2h-5c0.1-0.8,0-1.3-0.3-1.7c-0.3-0.4-0.9-0.6-1.7-0.6
		c-0.6,0-1.2,0.2-1.8,0.5c-0.5,0.3-0.9,0.7-1,1.3l-0.1,0.1c-0.2,0.8,0,1.3,0.7,1.6c0.6,0.2,1.6,0.4,3,0.6l2.2,0.5
		c2.7,0.8,3.7,2.5,3,5.2l0,0.1c-0.5,2.3-1.7,3.8-3.6,4.6c-1.9,0.8-3.8,1.2-5.9,1.2C166.2,117.9,164.2,117.3,163.1,116.1z"/>
	<path id="XMLID_126_" fill="#06509F" d="M55.3,102.9c-0.7,0-1.4,0.3-2.2,0.8c-0.4,0.3-0.8,0.6-1.1,1.2c-0.3,0.5-0.6,1.2-0.8,2h6.3
		C58.1,104.2,57.4,102.9,55.3,102.9z"/>
	<path id="XMLID_127_" fill="#06509F" d="M194.8,70.2c1-0.7,1.7-1.7,2-3c0.3-1.3,0.3-2.2,0.1-2.9c-0.2-0.7-0.6-1.1-1.3-1.4
		c-0.7-0.2-1.6-0.3-2.9-0.3h-5.8l-2,8.7h5.8C192.4,71.3,193.7,70.9,194.8,70.2z"/>
</g>
</svg>
