<?xml version="1.0" encoding="utf-8"?>
<!-- Generator: Adobe Illustrator 19.0.0, SVG Export Plug-In . SVG Version: 6.00 Build 0)  -->
<svg version="1.1" id="Слой_1" xmlns="http://www.w3.org/2000/svg" xmlns:xlink="http://www.w3.org/1999/xlink" x="0px" y="0px"
	 viewBox="215.6 -118.6 500 500" enable-background="new 215.6 -118.6 500 500" xml:space="preserve">
<path id="XMLID_170_" fill="#AFCA23" d="M463.3-39.2c-22,0-39.6-17.5-39.6-39.6s17.5-39.8,39.8-39.8c21.8,0,39.6,17.8,39.8,39.6
	C503.1-57,485.3-39.2,463.3-39.2z"/>
<path id="XMLID_1_" fill="#E61D4B" d="M396.6-51.7c22,0,39.6,17.8,39.6,39.6s-17.5,39.6-39.6,39.6c-22,0-39.8-17.5-39.8-39.3
	C356.8-34.1,374.6-51.9,396.6-51.7z M503.1,54.6c0-21.8-17.8-39.6-39.6-39.6S424,32.8,423.7,54.6c0,21.8,17.5,39.8,39.6,39.8
	C485.1,94.2,503.1,76.4,503.1,54.6z M329.9,14.8c-21.8,0-39.6,17.8-39.8,39.6c-0.3,21.8,17.8,39.6,39.6,39.8
	c22,0,39.8-17.5,39.8-39.3C369.5,32.8,351.7,14.8,329.9,14.8z M396.6,81.4c-21.8,0-39.8,17.8-39.8,39.8c0,21.8,18.1,39.6,39.8,39.6
	c21.8,0,39.6-17.8,39.6-39.6S418.7,81.7,396.6,81.4z M463,227.8c21.8,0.3,39.8-17.8,39.8-39.6c0-22-17.8-40.1-39.8-40.1
	c-22,0-39.6,17.5-39.8,39.6C423.4,209.7,441.2,227.5,463,227.8z M529.7,160.9c22,0.3,40.1-17.5,40.1-39.6
	c0-21.8-17.8-39.8-39.6-39.8c-22,0-39.8,17.5-39.8,39.3C490.1,143.1,507.6,160.9,529.7,160.9z M490.4-13.1
	c-0.3,22.3,17,40.4,39,40.6c22.3,0.3,40.1-17.3,40.4-39.3c0.3-21.8-17.5-39.8-39.3-39.8C508.4-51.9,490.6-34.7,490.4-13.1z
	 M596.9,14.8c-22,0-39.8,17.8-39.8,39.8c0,21.8,17.8,39.6,39.6,39.6c22,0,39.6-17.5,39.6-39.6S618.7,15,596.9,14.8z M571.7,298
	c-1.8,0.5-3.7,0.1-5.5,0.1c-2.3,0-2.3,0-2.3,2.2c0,16.9,0,34,0,50.9c0,2.4,0,4.8,0,7.3c0,1,0.2,1.5,1.4,1.5c4,0,8-0.1,11.9,0
	c1.3,0,1.4-0.7,1.3-1.6c0-7.9,0-15.8,0-23.8c0-0.6-0.3-1.3,0.3-1.8c0,8.8,0,17.6,0,26.3c0,0.8-0.2,1.1-1,1.1c-4.5,0-8.8,0-13.3,0
	c-0.8,0-1-0.2-1-1c0-0.3,0-0.7,0-0.9c0-19.6,0-39.1,0-58.7c0-1.4,0.2-2.1,1.8-1.8C567.6,298,569.6,297.7,571.7,298z M393.9,330.3
	c-0.6-0.9-0.6-1.5,0-2.4c6.4-9.6,12.8-19.1,19.7-28.5c0.3-0.5,0.8-0.8,0.7-1.6c-4,0-7.9,0.1-11.8,0c-5-0.1-8.7,1.8-11.2,6.2
	c-2.6,4.5-5.7,8.8-7.8,13.6c-0.1,0.2-0.2,0.6-0.7,0.7c-0.5-0.5-0.7-1.1-0.9-1.6c-2.4-4.8-5.4-9.4-8.4-13.8c-2.1-3-4.9-4.8-8.5-4.8
	c-4.6-0.1-9,0-13.8,0c0.3,0.6,0.6,0.9,0.8,1.1c6.9,9.4,13.2,19.1,19.7,28.6c0.7,1,0.7,1.7,0,2.9c-5.9,10.1-12.2,20-19.3,29.4
	c-0.3,0.5-0.9,0.9-0.8,1.7c4.1,0,8.1-0.1,12.1,0c4.9,0.1,8.4-1.9,10.8-6.1c2.6-4.6,5.7-8.9,7.9-13.7c0.1-0.2,0.2-0.7,0.7-0.7
	c0.2,0.5,0.5,1,0.8,1.5c2.5,4.9,5.4,9.6,8.5,14.1c2.3,3.2,5.4,4.8,9.4,4.8c3.8,0,7.6,0,11.3,0c0.5,0,0.9,0.2,1.4-0.2
	c-0.1-0.2-0.3-0.5-0.5-0.7C406.7,350.9,400.4,340.5,393.9,330.3z M318.5,298.5c-19.3-0.1-33.8,13.8-33.8,32.4
	c0,18.8,14.3,32.8,33.3,33c18.9,0,33.6-14.3,33.6-32.7C352,313.4,338.1,298.6,318.5,298.5z M318.2,350c-10.1,0-17.7-8.2-17.7-18.9
	c0-10.6,7.8-18.6,18-18.6c10.2,0,18,8,18,18.6C336.2,341.7,328.5,350,318.2,350z M447.8,299.5c-3.9,1-7.2,2.9-10.5,5.6
	c0-0.8,0-1.3,0-1.8c0.6-5.9,0.2-11.9,0.2-17.7c0-5.5-3.3-8.6-8.8-8.7c-1.6,0-3.1,0.1-4.7,0c-1.5-0.1-1.9,0.3-1.9,1.8
	c0.1,16.4,0,32.7,0,49.2c0,3.1,0.1,6.2,0.6,9.2c1.3,7.8,4.3,14.6,10.5,19.8c5.1,4.3,11.1,6.3,17.7,6.9c9.6,0.9,18.1-1.6,25.1-8.4
	c10.9-10.5,12.9-28.7,5-42.2C474.1,301.5,460.8,296.1,447.8,299.5z M470.1,332.8c-0.5,7.4-4.1,13-11.2,16c-1.9,0.8-4,1.3-6.2,1.1
	c-5.9-0.1-10.3-3.2-13.2-8.2c-3.5-6.4-3.8-13.2-1-19.8c3.7-8.8,14-12.1,22.3-7.3C467.9,318.6,470.7,325.1,470.1,332.8z M241.4,299.5
	c-3.9,1-7.2,2.9-10.5,5.6c0-0.8,0-1.4,0-1.8c0.6-5.8,0.2-11.8,0.2-17.6c0-5.3-2.7-8.4-7.8-8.8c-1.8-0.1-3.8,0-5.6-0.1
	c-1.6-0.1-2.1,0.3-2.1,1.9c0.1,16.5,0,32.8,0,49.3c0,3,0.1,6.1,0.6,9c1.3,7.9,4.5,14.6,10.8,19.8c5,4.1,10.9,6.1,17.3,6.6
	c9.7,0.9,18.4-1.5,25.3-8.5c10.1-10.4,12-22.9,7.6-36.3C271.9,303.5,256.5,295.4,241.4,299.5z M263.7,332.5
	c-0.5,7.6-4,13.3-11.2,16.4c-1.9,0.8-3.9,1.3-5.9,1.1c-5.5,0-9.7-2.6-12.6-7.2c-4.3-6.9-4.7-14.2-1.4-21.4
	c3.8-8.2,13.7-11.4,21.7-6.9C261.3,318.4,264.2,324.8,263.7,332.5z M540.1,302.6c-5.8-4-12.5-5.1-19.3-4.7
	c-8.1,0.6-15.2,3.5-20.7,9.6c-6.2,6.8-8.5,15-8.2,23.9c0.2,8.4,3.2,15.7,9.2,21.5c9,8.8,20,11.6,32.3,9.4c6.9-1.3,12.9-4.3,17.8-9.4
	c0.5-0.5,0.9-0.8,0.5-1.6c-0.9-1.6-1.7-3.3-3.1-4.7c-1.8-1.8-3.9-2.5-6.5-1.9c-2.1,0.6-4,1.6-5.9,2.4c-4.8,2.1-9.7,2.9-14.8,1.5
	c-6.9-1.9-11.9-5.8-13.5-13.3c-0.3-1.5,0.2-1.6,1.4-1.5c6.8,0,13.6,0,20.4,0c6.8,0,13.6,0,20.4,0c1.4,0,1.8-0.5,1.8-1.7
	c0.1-3.7,0.3-7.2-0.2-10.8C550.4,313.6,546.9,307.1,540.1,302.6z M536.2,322.2c-4.6,0-9,0-13.6,0c-4.5,0-8.8,0-13.3,0
	c-1.1,0-1.5-0.2-1.1-1.5c2.1-5.9,6.4-9.2,12.2-10.5c4.7-1,9.2-0.3,12.9,2.7c2.5,2.1,3.7,4.7,4,7.8
	C537.6,321.8,537.3,322.2,536.2,322.2z M715.4,299.3c-2.3,5.3-4.6,10.5-6.8,15.9c-7,17.2-14,34.4-20.9,51.7
	c-3,7.3-8.2,12.5-16.2,14.1c-5,1-9.8,0.1-14.5-1.9c-0.8-0.3-0.8-0.7-0.5-1.4c0.9-1.9,1.8-3.8,3-5.6c1.9-3,4.8-4.1,8.2-4.5
	c1.7-0.1,3.1-0.9,4.2-2.2c1.8-1.9,2.9-4.3,3.9-6.9c0.3-0.8-0.1-1.4-0.3-1.9c-6.3-14.5-12.6-29.1-18.9-43.7
	c-1.9-4.6-3.9-9.2-5.9-13.7c-0.5-1.1-0.3-1.4,0.9-1.4c3,0.1,5.9,0.1,8.9,0c4.6-0.1,7.7,2.1,9.3,6.3c2.2,5.4,4.3,10.6,6.4,16
	c2.1,5.3,4.5,10.3,6.2,15.8c0.5,1.4,0.7,2.9,1.1,4.6c3.3-12.6,8.4-24.3,12.6-36.2c1.6-4.5,4.8-6.5,9.5-6.4c3,0,5.9,0.1,8.9,0
	C715.7,297.8,715.9,298.3,715.4,299.3z M600.2,298.7c0,4.5,0,8.8,0,13.3c0,0.8-0.1,1.3-1,0.9c-10.5-2.9-16.9,4.8-19,12
	c-0.7,2.6-0.8,5.3-1.3,7.9c-0.5,0.6-0.2,1.1-0.2,1.7c0,8,0,15.9,0,23.9c0,1.4-0.3,1.7-1.7,1.7c-3.9-0.1-7.9-0.1-11.8,0
	c-1.1,0-1.5-0.3-1.5-1.5c0-19.7,0-39.4,0-58.9c0-1.4,0.5-1.8,1.7-1.7c2.1,0.1,4.1,0,6.2,0c2.5,0.3,4.6,1.4,5.9,3.7
	c1.3,2.2,0.8,4.7,1,7.3c2.2-5.1,5.7-8.6,10.5-10.6c3.2-1.5,6.5-1.5,10-0.9C600,297.6,600.2,297.9,600.2,298.7z M644.5,298.6
	c0,4.5,0,8.9,0,13.4c0,0.7-0.1,1.1-1,0.9c-10.9-3.1-17.7,5.5-19.3,13.3c-0.6,3-0.8,5.8-0.8,8.8c0,7.8-0.1,15.7,0,23.5
	c0,1.6-0.5,1.8-1.9,1.8c-4-0.1-8.1-0.1-12.1,0c-1,0-1.4-0.2-1.4-1.4c0-19.9,0-39.9,0-59.8c0-1,0.2-1.5,1.4-1.4
	c2.5,0.1,4.9-0.2,7.4,0.3c4.1,1,6.2,3.4,6.2,7.7c0,0.9,0,1.9,0,3.4c2.5-5.8,6.5-9.5,12.1-11.4c2.7-0.9,5.6-0.8,8.5-0.3
	C644.4,297.6,644.5,297.9,644.5,298.6z"/>
</svg>
