<?xml version="1.0" encoding="iso-8859-1"?>
<!-- Generator: Adobe Illustrator 19.0.0, SVG Export Plug-In . SVG Version: 6.00 Build 0)  -->
<svg version="1.1" id="Capa_1" xmlns="http://www.w3.org/2000/svg" xmlns:xlink="http://www.w3.org/1999/xlink" x="0px" y="0px"
	 viewBox="0 0 490.157 490.157" style="enable-background:new 0 0 490.157 490.157;" xml:space="preserve">
<g>
	<path d="M475.987,0.8L245.078,87.391L14.169,0.8c-9.946-2.862-14.09,6.343-14.09,9.763v381.184c0,4.347,2.697,8.237,6.76,9.765
		l234.574,87.965c3.777,1.502,7.179,0.056,7.33,0l234.574-87.965c4.063-1.528,6.761-5.417,6.761-9.765V10.563
		C490.078,5.367,484.598-2.547,475.987,0.8z M469.227,261.532l-18.214,6.018V88.689c0-3.42-1.68-6.623-4.49-8.567
		c-2.79-1.95-6.373-2.393-9.601-1.196l-156.443,58.669c-4.063,1.527-6.761,5.416-6.761,9.763v178.772l-18.213,6.018V105.752
		l213.723-80.146V261.532z M430.162,274.439L294.568,319.24V154.581l135.593-50.849V274.439z M234.653,464.67L20.929,384.524V25.606
		l213.723,80.146V464.67z M255.504,464.67V354.109l213.723-70.614v101.029L255.504,464.67z"/>
	<path d="M184.948,165.704L63.955,124.837l6.679-19.752l120.994,40.868L184.948,165.704z M191.627,219.114L70.633,178.247
		l-6.679,19.753l120.993,40.867L191.627,219.114z M191.627,292.276L70.633,251.409l-6.679,19.751l120.993,40.868L191.627,292.276z
		 M191.627,365.439L70.633,324.571l-6.679,19.751l120.993,40.867L191.627,365.439z"/>
</g>
<g>
</g>
<g>
</g>
<g>
</g>
<g>
</g>
<g>
</g>
<g>
</g>
<g>
</g>
<g>
</g>
<g>
</g>
<g>
</g>
<g>
</g>
<g>
</g>
<g>
</g>
<g>
</g>
<g>
</g>
</svg>
