<?xml version="1.0" encoding="iso-8859-1"?>
<!-- Generator: Adobe Illustrator 19.0.0, SVG Export Plug-In . SVG Version: 6.00 Build 0)  -->
<svg version="1.1" id="Layer_1" xmlns="http://www.w3.org/2000/svg" xmlns:xlink="http://www.w3.org/1999/xlink" x="0px" y="0px"
	 viewBox="0 0 512.002 512.002" style="enable-background:new 0 0 512.002 512.002;" xml:space="preserve">
<g transform="translate(0 -1)">
	<g>
		<g>
			<path d="M307.201,367.933c4.713,0,8.533-3.821,8.533-8.533v-25.6h8.533c4.713,0,8.533-3.82,8.533-8.533v-25.598h170.667
				c4.713,0,8.533-3.82,8.533-8.533v-256c0-4.713-3.82-8.533-8.533-8.533h-34.133V9.533c0-4.713-3.82-8.533-8.533-8.533h-68.267
				c-4.713,0-8.533,3.821-8.533,8.533v17.068h-85.333V9.533c0-4.713-3.82-8.533-8.533-8.533h-68.267
				c-4.713,0-8.533,3.821-8.533,8.533v17.068h-85.333V9.533c0-4.713-3.82-8.533-8.533-8.533H51.201
				c-4.713,0-8.533,3.821-8.533,8.533v17.068H8.534c-4.713,0-8.533,3.82-8.533,8.533v256c0,4.713,3.82,8.533,8.533,8.533h170.667
				v25.598c0,4.713,3.82,8.533,8.533,8.533h8.533v25.6c0,4.713,3.82,8.533,8.533,8.533h25.6v128.002H8.534
				c-4.713,0-8.533,3.821-8.533,8.533s3.82,8.533,8.533,8.533h494.933c4.713,0,8.533-3.821,8.533-8.533s-3.82-8.533-8.533-8.533
				H281.601V367.933H307.201z M401.068,18.067h51.2v17.068V52.2h-51.2V35.135V18.067z M230.401,18.067h51.2v17.068V52.2h-51.2
				V35.135V18.067z M59.734,18.067h51.2v17.068V52.2h-51.2V35.135V18.067z M17.068,43.668h25.6v17.065v0.002
				c0,4.713,3.82,8.533,8.533,8.533h68.267c4.713,0,8.533-3.821,8.533-8.533v-0.002V43.668h85.333v17.065v0.002
				c0,4.713,3.82,8.533,8.533,8.533h68.267c4.713,0,8.533-3.821,8.533-8.533v-0.002V43.668h85.333v17.065v0.002
				c0,4.713,3.821,8.533,8.533,8.533h68.267c4.713,0,8.533-3.821,8.533-8.533v-0.002V43.668h25.6v238.933H324.301
				c-0.011,0-0.022-0.002-0.034-0.002H187.734c-0.011,0-0.022,0.002-0.034,0.002H17.068V43.668z M315.734,299.668v17.065h-8.533
				h-102.4h-8.533v-17.065H315.734z M213.334,333.8h85.333v17.067h-25.6h-34.133h-25.6V333.8z M264.534,495.933h-17.067v-128h17.067
				V495.933z"/>
			<path d="M213.334,231.402c4.713,0,8.533-3.82,8.533-8.533s-3.821-8.533-8.533-8.533h-9.41
				c11.068-10.842,17.943-25.947,17.943-42.667v-34.133c0-4.713-3.821-8.533-8.533-8.533h-102.4H68.268
				c-4.713,0-8.533,3.82-8.533,8.533c0,26.214,19.656,47.783,45.046,50.82c2.901,9.989,8.332,18.896,15.564,25.98h-9.41
				c-4.713,0-8.533,3.82-8.533,8.533s3.82,8.533,8.533,8.533H213.334z M77.873,146.068h24.528v24.526
				C90.394,167.512,80.955,158.075,77.873,146.068z M119.468,171.668v-25.6h85.333v25.6c0,23.567-19.1,42.667-42.667,42.667
				C138.568,214.335,119.468,195.235,119.468,171.668z"/>
			<path d="M307.201,146.068h119.467c4.713,0,8.533-3.82,8.533-8.533s-3.82-8.533-8.533-8.533H307.201
				c-4.713,0-8.533,3.82-8.533,8.533S302.488,146.068,307.201,146.068z"/>
			<path d="M426.668,214.335H307.201c-4.713,0-8.533,3.82-8.533,8.533s3.82,8.533,8.533,8.533h119.467
				c4.713,0,8.533-3.82,8.533-8.533S431.38,214.335,426.668,214.335z"/>
			<path d="M290.134,188.735h153.6c4.713,0,8.533-3.82,8.533-8.533s-3.82-8.533-8.533-8.533h-153.6c-4.713,0-8.533,3.82-8.533,8.533
				S285.421,188.735,290.134,188.735z"/>
		</g>
	</g>
</g>
<g>
</g>
<g>
</g>
<g>
</g>
<g>
</g>
<g>
</g>
<g>
</g>
<g>
</g>
<g>
</g>
<g>
</g>
<g>
</g>
<g>
</g>
<g>
</g>
<g>
</g>
<g>
</g>
<g>
</g>
</svg>
