<?xml version="1.0" encoding="utf-8"?>
<!-- Generator: Adobe Illustrator 19.0.0, SVG Export Plug-In . SVG Version: 6.00 Build 0)  -->
<svg version="1.1" id="Слой_1" xmlns="http://www.w3.org/2000/svg" xmlns:xlink="http://www.w3.org/1999/xlink" x="0px" y="0px"
	 viewBox="-182 320.9 231 200" enable-background="new -182 320.9 231 200" xml:space="preserve">
<g id="Слой_x0020_1">
	<path fill="#FCAF17" d="M-51.9,472.3l-73.4-31.8l-15.6,27.1l82.7,15.9L-51.9,472.3L-51.9,472.3z M-62.2,503.9h24.4l21.5-37.2
		l21.5,37.2h24.4l-45.9-79.5L-62.2,503.9L-62.2,503.9L-62.2,503.9z M-144.7,473.8l-17.3,30h91.9l8.1-14.1L-144.7,473.8L-144.7,473.8
		z M-20.3,417.5l-45.9-79.6l-17.3,30l55.1,63.6L-20.3,417.5L-20.3,417.5L-20.3,417.5z M-32.1,437.9l-55.1-63.6l-15.6,27l64.3,47.7
		L-32.1,437.9L-32.1,437.9z M-42,455l-64.3-47.7l-15.7,27.2l73.5,31.8L-42,455L-42,455z"/>
</g>
</svg>
