<?xml version="1.0" encoding="utf-8"?>
<!-- Generator: Adobe Illustrator 19.0.0, SVG Export Plug-In . SVG Version: 6.00 Build 0)  -->
<svg version="1.1" id="Layer_1" xmlns="http://www.w3.org/2000/svg" xmlns:xlink="http://www.w3.org/1999/xlink" x="0px" y="0px"
	 viewBox="176 -48.8 231 200" enable-background="new 176 -48.8 231 200" xml:space="preserve">
<g>
	<g>
		<g>
			<g>
				<path fill="#0291D3" d="M343.4,133.6H239.6c-3.3,0-6.3-2.8-6.3-6.3c0-3.3,2.8-6.1,6.3-6.1h103.8c3.3,0,6.1,2.8,6.1,6.1
					C349.7,130.9,346.9,133.6,343.4,133.6z"/>
			</g>
		</g>
		<g>
			<path fill="#0291D3" d="M349.7-22.6c0,1.7-1.3,3-3,3h-6.3c-1.7,0-3-1.3-3-3v-6.3c0-1.7,1.3-3,3-3h6.3c1.7,0,3,1.3,3,3V-22.6z"/>
		</g>
		<g>
			<path fill="#0291D3" d="M245.7-22.6c0,1.7-1.3,3-3,3h-6.5c-1.7,0-3-1.3-3-3v-6.1c0-1.7,1.3-3,3-3h6.3c1.7,0,3,1.3,3,3v6.1H245.7z
				"/>
		</g>
		<g>
			<path fill="#0291D3" d="M239.4,67.1c-3.3,0-6.1-2.8-6.1-6.1V-8.7c0-3.3,2.8-6.1,6.1-6.1c3.3,0,6.1,2.8,6.1,6.1V61
				C245.7,64.3,242.9,67.1,239.4,67.1z"/>
		</g>
		<g>
			<path fill="#0291D3" d="M343.6,67.1c-3.3,0-6.1-2.8-6.1-6.1V-8.7c0-3.3,2.8-6.1,6.1-6.1s6.1,2.8,6.1,6.1V61
				C349.7,64.3,346.9,67.1,343.6,67.1z"/>
		</g>
		<g>
			<path fill="#0291D3" d="M326.3-19.4h-69.7c-3.3,0-6.1-2.8-6.1-6.1s2.8-6.1,6.1-6.1h69.7c3.3,0,6.1,2.8,6.1,6.1
				S329.7-19.4,326.3-19.4z"/>
		</g>
		<g>
			<path fill="#0291D3" d="M349.7,74.9c0-1.7-1.3-3-3-3h-6.3c-1.7,0-3,1.3-3,3v6.3c0,1.7,1.3,3,3,3h6.3c1.7,0,3-1.3,3-3V74.9z"/>
		</g>
		<g>
			<path fill="#0291D3" d="M245.7,74.9c0-1.7-1.3-3-3-3h-6.3c-1.7,0-3,1.3-3,3v6.3c0,1.7,1.3,3,3,3h6.3c1.7,0,3-1.3,3-3
				C245.7,81.2,245.7,74.9,245.7,74.9z"/>
		</g>
		<g>
			<path fill="#0291D3" d="M326.3,71.9h-69.7c-3.3,0-6.1,2.8-6.1,6.1s2.8,6.1,6.1,6.1h69.7c3.3,0,6.1-2.8,6.1-6.1
				C332.5,74.5,329.7,71.9,326.3,71.9z"/>
		</g>
		<g>
			<g>
				<path fill="#0291D3" d="M326.7,66.7c-1.5,0-3-0.6-4.1-1.7L252.2-5c-2.2-2.2-2.2-5.9,0-8.3c2.2-2.4,5.9-2.4,8.2-0.2l70.4,70.1
					c2.2,2.2,2.2,5.9,0.2,8.3C329.7,66.2,328.2,66.7,326.7,66.7z"/>
			</g>
			<g>
				<path fill="#0291D3" d="M256.3,66.7c-1.5,0-3-0.6-4.1-1.9c-2.2-2.4-2.2-6.1,0.2-8.3l70.4-70.1c2.2-2.2,5.9-2.2,8.2,0.2
					s2.2,6.1-0.2,8.3l-70.4,70.1C259.3,66.2,257.8,66.7,256.3,66.7z"/>
			</g>
		</g>
	</g>
</g>
</svg>
