<?xml version="1.0" encoding="utf-8"?>
<!-- Generator: Adobe Illustrator 19.0.0, SVG Export Plug-In . SVG Version: 6.00 Build 0)  -->
<svg version="1.1" id="Слой_1" xmlns="http://www.w3.org/2000/svg" xmlns:xlink="http://www.w3.org/1999/xlink" x="0px" y="0px"
	 viewBox="397.5 320.9 200 200" enable-background="new 397.5 320.9 200 200" xml:space="preserve">
<g>
	<g>
		<polygon fill="#252069" points="397.5,408.3 397.5,357.9 452.3,357.9 452.3,408.3 435.6,408.3 435.6,375.9 414.4,375.9 
			414.4,408.2 		"/>
		<path fill="#252069" d="M460.6,372.1l-2.4-12.7c0,0,19.3-3.2,47.9,0c4.1,17.6,4.4,31.3,0,47.5c-14.9,1.4-28.7,1.7-47.9,0.3
			c0.5-3.1,2.5-12.7,2.5-12.7s23.8,2.3,32.9,0c0.8-5.1,1-5.6,1-5.6h-22.2v-11.8h22.3l-0.9-5.1C493.7,372.1,478.2,369.3,460.6,372.1z
			"/>
		<polygon fill="#252069" points="516.3,357.9 516.3,408.2 533.7,408.2 533.7,389 539.7,389 554.1,408.2 575.9,408.2 554.4,382 
			575.4,358 555.3,358 539.5,377.2 533.6,377.2 533.6,358 		"/>
		<rect x="580.1" y="359.4" fill="#E4003C" width="17.4" height="15"/>
		<rect x="580.1" y="392.6" fill="#E4003C" width="17.4" height="15"/>
	</g>
	<path fill="#E4003C" d="M415.2,430.5v16.3l2,0.1l-0.2,8.4h-3.4l-0.2-5h-11.6l-0.2,5h-3.4l-0.2-8.4l1.6-0.1c0.8-1.4,1.4-2.8,1.9-4.4
		c0.6-2,0.8-4.1,0.8-6.6v-5.3H415.2z M406.3,436.8c0,2.3-0.3,4.5-0.9,6.5c-0.4,1.2-0.9,2.4-1.4,3.3h6.6v-12.5h-4.3V436.8z
		 M439,440.2c0,6.5-3.9,10.4-9.7,10.4c-5.9,0-9.3-4.4-9.3-10.1c0-5.9,3.8-10.4,9.6-10.4C435.7,430.2,439,434.7,439,440.2z
		 M424.7,440.5c0,3.9,1.8,6.6,4.8,6.6c3,0,4.8-2.9,4.8-6.7c0-3.6-1.7-6.6-4.8-6.6C426.5,433.8,424.7,436.6,424.7,440.5z M458,449.8
		c-0.8,0.4-2.7,0.9-5.1,0.9c-6.8,0-10.4-4.3-10.4-9.9c0-6.8,4.8-10.5,10.8-10.5c2.3,0,4.1,0.5,4.9,0.9l-0.9,3.6
		c-0.9-0.4-2.2-0.7-3.8-0.7c-3.6,0-6.3,2.1-6.3,6.5c0,4,2.4,6.5,6.3,6.5c1.4,0,2.8-0.3,3.7-0.6L458,449.8z M466.8,434.3h-5.3v-3.8
		h15.2v3.8h-5.4v16h-4.5V434.3z M482.9,445.2l-1.4,5.1h-4.6l6.1-19.8h5.9l6.1,19.8h-4.8l-1.5-5.1H482.9z M487.9,441.9l-1.2-4.2
		c-0.4-1.2-0.7-2.6-1-3.8h-0.1c-0.3,1.2-0.6,2.7-0.9,3.8l-1.2,4.2H487.9z M499,430.8c1.2-0.2,3.6-0.4,5.8-0.4c2.7,0,4.4,0.3,5.8,1.1
		c1.4,0.7,2.4,2.1,2.4,3.9c0,1.8-1,3.4-3.3,4.2v0.1c2.3,0.6,3.9,2.3,3.9,4.9c0,1.8-0.8,3.2-2.1,4.2c-1.4,1.1-3.8,1.8-7.8,1.8
		c-2.2,0-3.8-0.1-4.8-0.3V430.8z M503.5,438.4h1.5c2.4,0,3.6-1,3.6-2.4c0-1.5-1.1-2.3-3.2-2.3c-1,0-1.5,0.1-1.9,0.1V438.4z
		 M503.5,447.1c0.4,0.1,1,0.1,1.7,0.1c2,0,3.8-0.8,3.8-2.8c0-2-1.8-2.8-4-2.8h-1.5V447.1z M533.3,430.5v19.8h-4.5v-16.1h-4.5v4.7
		c0,5.1-0.6,9-3.6,10.8c-1,0.6-2.4,1-3.9,1l-0.6-3.6c1-0.1,1.8-0.5,2.3-1.1c1.2-1.2,1.5-3.8,1.5-6.8v-8.7H533.3z M536.9,450.3
		c0.4-0.6,0.7-1.4,1-2.2c0.8-2.3,1.3-4.6,2.8-6c0.4-0.4,1-0.8,1.6-1v-0.1c-2.2-0.4-4.2-1.9-4.2-4.8c0-1.9,0.8-3.3,2.1-4.2
		c1.5-1.2,3.9-1.6,6.5-1.6c2.2,0,4.3,0.2,5.7,0.4v19.5H548v-7.8h-1.1c-0.9,0-1.6,0.3-2.1,0.8c-1.3,1.2-1.8,3.7-2.3,5.3
		c-0.2,0.6-0.4,1.1-0.7,1.7H536.9z M548,433.9c-0.3-0.1-0.9-0.2-1.8-0.2c-1.9,0-3.5,0.8-3.5,2.8c0,1.8,1.7,2.8,3.7,2.8
		c0.6,0,1.2,0,1.6-0.1V433.9z M569.5,441.9h-7.3v4.7h8.1v3.7h-12.6v-19.8H570v3.7h-7.7v4.1h7.3V441.9z M591.6,442.7
		c-0.1-2.4-0.2-5.3-0.2-8.1h-0.1c-0.6,2.5-1.4,5.3-2.2,7.7l-2.4,7.7h-3.5l-2.1-7.7c-0.6-2.3-1.3-5.1-1.8-7.7h-0.1
		c-0.1,2.7-0.2,5.7-0.4,8.2l-0.4,7.5h-4.1l1.3-19.8h6l1.9,6.6c0.6,2.3,1.2,4.8,1.7,7.1h0.1c0.6-2.3,1.2-4.9,1.9-7.1l2.1-6.6h5.8
		l1.1,19.8h-4.4L591.6,442.7z M411.5,483.1c-0.7,0.4-2.4,0.8-4.5,0.8c-6.1,0-9.3-3.8-9.3-8.9c0-6,4.3-9.4,9.7-9.4
		c2.1,0,3.7,0.4,4.4,0.8l-0.8,3.2c-0.8-0.3-1.9-0.7-3.4-0.7c-3.2,0-5.6,1.9-5.6,5.9c0,3.5,2.1,5.8,5.7,5.8c1.2,0,2.5-0.3,3.3-0.6
		L411.5,483.1z M427.2,465.9v3.3h-7.8v3c0.6-0.1,1.4-0.1,2.2-0.1c1.8,0,3.7,0.4,5,1.4c1.2,0.9,2,2.3,2,4.2c0,1.7-0.7,3.1-1.7,4
		c-1.7,1.5-4.5,2.1-7.2,2.1c-2,0-3.4-0.1-4.3-0.3v-17.6H427.2z M419.4,480.7c0.4,0.1,1,0.1,1.6,0.1c1,0,1.9-0.3,2.6-0.9
		c0.5-0.5,0.9-1.2,0.9-2c0-0.9-0.4-1.6-0.9-2c-0.7-0.6-1.7-0.8-2.7-0.8c-0.4,0-0.9,0-1.4,0.1V480.7z M448.6,474.6
		c0,5.8-3.5,9.3-8.7,9.3c-5.3,0-8.3-4-8.3-9c0-5.3,3.4-9.3,8.6-9.3C445.7,465.6,448.6,469.7,448.6,474.6z M435.8,474.8
		c0,3.5,1.6,5.9,4.3,5.9c2.7,0,4.3-2.6,4.3-6c0-3.2-1.5-5.9-4.3-5.9C437.4,468.8,435.8,471.4,435.8,474.8z M452.6,466.1
		c1.2-0.2,3-0.4,5.4-0.4c2.5,0,4.2,0.5,5.4,1.4c1.1,0.9,1.9,2.4,1.9,4.1c0,1.7-0.6,3.2-1.6,4.2c-1.4,1.3-3.4,1.9-5.8,1.9
		c-0.5,0-1,0-1.4-0.1v6.3h-4V466.1z M456.5,474.2c0.3,0.1,0.8,0.1,1.3,0.1c2.1,0,3.4-1.1,3.4-2.9c0-1.6-1.1-2.6-3.1-2.6
		c-0.8,0-1.4,0.1-1.7,0.2V474.2z M473.2,465.9v6.8h6.6v-6.8h4v17.7h-4v-7.4h-6.6v7.4h-4v-17.7H473.2z M492.6,465.9v6.2
		c0.5-0.1,1.3-0.2,2-0.2c3.7,0,7,1.8,7,5.8c0,1.7-0.6,2.9-1.4,3.8c-1.7,1.7-4.7,2.3-7.3,2.3c-1.9,0-3.4-0.1-4.3-0.3v-17.6H492.6z
		 M492.5,480.7c0.3,0.1,0.8,0.1,1.4,0.1c1.8,0,3.4-1,3.4-3c0-2-1.9-2.8-3.4-2.8c-0.6,0-1,0.1-1.4,0.1V480.7z M507.2,465.9v17.7h-4
		v-17.7H507.2z M515.9,465.9v5.3c0,2.8-0.1,5.6-0.2,8h0.1c0.9-2.1,2.1-4.4,3.2-6.3l3.8-7h4.1v17.7h-3.7v-5.2c0-2.7,0.1-5.2,0.3-7.5
		h-0.1c-0.8,2.1-1.9,4.4-3,6.3l-3.6,6.4h-4.6v-17.7H515.9z M518.4,461.8c0,1,0.3,1.6,1.2,1.6c0.8,0,1.1-0.6,1.2-1.6h2.7
		c-0.2,2.3-1.6,3.2-4,3.2c-2.3,0-3.6-1-3.8-3.2H518.4z M549.1,465.9v3.3h-6.7v14.4h-4v-17.7H549.1z M552.5,466.1
		c1.2-0.2,3-0.4,5.4-0.4c2.5,0,4.2,0.5,5.4,1.4c1.1,0.9,1.9,2.4,1.9,4.1c0,1.7-0.6,3.2-1.6,4.2c-1.4,1.3-3.4,1.9-5.8,1.9
		c-0.5,0-1,0-1.4-0.1v6.3h-4V466.1z M556.5,474.2c0.3,0.1,0.8,0.1,1.3,0.1c2.1,0,3.4-1.1,3.4-2.9c0-1.6-1.1-2.6-3.1-2.6
		c-0.8,0-1.4,0.1-1.7,0.2V474.2z M571.7,465.9l2.6,6.2c0.5,1.3,0.8,2.3,1.2,3.4h0.1c0.2-0.8,0.5-1.9,1-3.4l1.9-6.2h4.2l-3.3,8.6
		c-1.1,2.8-2.2,5.4-3.5,7.1c-1.2,1.4-2.6,2.3-4.7,2.3c-0.9,0-1.5-0.1-2-0.3l0.3-3.2c0.3,0.1,0.7,0.1,1.3,0.1c1.2,0,2.1-0.8,2.4-1.7
		c0.2-0.3,0.1-0.5-0.1-0.8l-6-12.2H571.7z M585.2,467c1.2-0.7,3.1-1.4,5.5-1.4c3.9,0,6.2,1.9,6.2,4.5c0,2.2-1.5,3.7-3.5,4.2v0.1
		c2.2,0.3,4.2,1.8,4.2,4.2c0,3.9-4,5.3-7.3,5.3c-1.8,0-3.8-0.4-5.3-1.2l0.8-3.1c0.8,0.4,2.6,1.1,4.3,1.1c2,0,3.3-0.8,3.3-2.3
		c0-2-2-2.4-3.7-2.4h-1.7V473h1.7c1.8,0,3.2-0.8,3.2-2.2c0-1.2-1-1.9-2.7-1.9c-1.4,0-2.9,0.6-3.9,1.1L585.2,467z"/>
</g>
</svg>
