<?xml version="1.0" encoding="utf-8"?>
<!-- Generator: Adobe Illustrator 19.0.0, SVG Export Plug-In . SVG Version: 6.00 Build 0)  -->
<svg version="1.1" id="Слой_1" xmlns="http://www.w3.org/2000/svg" xmlns:xlink="http://www.w3.org/1999/xlink" x="0px" y="0px"
	 viewBox="-98.7 -49 238 200" enable-background="new -98.7 -49 238 200" xml:space="preserve">
<g>
	<path d="M65.3-31.2c0,0-0.4,0.1-1.2,0.4c-0.8,0.3-1.9,0.7-3.4,1.3c-3,1.1-7.3,2.9-12.8,5.4c-2.7,1.3-5.7,2.7-8.9,4.3
		c-1.6,0.8-3.2,1.7-4.9,2.6c-1.7,0.9-3.4,1.9-5.2,2.9c-3.5,2.1-7.2,4.5-10.9,7.1c-3.7,2.7-7.5,5.6-11.1,9C3.3,5.2-0.2,9-3.3,13.2
		c-0.7,1.1-1.5,2.2-2.2,3.3c-0.7,1.1-1.4,2.3-2.1,3.4c-0.6,1.2-1.3,2.4-1.9,3.6c-0.6,1.3-1.2,2.6-1.7,3.9l-0.5,1
		c-0.1,0.2-0.1,0.3-0.2,0.5l-0.3,0.6l-0.7,1.2c-0.2,0.4-0.5,0.7-0.7,1.1c-1,1.4-2.1,2.7-3.2,3.9c-2.3,2.4-4.8,4.4-7.4,6.4
		c-5.1,3.8-10.5,7.1-15.7,10.8c-5.2,3.7-10.2,7.7-14.2,12.7c-2,2.5-3.7,5.3-5,8.2c-1.3,3-2,6.1-2.8,9.5c-0.8,3.3-1.6,6.6-2.5,9.9
		c-0.8,3.3-1.7,6.6-2.6,9.9c-1.7,6.6-3.5,13.3-5,19.9c-0.4,1.6-0.7,3.3-0.9,4.8c-0.1,0.7-0.2,1.6-0.1,1.9c0,0.1,0,0.1,0,0
		c0,0,0-0.1,0-0.2c0,0-0.1-0.1-0.1-0.2c-0.1-0.2-0.3-0.5-0.6-0.6c-0.2-0.1-0.4-0.2-0.5-0.2c-0.1-0.1-0.3-0.1-0.5-0.1
		c-0.2,0-0.4,0-0.5,0c-0.2,0-0.2,0-0.1,0c0.3-0.2,0.9-0.7,1.4-1.2c0.6-0.6,1.2-1.2,1.8-1.8l3.5-3.7c2.4-2.5,4.8-4.9,7.3-7.3
		c2.5-2.4,5-4.7,7.6-7c10.3-9.1,21.5-17.1,33.6-23c0.8-0.4,1.5-0.7,2.3-1.1c0.8-0.3,1.5-0.7,2.3-1c1.5-0.7,3.1-1.2,4.6-1.9
		c3.1-1.1,6.3-2.1,9.5-2.8c1.6-0.4,3.2-0.7,4.8-1C4.8,76.4,6.3,76.1,8,76c3-0.3,5.9-0.6,9-0.8c1.5-0.1,3-0.2,4.5-0.3
		c1.5-0.1,2.9-0.1,4.4-0.2c2.9-0.1,5.8-0.2,8.6-0.2c5.6-0.1,11,0.1,16.2,0.2c10.4,0.4,19.7,0.9,27.8,0.6c1-0.1,2-0.1,3-0.2
		c1-0.1,1.9-0.2,2.9-0.3c1.9-0.2,3.8-0.4,5.6-0.6c3.6-0.4,6.9-0.8,9.9-1.1c6-0.6,10.7-1.1,13.9-1.4c3.2-0.3,4.9-0.4,4.9-0.4
		c0.2,0,0.5,0.2,0.5,0.4c0,0.2-0.1,0.4-0.3,0.5c0,0-1.7,0.4-4.8,1.2c-3.1,0.8-7.7,1.9-13.6,3.2c-2.9,0.7-6.2,1.4-9.7,2.2
		c-1.8,0.4-3.6,0.8-5.5,1.2c-1,0.2-2,0.4-3,0.6c-1,0.2-2.1,0.3-3.1,0.5c-8.5,1.2-18.1,1.3-28.4,1.5c-10.2,0.2-21.3,0.7-32.8,1.8
		c-2.8,0.2-5.9,0.6-8.9,0.9c-1.4,0.2-2.8,0.4-4.2,0.6c-1.4,0.3-2.8,0.5-4.2,0.9c-2.8,0.6-5.7,1.5-8.5,2.5c-2.8,1-5.7,2.1-8.5,3.4
		c-11.2,5.1-22.1,12.3-32.4,20.7c-2.6,2.1-5.1,4.2-7.7,6.4c-2.6,2.2-5.1,4.4-7.6,6.7l-3.8,3.4c-0.7,0.6-1.3,1.2-2,1.7
		c-0.8,0.6-1.4,1.2-2.7,1.9c-0.3,0.2-0.7,0.3-1.3,0.5c-0.2,0-0.3,0.1-0.5,0.1c-0.2,0-0.4,0-0.6,0c-0.5,0-1-0.2-1.6-0.5
		c-0.5-0.3-0.9-0.7-1.1-1.1c-0.1-0.2-0.2-0.4-0.3-0.5c-0.1-0.1-0.1-0.3-0.2-0.5c-0.1-0.5-0.2-0.9-0.2-1.3c0-1.3,0.2-2.2,0.4-3.2
		c0.4-1.8,0.9-3.5,1.4-5.2c1-3.3,2.2-6.6,3.3-9.8c1.1-3.3,2.1-6.5,3.2-9.7c1-3.3,2-6.5,3-9.8c0.9-3.3,1.8-6.5,2.6-9.8l0.6-2.4
		c0.2-0.8,0.4-1.6,0.6-2.5l0.3-1.3c0.1-0.4,0.3-0.8,0.4-1.2l0.4-1.2c0.2-0.4,0.3-0.8,0.5-1.2c1.3-3.2,3-6.2,5-9
		c4-5.6,8.9-10.3,13.8-14.5c4.9-4.3,10-8.1,14.5-12.1c2.2-2,4.3-4,6.1-6.1c0.9-1.1,1.7-2.1,2.3-3.2l0.5-0.8l0.4-0.7l0.2-0.4
		c0.1-0.1,0.1-0.3,0.2-0.5l0.4-1c0.6-1.4,1.2-2.8,1.7-4.2c0.7-1.4,1.4-2.8,2.1-4.1c0.8-1.3,1.6-2.6,2.4-3.9c0.8-1.2,1.7-2.4,2.6-3.6
		C-6,3.9-2-0.1,2-3.6c8.1-7,16.5-11.9,24.2-15.7c1.9-0.9,3.8-1.8,5.6-2.6c1.8-0.8,3.6-1.5,5.3-2.2c3.4-1.3,6.6-2.5,9.5-3.4
		c5.8-1.8,10.4-2.9,13.6-3.6c3.2-0.7,4.9-0.9,4.9-0.9c0.2,0,0.5,0.1,0.5,0.4C65.6-31.4,65.4-31.2,65.3-31.2z"/>
	<path d="M9.5,30.4c0,0-12.3,0.3-11.8,6.7c0.9,5.2,10.8,7.3,12.9,2.3c2-4.6-3.9-5-2.6-7C9.2,30.5,9.5,30.4,9.5,30.4z"/>
	<polygon fill="#F14C27" points="74.3,116.9 -32.2,116.9 -32.2,101.1 -29.6,99.5 -29.6,114.3 71.7,114.3 71.7,17.9 -29.6,17.9 
		-29.6,38.2 -32.2,40.4 -32.2,15.3 74.3,15.3 	"/>
	<polygon fill="#F14C27" points="-29.5,89.3 -32.1,90.9 -32.1,47.6 -29.5,45.8 	"/>
</g>
</svg>
